<svg width="36" height="36" viewBox="0 0 36 36" fill="none" xmlns="http://www.w3.org/2000/svg">
<path d="M13.1429 16.5H20.8571M13.1429 21.6111H20.8571M23.4286 28H10.5714C9.88944 28 9.23539 27.7308 8.75315 27.2515C8.27092 26.7722 8 26.1222 8 25.4444V7.55556C8 6.87778 8.27092 6.22776 8.75315 5.7485C9.23539 5.26925 9.88944 5 10.5714 5H17.7534C18.0944 5.00007 18.4214 5.13474 18.6624 5.37439L25.6233 12.2923C25.8644 12.5319 25.9999 12.8568 26 13.1957V25.4444C26 26.1222 25.7291 26.7722 25.2468 27.2515C24.7646 27.7308 24.1106 28 23.4286 28Z" stroke="#818494" stroke-width="2" stroke-linecap="round" stroke-linejoin="round"/>
</svg>
