<svg width="33" height="33" viewBox="0 0 33 33" fill="none" xmlns="http://www.w3.org/2000/svg">
<path d="M21.9545 8.8H25.2273L23.5909 11L21.9545 8.8ZM6.68182 5.5H26.3182C26.8968 5.5 27.4518 5.73178 27.861 6.14437C28.2701 6.55694 28.5 7.11652 28.5 7.7V12.1C28.5 13.321 27.5291 14.3 26.3182 14.3H20.8636V25.3C20.8636 26.521 19.8927 27.5 18.6818 27.5H6.68182C6.10316 27.5 5.54821 27.2682 5.13904 26.8556C4.72987 26.4431 4.5 25.8835 4.5 25.3V7.7C4.5 6.49 5.48182 5.5 6.68182 5.5ZM6.68182 7.7V12.1H18.6818V7.7H6.68182ZM26.3182 12.1V7.7H20.8636V12.1H26.3182ZM6.68182 25.3H18.6818V14.3H6.68182V25.3ZM8.86364 16.5H16.5V18.7H8.86364V16.5ZM8.86364 20.9H16.5V23.1H8.86364V20.9Z" fill="#818494"/>
</svg>
