<svg width="36" height="36" viewBox="0 0 36 36" fill="none" xmlns="http://www.w3.org/2000/svg">
<path d="M7.36364 24.9C6.71364 24.9 6.157 24.6746 5.69373 24.2238C5.23046 23.773 4.99921 23.2317 5 22.6V8.8C5 8.1675 5.23164 7.62585 5.69491 7.17505C6.15818 6.72425 6.71443 6.49924 7.36364 6.5H26.2727C26.9227 6.5 27.4794 6.7254 27.9426 7.1762C28.4059 7.627 28.6371 8.16827 28.6364 8.8V14.55H26.2727V11.1L17.4386 16.4763C17.3401 16.5338 17.2365 16.5771 17.1278 16.6062C17.0191 16.6353 16.9159 16.6495 16.8182 16.6488C16.7197 16.6488 16.6161 16.6346 16.5074 16.6062C16.3986 16.5778 16.2954 16.5345 16.1977 16.4763L7.36364 11.1V22.6H19.1818V24.9H7.36364ZM16.8182 14.55L26.2727 8.8H7.36364L16.8182 14.55ZM26.2727 29.5C24.9727 29.5 23.8598 29.0496 22.9341 28.1488C22.0083 27.2479 21.5455 26.165 21.5455 24.9V19.725C21.5455 18.92 21.8311 18.2396 22.4023 17.6838C22.9735 17.1279 23.6727 16.85 24.5 16.85C25.3273 16.85 26.0265 17.1279 26.5977 17.6838C27.1689 18.2396 27.4545 18.92 27.4545 19.725V23.75C27.4545 24.0758 27.3411 24.3492 27.1142 24.57C26.8873 24.7908 26.6068 24.9008 26.2727 24.9C25.9379 24.9 25.657 24.7896 25.4301 24.5688C25.2032 24.348 25.0901 24.0751 25.0909 23.75V19.725C25.0909 19.5717 25.0318 19.4375 24.9136 19.3225C24.7955 19.2075 24.6576 19.15 24.5 19.15C24.3424 19.15 24.2045 19.2075 24.0864 19.3225C23.9682 19.4375 23.9091 19.5717 23.9091 19.725V24.9C23.9091 25.5325 24.1407 26.0742 24.604 26.525C25.0673 26.9758 25.6235 27.2008 26.2727 27.2C26.9227 27.2 27.4794 26.9746 27.9426 26.5238C28.4059 26.073 28.6371 25.5317 28.6364 24.9V21.45C28.6364 21.1242 28.7498 20.8509 28.9767 20.6301C29.2036 20.4093 29.4841 20.2992 29.8182 20.3C30.153 20.3 30.4339 20.4104 30.6608 20.6312C30.8877 20.852 31.0008 21.1249 31 21.45V24.9C31 26.165 30.5371 27.2479 29.6114 28.1488C28.6856 29.0496 27.5727 29.5 26.2727 29.5ZM7.36364 11.3875V9.72C7.36364 9.50917 7.36364 9.50917 7.36364 9.72V9.69125V11.3875Z" fill="#818494"/>
</svg>
