<svg width="36" height="36" viewBox="0 0 36 36" fill="none" xmlns="http://www.w3.org/2000/svg">
<path d="M30.25 8.8125V27.1875C30.25 27.9997 29.9273 28.7787 29.353 29.353C28.7787 29.9273 27.9997 30.25 27.1875 30.25H8.8125C8.00027 30.25 7.22132 29.9273 6.64699 29.353C6.07266 28.7787 5.75 27.9997 5.75 27.1875V8.8125C5.75 8.00027 6.07266 7.22132 6.64699 6.64699C7.22132 6.07266 8.00027 5.75 8.8125 5.75H27.1875C27.9997 5.75 28.7787 6.07266 29.353 6.64699C29.9273 7.22132 30.25 8.00027 30.25 8.8125ZM27.1875 8.8125H8.8125V18.5819L12.1659 15.2284L20.1744 23.2369L21.7056 21.7056C22.1713 21.3331 22.7576 21.1445 23.3531 21.1756C23.9487 21.2066 24.5121 21.4552 24.9366 21.8741L27.1875 24.125V8.8125ZM19.5312 14.1719C19.5312 13.5627 19.7732 12.9785 20.204 12.5477C20.6347 12.117 21.219 11.875 21.8281 11.875C22.4373 11.875 23.0215 12.117 23.4523 12.5477C23.883 12.9785 24.125 13.5627 24.125 14.1719C24.125 14.781 23.883 15.3653 23.4523 15.796C23.0215 16.2268 22.4373 16.4688 21.8281 16.4688C21.219 16.4688 20.6347 16.2268 20.204 15.796C19.7732 15.3653 19.5312 14.781 19.5312 14.1719Z" fill="#818494"/>
</svg>
