<svg width="36" height="36" viewBox="0 0 36 36" fill="none" xmlns="http://www.w3.org/2000/svg">
<path d="M31.5 10.125H24.75V12.375H31.5V16.875H27V19.125H31.5V23.625H24.75V25.875H31.5C32.0965 25.8741 32.6682 25.6368 33.09 25.215C33.5118 24.7932 33.7491 24.2215 33.75 23.625V12.375C33.7494 11.7784 33.5122 11.2065 33.0903 10.7847C32.6685 10.3628 32.0966 10.1256 31.5 10.125ZM22.5 25.875H13.5V19.125C13.5006 18.5284 13.7378 17.9565 14.1597 17.5347C14.5815 17.1128 15.1534 16.8756 15.75 16.875H20.25V12.375H13.5V10.125H20.25C20.8466 10.1256 21.4185 10.3628 21.8403 10.7847C22.2622 11.2065 22.4994 11.7784 22.5 12.375V16.875C22.4994 17.4716 22.2622 18.0435 21.8403 18.4653C21.4185 18.8872 20.8466 19.1244 20.25 19.125H15.75V23.625H22.5V25.875ZM2.8125 25.3125V24.1875H6.1875V11.8125H2.8125V10.6875H7.3125V24.1875H10.6875V25.3125H2.8125Z" fill="#818494"/>
<path d="M7.875 10.125H2.25V12.375H5.625V23.625H2.25V25.875H11.25V23.625H7.875V10.125Z" fill="#818494"/>
</svg>
