<svg width="34" height="34" viewBox="0 0 34 34" fill="none" xmlns="http://www.w3.org/2000/svg">
<rect x="0.5" y="0.5" width="33" height="33" rx="6.5" stroke="#919191"/>
<path d="M11.5835 26.75C10.9877 26.75 10.4774 26.5377 10.0527 26.113C9.62808 25.6883 9.41611 25.1784 9.41683 24.5833V10.5C9.10989 10.5 8.85242 10.396 8.64442 10.188C8.43642 9.98 8.33278 9.72289 8.3335 9.41667C8.3335 9.10973 8.4375 8.85225 8.6455 8.64425C8.8535 8.43625 9.11061 8.33261 9.41683 8.33334H13.7502C13.7502 8.02639 13.8542 7.76892 14.0622 7.56092C14.2702 7.35292 14.5273 7.24928 14.8335 7.25H19.1668C19.4738 7.25 19.7313 7.354 19.9393 7.562C20.1473 7.77 20.2509 8.02711 20.2502 8.33334H24.5835C24.8904 8.33334 25.1479 8.43734 25.3559 8.64534C25.5639 8.85334 25.6676 9.11045 25.6668 9.41667C25.6668 9.72361 25.5628 9.98109 25.3548 10.1891C25.1468 10.3971 24.8897 10.5007 24.5835 10.5V24.5833C24.5835 25.1792 24.3712 25.6894 23.9465 26.1141C23.5218 26.5388 23.0119 26.7507 22.4168 26.75H11.5835ZM11.5835 10.5V24.5833H22.4168V10.5H11.5835ZM13.7502 21.3333C13.7502 21.6403 13.8542 21.8978 14.0622 22.1058C14.2702 22.3138 14.5273 22.4174 14.8335 22.4167C15.1404 22.4167 15.3979 22.3127 15.6059 22.1047C15.8139 21.8967 15.9176 21.6396 15.9168 21.3333V13.75C15.9168 13.4431 15.8128 13.1856 15.6048 12.9776C15.3968 12.7696 15.1397 12.6659 14.8335 12.6667C14.5266 12.6667 14.2691 12.7707 14.0611 12.9787C13.8531 13.1867 13.7494 13.4438 13.7502 13.75V21.3333ZM18.0835 21.3333C18.0835 21.6403 18.1875 21.8978 18.3955 22.1058C18.6035 22.3138 18.8606 22.4174 19.1668 22.4167C19.4738 22.4167 19.7313 22.3127 19.9393 22.1047C20.1473 21.8967 20.2509 21.6396 20.2502 21.3333V13.75C20.2502 13.4431 20.1462 13.1856 19.9382 12.9776C19.7302 12.7696 19.4731 12.6659 19.1668 12.6667C18.8599 12.6667 18.6024 12.7707 18.3944 12.9787C18.1864 13.1867 18.0828 13.4438 18.0835 13.75V21.3333Z" fill="#DB3838"/>
</svg>
