<svg width="36" height="36" viewBox="0 0 36 36" fill="none" xmlns="http://www.w3.org/2000/svg">
<path d="M18 23.5C19.5217 23.5 20.8189 22.9636 21.8918 21.8907C22.9647 20.8178 23.5007 19.5209 23.5 18C23.5 16.4783 22.9636 15.1811 21.8907 14.1082C20.8178 13.0353 19.5209 12.4993 18 12.5C16.4783 12.5 15.1811 13.0364 14.1082 14.1093C13.0353 15.1822 12.4993 16.4791 12.5 18C12.5 19.5217 13.0364 20.8189 14.1093 21.8918C15.1822 22.9647 16.4791 23.5007 18 23.5ZM18 29C16.4783 29 15.0483 28.7111 13.71 28.1332C12.3717 27.5553 11.2075 26.7718 10.2175 25.7825C9.2275 24.7925 8.44393 23.6283 7.8668 22.29C7.28967 20.9517 7.00073 19.5217 7 18C7 16.4783 7.28893 15.0483 7.8668 13.71C8.44467 12.3717 9.22823 11.2075 10.2175 10.2175C11.2075 9.2275 12.3717 8.44393 13.71 7.8668C15.0483 7.28967 16.4783 7.00073 18 7C19.5217 7 20.9517 7.28893 22.29 7.8668C23.6283 8.44467 24.7925 9.22823 25.7825 10.2175C26.7725 11.2075 27.5564 12.3717 28.1343 13.71C28.7122 15.0483 29.0007 16.4783 29 18C29 19.5217 28.7111 20.9517 28.1332 22.29C27.5553 23.6283 26.7718 24.7925 25.7825 25.7825C24.7925 26.7725 23.6283 27.5564 22.29 28.1343C20.9517 28.7122 19.5217 29.0007 18 29ZM18 26.8C20.4567 26.8 22.5375 25.9475 24.2425 24.2425C25.9475 22.5375 26.8 20.4567 26.8 18C26.8 15.5433 25.9475 13.4625 24.2425 11.7575C22.5375 10.0525 20.4567 9.2 18 9.2C15.5433 9.2 13.4625 10.0525 11.7575 11.7575C10.0525 13.4625 9.2 15.5433 9.2 18C9.2 20.4567 10.0525 22.5375 11.7575 24.2425C13.4625 25.9475 15.5433 26.8 18 26.8Z" fill="#818494"/>
</svg>
