<svg width="33" height="33" viewBox="0 0 33 33" fill="none" xmlns="http://www.w3.org/2000/svg">
<path d="M6.875 24.75C6.875 25.5063 7.49375 26.125 8.25 26.125H24.75C25.5063 26.125 26.125 25.5063 26.125 24.75C26.125 23.9937 25.5063 23.375 24.75 23.375H8.25C7.49375 23.375 6.875 23.9937 6.875 24.75ZM13.0625 17.6H19.9375L20.845 19.8C21.0512 20.295 21.5325 20.625 22.0687 20.625C23.0175 20.625 23.65 19.6487 23.2788 18.7825L17.9438 6.44875C17.6963 5.87125 17.1325 5.5 16.5 5.5C15.8675 5.5 15.3037 5.87125 15.0562 6.44875L9.72125 18.7825C9.35 19.6487 9.99625 20.625 10.945 20.625C11.4813 20.625 11.9625 20.295 12.1688 19.8L13.0625 17.6ZM16.5 8.2225L19.0712 15.125H13.9288L16.5 8.2225Z" fill="#818494"/>
</svg>
