<svg width="710" height="444" viewBox="0 0 710 444" fill="none" xmlns="http://www.w3.org/2000/svg">
<path d="M24.2064 410.592V420H21.7744V410.592L14.9904 397.216H17.6144L22.9904 408.128L28.3024 397.216H30.9264L24.2064 410.592ZM46.0839 412.128C46.0839 413.344 45.9559 414.496 45.6999 415.584C45.4652 416.651 44.9532 417.589 44.1639 418.4C43.6092 418.955 42.9585 419.392 42.2119 419.712C41.4652 420.032 40.6119 420.192 39.6519 420.192C38.6919 420.192 37.8385 420.032 37.0919 419.712C36.3452 419.392 35.6945 418.955 35.1399 418.4C34.7345 417.995 34.4039 417.557 34.1479 417.088C33.9132 416.597 33.7212 416.096 33.5719 415.584C33.4439 415.051 33.3479 414.496 33.2839 413.92C33.2412 413.344 33.2199 412.747 33.2199 412.128C33.2199 411.531 33.2412 410.944 33.2839 410.368C33.3479 409.771 33.4439 409.216 33.5719 408.704C33.7212 408.171 33.9132 407.669 34.1479 407.2C34.4039 406.709 34.7345 406.261 35.1399 405.856C35.6945 405.301 36.3452 404.864 37.0919 404.544C37.8385 404.224 38.6919 404.064 39.6519 404.064C40.6119 404.064 41.4652 404.224 42.2119 404.544C42.9585 404.864 43.6092 405.301 44.1639 405.856C44.9532 406.667 45.4652 407.616 45.6999 408.704C45.9559 409.771 46.0839 410.912 46.0839 412.128ZM43.7799 412.128C43.7799 411.68 43.7692 411.232 43.7479 410.784C43.7265 410.336 43.6732 409.899 43.5879 409.472C43.5025 409.045 43.3745 408.651 43.2039 408.288C43.0332 407.904 42.8092 407.563 42.5319 407.264C41.7639 406.496 40.8039 406.112 39.6519 406.112C38.5212 406.112 37.5719 406.496 36.8039 407.264C36.5052 407.563 36.2705 407.904 36.0999 408.288C35.9505 408.651 35.8225 409.045 35.7159 409.472C35.6305 409.899 35.5772 410.336 35.5559 410.784C35.5345 411.232 35.5239 411.68 35.5239 412.128C35.5239 412.576 35.5345 413.024 35.5559 413.472C35.5772 413.92 35.6305 414.357 35.7159 414.784C35.8225 415.211 35.9505 415.616 36.0999 416C36.2705 416.384 36.5052 416.715 36.8039 416.992C37.5719 417.76 38.5212 418.144 39.6519 418.144C40.8039 418.144 41.7639 417.76 42.5319 416.992C42.8092 416.715 43.0332 416.384 43.2039 416C43.3745 415.616 43.5025 415.211 43.5879 414.784C43.6732 414.357 43.7265 413.92 43.7479 413.472C43.7692 413.024 43.7799 412.576 43.7799 412.128ZM60.9726 420V418.24C60.418 418.88 59.7566 419.371 58.9886 419.712C58.242 420.032 57.4206 420.192 56.5246 420.192C54.7966 420.192 53.442 419.701 52.4606 418.72C51.906 418.165 51.5006 417.525 51.2446 416.8C50.9886 416.053 50.8606 415.221 50.8606 414.304V404.256H53.1646V413.952C53.1646 415.36 53.506 416.416 54.1886 417.12C54.8713 417.803 55.81 418.144 57.0046 418.144C58.1993 418.144 59.1486 417.792 59.8526 417.088C60.578 416.384 60.9406 415.339 60.9406 413.952V404.256H63.2446V420H60.9726ZM86.3661 420V418.112C85.7261 418.944 85.0328 419.499 84.2861 419.776C83.5608 420.053 82.7608 420.192 81.8861 420.192C81.0755 420.192 80.3395 420.075 79.6781 419.84C79.0168 419.584 78.4728 419.243 78.0461 418.816C77.6408 418.411 77.3101 417.952 77.0541 417.44C76.8195 416.928 76.6275 416.384 76.4781 415.808C76.3501 415.211 76.2541 414.603 76.1901 413.984C76.1475 413.365 76.1261 412.747 76.1261 412.128C76.1261 411.509 76.1475 410.891 76.1901 410.272C76.2541 409.653 76.3501 409.056 76.4781 408.48C76.6275 407.883 76.8195 407.328 77.0541 406.816C77.3101 406.304 77.6408 405.845 78.0461 405.44C78.4728 405.013 79.0168 404.683 79.6781 404.448C80.3395 404.192 81.0755 404.064 81.8861 404.064C82.7608 404.064 83.5608 404.203 84.2861 404.48C85.0115 404.736 85.6941 405.269 86.3341 406.08V397.216H88.6381V420H86.3661ZM86.3341 412.128C86.3341 411.36 86.2915 410.613 86.2061 409.888C86.1208 409.163 85.9395 408.523 85.6621 407.968C85.3848 407.413 84.9795 406.965 84.4461 406.624C83.9341 406.283 83.2515 406.112 82.3981 406.112C81.5448 406.112 80.8515 406.283 80.3181 406.624C79.8061 406.965 79.4115 407.413 79.1341 407.968C78.8568 408.523 78.6648 409.163 78.5581 409.888C78.4728 410.613 78.4301 411.36 78.4301 412.128C78.4301 412.896 78.4728 413.643 78.5581 414.368C78.6648 415.093 78.8568 415.733 79.1341 416.288C79.4115 416.843 79.8061 417.291 80.3181 417.632C80.8515 417.973 81.5448 418.144 82.3981 418.144C83.2515 418.144 83.9341 417.973 84.4461 417.632C84.9795 417.291 85.3848 416.843 85.6621 416.288C85.9395 415.733 86.1208 415.093 86.2061 414.368C86.2915 413.643 86.3341 412.896 86.3341 412.128ZM106.428 412.128C106.428 413.344 106.3 414.496 106.044 415.584C105.809 416.651 105.297 417.589 104.508 418.4C103.953 418.955 103.302 419.392 102.556 419.712C101.809 420.032 100.956 420.192 99.9956 420.192C99.0356 420.192 98.1823 420.032 97.4356 419.712C96.689 419.392 96.0383 418.955 95.4836 418.4C95.0783 417.995 94.7476 417.557 94.4916 417.088C94.257 416.597 94.065 416.096 93.9156 415.584C93.7876 415.051 93.6916 414.496 93.6276 413.92C93.585 413.344 93.5636 412.747 93.5636 412.128C93.5636 411.531 93.585 410.944 93.6276 410.368C93.6916 409.771 93.7876 409.216 93.9156 408.704C94.065 408.171 94.257 407.669 94.4916 407.2C94.7476 406.709 95.0783 406.261 95.4836 405.856C96.0383 405.301 96.689 404.864 97.4356 404.544C98.1823 404.224 99.0356 404.064 99.9956 404.064C100.956 404.064 101.809 404.224 102.556 404.544C103.302 404.864 103.953 405.301 104.508 405.856C105.297 406.667 105.809 407.616 106.044 408.704C106.3 409.771 106.428 410.912 106.428 412.128ZM104.124 412.128C104.124 411.68 104.113 411.232 104.092 410.784C104.07 410.336 104.017 409.899 103.932 409.472C103.846 409.045 103.718 408.651 103.548 408.288C103.377 407.904 103.153 407.563 102.876 407.264C102.108 406.496 101.148 406.112 99.9956 406.112C98.865 406.112 97.9156 406.496 97.1476 407.264C96.849 407.563 96.6143 407.904 96.4436 408.288C96.2943 408.651 96.1663 409.045 96.0596 409.472C95.9743 409.899 95.921 410.336 95.8996 410.784C95.8783 411.232 95.8676 411.68 95.8676 412.128C95.8676 412.576 95.8783 413.024 95.8996 413.472C95.921 413.92 95.9743 414.357 96.0596 414.784C96.1663 415.211 96.2943 415.616 96.4436 416C96.6143 416.384 96.849 416.715 97.1476 416.992C97.9156 417.76 98.865 418.144 99.9956 418.144C101.148 418.144 102.108 417.76 102.876 416.992C103.153 416.715 103.377 416.384 103.548 416C103.718 415.616 103.846 415.211 103.932 414.784C104.017 414.357 104.07 413.92 104.092 413.472C104.113 413.024 104.124 412.576 104.124 412.128ZM121.444 420V410.304C121.444 408.896 121.092 407.851 120.388 407.168C119.706 406.464 118.767 406.112 117.572 406.112C116.378 406.112 115.428 406.464 114.724 407.168C114.02 407.872 113.668 408.917 113.668 410.304V420H111.364V404.256H113.668V405.984C114.223 405.344 114.874 404.864 115.62 404.544C116.367 404.224 117.188 404.064 118.084 404.064C119.791 404.064 121.135 404.555 122.116 405.536C123.204 406.603 123.748 408.064 123.748 409.92V420H121.444ZM129.269 402.656V397.216H131.797V402.656H129.269ZM141.905 420C141.223 420 140.625 419.893 140.113 419.68C139.623 419.445 139.207 419.136 138.865 418.752C138.545 418.368 138.3 417.92 138.129 417.408C137.959 416.896 137.873 416.352 137.873 415.776V406.112H135.889V404.352H137.873V399.424H140.177V404.352H143.537V406.112H140.177V415.712C140.177 416.437 140.348 417.003 140.689 417.408C141.031 417.813 141.575 418.016 142.321 418.016H143.537V420H141.905ZM166.163 420V410.272C166.163 408.885 165.822 407.851 165.139 407.168C164.456 406.464 163.518 406.112 162.323 406.112C161.128 406.112 160.168 406.464 159.443 407.168C158.739 407.872 158.387 408.907 158.387 410.272V420H156.083V397.216H158.387V405.984C159.518 404.704 160.99 404.064 162.803 404.064C164.595 404.064 165.982 404.587 166.963 405.632C167.966 406.677 168.467 408.096 168.467 409.888V420H166.163ZM182.98 420V418.496C182.34 419.136 181.679 419.584 180.996 419.84C180.335 420.075 179.481 420.192 178.436 420.192C177.348 420.192 176.452 420.085 175.748 419.872C175.065 419.637 174.479 419.264 173.988 418.752C173.604 418.368 173.305 417.899 173.092 417.344C172.9 416.768 172.804 416.171 172.804 415.552C172.804 414.165 173.263 413.067 174.18 412.256C175.119 411.424 176.473 411.008 178.244 411.008H182.98V409.504C182.98 408.352 182.671 407.488 182.052 406.912C181.433 406.336 180.399 406.048 178.948 406.048C177.924 406.048 177.124 406.187 176.548 406.464C175.972 406.72 175.449 407.179 174.98 407.84L173.412 406.4C174.116 405.483 174.895 404.864 175.748 404.544C176.623 404.224 177.7 404.064 178.98 404.064C181.113 404.064 182.692 404.512 183.716 405.408C184.761 406.283 185.284 407.584 185.284 409.312V420H182.98ZM182.98 412.736H178.564C176.217 412.736 175.044 413.664 175.044 415.52C175.044 416.437 175.332 417.12 175.908 417.568C176.484 417.995 177.401 418.208 178.66 418.208C179.343 418.208 179.972 418.155 180.548 418.048C181.145 417.941 181.689 417.643 182.18 417.152C182.713 416.64 182.98 415.733 182.98 414.432V412.736ZM196.176 420H194.128L188.368 404.256H190.864L195.152 416.896L199.472 404.256H201.968L196.176 420ZM206.648 412.736C206.648 414.464 207.043 415.808 207.832 416.768C208.621 417.707 209.773 418.176 211.288 418.176C212.205 418.176 212.963 418.037 213.56 417.76C214.179 417.461 214.797 417.003 215.416 416.384L216.984 417.76C216.579 418.165 216.173 418.517 215.768 418.816C215.384 419.115 214.968 419.371 214.52 419.584C214.072 419.776 213.571 419.925 213.016 420.032C212.483 420.139 211.885 420.192 211.224 420.192C210.179 420.192 209.229 420.032 208.376 419.712C207.544 419.392 206.829 418.901 206.232 418.24C205.635 417.579 205.165 416.747 204.824 415.744C204.504 414.72 204.344 413.515 204.344 412.128C204.344 409.568 204.92 407.584 206.072 406.176C207.224 404.768 208.803 404.064 210.808 404.064C212.856 404.064 214.445 404.747 215.576 406.112C216.707 407.477 217.272 409.333 217.272 411.68V412.736H206.648ZM214.968 411.008C214.947 410.688 214.925 410.411 214.904 410.176C214.883 409.941 214.851 409.728 214.808 409.536C214.787 409.344 214.744 409.163 214.68 408.992C214.637 408.8 214.573 408.597 214.488 408.384C214.189 407.659 213.709 407.083 213.048 406.656C212.387 406.229 211.64 406.016 210.808 406.016C209.976 406.016 209.229 406.229 208.568 406.656C207.907 407.083 207.427 407.659 207.128 408.384C206.957 408.811 206.84 409.195 206.776 409.536C206.712 409.877 206.669 410.368 206.648 411.008H214.968ZM234.562 420C233.879 420 233.282 419.893 232.77 419.68C232.279 419.445 231.863 419.136 231.522 418.752C231.202 418.368 230.956 417.92 230.786 417.408C230.615 416.896 230.53 416.352 230.53 415.776V406.112H228.546V404.352H230.53V399.424H232.834V404.352H236.194V406.112H232.834V415.712C232.834 416.437 233.004 417.003 233.346 417.408C233.687 417.813 234.231 418.016 234.978 418.016H236.194V420H234.562ZM250.851 420V410.272C250.851 408.885 250.509 407.851 249.827 407.168C249.144 406.464 248.205 406.112 247.011 406.112C245.816 406.112 244.856 406.464 244.131 407.168C243.427 407.872 243.075 408.907 243.075 410.272V420H240.771V397.216H243.075V405.984C244.205 404.704 245.677 404.064 247.491 404.064C249.283 404.064 250.669 404.587 251.651 405.632C252.653 406.677 253.155 408.096 253.155 409.888V420H250.851ZM260.179 412.736C260.179 414.464 260.574 415.808 261.363 416.768C262.153 417.707 263.305 418.176 264.819 418.176C265.737 418.176 266.494 418.037 267.091 417.76C267.71 417.461 268.329 417.003 268.947 416.384L270.515 417.76C270.11 418.165 269.705 418.517 269.299 418.816C268.915 419.115 268.499 419.371 268.051 419.584C267.603 419.776 267.102 419.925 266.547 420.032C266.014 420.139 265.417 420.192 264.755 420.192C263.71 420.192 262.761 420.032 261.907 419.712C261.075 419.392 260.361 418.901 259.763 418.24C259.166 417.579 258.697 416.747 258.355 415.744C258.035 414.72 257.875 413.515 257.875 412.128C257.875 409.568 258.451 407.584 259.603 406.176C260.755 404.768 262.334 404.064 264.339 404.064C266.387 404.064 267.977 404.747 269.107 406.112C270.238 407.477 270.803 409.333 270.803 411.68V412.736H260.179ZM268.499 411.008C268.478 410.688 268.457 410.411 268.435 410.176C268.414 409.941 268.382 409.728 268.339 409.536C268.318 409.344 268.275 409.163 268.211 408.992C268.169 408.8 268.105 408.597 268.019 408.384C267.721 407.659 267.241 407.083 266.579 406.656C265.918 406.229 265.171 406.016 264.339 406.016C263.507 406.016 262.761 406.229 262.099 406.656C261.438 407.083 260.958 407.659 260.659 408.384C260.489 408.811 260.371 409.195 260.307 409.536C260.243 409.877 260.201 410.368 260.179 411.008H268.499ZM296.189 412.128C296.189 412.747 296.157 413.365 296.093 413.984C296.05 414.603 295.954 415.211 295.805 415.808C295.677 416.384 295.485 416.928 295.229 417.44C294.994 417.952 294.674 418.411 294.269 418.816C293.842 419.243 293.298 419.584 292.637 419.84C291.976 420.075 291.24 420.192 290.429 420.192C289.554 420.192 288.754 420.053 288.029 419.776C287.304 419.499 286.621 418.955 285.981 418.144V427.04H283.677V404.256H285.981V406.112C286.621 405.28 287.304 404.736 288.029 404.48C288.754 404.203 289.554 404.064 290.429 404.064C291.24 404.064 291.976 404.192 292.637 404.448C293.298 404.683 293.842 405.013 294.269 405.44C294.674 405.845 294.994 406.304 295.229 406.816C295.485 407.328 295.677 407.883 295.805 408.48C295.954 409.056 296.05 409.653 296.093 410.272C296.157 410.891 296.189 411.509 296.189 412.128ZM293.885 412.128C293.885 411.36 293.842 410.613 293.757 409.888C293.672 409.163 293.49 408.523 293.213 407.968C292.936 407.413 292.53 406.965 291.997 406.624C291.485 406.283 290.802 406.112 289.949 406.112C289.096 406.112 288.402 406.283 287.869 406.624C287.357 406.965 286.962 407.413 286.685 407.968C286.408 408.523 286.216 409.163 286.109 409.888C286.024 410.613 285.981 411.36 285.981 412.128C285.981 412.896 286.024 413.643 286.109 414.368C286.216 415.093 286.408 415.733 286.685 416.288C286.962 416.843 287.357 417.291 287.869 417.632C288.402 417.973 289.096 418.144 289.949 418.144C290.802 418.144 291.485 417.973 291.997 417.632C292.53 417.291 292.936 416.843 293.213 416.288C293.49 415.733 293.672 415.093 293.757 414.368C293.842 413.643 293.885 412.896 293.885 412.128ZM302.554 412.736C302.554 414.464 302.949 415.808 303.738 416.768C304.528 417.707 305.68 418.176 307.194 418.176C308.112 418.176 308.869 418.037 309.466 417.76C310.085 417.461 310.704 417.003 311.322 416.384L312.89 417.76C312.485 418.165 312.08 418.517 311.674 418.816C311.29 419.115 310.874 419.371 310.426 419.584C309.978 419.776 309.477 419.925 308.922 420.032C308.389 420.139 307.792 420.192 307.13 420.192C306.085 420.192 305.136 420.032 304.282 419.712C303.45 419.392 302.736 418.901 302.138 418.24C301.541 417.579 301.072 416.747 300.73 415.744C300.41 414.72 300.25 413.515 300.25 412.128C300.25 409.568 300.826 407.584 301.978 406.176C303.13 404.768 304.709 404.064 306.714 404.064C308.762 404.064 310.352 404.747 311.482 406.112C312.613 407.477 313.178 409.333 313.178 411.68V412.736H302.554ZM310.874 411.008C310.853 410.688 310.832 410.411 310.81 410.176C310.789 409.941 310.757 409.728 310.714 409.536C310.693 409.344 310.65 409.163 310.586 408.992C310.544 408.8 310.48 408.597 310.394 408.384C310.096 407.659 309.616 407.083 308.954 406.656C308.293 406.229 307.546 406.016 306.714 406.016C305.882 406.016 305.136 406.229 304.474 406.656C303.813 407.083 303.333 407.659 303.034 408.384C302.864 408.811 302.746 409.195 302.682 409.536C302.618 409.877 302.576 410.368 302.554 411.008H310.874ZM326.883 407.264C326.456 406.837 326.051 406.539 325.667 406.368C325.283 406.197 324.782 406.112 324.163 406.112C323.587 406.112 323.064 406.219 322.595 406.432C322.126 406.645 321.731 406.944 321.411 407.328C321.091 407.712 320.835 408.16 320.643 408.672C320.472 409.184 320.387 409.739 320.387 410.336V420H318.083V404.256H320.387V406.176C320.814 405.515 321.422 405.003 322.211 404.64C323.022 404.256 323.886 404.064 324.803 404.064C325.55 404.064 326.222 404.171 326.819 404.384C327.438 404.597 328.024 404.981 328.579 405.536L326.883 407.264ZM351.776 420V410.304C351.776 408.896 351.424 407.851 350.72 407.168C350.037 406.464 349.099 406.112 347.904 406.112C346.752 406.112 345.803 406.453 345.056 407.136C344.331 407.819 343.968 408.789 343.968 410.048V420H341.664V410.304C341.664 408.896 341.312 407.851 340.608 407.168C339.925 406.464 338.987 406.112 337.792 406.112C336.597 406.112 335.637 406.464 334.912 407.168C334.208 407.872 333.856 408.917 333.856 410.304V420H331.552V404.256H333.856V405.984C334.411 405.344 335.061 404.864 335.808 404.544C336.576 404.224 337.408 404.064 338.304 404.064C339.392 404.064 340.341 404.288 341.152 404.736C341.984 405.163 342.645 405.813 343.136 406.688C344.373 404.939 346.101 404.064 348.32 404.064C349.173 404.064 349.941 404.192 350.624 404.448C351.307 404.704 351.893 405.067 352.384 405.536C353.515 406.624 354.08 408.085 354.08 409.92V420H351.776ZM359.549 399.776V397.184H362.141V399.776H359.549ZM359.677 420V404.256H361.981V420H359.677ZM379.131 415.392C379.131 416.16 378.971 416.843 378.651 417.44C378.352 418.016 377.915 418.517 377.339 418.944C376.784 419.349 376.112 419.659 375.323 419.872C374.555 420.085 373.691 420.192 372.731 420.192C371.387 420.192 370.192 420.021 369.147 419.68C368.101 419.339 367.141 418.752 366.267 417.92L367.803 416.384C368.421 417.045 369.147 417.515 369.979 417.792C370.811 418.069 371.717 418.208 372.699 418.208C374 418.208 375.024 417.984 375.771 417.536C376.517 417.067 376.891 416.363 376.891 415.424C376.891 414.741 376.677 414.208 376.251 413.824C375.845 413.44 375.184 413.205 374.267 413.12L371.675 412.896C370.139 412.768 368.965 412.363 368.155 411.68C367.365 410.976 366.971 409.973 366.971 408.672C366.971 407.947 367.109 407.307 367.387 406.752C367.685 406.176 368.091 405.696 368.603 405.312C369.115 404.907 369.723 404.597 370.427 404.384C371.152 404.171 371.931 404.064 372.763 404.064C373.893 404.064 374.939 404.203 375.899 404.48C376.88 404.757 377.723 405.184 378.427 405.76L376.923 407.264C376.368 406.837 375.728 406.528 375.003 406.336C374.299 406.123 373.541 406.016 372.731 406.016C371.579 406.016 370.704 406.251 370.107 406.72C369.509 407.168 369.211 407.797 369.211 408.608C369.211 409.291 369.413 409.824 369.819 410.208C370.245 410.592 370.96 410.827 371.963 410.912L374.491 411.136C375.173 411.2 375.803 411.317 376.379 411.488C376.955 411.659 377.445 411.915 377.851 412.256C378.256 412.597 378.565 413.024 378.779 413.536C379.013 414.048 379.131 414.667 379.131 415.392ZM395.006 415.392C395.006 416.16 394.846 416.843 394.526 417.44C394.227 418.016 393.79 418.517 393.214 418.944C392.659 419.349 391.987 419.659 391.198 419.872C390.43 420.085 389.566 420.192 388.606 420.192C387.262 420.192 386.067 420.021 385.022 419.68C383.976 419.339 383.016 418.752 382.142 417.92L383.678 416.384C384.296 417.045 385.022 417.515 385.854 417.792C386.686 418.069 387.592 418.208 388.574 418.208C389.875 418.208 390.899 417.984 391.646 417.536C392.392 417.067 392.766 416.363 392.766 415.424C392.766 414.741 392.552 414.208 392.126 413.824C391.72 413.44 391.059 413.205 390.142 413.12L387.55 412.896C386.014 412.768 384.84 412.363 384.03 411.68C383.24 410.976 382.846 409.973 382.846 408.672C382.846 407.947 382.984 407.307 383.262 406.752C383.56 406.176 383.966 405.696 384.478 405.312C384.99 404.907 385.598 404.597 386.302 404.384C387.027 404.171 387.806 404.064 388.638 404.064C389.768 404.064 390.814 404.203 391.774 404.48C392.755 404.757 393.598 405.184 394.302 405.76L392.798 407.264C392.243 406.837 391.603 406.528 390.878 406.336C390.174 406.123 389.416 406.016 388.606 406.016C387.454 406.016 386.579 406.251 385.982 406.72C385.384 407.168 385.086 407.797 385.086 408.608C385.086 409.291 385.288 409.824 385.694 410.208C386.12 410.592 386.835 410.827 387.838 410.912L390.366 411.136C391.048 411.2 391.678 411.317 392.254 411.488C392.83 411.659 393.32 411.915 393.726 412.256C394.131 412.597 394.44 413.024 394.654 413.536C394.888 414.048 395.006 414.667 395.006 415.392ZM399.393 399.776V397.184H401.985V399.776H399.393ZM399.521 420V404.256H401.825V420H399.521ZM419.646 412.128C419.646 413.344 419.518 414.496 419.262 415.584C419.028 416.651 418.516 417.589 417.726 418.4C417.172 418.955 416.521 419.392 415.774 419.712C415.028 420.032 414.174 420.192 413.214 420.192C412.254 420.192 411.401 420.032 410.654 419.712C409.908 419.392 409.257 418.955 408.702 418.4C408.297 417.995 407.966 417.557 407.71 417.088C407.476 416.597 407.284 416.096 407.134 415.584C407.006 415.051 406.91 414.496 406.846 413.92C406.804 413.344 406.782 412.747 406.782 412.128C406.782 411.531 406.804 410.944 406.846 410.368C406.91 409.771 407.006 409.216 407.134 408.704C407.284 408.171 407.476 407.669 407.71 407.2C407.966 406.709 408.297 406.261 408.702 405.856C409.257 405.301 409.908 404.864 410.654 404.544C411.401 404.224 412.254 404.064 413.214 404.064C414.174 404.064 415.028 404.224 415.774 404.544C416.521 404.864 417.172 405.301 417.726 405.856C418.516 406.667 419.028 407.616 419.262 408.704C419.518 409.771 419.646 410.912 419.646 412.128ZM417.342 412.128C417.342 411.68 417.332 411.232 417.31 410.784C417.289 410.336 417.236 409.899 417.15 409.472C417.065 409.045 416.937 408.651 416.766 408.288C416.596 407.904 416.372 407.563 416.094 407.264C415.326 406.496 414.366 406.112 413.214 406.112C412.084 406.112 411.134 406.496 410.366 407.264C410.068 407.563 409.833 407.904 409.662 408.288C409.513 408.651 409.385 409.045 409.278 409.472C409.193 409.899 409.14 410.336 409.118 410.784C409.097 411.232 409.086 411.68 409.086 412.128C409.086 412.576 409.097 413.024 409.118 413.472C409.14 413.92 409.193 414.357 409.278 414.784C409.385 415.211 409.513 415.616 409.662 416C409.833 416.384 410.068 416.715 410.366 416.992C411.134 417.76 412.084 418.144 413.214 418.144C414.366 418.144 415.326 417.76 416.094 416.992C416.372 416.715 416.596 416.384 416.766 416C416.937 415.616 417.065 415.211 417.15 414.784C417.236 414.357 417.289 413.92 417.31 413.472C417.332 413.024 417.342 412.576 417.342 412.128ZM434.663 420V410.304C434.663 408.896 434.311 407.851 433.607 407.168C432.924 406.464 431.986 406.112 430.791 406.112C429.596 406.112 428.647 406.464 427.943 407.168C427.239 407.872 426.887 408.917 426.887 410.304V420H424.583V404.256H426.887V405.984C427.442 405.344 428.092 404.864 428.839 404.544C429.586 404.224 430.407 404.064 431.303 404.064C433.01 404.064 434.354 404.555 435.335 405.536C436.423 406.603 436.967 408.064 436.967 409.92V420H434.663ZM454.937 420C454.254 420 453.657 419.893 453.145 419.68C452.654 419.445 452.238 419.136 451.897 418.752C451.577 418.368 451.331 417.92 451.161 417.408C450.99 416.896 450.905 416.352 450.905 415.776V406.112H448.921V404.352H450.905V399.424H453.209V404.352H456.569V406.112H453.209V415.712C453.209 416.437 453.379 417.003 453.721 417.408C454.062 417.813 454.606 418.016 455.353 418.016H456.569V420H454.937ZM473.178 412.128C473.178 413.344 473.05 414.496 472.794 415.584C472.559 416.651 472.047 417.589 471.258 418.4C470.703 418.955 470.052 419.392 469.306 419.712C468.559 420.032 467.706 420.192 466.746 420.192C465.786 420.192 464.932 420.032 464.186 419.712C463.439 419.392 462.788 418.955 462.234 418.4C461.828 417.995 461.498 417.557 461.242 417.088C461.007 416.597 460.815 416.096 460.666 415.584C460.538 415.051 460.442 414.496 460.378 413.92C460.335 413.344 460.314 412.747 460.314 412.128C460.314 411.531 460.335 410.944 460.378 410.368C460.442 409.771 460.538 409.216 460.666 408.704C460.815 408.171 461.007 407.669 461.242 407.2C461.498 406.709 461.828 406.261 462.234 405.856C462.788 405.301 463.439 404.864 464.186 404.544C464.932 404.224 465.786 404.064 466.746 404.064C467.706 404.064 468.559 404.224 469.306 404.544C470.052 404.864 470.703 405.301 471.258 405.856C472.047 406.667 472.559 407.616 472.794 408.704C473.05 409.771 473.178 410.912 473.178 412.128ZM470.874 412.128C470.874 411.68 470.863 411.232 470.842 410.784C470.82 410.336 470.767 409.899 470.682 409.472C470.596 409.045 470.468 408.651 470.298 408.288C470.127 407.904 469.903 407.563 469.626 407.264C468.858 406.496 467.898 406.112 466.746 406.112C465.615 406.112 464.666 406.496 463.898 407.264C463.599 407.563 463.364 407.904 463.194 408.288C463.044 408.651 462.916 409.045 462.81 409.472C462.724 409.899 462.671 410.336 462.65 410.784C462.628 411.232 462.618 411.68 462.618 412.128C462.618 412.576 462.628 413.024 462.65 413.472C462.671 413.92 462.724 414.357 462.81 414.784C462.916 415.211 463.044 415.616 463.194 416C463.364 416.384 463.599 416.715 463.898 416.992C464.666 417.76 465.615 418.144 466.746 418.144C467.898 418.144 468.858 417.76 469.626 416.992C469.903 416.715 470.127 416.384 470.298 416C470.468 415.616 470.596 415.211 470.682 414.784C470.767 414.357 470.82 413.92 470.842 413.472C470.863 413.024 470.874 412.576 470.874 412.128ZM491.363 420H489.315L483.555 404.256H486.051L490.339 416.896L494.659 404.256H497.155L491.363 420ZM500.268 399.776V397.184H502.86V399.776H500.268ZM500.396 420V404.256H502.7V420H500.396ZM509.929 412.736C509.929 414.464 510.324 415.808 511.113 416.768C511.903 417.707 513.055 418.176 514.569 418.176C515.487 418.176 516.244 418.037 516.841 417.76C517.46 417.461 518.079 417.003 518.697 416.384L520.265 417.76C519.86 418.165 519.455 418.517 519.049 418.816C518.665 419.115 518.249 419.371 517.801 419.584C517.353 419.776 516.852 419.925 516.297 420.032C515.764 420.139 515.167 420.192 514.505 420.192C513.46 420.192 512.511 420.032 511.657 419.712C510.825 419.392 510.111 418.901 509.513 418.24C508.916 417.579 508.447 416.747 508.105 415.744C507.785 414.72 507.625 413.515 507.625 412.128C507.625 409.568 508.201 407.584 509.353 406.176C510.505 404.768 512.084 404.064 514.089 404.064C516.137 404.064 517.727 404.747 518.857 406.112C519.988 407.477 520.553 409.333 520.553 411.68V412.736H509.929ZM518.249 411.008C518.228 410.688 518.207 410.411 518.185 410.176C518.164 409.941 518.132 409.728 518.089 409.536C518.068 409.344 518.025 409.163 517.961 408.992C517.919 408.8 517.855 408.597 517.769 408.384C517.471 407.659 516.991 407.083 516.329 406.656C515.668 406.229 514.921 406.016 514.089 406.016C513.257 406.016 512.511 406.229 511.849 406.656C511.188 407.083 510.708 407.659 510.409 408.384C510.239 408.811 510.121 409.195 510.057 409.536C509.993 409.877 509.951 410.368 509.929 411.008H518.249ZM540.434 420H538.29L534.162 407.776L530.066 420H527.922L522.93 404.256H525.426L529.042 416.896L533.17 404.256H535.154L539.314 416.896L542.898 404.256H545.394L540.434 420ZM560.999 420C560.316 420 559.719 419.893 559.207 419.68C558.716 419.445 558.3 419.136 557.959 418.752C557.639 418.368 557.394 417.92 557.223 417.408C557.052 416.896 556.967 416.352 556.967 415.776V406.112H554.983V404.352H556.967V399.424H559.271V404.352H562.631V406.112H559.271V415.712C559.271 416.437 559.442 417.003 559.783 417.408C560.124 417.813 560.668 418.016 561.415 418.016H562.631V420H560.999ZM577.288 420V410.272C577.288 408.885 576.947 407.851 576.264 407.168C575.581 406.464 574.643 406.112 573.448 406.112C572.253 406.112 571.293 406.464 570.568 407.168C569.864 407.872 569.512 408.907 569.512 410.272V420H567.208V397.216H569.512V405.984C570.643 404.704 572.115 404.064 573.928 404.064C575.72 404.064 577.107 404.587 578.088 405.632C579.091 406.677 579.592 408.096 579.592 409.888V420H577.288ZM585.049 399.776V397.184H587.641V399.776H585.049ZM585.177 420V404.256H587.481V420H585.177ZM604.631 415.392C604.631 416.16 604.471 416.843 604.151 417.44C603.852 418.016 603.415 418.517 602.839 418.944C602.284 419.349 601.612 419.659 600.823 419.872C600.055 420.085 599.191 420.192 598.231 420.192C596.887 420.192 595.692 420.021 594.647 419.68C593.601 419.339 592.641 418.752 591.767 417.92L593.303 416.384C593.921 417.045 594.647 417.515 595.479 417.792C596.311 418.069 597.217 418.208 598.199 418.208C599.5 418.208 600.524 417.984 601.271 417.536C602.017 417.067 602.391 416.363 602.391 415.424C602.391 414.741 602.177 414.208 601.751 413.824C601.345 413.44 600.684 413.205 599.767 413.12L597.175 412.896C595.639 412.768 594.465 412.363 593.655 411.68C592.865 410.976 592.471 409.973 592.471 408.672C592.471 407.947 592.609 407.307 592.887 406.752C593.185 406.176 593.591 405.696 594.103 405.312C594.615 404.907 595.223 404.597 595.927 404.384C596.652 404.171 597.431 404.064 598.263 404.064C599.393 404.064 600.439 404.203 601.399 404.48C602.38 404.757 603.223 405.184 603.927 405.76L602.423 407.264C601.868 406.837 601.228 406.528 600.503 406.336C599.799 406.123 599.041 406.016 598.231 406.016C597.079 406.016 596.204 406.251 595.607 406.72C595.009 407.168 594.711 407.797 594.711 408.608C594.711 409.291 594.913 409.824 595.319 410.208C595.745 410.592 596.46 410.827 597.463 410.912L599.991 411.136C600.673 411.2 601.303 411.317 601.879 411.488C602.455 411.659 602.945 411.915 603.351 412.256C603.756 412.597 604.065 413.024 604.279 413.536C604.513 414.048 604.631 414.667 604.631 415.392ZM637.338 420V410.304C637.338 408.896 636.986 407.851 636.282 407.168C635.6 406.464 634.661 406.112 633.466 406.112C632.314 406.112 631.365 406.453 630.618 407.136C629.893 407.819 629.53 408.789 629.53 410.048V420H627.226V410.304C627.226 408.896 626.874 407.851 626.17 407.168C625.488 406.464 624.549 406.112 623.354 406.112C622.16 406.112 621.2 406.464 620.474 407.168C619.77 407.872 619.418 408.917 619.418 410.304V420H617.114V404.256H619.418V405.984C619.973 405.344 620.624 404.864 621.37 404.544C622.138 404.224 622.97 404.064 623.866 404.064C624.954 404.064 625.904 404.288 626.714 404.736C627.546 405.163 628.208 405.813 628.698 406.688C629.936 404.939 631.664 404.064 633.882 404.064C634.736 404.064 635.504 404.192 636.186 404.448C636.869 404.704 637.456 405.067 637.946 405.536C639.077 406.624 639.642 408.085 639.642 409.92V420H637.338ZM646.679 412.736C646.679 414.464 647.074 415.808 647.863 416.768C648.653 417.707 649.805 418.176 651.319 418.176C652.237 418.176 652.994 418.037 653.591 417.76C654.21 417.461 654.829 417.003 655.447 416.384L657.015 417.76C656.61 418.165 656.205 418.517 655.799 418.816C655.415 419.115 654.999 419.371 654.551 419.584C654.103 419.776 653.602 419.925 653.047 420.032C652.514 420.139 651.917 420.192 651.255 420.192C650.21 420.192 649.261 420.032 648.407 419.712C647.575 419.392 646.861 418.901 646.263 418.24C645.666 417.579 645.197 416.747 644.855 415.744C644.535 414.72 644.375 413.515 644.375 412.128C644.375 409.568 644.951 407.584 646.103 406.176C647.255 404.768 648.834 404.064 650.839 404.064C652.887 404.064 654.477 404.747 655.607 406.112C656.738 407.477 657.303 409.333 657.303 411.68V412.736H646.679ZM654.999 411.008C654.978 410.688 654.957 410.411 654.935 410.176C654.914 409.941 654.882 409.728 654.839 409.536C654.818 409.344 654.775 409.163 654.711 408.992C654.669 408.8 654.605 408.597 654.519 408.384C654.221 407.659 653.741 407.083 653.079 406.656C652.418 406.229 651.671 406.016 650.839 406.016C650.007 406.016 649.261 406.229 648.599 406.656C647.938 407.083 647.458 407.659 647.159 408.384C646.989 408.811 646.871 409.195 646.807 409.536C646.743 409.877 646.701 410.368 646.679 411.008H654.999ZM672.288 420V410.304C672.288 408.896 671.936 407.851 671.232 407.168C670.549 406.464 669.611 406.112 668.416 406.112C667.221 406.112 666.272 406.464 665.568 407.168C664.864 407.872 664.512 408.917 664.512 410.304V420H662.208V404.256H664.512V405.984C665.067 405.344 665.717 404.864 666.464 404.544C667.211 404.224 668.032 404.064 668.928 404.064C670.635 404.064 671.979 404.555 672.96 405.536C674.048 406.603 674.592 408.064 674.592 409.92V420H672.288ZM690.129 420V418.24C689.574 418.88 688.913 419.371 688.145 419.712C687.398 420.032 686.577 420.192 685.681 420.192C683.953 420.192 682.598 419.701 681.617 418.72C681.062 418.165 680.657 417.525 680.401 416.8C680.145 416.053 680.017 415.221 680.017 414.304V404.256H682.321V413.952C682.321 415.36 682.662 416.416 683.345 417.12C684.028 417.803 684.966 418.144 686.161 418.144C687.356 418.144 688.305 417.792 689.009 417.088C689.734 416.384 690.097 415.339 690.097 413.952V404.256H692.401V420H690.129Z" fill="#637488"/>
<g clip-path="url(#clip0_8410_1030)">
<path d="M466.895 87.0549H462.294V82.4548H459.03V87.0549H454.43V90.3202H459.03V94.9204H462.294V90.3202H466.895V87.0549Z" fill="#C0C9EA"/>
<path d="M439.163 69.7054H435.827V66.3688H433.459V69.7054H430.123V72.0734H433.459V75.4092H435.827V72.0734H439.163V69.7054Z" fill="#C0C9EA"/>
<path d="M295.022 123.806H291.685V120.469H289.318V123.806H285.982V126.173H289.318V129.51H291.685V126.173H295.022V123.806Z" fill="#C0C9EA"/>
<path d="M204.866 199.09H200.265V194.49H197.001V199.09H192.401V202.356H197.001V206.956H200.265V202.356H204.866V199.09Z" fill="#C0C9EA"/>
<path d="M518.873 119.285H515.537V115.949H513.169V119.285H509.833V121.653H513.169V124.989H515.537V121.653H518.873V119.285Z" fill="#C0C9EA"/>
<path d="M431.819 94.7915C431.819 96.3798 430.531 97.6685 428.941 97.6685C427.352 97.6685 426.064 96.3798 426.064 94.7915C426.064 93.2025 427.352 91.9139 428.941 91.9139C430.531 91.9139 431.819 93.2025 431.819 94.7915Z" fill="#EAEEF9"/>
<path d="M478.985 66.3687C478.985 67.2076 478.306 67.8879 477.466 67.8879C476.627 67.8879 475.947 67.2076 475.947 66.3687C475.947 65.5298 476.627 64.8502 477.466 64.8502C478.306 64.8502 478.985 65.5298 478.985 66.3687Z" fill="#EAEEF9"/>
<path d="M348.573 142.003C348.573 142.842 347.893 143.522 347.054 143.522C346.214 143.522 345.535 142.842 345.535 142.003C345.535 141.164 346.214 140.484 347.054 140.484C347.893 140.484 348.573 141.164 348.573 142.003Z" fill="#EAEEF9"/>
<path d="M501.019 91.6695C501.019 93.2585 499.731 94.5464 498.141 94.5464C496.552 94.5464 495.264 93.2585 495.264 91.6695C495.264 90.0804 496.552 88.7918 498.141 88.7918C499.731 88.7918 501.019 90.0804 501.019 91.6695Z" fill="#EAEEF9"/>
<path d="M325.364 116.522C325.364 117.361 324.683 118.041 323.844 118.041C323.006 118.041 322.325 117.361 322.325 116.522C322.325 115.682 323.006 115.003 323.844 115.003C324.683 115.003 325.364 115.682 325.364 116.522Z" fill="#EAEEF9"/>
<path d="M282.085 67.888C282.085 68.7276 281.405 69.4072 280.566 69.4072C279.727 69.4072 279.046 68.7276 279.046 67.888C279.046 67.0491 279.727 66.3687 280.566 66.3687C281.405 66.3687 282.085 67.0491 282.085 67.888Z" fill="#EAEEF9"/>
<path d="M216.897 157.293C216.897 158.882 215.609 160.17 214.019 160.17C212.431 160.17 211.143 158.882 211.143 157.293C211.143 155.704 212.431 154.416 214.019 154.416C215.609 154.416 216.897 155.704 216.897 157.293Z" fill="#EAEEF9"/>
<path d="M295.146 182.391C295.146 183.981 293.858 185.269 292.269 185.269C290.68 185.269 289.392 183.981 289.392 182.391C289.392 180.802 290.68 179.514 292.269 179.514C293.858 179.514 295.146 180.802 295.146 182.391Z" fill="#EAEEF9"/>
<path d="M221.553 82.8924C221.553 84.4814 220.265 85.7693 218.677 85.7693C217.087 85.7693 215.799 84.4814 215.799 82.8924C215.799 81.3033 217.087 80.0154 218.677 80.0154C220.265 80.0154 221.553 81.3033 221.553 82.8924Z" fill="#EAEEF9"/>
<path d="M189.212 223.28C189.212 224.119 188.531 224.799 187.693 224.799C186.853 224.799 186.173 224.119 186.173 223.28C186.173 222.441 186.853 221.761 187.693 221.761C188.531 221.761 189.212 222.441 189.212 223.28Z" fill="#EAEEF9"/>
<path d="M523.124 275.96C523.124 276.799 522.444 277.48 521.605 277.48C520.765 277.48 520.085 276.799 520.085 275.96C520.085 275.122 520.765 274.44 521.605 274.44C522.444 274.44 523.124 275.122 523.124 275.96Z" fill="#EAEEF9"/>
<path d="M526.425 307.614C526.425 320.155 450.159 330.32 356.08 330.32C262.002 330.32 185.735 320.155 185.735 307.614C185.735 295.075 262.002 284.91 356.08 284.91C450.159 284.91 526.425 295.075 526.425 307.614Z" fill="#E8EDF9"/>
<path d="M506.024 178.237C515.667 181.028 529.497 174.475 525.667 167.015C522.468 160.785 510.987 171.796 506.725 176.221C507.672 173.473 508.549 170.7 509.35 167.905C517.595 162.241 521.375 147.574 513.238 145.729C506.262 144.147 507.524 160.739 508.172 166.54C507.632 168.468 507.045 170.382 506.436 172.289C507.16 163.714 502.609 154.338 496.16 156.82C488.776 159.662 502.141 175.361 504.486 178.032C504.394 178.286 504.31 178.543 504.217 178.796C503.126 181.78 501.942 184.731 500.672 187.646C501.995 179.27 498.333 169.853 491.789 171.703C484.314 173.816 495.614 190.102 498.005 193.414C496.928 195.617 495.799 197.796 494.605 199.939C493.711 201.542 492.775 203.123 491.811 204.687C494.775 196.128 491.969 184.783 484.782 186.204C477.02 187.74 487.497 205.495 489.348 208.524C487.096 211.875 484.657 215.098 482.022 218.157C485.837 209.862 484.031 198.094 476.68 198.916C469.012 199.772 477.331 217.449 479.224 221.272C476.245 224.424 473.026 227.348 469.583 229.973C474.948 222.627 475.548 210.839 468.217 210.143C460.591 209.418 465.001 228.156 466.114 232.466C463.343 234.333 460.443 236.01 457.416 237.457C456.344 237.969 455.258 238.453 454.159 238.906C453.268 239.272 453.659 240.741 454.562 240.368C459.043 238.525 463.29 236.204 467.277 233.496C474.573 240.497 490.186 240.897 490.083 232.426C489.999 225.476 475.044 230.086 469.16 232.171C472.213 229.955 475.103 227.512 477.813 224.87C478.768 223.94 479.692 222.982 480.602 222.01C489.19 227.315 504.47 224.504 502.642 216.255C501.152 209.536 487.714 216.892 482.272 220.187C485.39 216.67 488.239 212.915 490.847 209.004C499.872 213.392 514.601 209.305 512.107 201.304C510.076 194.786 497.481 203.062 492.256 206.845C492.892 205.845 493.516 204.836 494.122 203.817C496.05 200.578 497.825 197.252 499.472 193.861C508.813 197.661 523.384 192.393 520.235 184.564C517.568 177.933 504.661 188.393 500.249 192.233C501.818 188.9 503.267 185.509 504.598 182.075C505.09 180.803 505.562 179.522 506.024 178.237Z" fill="#DDE0F3"/>
<path d="M218.394 245.714C217.872 235.689 207.151 224.767 201.357 230.829C196.519 235.892 210.681 243.135 216.259 245.713C213.352 245.717 210.445 245.797 207.542 245.956C199.49 240.02 184.394 241.251 185.315 249.544C186.105 256.653 201.369 250.028 206.638 247.516C208.636 247.394 210.637 247.321 212.639 247.274C204.299 249.398 196.93 256.767 201.388 262.048C206.491 268.094 216.948 250.325 218.703 247.234C218.973 247.238 219.243 247.234 219.513 247.238C222.69 247.293 225.867 247.444 229.035 247.69C220.689 249.183 212.991 255.726 216.882 261.304C221.327 267.676 233.013 251.664 235.359 248.321C237.794 248.616 240.222 248.969 242.638 249.397C244.446 249.716 246.247 250.083 248.04 250.482C238.982 250.483 229.181 256.85 232.878 263.175C236.87 270.006 250.215 254.293 252.47 251.551C256.374 252.583 260.219 253.831 263.972 255.318C254.885 254.43 244.358 259.991 247.542 266.668C250.862 273.633 264.84 259.984 267.832 256.942C271.786 258.724 275.602 260.809 279.211 263.202C270.512 260.539 259.178 263.832 260.92 270.986C262.733 278.43 278.994 268.126 282.702 265.664C285.374 267.669 287.908 269.861 290.266 272.248C291.102 273.093 291.915 273.96 292.702 274.85C293.34 275.571 294.6 274.722 293.952 273.99C290.742 270.361 287.159 267.107 283.294 264.228C287.521 255.041 282.785 240.158 274.814 243.029C268.274 245.386 277.529 258.005 281.426 262.882C278.332 260.723 275.077 258.791 271.693 257.096C270.503 256.499 269.294 255.94 268.078 255.399C270.277 245.546 262.618 232.029 255.422 236.459C249.562 240.068 260.913 250.355 265.808 254.418C261.465 252.624 256.983 251.162 252.433 249.978C253.624 240.014 244.939 227.436 238.196 232.412C232.703 236.467 244.647 245.656 249.933 249.354C248.778 249.081 247.621 248.822 246.46 248.582C242.769 247.822 239.044 247.234 235.302 246.788C235.833 236.717 226.083 224.675 219.717 230.215C214.325 234.906 228.435 243.676 233.509 246.587C229.845 246.196 226.167 245.937 222.487 245.805C221.123 245.756 219.759 245.73 218.394 245.714Z" fill="#DDE0F3"/>
<path d="M510.503 213.141C512.807 211.762 515.193 210.521 517.642 209.425C529.226 211.216 538.725 204.307 538.725 204.307C525.595 200.334 519.396 206.083 517.52 208.403C516.743 208.756 515.973 209.114 515.218 209.482C511.59 211.248 508.134 213.339 504.884 215.707C511.892 208.032 512.497 198.007 512.497 198.007C499.969 206.35 501.779 215.693 502.333 217.659C499.517 219.922 496.885 222.411 494.467 225.097C499.097 214.897 495.652 204.365 495.652 204.365C487.17 216.593 492.082 224.576 493.391 226.323C491.584 228.432 489.902 230.653 488.371 232.984C487.913 233.684 487.482 234.401 487.051 235.116C489.122 224.281 483.532 214.966 483.532 214.966C478.104 228.46 484.248 235.156 486.082 236.772C484.172 240.149 482.556 243.682 481.208 247.319C482.593 237.078 477.467 228.533 477.467 228.533C471.93 242.299 478.439 248.994 480.126 250.435C479.245 253.149 478.491 255.905 477.887 258.694C477.753 259.314 478.704 259.578 478.838 258.957C479.793 254.546 481.107 250.232 482.773 246.079C494.676 245.611 502.713 236.718 502.713 236.718C491.638 235.756 486.331 240.105 483.993 243.202C485.33 240.232 486.864 237.36 488.588 234.606C500.243 236.89 510.096 230.144 510.096 230.144C499.161 226.494 492.928 229.845 490.063 232.353C491.873 229.704 493.874 227.182 496.071 224.811C507.324 228.449 517.874 222.993 517.874 222.993C508.439 218.492 502.136 220.177 498.693 222.125C499.372 221.473 500.069 220.833 500.782 220.21C502.785 218.456 504.902 216.825 507.107 215.319C517.519 221.049 528.967 217.613 528.967 217.613C520.694 211.568 514.28 211.922 510.503 213.141Z" fill="#F35B5B"/>
<path d="M214.946 283.536C212.262 283.545 209.576 283.393 206.911 283.083C197.869 275.624 186.173 276.708 186.173 276.708C195.43 286.833 203.695 285.058 206.494 284.024C207.341 284.118 208.187 284.203 209.024 284.273C213.045 284.608 217.084 284.578 221.087 284.202C211.141 287.219 205.498 295.526 205.498 295.526C220.53 294.757 223.749 285.802 224.278 283.829C227.855 283.322 231.388 282.528 234.84 281.454C225.648 287.856 223.226 298.67 223.226 298.67C236.766 292.495 236.623 283.122 236.392 280.951C239.023 280.061 241.604 279.013 244.111 277.79C244.863 277.424 245.598 277.027 246.334 276.632C239.019 284.889 239.062 295.752 239.062 295.752C250.624 286.927 248.765 278.032 248.014 275.704C251.381 273.777 254.576 271.567 257.593 269.13C251.17 277.224 251.209 287.189 251.209 287.189C263.004 278.187 260.83 269.104 260.115 267.004C262.26 265.121 264.317 263.138 266.261 261.049C266.693 260.585 266.01 259.871 265.578 260.336C262.503 263.641 259.169 266.677 255.614 269.397C245.144 263.716 233.691 267.252 233.691 267.252C242.719 273.739 249.503 272.713 253.096 271.245C250.429 273.115 247.642 274.8 244.753 276.285C235.902 268.366 223.985 269.13 223.985 269.13C231.519 277.855 238.59 278.16 242.334 277.469C239.425 278.822 236.415 279.965 233.315 280.881C225.503 272.003 213.646 271.302 213.646 271.302C219.454 279.993 225.734 281.764 229.688 281.851C228.771 282.064 227.846 282.257 226.915 282.429C224.297 282.913 221.644 283.233 218.978 283.401C212.956 273.155 201.361 270.257 201.361 270.257C205.383 279.681 211.077 282.654 214.946 283.536Z" fill="#F35B5B"/>
<path d="M485.675 307.431C485.675 309.268 484.172 310.772 482.335 310.772H364.681C362.844 310.772 361.342 309.268 361.342 307.431V133.344C361.342 131.506 362.844 130.003 364.681 130.003H482.335C484.172 130.003 485.675 131.506 485.675 133.344V307.431Z" fill="#849BD7"/>
<path d="M367.187 294.357H479.83V139.738H367.187V294.357Z" fill="#C5D6F0"/>
<path d="M380.122 282.039H466.895V151.29H380.122V282.039Z" fill="#F2F9FD"/>
<path d="M466.895 159.274H380.122V151.29H466.895V159.274Z" fill="#DDE0F3"/>
<path d="M387.087 155.466C387.087 156.475 386.269 157.293 385.26 157.293C384.251 157.293 383.433 156.475 383.433 155.466C383.433 154.457 384.251 153.639 385.26 153.639C386.269 153.639 387.087 154.457 387.087 155.466Z" fill="#F35B5B"/>
<path d="M393.24 155.466C393.24 156.475 392.421 157.293 391.412 157.293C390.403 157.293 389.585 156.475 389.585 155.466C389.585 154.457 390.403 153.639 391.412 153.639C392.421 153.639 393.24 154.457 393.24 155.466Z" fill="#F79939"/>
<path d="M399.391 155.466C399.391 156.475 398.573 157.293 397.564 157.293C396.555 157.293 395.736 156.475 395.736 155.466C395.736 154.457 396.555 153.639 397.564 153.639C398.573 153.639 399.391 154.457 399.391 155.466Z" fill="#6174C2"/>
<path d="M448.426 202.808L441.088 195.47L423.508 213.05L405.927 195.47L398.59 202.808L416.17 220.388L398.59 237.966L405.927 245.305L423.508 227.725L441.088 245.305L448.426 237.966L430.847 220.388L448.426 202.808Z" fill="#DDE0F3"/>
<path d="M408.883 305.323C408.883 307.053 407.466 308.47 405.735 308.47H240.761C239.03 308.47 237.614 307.053 237.614 305.323V198.618C237.614 196.887 239.03 195.47 240.761 195.47H405.735C407.466 195.47 408.883 196.887 408.883 198.618V305.323Z" fill="#6174C2"/>
<path d="M403.875 303.218H242.622V200.723H403.875V303.218Z" fill="#C5D6F0"/>
<path d="M226.486 298.123V307.214C226.486 309.17 228.087 310.772 230.043 310.772H416.453C418.409 310.772 420.01 309.17 420.01 307.214V298.123H226.486Z" fill="#6174C2"/>
<path d="M294.593 298.123V300.816C294.593 301.395 295.067 301.869 295.646 301.869H350.849C351.429 301.869 351.903 301.395 351.903 300.816V298.123H294.593Z" fill="#849BD7"/>
<path d="M502.56 290.921C502.042 293.258 499.658 295.169 497.265 295.169H446.501C444.108 295.169 441.724 293.258 441.206 290.921L429.884 239.95C429.365 237.613 430.899 235.702 433.293 235.702H510.474C512.867 235.702 514.401 237.613 513.882 239.95L502.56 290.921Z" fill="#F79939"/>
<path d="M483.196 241.776C480.803 241.776 478.186 243.62 477.38 245.874L474.967 252.63C474.162 254.884 471.544 256.729 469.151 256.729H432.307C429.914 256.729 428.463 258.621 429.084 260.932L441.334 306.569C441.955 308.88 444.421 310.772 446.814 310.772H497.111C499.504 310.772 501.97 308.88 502.59 306.569L514.841 260.932C515.461 258.621 516.627 254.884 517.433 252.63L519.845 245.874C520.652 243.62 519.352 241.776 516.958 241.776H483.196Z" fill="#FBC05D"/>
<path d="M497.111 310.772H446.814C444.421 310.772 441.955 308.88 441.334 306.569L439.939 301.372C440.171 301.293 440.401 301.211 440.632 301.125C445.747 302.872 451.251 303.828 456.987 303.828C484.01 303.828 505.915 282.741 505.915 256.729C505.915 251.5 505.017 246.476 503.383 241.776H516.958C518.87 241.776 520.085 242.953 520.085 244.576C520.085 244.984 520.008 245.421 519.846 245.874L517.433 252.63C516.627 254.884 515.462 258.621 514.841 260.932L502.59 306.569C501.97 308.88 499.504 310.772 497.111 310.772Z" fill="#EEB75E"/>
<path d="M466.895 275.96C466.895 278.486 465.428 280.533 463.618 280.533C461.808 280.533 460.34 278.486 460.34 275.96C460.34 273.434 461.808 271.387 463.618 271.387C465.428 271.387 466.895 273.434 466.895 275.96Z" fill="#F35B5B"/>
<path d="M488.686 275.96C488.686 278.486 487.219 280.533 485.408 280.533C483.598 280.533 482.131 278.486 482.131 275.96C482.131 273.434 483.598 271.387 485.408 271.387C487.219 271.387 488.686 273.434 488.686 275.96Z" fill="#F35B5B"/>
<path d="M467.002 288.749C468.125 287.518 469.689 286.551 471.244 285.99C475.18 284.571 478.986 286.054 481.985 288.749C482.786 289.469 483.975 288.287 483.17 287.564C479.846 284.575 475.535 282.819 471.113 284.264C469.173 284.898 467.204 286.042 465.815 287.564C465.089 288.359 466.272 289.548 467.002 288.749Z" fill="#F35B5B"/>
<path d="M327.635 289.951H253.368V235.165H327.635V289.951Z" fill="#F6FAFD"/>
<path d="M327.635 241.999H253.368V235.165H327.635V241.999Z" fill="#DDE0F3"/>
<path d="M259.329 238.74C259.329 239.603 258.629 240.303 257.766 240.303C256.902 240.303 256.202 239.603 256.202 238.74C256.202 237.876 256.902 237.176 257.766 237.176C258.629 237.176 259.329 237.876 259.329 238.74Z" fill="#F35B5B"/>
<path d="M264.595 238.74C264.595 239.603 263.895 240.303 263.032 240.303C262.168 240.303 261.468 239.603 261.468 238.74C261.468 237.876 262.168 237.176 263.032 237.176C263.895 237.176 264.595 237.876 264.595 238.74Z" fill="#F79939"/>
<path d="M269.86 238.74C269.86 239.603 269.16 240.303 268.296 240.303C267.433 240.303 266.733 239.603 266.733 238.74C266.733 237.876 267.433 237.176 268.296 237.176C269.16 237.176 269.86 237.876 269.86 238.74Z" fill="#6174C2"/>
<path d="M286.865 277.276C286.271 276.682 285.973 275.947 285.973 275.071C285.973 274.173 286.271 273.432 286.865 272.849C287.46 272.265 288.206 271.973 289.104 271.973C289.98 271.973 290.726 272.271 291.344 272.866C291.96 273.46 292.269 274.195 292.269 275.071C292.269 275.947 291.96 276.682 291.344 277.276C290.726 277.871 289.98 278.167 289.104 278.167C288.206 278.167 287.46 277.871 286.865 277.276ZM286.175 269.213C286.175 266.923 287.084 265.139 288.902 263.859L289.777 263.253C290.608 262.715 291.187 262.272 291.512 261.924C291.837 261.576 292 261.144 292 260.628C292 259.326 290.91 258.674 288.734 258.674C287.724 258.674 286.68 258.809 285.603 259.079C284.526 259.348 283.505 259.73 282.539 260.223V255.039C284.604 254.096 286.916 253.625 289.475 253.625C292.236 253.625 294.424 254.203 296.04 255.359C297.656 256.515 298.463 258.114 298.463 260.156C298.463 261.301 298.206 262.227 297.69 262.933C297.173 263.641 296.297 264.432 295.064 265.307C294.233 265.913 293.627 266.379 293.245 266.705C292.864 267.031 292.578 267.394 292.387 267.798C292.196 268.203 292.101 268.697 292.101 269.28V269.92H286.175V269.213Z" fill="#C5D6F0"/>
<path d="M392.149 267.245H317.882V212.46H392.149V267.245Z" fill="#F2F9FD"/>
<path d="M392.149 219.293H317.882V212.46H392.149V219.293Z" fill="#DDE0F3"/>
<path d="M323.845 216.034C323.845 216.898 323.144 217.599 322.281 217.599C321.417 217.599 320.717 216.898 320.717 216.034C320.717 215.172 321.417 214.471 322.281 214.471C323.144 214.471 323.845 215.172 323.845 216.034Z" fill="#F35B5B"/>
<path d="M329.11 216.034C329.11 216.898 328.41 217.599 327.546 217.599C326.683 217.599 325.983 216.898 325.983 216.034C325.983 215.172 326.683 214.471 327.546 214.471C328.41 214.471 329.11 215.172 329.11 216.034Z" fill="#F79939"/>
<path d="M334.375 216.034C334.375 216.898 333.675 217.599 332.811 217.599C331.948 217.599 331.248 216.898 331.248 216.034C331.248 215.172 331.948 214.471 332.811 214.471C333.675 214.471 334.375 215.172 334.375 216.034Z" fill="#6174C2"/>
<path d="M351.381 254.571C350.785 253.977 350.488 253.242 350.488 252.366C350.488 251.468 350.785 250.728 351.381 250.144C351.974 249.56 352.722 249.269 353.619 249.269C354.494 249.269 355.241 249.566 355.858 250.16C356.475 250.756 356.784 251.49 356.784 252.366C356.784 253.242 356.475 253.977 355.858 254.571C355.241 255.166 354.494 255.463 353.619 255.463C352.722 255.463 351.974 255.166 351.381 254.571ZM350.69 246.508C350.69 244.218 351.6 242.434 353.417 241.154L354.292 240.549C355.123 240.011 355.701 239.567 356.026 239.219C356.352 238.871 356.516 238.439 356.516 237.923C356.516 236.621 355.426 235.969 353.249 235.969C352.238 235.969 351.195 236.104 350.118 236.374C349.041 236.643 348.019 237.025 347.054 237.518V232.334C349.119 231.391 351.431 230.92 353.989 230.92C356.75 230.92 358.939 231.498 360.554 232.654C362.172 233.81 362.979 235.409 362.979 237.451C362.979 238.596 362.721 239.521 362.205 240.229C361.688 240.936 360.813 241.726 359.579 242.602C358.748 243.208 358.142 243.675 357.76 243.999C357.379 244.326 357.092 244.69 356.902 245.094C356.71 245.498 356.616 245.992 356.616 246.574V247.215H350.69V246.508Z" fill="#C5D6F0"/>
<path d="M327.007 157.077C326.772 157.689 326.295 158.433 325.574 159.31C325.092 159.912 324.744 160.368 324.533 160.679C324.32 160.989 324.185 161.309 324.127 161.638C324.068 161.969 324.096 162.345 324.211 162.766L324.336 163.23L320.049 164.394L319.91 163.882C319.46 162.226 319.767 160.756 320.831 159.473L321.345 158.863C321.84 158.31 322.171 157.876 322.338 157.56C322.505 157.244 322.539 156.9 322.437 156.526C322.181 155.585 321.265 155.327 319.69 155.755C318.959 155.954 318.23 156.257 317.504 156.663C316.778 157.07 316.113 157.547 315.512 158.094L314.493 154.342C315.802 153.255 317.382 152.459 319.233 151.956C321.231 151.414 322.928 151.401 324.324 151.92C325.72 152.439 326.62 153.437 327.021 154.915C327.246 155.743 327.241 156.463 327.007 157.077ZM325.234 168.701C324.904 169.252 324.423 169.614 323.79 169.786C323.141 169.963 322.542 169.895 321.995 169.581C321.447 169.268 321.088 168.794 320.915 168.161C320.739 167.512 320.808 166.917 321.125 166.378C321.44 165.839 321.923 165.481 322.572 165.305C323.205 165.132 323.804 165.201 324.367 165.509C324.931 165.82 325.299 166.29 325.471 166.923C325.643 167.556 325.563 168.15 325.234 168.701ZM337.284 144.974L325.525 148.17L322.303 136.314L298.301 142.834L309.509 184.088L345.319 174.36L337.345 145.01L337.284 144.974Z" fill="#DDE0F3"/>
<path d="M324.588 136.823L326.974 145.605L335.685 143.239L324.588 136.823Z" fill="#DDE0F3"/>
<path d="M383.218 104.19C382.494 104.718 381.394 105.215 379.92 105.683C378.922 106.015 378.185 106.279 377.712 106.477C377.239 106.676 376.846 106.941 376.535 107.275C376.223 107.61 375.976 108.061 375.794 108.628L375.595 109.253L369.822 107.404L370.043 106.715C370.757 104.485 372.199 103.03 374.37 102.35L375.411 102.033C376.388 101.769 377.09 101.518 377.515 101.28C377.94 101.043 378.234 100.673 378.394 100.169C378.801 98.9016 377.943 97.9277 375.823 97.2481C374.839 96.9333 373.78 96.7391 372.646 96.6656C371.513 96.592 370.399 96.6451 369.305 96.8248L370.923 91.7741C373.228 91.5003 375.627 91.7627 378.119 92.5607C380.809 93.4215 382.76 94.6677 383.974 96.2969C385.187 97.9277 385.475 99.7374 384.838 101.727C384.481 102.841 383.941 103.663 383.218 104.19ZM372.562 116.181C371.775 116.568 370.955 116.625 370.103 116.352C369.228 116.072 368.593 115.55 368.2 114.785C367.806 114.02 367.746 113.211 368.019 112.359C368.299 111.484 368.819 110.855 369.582 110.472C370.342 110.089 371.161 110.038 372.034 110.318C372.887 110.591 373.521 111.113 373.938 111.885C374.352 112.657 374.424 113.47 374.151 114.322C373.878 115.175 373.348 115.795 372.562 116.181ZM403.963 97.9649L388.13 92.8944L393.242 76.9336L360.927 66.5856L343.142 122.125L391.352 137.564L404.006 98.0498L403.963 97.9649Z" fill="#DDE0F3"/>
<path d="M395.479 79.2123L391.692 91.0355L403.421 94.7915L395.479 79.2123Z" fill="#DDE0F3"/>
<path d="M498.141 157.963C498.141 161.436 495.301 164.276 491.828 164.276H424.165C420.692 164.276 417.851 161.436 417.851 157.963V115.578C417.851 112.105 420.692 109.264 424.165 109.264H491.828C495.301 109.264 498.141 112.105 498.141 115.578V157.963Z" fill="#F35B5B"/>
<path d="M438.922 150.301C438.521 150.916 438.516 151.273 438.536 151.336C438.57 151.374 438.872 151.565 439.607 151.565H476.385C477.12 151.565 477.422 151.374 477.463 151.323C477.477 151.273 477.471 150.916 477.069 150.301L459.156 122.855C458.796 122.305 458.363 121.975 457.996 121.975C457.63 121.975 457.196 122.305 456.836 122.856L438.922 150.301ZM476.385 155.455H439.607C437.534 155.455 435.896 154.626 435.113 153.181C434.33 151.736 434.532 149.912 435.665 148.175L453.579 120.73C454.677 119.05 456.286 118.086 457.996 118.086C459.706 118.086 461.316 119.05 462.413 120.729L480.327 148.175C481.46 149.912 481.661 151.736 480.879 153.181C480.097 154.626 478.459 155.455 476.385 155.455Z" fill="white"/>
<path d="M455.953 129.751H460.04L459.28 142.825H456.712L455.953 129.751ZM456.869 148.013C456.573 147.716 456.424 147.349 456.424 146.912C456.424 146.475 456.573 146.109 456.869 145.812C457.167 145.515 457.533 145.366 457.969 145.366C458.406 145.366 458.778 145.515 459.084 145.812C459.389 146.109 459.543 146.475 459.543 146.912C459.543 147.349 459.389 147.716 459.084 148.013C458.778 148.309 458.406 148.458 457.969 148.458C457.533 148.458 457.167 148.309 456.869 148.013Z" fill="white"/>
<path d="M280.566 211.856C280.566 214.734 278.211 217.089 275.333 217.089H219.252C216.374 217.089 214.02 214.734 214.02 211.856V176.727C214.02 173.848 216.374 171.494 219.252 171.494H275.333C278.211 171.494 280.566 173.848 280.566 176.727V211.856Z" fill="#F35B5B"/>
<path d="M247.293 209.069C243.836 209.069 240.656 207.873 238.135 205.877L258.878 185.134C260.874 187.653 262.07 190.835 262.07 194.291C262.07 202.439 255.441 209.069 247.293 209.069ZM247.293 179.514C250.75 179.514 253.93 180.71 256.45 182.706L235.707 203.449C233.712 200.928 232.516 197.748 232.516 194.291C232.516 186.143 239.144 179.514 247.293 179.514ZM247.293 176.08C237.251 176.08 229.081 184.249 229.081 194.291C229.081 204.333 237.251 212.503 247.293 212.503C257.335 212.503 265.504 204.333 265.504 194.291C265.504 184.249 257.335 176.08 247.293 176.08Z" fill="white"/>
<path d="M432.427 297.479C428.766 297.479 425.185 296.382 422.16 294.357H438.056L438.605 296.404C436.578 297.13 434.489 297.479 432.427 297.479Z" fill="#A2B5E3"/>
<path d="M438.056 294.357H422.16C419.508 292.583 417.285 290.095 415.809 287.007C415.038 285.392 414.522 283.72 414.247 282.039H434.75L438.056 294.357Z" fill="#D1E0F4"/>
<path d="M434.75 282.039H414.247C414.085 281.053 414.006 280.064 414.007 279.081C414.008 272.214 417.87 265.625 424.479 262.467C425.98 261.749 427.531 261.253 429.093 260.966L434.75 282.039Z" fill="#F2F9FD"/>
<path d="M432.094 274.748C429.424 276.024 426.224 274.894 424.949 272.223C423.673 269.554 424.803 266.355 427.473 265.079C430.143 263.803 433.343 264.933 434.618 267.604C435.894 270.273 434.764 273.473 432.094 274.748Z" fill="white"/>
<path d="M308.053 107.073C307.413 106.047 307.237 104.923 307.522 103.7C307.815 102.445 308.471 101.506 309.493 100.884C310.513 100.262 311.653 100.097 312.907 100.389C314.13 100.674 315.077 101.333 315.747 102.365C316.414 103.397 316.608 104.525 316.323 105.749C316.038 106.972 315.367 107.9 314.311 108.53C313.254 109.16 312.114 109.333 310.891 109.048C309.636 108.756 308.689 108.098 308.053 107.073ZM309.712 95.5773C310.456 92.3765 312.308 90.1784 315.265 88.9808L316.686 88.4188C318.022 87.9371 318.974 87.5055 319.542 87.1248C320.11 86.7448 320.479 86.1934 320.647 85.472C321.071 83.6524 319.76 82.3881 316.717 81.6789C315.305 81.3505 313.802 81.1995 312.209 81.2253C310.616 81.2511 309.063 81.4529 307.554 81.8283L309.241 74.581C312.434 73.9348 315.819 74.0288 319.396 74.8616C323.254 75.7597 326.126 77.2804 328.008 79.4216C329.891 81.5636 330.5 84.0613 329.836 86.9162C329.463 88.5166 328.801 89.7264 327.85 90.5463C326.897 91.367 325.417 92.1877 323.407 93.0099C322.048 93.5871 321.049 94.0406 320.41 94.3713C319.771 94.7028 319.252 95.1184 318.854 95.6213C318.455 96.1242 318.162 96.7841 317.972 97.5987L317.764 98.4937L309.481 96.5656L309.712 95.5773Z" fill="#C5D6F0"/>
<path d="M257.396 164.58C256.717 164.348 256.214 163.896 255.885 163.225C255.549 162.538 255.499 161.859 255.737 161.19C255.973 160.52 256.435 160.016 257.123 159.68C257.794 159.352 258.476 159.3 259.173 159.524C259.867 159.749 260.379 160.196 260.708 160.867C261.036 161.537 261.075 162.216 260.825 162.902C260.575 163.59 260.115 164.097 259.444 164.425C258.757 164.761 258.073 164.814 257.396 164.58ZM253.845 158.663C252.987 156.91 253.015 155.202 253.928 153.54L254.371 152.749C254.805 152.026 255.082 151.469 255.201 151.081C255.32 150.692 255.283 150.3 255.09 149.905C254.602 148.908 253.523 148.817 251.856 149.633C251.083 150.011 250.333 150.506 249.609 151.116C248.885 151.725 248.246 152.401 247.691 153.141L245.749 149.169C246.977 147.674 248.571 146.446 250.531 145.488C252.646 144.453 254.538 144.076 256.209 144.355C257.88 144.635 259.098 145.557 259.864 147.121C260.292 147.998 260.442 148.804 260.312 149.539C260.181 150.274 259.807 151.208 259.189 152.341C258.781 153.116 258.491 153.7 258.32 154.093C258.15 154.485 258.068 154.872 258.073 155.252C258.078 155.633 258.19 156.047 258.409 156.494L258.649 156.985L254.11 159.205L253.845 158.663Z" fill="#C5D6F0"/>
<path d="M232.484 130.304C229.01 130.304 226.194 127.488 226.194 124.014C226.194 120.54 229.01 117.724 232.484 117.724C235.958 117.724 238.774 120.54 238.774 124.014C238.774 127.488 235.958 130.304 232.484 130.304ZM246.292 125.501V122.527H242.521C242.272 120.834 241.609 119.281 240.633 117.968L243.299 115.302L241.195 113.198L238.53 115.864C237.217 114.889 235.664 114.225 233.972 113.977V110.206H230.996V113.977C229.304 114.225 227.751 114.889 226.438 115.864L223.772 113.198L221.668 115.302L224.334 117.968C223.359 119.281 222.695 120.834 222.446 122.527H218.676V125.501H222.446C222.695 127.194 223.359 128.747 224.334 130.06L221.668 132.726L223.772 134.83L226.438 132.163C227.751 133.139 229.304 133.803 230.996 134.051V137.822H233.972V134.051C235.664 133.803 237.217 133.139 238.53 132.163L241.195 134.83L243.299 132.726L240.633 130.06C241.609 128.747 242.272 127.194 242.521 125.501H246.292Z" fill="#FBC05D"/>
<path d="M259.025 113.895C254.164 113.895 250.222 109.954 250.222 105.093C250.222 100.232 254.164 96.2918 259.025 96.2918C263.886 96.2918 267.827 100.232 267.827 105.093C267.827 109.954 263.886 113.895 259.025 113.895ZM278.346 107.174V103.012H273.07C272.721 100.644 271.794 98.4709 270.428 96.6331L274.159 92.9029L271.215 89.9599L267.485 93.6902C265.648 92.3249 263.475 91.3965 261.106 91.0484V85.7724H256.943V91.0484C254.575 91.3965 252.402 92.3241 250.565 93.6902L246.835 89.9599L243.891 92.9029L247.621 96.6331C246.256 98.4709 245.328 100.644 244.98 103.012H239.704V107.174H244.98C245.328 109.542 246.256 111.716 247.621 113.553L243.891 117.284L246.835 120.227L250.565 116.497C252.402 117.862 254.575 118.79 256.943 119.139V124.415H261.106V119.139C263.475 118.79 265.648 117.862 267.485 116.497L271.215 120.227L274.159 117.284L270.428 113.553C271.794 111.716 272.721 109.542 273.07 107.174H278.346Z" fill="#F79939"/>
</g>
<defs>
<clipPath id="clip0_8410_1030">
<rect width="380" height="380" fill="white" transform="translate(172)"/>
</clipPath>
</defs>
</svg>
