<svg width="710" height="444" viewBox="0 0 710 444" fill="none" xmlns="http://www.w3.org/2000/svg">
<path d="M265.167 408.352C265.167 409.141 265.156 409.973 265.135 410.848C265.135 411.723 265.071 412.587 264.943 413.44C264.815 414.272 264.591 415.072 264.271 415.84C263.972 416.608 263.524 417.291 262.927 417.888C262.244 418.571 261.412 419.093 260.431 419.456C259.449 419.819 258.361 420 257.167 420H249.359V397.216H257.167C258.361 397.216 259.449 397.397 260.431 397.76C261.412 398.123 262.244 398.645 262.927 399.328C263.524 399.925 263.972 400.587 264.271 401.312C264.591 402.016 264.815 402.763 264.943 403.552C265.071 404.32 265.135 405.12 265.135 405.952C265.156 406.763 265.167 407.563 265.167 408.352ZM262.735 408.352C262.735 407.648 262.724 406.955 262.703 406.272C262.703 405.568 262.66 404.907 262.575 404.288C262.489 403.648 262.34 403.051 262.127 402.496C261.913 401.941 261.615 401.461 261.231 401.056C260.633 400.437 259.961 400.011 259.215 399.776C258.468 399.52 257.647 399.392 256.751 399.392H251.791V417.824H256.751C257.647 417.824 258.468 417.707 259.215 417.472C259.961 417.216 260.633 416.779 261.231 416.16C261.615 415.755 261.913 415.253 262.127 414.656C262.34 414.037 262.489 413.387 262.575 412.704C262.66 412 262.703 411.275 262.703 410.528C262.724 409.781 262.735 409.056 262.735 408.352ZM279.402 420V418.496C278.762 419.136 278.1 419.584 277.418 419.84C276.756 420.075 275.903 420.192 274.858 420.192C273.77 420.192 272.874 420.085 272.17 419.872C271.487 419.637 270.9 419.264 270.41 418.752C270.026 418.368 269.727 417.899 269.514 417.344C269.322 416.768 269.226 416.171 269.226 415.552C269.226 414.165 269.684 413.067 270.602 412.256C271.54 411.424 272.895 411.008 274.666 411.008H279.402V409.504C279.402 408.352 279.092 407.488 278.474 406.912C277.855 406.336 276.82 406.048 275.37 406.048C274.346 406.048 273.546 406.187 272.97 406.464C272.394 406.72 271.871 407.179 271.402 407.84L269.834 406.4C270.538 405.483 271.316 404.864 272.17 404.544C273.044 404.224 274.122 404.064 275.402 404.064C277.535 404.064 279.114 404.512 280.138 405.408C281.183 406.283 281.706 407.584 281.706 409.312V420H279.402ZM279.402 412.736H274.986C272.639 412.736 271.466 413.664 271.466 415.52C271.466 416.437 271.754 417.12 272.33 417.568C272.906 417.995 273.823 418.208 275.082 418.208C275.764 418.208 276.394 418.155 276.97 418.048C277.567 417.941 278.111 417.643 278.602 417.152C279.135 416.64 279.402 415.733 279.402 414.432V412.736ZM291.734 420C291.051 420 290.454 419.893 289.942 419.68C289.451 419.445 289.035 419.136 288.694 418.752C288.374 418.368 288.128 417.92 287.958 417.408C287.787 416.896 287.702 416.352 287.702 415.776V406.112H285.718V404.352H287.702V399.424H290.006V404.352H293.366V406.112H290.006V415.712C290.006 416.437 290.176 417.003 290.518 417.408C290.859 417.813 291.403 418.016 292.15 418.016H293.366V420H291.734ZM306.871 420V418.496C306.231 419.136 305.569 419.584 304.887 419.84C304.225 420.075 303.372 420.192 302.327 420.192C301.239 420.192 300.343 420.085 299.639 419.872C298.956 419.637 298.369 419.264 297.879 418.752C297.495 418.368 297.196 417.899 296.983 417.344C296.791 416.768 296.695 416.171 296.695 415.552C296.695 414.165 297.153 413.067 298.071 412.256C299.009 411.424 300.364 411.008 302.135 411.008H306.871V409.504C306.871 408.352 306.561 407.488 305.943 406.912C305.324 406.336 304.289 406.048 302.839 406.048C301.815 406.048 301.015 406.187 300.439 406.464C299.863 406.72 299.34 407.179 298.871 407.84L297.303 406.4C298.007 405.483 298.785 404.864 299.639 404.544C300.513 404.224 301.591 404.064 302.871 404.064C305.004 404.064 306.583 404.512 307.607 405.408C308.652 406.283 309.175 407.584 309.175 409.312V420H306.871ZM306.871 412.736H302.455C300.108 412.736 298.935 413.664 298.935 415.52C298.935 416.437 299.223 417.12 299.799 417.568C300.375 417.995 301.292 418.208 302.551 418.208C303.233 418.208 303.863 418.155 304.439 418.048C305.036 417.941 305.58 417.643 306.071 417.152C306.604 416.64 306.871 415.733 306.871 414.432V412.736ZM332.835 420V410.304C332.835 408.896 332.483 407.851 331.779 407.168C331.096 406.464 330.158 406.112 328.963 406.112C327.768 406.112 326.819 406.464 326.115 407.168C325.411 407.872 325.059 408.917 325.059 410.304V420H322.755V404.256H325.059V405.984C325.614 405.344 326.264 404.864 327.011 404.544C327.758 404.224 328.579 404.064 329.475 404.064C331.182 404.064 332.526 404.555 333.507 405.536C334.595 406.603 335.139 408.064 335.139 409.92V420H332.835ZM352.756 412.128C352.756 413.344 352.628 414.496 352.372 415.584C352.137 416.651 351.625 417.589 350.836 418.4C350.281 418.955 349.63 419.392 348.884 419.712C348.137 420.032 347.284 420.192 346.324 420.192C345.364 420.192 344.51 420.032 343.764 419.712C343.017 419.392 342.366 418.955 341.812 418.4C341.406 417.995 341.076 417.557 340.82 417.088C340.585 416.597 340.393 416.096 340.244 415.584C340.116 415.051 340.02 414.496 339.956 413.92C339.913 413.344 339.892 412.747 339.892 412.128C339.892 411.531 339.913 410.944 339.956 410.368C340.02 409.771 340.116 409.216 340.244 408.704C340.393 408.171 340.585 407.669 340.82 407.2C341.076 406.709 341.406 406.261 341.812 405.856C342.366 405.301 343.017 404.864 343.764 404.544C344.51 404.224 345.364 404.064 346.324 404.064C347.284 404.064 348.137 404.224 348.884 404.544C349.63 404.864 350.281 405.301 350.836 405.856C351.625 406.667 352.137 407.616 352.372 408.704C352.628 409.771 352.756 410.912 352.756 412.128ZM350.452 412.128C350.452 411.68 350.441 411.232 350.42 410.784C350.398 410.336 350.345 409.899 350.26 409.472C350.174 409.045 350.046 408.651 349.876 408.288C349.705 407.904 349.481 407.563 349.204 407.264C348.436 406.496 347.476 406.112 346.324 406.112C345.193 406.112 344.244 406.496 343.476 407.264C343.177 407.563 342.942 407.904 342.772 408.288C342.622 408.651 342.494 409.045 342.388 409.472C342.302 409.899 342.249 410.336 342.228 410.784C342.206 411.232 342.196 411.68 342.196 412.128C342.196 412.576 342.206 413.024 342.228 413.472C342.249 413.92 342.302 414.357 342.388 414.784C342.494 415.211 342.622 415.616 342.772 416C342.942 416.384 343.177 416.715 343.476 416.992C344.244 417.76 345.193 418.144 346.324 418.144C347.476 418.144 348.436 417.76 349.204 416.992C349.481 416.715 349.705 416.384 349.876 416C350.046 415.616 350.174 415.211 350.26 414.784C350.345 414.357 350.398 413.92 350.42 413.472C350.441 413.024 350.452 412.576 350.452 412.128ZM362.109 420C361.426 420 360.829 419.893 360.317 419.68C359.826 419.445 359.41 419.136 359.069 418.752C358.749 418.368 358.503 417.92 358.333 417.408C358.162 416.896 358.077 416.352 358.077 415.776V406.112H356.093V404.352H358.077V399.424H360.381V404.352H363.741V406.112H360.381V415.712C360.381 416.437 360.551 417.003 360.893 417.408C361.234 417.813 361.778 418.016 362.525 418.016H363.741V420H362.109ZM379.102 406.112V420H376.798V406.112H374.782V404.352H376.798V401.376C376.798 400.8 376.873 400.256 377.022 399.744C377.193 399.232 377.449 398.784 377.79 398.4C378.132 398.016 378.548 397.717 379.038 397.504C379.529 397.269 380.116 397.152 380.798 397.152H382.462V399.136H381.214C380.468 399.136 379.924 399.339 379.582 399.744C379.262 400.149 379.102 400.715 379.102 401.44V404.352H382.462V406.112H379.102ZM398.381 412.128C398.381 413.344 398.253 414.496 397.997 415.584C397.762 416.651 397.25 417.589 396.461 418.4C395.906 418.955 395.255 419.392 394.509 419.712C393.762 420.032 392.909 420.192 391.949 420.192C390.989 420.192 390.135 420.032 389.389 419.712C388.642 419.392 387.991 418.955 387.437 418.4C387.031 417.995 386.701 417.557 386.445 417.088C386.21 416.597 386.018 416.096 385.869 415.584C385.741 415.051 385.645 414.496 385.581 413.92C385.538 413.344 385.517 412.747 385.517 412.128C385.517 411.531 385.538 410.944 385.581 410.368C385.645 409.771 385.741 409.216 385.869 408.704C386.018 408.171 386.21 407.669 386.445 407.2C386.701 406.709 387.031 406.261 387.437 405.856C387.991 405.301 388.642 404.864 389.389 404.544C390.135 404.224 390.989 404.064 391.949 404.064C392.909 404.064 393.762 404.224 394.509 404.544C395.255 404.864 395.906 405.301 396.461 405.856C397.25 406.667 397.762 407.616 397.997 408.704C398.253 409.771 398.381 410.912 398.381 412.128ZM396.077 412.128C396.077 411.68 396.066 411.232 396.045 410.784C396.023 410.336 395.97 409.899 395.885 409.472C395.799 409.045 395.671 408.651 395.501 408.288C395.33 407.904 395.106 407.563 394.829 407.264C394.061 406.496 393.101 406.112 391.949 406.112C390.818 406.112 389.869 406.496 389.101 407.264C388.802 407.563 388.567 407.904 388.397 408.288C388.247 408.651 388.119 409.045 388.013 409.472C387.927 409.899 387.874 410.336 387.853 410.784C387.831 411.232 387.821 411.68 387.821 412.128C387.821 412.576 387.831 413.024 387.853 413.472C387.874 413.92 387.927 414.357 388.013 414.784C388.119 415.211 388.247 415.616 388.397 416C388.567 416.384 388.802 416.715 389.101 416.992C389.869 417.76 390.818 418.144 391.949 418.144C393.101 418.144 394.061 417.76 394.829 416.992C395.106 416.715 395.33 416.384 395.501 416C395.671 415.616 395.799 415.211 395.885 414.784C395.97 414.357 396.023 413.92 396.045 413.472C396.066 413.024 396.077 412.576 396.077 412.128ZM413.27 420V418.24C412.715 418.88 412.054 419.371 411.286 419.712C410.539 420.032 409.718 420.192 408.822 420.192C407.094 420.192 405.739 419.701 404.758 418.72C404.203 418.165 403.798 417.525 403.542 416.8C403.286 416.053 403.158 415.221 403.158 414.304V404.256H405.462V413.952C405.462 415.36 405.803 416.416 406.486 417.12C407.168 417.803 408.107 418.144 409.302 418.144C410.496 418.144 411.446 417.792 412.15 417.088C412.875 416.384 413.238 415.339 413.238 413.952V404.256H415.542V420H413.27ZM431.366 420V410.304C431.366 408.896 431.014 407.851 430.31 407.168C429.628 406.464 428.689 406.112 427.494 406.112C426.3 406.112 425.35 406.464 424.646 407.168C423.942 407.872 423.59 408.917 423.59 410.304V420H421.286V404.256H423.59V405.984C424.145 405.344 424.796 404.864 425.542 404.544C426.289 404.224 427.11 404.064 428.006 404.064C429.713 404.064 431.057 404.555 432.038 405.536C433.126 406.603 433.67 408.064 433.67 409.92V420H431.366ZM448.663 420V418.112C448.023 418.944 447.33 419.499 446.583 419.776C445.858 420.053 445.058 420.192 444.183 420.192C443.372 420.192 442.636 420.075 441.975 419.84C441.314 419.584 440.77 419.243 440.343 418.816C439.938 418.411 439.607 417.952 439.351 417.44C439.116 416.928 438.924 416.384 438.775 415.808C438.647 415.211 438.551 414.603 438.487 413.984C438.444 413.365 438.423 412.747 438.423 412.128C438.423 411.509 438.444 410.891 438.487 410.272C438.551 409.653 438.647 409.056 438.775 408.48C438.924 407.883 439.116 407.328 439.351 406.816C439.607 406.304 439.938 405.845 440.343 405.44C440.77 405.013 441.314 404.683 441.975 404.448C442.636 404.192 443.372 404.064 444.183 404.064C445.058 404.064 445.858 404.203 446.583 404.48C447.308 404.736 447.991 405.269 448.631 406.08V397.216H450.935V420H448.663ZM448.631 412.128C448.631 411.36 448.588 410.613 448.503 409.888C448.418 409.163 448.236 408.523 447.959 407.968C447.682 407.413 447.276 406.965 446.743 406.624C446.231 406.283 445.548 406.112 444.695 406.112C443.842 406.112 443.148 406.283 442.615 406.624C442.103 406.965 441.708 407.413 441.431 407.968C441.154 408.523 440.962 409.163 440.855 409.888C440.77 410.613 440.727 411.36 440.727 412.128C440.727 412.896 440.77 413.643 440.855 414.368C440.962 415.093 441.154 415.733 441.431 416.288C441.708 416.843 442.103 417.291 442.615 417.632C443.148 417.973 443.842 418.144 444.695 418.144C445.548 418.144 446.231 417.973 446.743 417.632C447.276 417.291 447.682 416.843 447.959 416.288C448.236 415.733 448.418 415.093 448.503 414.368C448.588 413.643 448.631 412.896 448.631 412.128ZM460.341 413.6H458.357L458.036 397.216H460.693L460.341 413.6ZM457.973 420V417.312H460.725V420H457.973Z" fill="#637488"/>
<path d="M527.444 137.605H522.43V132.591H518.873V137.605H513.86V141.162H518.873V146.176H522.43V141.162H527.444V137.605Z" fill="#CAD2F9"/>
<path d="M500.952 216.984H496.522V212.554H493.378V216.984H488.949V220.128H493.378V224.558H496.522V220.128H500.952V216.984Z" fill="#CAD2F9"/>
<path d="M311.72 89.5455H307.289V85.1154H304.146V89.5455H299.716V92.6896H304.146V97.1196H307.289V92.6896H311.72V89.5455Z" fill="#CAD2F9"/>
<path d="M519.21 160.189H515.998V156.976H513.718V160.189H510.505V162.469H513.718V165.682H515.998V162.469H519.21V160.189Z" fill="#CAD2F9"/>
<path d="M297.269 108.979H294.056V105.766H291.776V108.979H288.563V111.259H291.776V114.472H294.056V111.259H297.269V108.979Z" fill="#CAD2F9"/>
<path d="M213.041 147.729H208.611V143.299H205.467V147.729H201.038V150.873H205.467V155.303H208.611V150.873H213.041V147.729Z" fill="#CAD2F9"/>
<path d="M214.662 285.898H211.449V282.685H209.169V285.898H205.957V288.178H209.169V291.391H211.449V288.178H214.662V285.898Z" fill="#CAD2F9"/>
<path d="M208.928 221.444C208.928 223.085 207.598 224.415 205.957 224.415C204.316 224.415 202.985 223.085 202.985 221.444C202.985 219.803 204.316 218.473 205.957 218.473C207.598 218.473 208.928 219.803 208.928 221.444Z" fill="#E2E6FF"/>
<path d="M521.644 188.231C521.644 189.098 520.942 189.8 520.075 189.8C519.208 189.8 518.506 189.098 518.506 188.231C518.506 187.364 519.208 186.661 520.075 186.661C520.942 186.661 521.644 187.364 521.644 188.231Z" fill="#E2E6FF"/>
<path d="M520.441 287.038C520.441 288.679 519.111 290.01 517.47 290.01C515.829 290.01 514.499 288.679 514.499 287.038C514.499 285.397 515.829 284.067 517.47 284.067C519.111 284.067 520.441 285.397 520.441 287.038Z" fill="#E2E6FF"/>
<path d="M311.399 63.3649C311.399 64.232 310.697 64.9351 309.831 64.9351C308.963 64.9351 308.261 64.232 308.261 63.3649C308.261 62.4992 308.963 61.7962 309.831 61.7962C310.697 61.7962 311.399 62.4992 311.399 63.3649Z" fill="#E2E6FF"/>
<path d="M278.603 65.2833C278.603 66.9242 277.273 68.2549 275.631 68.2549C273.99 68.2549 272.66 66.9242 272.66 65.2833C272.66 63.6425 273.99 62.3117 275.631 62.3117C277.273 62.3117 278.603 63.6425 278.603 65.2833Z" fill="#E2E6FF"/>
<path d="M335.726 72.8834C335.726 74.5242 334.396 75.855 332.755 75.855C331.114 75.855 329.783 74.5242 329.783 72.8834C329.783 71.2425 331.114 69.9118 332.755 69.9118C334.396 69.9118 335.726 71.2425 335.726 72.8834Z" fill="#E2E6FF"/>
<path d="M201.694 175.328C201.694 176.195 200.992 176.897 200.125 176.897C199.259 176.897 198.556 176.195 198.556 175.328C198.556 174.462 199.259 173.759 200.125 173.759C200.992 173.759 201.694 174.462 201.694 175.328Z" fill="#E2E6FF"/>
<path d="M231.306 227.185C231.306 228.051 230.603 228.754 229.736 228.754C228.87 228.754 228.167 228.051 228.167 227.185C228.167 226.318 228.87 225.616 229.736 225.616C230.603 225.616 231.306 226.318 231.306 227.185Z" fill="#E2E6FF"/>
<path d="M513.939 105.943C513.939 106.81 513.238 107.512 512.37 107.512C511.504 107.512 510.802 106.81 510.802 105.943C510.802 105.077 511.504 104.375 512.37 104.375C513.238 104.375 513.939 105.077 513.939 105.943Z" fill="#E2E6FF"/>
<path d="M455.478 77.3256C455.478 78.192 454.776 78.895 453.909 78.895C453.043 78.895 452.34 78.192 452.34 77.3256C452.34 76.4592 453.043 75.757 453.909 75.757C454.776 75.757 455.478 76.4592 455.478 77.3256Z" fill="#E2E6FF"/>
<path d="M482.186 68.1856C482.186 69.8265 480.856 71.1572 479.215 71.1572C477.574 71.1572 476.244 69.8265 476.244 68.1856C476.244 66.5448 477.574 65.2148 479.215 65.2148C480.856 65.2148 482.186 66.5448 482.186 68.1856Z" fill="#E2E6FF"/>
<path d="M526.733 272.071C526.733 272.938 526.031 273.641 525.164 273.641C524.297 273.641 523.596 272.938 523.596 272.071C523.596 271.205 524.297 270.502 525.164 270.502C526.031 270.502 526.733 271.205 526.733 272.071Z" fill="#E2E6FF"/>
<path d="M245.788 68.2548C245.788 69.1212 245.085 69.8235 244.218 69.8235C243.352 69.8235 242.649 69.1212 242.649 68.2548C242.649 67.3877 243.352 66.6854 244.218 66.6854C245.085 66.6854 245.788 67.3877 245.788 68.2548Z" fill="#E2E6FF"/>
<path d="M520.075 304.205C520.075 311.936 448.657 318.204 360.557 318.204C272.457 318.204 201.038 311.936 201.038 304.205C201.038 296.474 272.457 290.206 360.557 290.206C448.657 290.206 520.075 296.474 520.075 304.205Z" fill="#EDF0FC"/>
<path d="M471.923 297.846C471.923 297.846 448.221 249.729 520.526 228.754C520.526 228.754 525.563 301.67 471.923 297.846Z" fill="#EB725F"/>
<mask id="mask0_8410_1029" style="mask-type:luminance" maskUnits="userSpaceOnUse" x="468" y="228" width="53" height="70">
<path d="M471.923 297.846C471.923 297.846 448.221 249.729 520.526 228.754C520.526 228.754 525.563 301.67 471.923 297.846Z" fill="white"/>
</mask>
<g mask="url(#mask0_8410_1029)">
<path d="M530.222 239.954L529.808 239.26C515.515 247.769 502.504 250.755 498.66 251.501C502.241 247.271 505.772 243.397 508.967 240.04C510.404 239.773 520.256 237.728 530.257 230.275L529.774 229.629C521.354 235.902 513.071 238.28 509.959 239.005C516.903 231.785 522.035 227.21 522.188 227.074L521.651 226.471C521.496 226.609 516.253 231.282 509.186 238.647C509.868 229.483 514.367 220.505 514.414 220.413L513.692 220.048C513.643 220.145 508.752 229.894 508.321 239.553C505.116 242.922 501.578 246.809 497.991 251.051C498.248 239.058 503.384 225.005 503.436 224.859L502.678 224.581C502.622 224.73 497.153 239.689 497.169 252.029C493.71 256.165 490.229 260.617 486.977 265.244C486.344 247.967 491.45 230.147 491.503 229.965L490.726 229.741C490.671 229.927 485.315 248.604 486.212 266.341C483.805 269.825 481.538 273.4 479.519 277.007C475.941 258.434 480.553 241.574 480.601 241.404L479.822 241.187C479.772 241.362 474.946 258.974 478.912 278.114C476.933 281.75 475.218 285.409 473.872 289.032C469.296 276.042 468.407 257.437 468.605 256.363L467.809 256.219C467.595 257.381 468.42 276.79 473.442 290.224C472.214 293.737 471.342 297.21 470.937 300.586L471.74 300.682C472.131 297.423 472.964 294.07 474.136 290.676C475.08 290.873 477.803 291.337 482.488 291.337C482.857 291.337 483.24 291.334 483.635 291.328C489.683 291.233 499.889 290.311 514.16 286.455L513.948 285.677C489.614 292.252 476.843 290.378 474.403 289.903C475.756 286.143 477.526 282.336 479.581 278.554C480.232 278.618 481.927 278.755 484.398 278.755C492.178 278.755 507.465 277.376 520.761 267.914L520.292 267.257C503.615 279.126 483.756 278.101 480.005 277.783C482.07 274.055 484.406 270.357 486.895 266.756C489.39 266.503 511.604 263.958 526.403 252.422L525.905 251.787C512.203 262.467 492.018 265.352 487.507 265.877C490.8 261.181 494.334 256.662 497.845 252.47C499.75 252.15 514.196 249.493 530.222 239.954Z" fill="#F9AB43"/>
</g>
<path d="M489.468 295.958C489.465 295.958 489.468 295.958 489.465 295.958C494.038 294.459 497.949 292.199 501.288 289.404C501.697 289.062 502.094 288.713 502.486 288.355C507.376 283.89 510.966 278.238 513.595 272.202C513.761 271.819 513.924 271.435 514.083 271.049C515.894 266.655 517.218 262.084 518.179 257.646C518.253 257.303 518.325 256.962 518.395 256.621C519.212 252.634 519.745 248.772 520.085 245.257C520.115 244.944 520.144 244.635 520.172 244.329C520.448 241.22 520.577 238.404 520.626 236.053C520.632 235.744 520.637 235.445 520.641 235.153C520.693 231.264 520.533 228.844 520.527 228.756C520.555 229.182 524.248 284.568 489.468 295.958Z" fill="#E5ECF5"/>
<path d="M475.922 297.991C480.986 297.991 485.478 297.264 489.466 295.958C489.469 295.958 489.465 295.958 489.468 295.958C485.479 297.264 480.987 297.992 475.922 297.991Z" fill="#D5DFF3"/>
<path d="M475.92 297.991C474.708 297.991 473.46 297.95 472.182 297.865C472.604 295.664 473.209 293.43 473.966 291.176C474.668 291.132 475.364 291.068 476.055 290.984C477.495 291.164 479.624 291.337 482.487 291.337C482.857 291.337 483.24 291.335 483.635 291.329C487.674 291.265 493.567 290.833 501.288 289.404C497.95 292.199 494.039 294.459 489.466 295.958C485.478 297.264 480.986 297.991 475.922 297.991H475.92ZM471.536 296.975C471.087 295.903 470.32 293.888 469.636 291.186C470.32 291.226 471.009 291.246 471.702 291.246C472.171 291.246 472.638 291.237 473.104 291.219C472.463 293.155 471.934 295.076 471.536 296.975ZM482.487 290.515C481.302 290.515 480.244 290.485 479.31 290.437C487.892 288.586 495.478 283.66 501.086 276.744C505.099 275.757 509.362 274.308 513.595 272.202C510.967 278.238 507.377 283.89 502.487 288.355C493.796 290.048 487.161 290.515 482.487 290.515ZM501.9 275.708C505.036 271.587 507.492 266.812 509.077 261.6C512.092 260.512 515.18 259.207 518.179 257.646C517.219 262.084 515.895 266.655 514.084 271.049C509.983 273.181 505.833 274.672 501.9 275.708ZM509.356 260.642C510.403 256.91 511.006 252.961 511.098 248.873C513.831 247.915 516.865 246.725 520.085 245.257C519.745 248.772 519.213 252.634 518.395 256.621C515.43 258.207 512.361 259.534 509.356 260.642ZM511.11 248.015C511.11 247.936 511.11 247.858 511.11 247.778C511.11 245.026 510.878 242.332 510.434 239.722C512.462 239.231 516.191 238.154 520.626 236.053C520.577 238.404 520.449 241.219 520.172 244.329C516.927 245.826 513.867 247.039 511.11 248.015ZM510.291 238.926C510.277 238.851 510.264 238.778 510.249 238.703C514.59 234.203 518.194 230.762 520.272 228.828C520.357 228.803 520.442 228.779 520.526 228.754C520.526 228.754 520.527 228.755 520.527 228.756C520.533 228.844 520.693 231.264 520.642 235.153C516.136 237.327 512.337 238.429 510.291 238.926ZM510.055 237.746C509.901 237.027 509.73 236.315 509.544 235.61C509.73 234.433 509.966 233.277 510.233 232.158C512.846 231.178 515.61 230.238 518.543 229.344C516.475 231.299 513.51 234.177 510.055 237.746ZM509.038 233.837C508.926 233.471 508.81 233.109 508.689 232.748C508.899 232.666 509.109 232.585 509.321 232.504C509.222 232.943 509.127 233.388 509.038 233.837Z" fill="#D36E66"/>
<path d="M472.182 297.865C472.097 297.858 472.008 297.852 471.923 297.846C471.923 297.846 471.774 297.542 471.536 296.975C471.934 295.076 472.463 293.155 473.104 291.219C473.392 291.208 473.679 291.194 473.966 291.176C473.209 293.43 472.603 295.664 472.182 297.865ZM482.487 291.337C479.624 291.337 477.495 291.164 476.055 290.984C477.154 290.851 478.24 290.668 479.31 290.437C480.244 290.485 481.302 290.515 482.487 290.515C487.16 290.515 493.796 290.048 502.487 288.355C502.094 288.713 501.697 289.061 501.288 289.404C493.567 290.833 487.674 291.265 483.635 291.329C483.24 291.335 482.857 291.337 482.487 291.337ZM501.086 276.744C501.363 276.403 501.633 276.059 501.9 275.708C505.833 274.672 509.983 273.18 514.083 271.049C513.924 271.435 513.761 271.819 513.595 272.202C509.362 274.308 505.099 275.757 501.086 276.744ZM509.077 261.6C509.173 261.281 509.266 260.963 509.356 260.642C512.361 259.534 515.429 258.207 518.395 256.621C518.325 256.962 518.254 257.303 518.179 257.646C515.18 259.207 512.092 260.512 509.077 261.6ZM511.098 248.873C511.104 248.588 511.108 248.301 511.11 248.015C513.867 247.039 516.927 245.826 520.172 244.329C520.144 244.635 520.116 244.944 520.085 245.257C516.865 246.725 513.831 247.915 511.098 248.873ZM510.434 239.721C510.388 239.455 510.341 239.19 510.291 238.926C512.337 238.429 516.135 237.327 520.642 235.153C520.638 235.445 520.632 235.744 520.626 236.053C516.191 238.154 512.462 239.23 510.434 239.721ZM510.249 238.703C510.188 238.383 510.122 238.064 510.055 237.746C513.51 234.177 516.475 231.299 518.543 229.344C519.113 229.17 519.689 228.999 520.272 228.828C518.194 230.762 514.59 234.203 510.249 238.703ZM509.544 235.61C509.387 235.013 509.217 234.422 509.038 233.837C509.127 233.388 509.222 232.943 509.321 232.504C509.623 232.388 509.927 232.273 510.233 232.158C509.966 233.277 509.73 234.433 509.544 235.61Z" fill="#E0A14C"/>
<path d="M256.937 292.762C256.937 292.762 214.939 302.777 211.271 242.42C211.271 242.42 269.442 251.429 256.937 292.762Z" fill="#F9AB43"/>
<mask id="mask1_8410_1029" style="mask-type:luminance" maskUnits="userSpaceOnUse" x="211" y="242" width="48" height="52">
<path d="M256.937 292.762C256.937 292.762 214.939 302.777 211.271 242.42C211.271 242.42 269.442 251.429 256.937 292.762Z" fill="white"/>
</mask>
<g mask="url(#mask1_8410_1029)">
<path d="M221.786 236.815L221.168 237.016C225.32 249.723 225.362 260.444 225.266 263.586C222.578 260.031 220.159 256.578 218.089 253.478C218.134 252.305 218.272 244.226 214.189 235.068L213.596 235.332C217.032 243.04 217.433 249.95 217.451 252.517C213.01 245.796 210.325 240.964 210.246 240.819L209.676 241.132C209.757 241.28 212.5 246.216 217.033 253.059C209.955 250.897 203.699 245.778 203.635 245.724L203.221 246.225C203.289 246.281 210.081 251.844 217.591 253.898C219.67 257.006 222.097 260.468 224.795 264.031C215.418 261.698 205.288 255.18 205.184 255.112L204.83 255.657C204.938 255.727 215.72 262.669 225.417 264.849C228.052 268.293 230.934 271.81 233.993 275.179C220.309 272.605 207.214 265.44 207.081 265.366L206.767 265.935C206.904 266.011 220.627 273.524 234.718 275.974C237.03 278.477 239.436 280.888 241.912 283.11C226.688 282.612 214.261 276.005 214.135 275.937L213.826 276.509C213.956 276.579 226.936 283.488 242.674 283.783C245.179 285.978 247.75 287.971 250.358 289.67C239.343 290.946 224.57 288.336 223.762 287.991L223.507 288.589C224.382 288.962 239.776 291.765 251.218 290.218C253.76 291.804 256.334 293.104 258.913 294.021L259.132 293.409C256.641 292.523 254.154 291.275 251.696 289.755C252.017 289.051 252.865 287 253.694 283.332C253.76 283.042 253.826 282.741 253.891 282.431C254.888 277.677 255.971 269.52 255.47 257.658L254.821 257.686C255.677 277.912 251.941 287.582 251.137 289.409C248.422 287.68 245.745 285.618 243.138 283.337C243.303 282.838 243.712 281.534 244.149 279.6C245.527 273.507 247.152 261.288 242.074 249.193L241.475 249.444C247.844 264.615 243.521 279.986 242.607 282.867C240.045 280.588 237.554 278.102 235.166 275.512C235.409 273.513 237.345 255.662 230.904 242.022L230.317 242.299C236.279 254.928 234.969 271.25 234.584 274.876C231.478 271.463 228.553 267.892 225.883 264.398C225.969 262.849 226.441 251.062 221.786 236.815Z" fill="#EB725F"/>
</g>
<path d="M251.3 293.371C251.452 292.841 251.59 292.304 251.712 291.762C251.796 291.395 251.871 291.028 251.94 290.66C253.347 291.506 254.762 292.261 256.184 292.91C255.262 293.071 253.544 293.314 251.3 293.371ZM256.997 292.563C255.343 291.841 253.695 290.97 252.058 289.976C252.148 289.419 252.221 288.862 252.278 288.305C252.674 287.21 253.188 285.573 253.695 283.332C253.76 283.042 253.826 282.741 253.891 282.43C254.415 279.932 254.963 276.493 255.292 272.071H257.137C258.136 274.976 258.697 278.146 258.698 281.607C258.699 284.979 258.17 288.621 256.997 292.563ZM252.425 285.66C252.469 280.928 251.347 276.302 249.261 272.071H254.638C254.165 278.329 253.23 282.789 252.425 285.66Z" fill="#E0A14C"/>
<path d="M256.183 292.91C254.762 292.261 253.346 291.506 251.939 290.661C251.982 290.433 252.022 290.205 252.058 289.977C253.695 290.97 255.343 291.841 256.996 292.563C256.977 292.628 256.956 292.697 256.936 292.762C256.936 292.762 256.672 292.824 256.183 292.91ZM252.278 288.305C252.367 287.421 252.416 286.539 252.424 285.661C253.23 282.789 254.165 278.33 254.638 272.071H255.292C254.963 276.493 254.415 279.932 253.89 282.431C253.826 282.741 253.76 283.042 253.694 283.332C253.187 285.573 252.674 287.21 252.278 288.305Z" fill="#D36E66"/>
<path d="M211.276 242.503C211.276 242.503 211.275 242.503 211.275 242.502L211.276 242.503Z" fill="#E5ECF5"/>
<path d="M240.612 261.101C238.907 259.66 237.043 258.357 235.044 257.222C234.724 254.667 234.246 252.015 233.55 249.389C235.916 250.488 238.303 251.745 240.612 253.172V261.101ZM234.341 256.833C231.595 255.35 228.599 254.176 225.405 253.378C225.136 251.066 224.739 248.48 224.155 245.696C226.857 246.587 229.796 247.689 232.784 249.038C233.504 251.644 234.003 254.281 234.341 256.833ZM224.733 253.216C224.671 253.202 224.609 253.188 224.547 253.174C222.385 252.685 220.228 252.388 218.098 252.272C218.072 250.596 217.886 247.484 217.022 243.638C218.86 244.094 221.049 244.694 223.443 245.463C224.044 248.272 224.454 250.882 224.733 253.216ZM212.311 252.4C212.284 252.221 212.258 252.042 212.231 251.862C212.559 252.018 212.891 252.171 213.228 252.32C212.922 252.344 212.616 252.37 212.311 252.4ZM217.448 252.243C217.387 252.24 217.326 252.238 217.266 252.236C214.499 248.037 212.435 244.601 211.284 242.631C211.281 242.588 211.278 242.546 211.276 242.503L211.276 242.502C211.274 242.475 211.272 242.447 211.271 242.42C211.271 242.42 213.215 242.72 216.318 243.465C217.227 247.382 217.42 250.552 217.448 252.243ZM214.711 252.239C213.819 251.884 212.952 251.494 212.121 251.086C211.814 248.866 211.565 246.533 211.382 244.078C212.552 246.045 214.287 248.878 216.479 252.219C216.329 252.217 216.18 252.216 216.031 252.216C215.589 252.216 215.149 252.224 214.711 252.239Z" fill="#E0A14C"/>
<path d="M235.044 257.222C234.811 257.09 234.578 256.96 234.341 256.833C234.004 254.281 233.504 251.644 232.784 249.038C233.039 249.154 233.295 249.27 233.551 249.389C234.246 252.015 234.724 254.667 235.044 257.222ZM225.405 253.378C225.182 253.322 224.958 253.268 224.733 253.216C224.455 250.882 224.044 248.271 223.443 245.463C223.679 245.539 223.916 245.617 224.156 245.696C224.739 248.48 225.137 251.066 225.405 253.378ZM213.228 252.32C212.892 252.171 212.559 252.017 212.231 251.862C212.194 251.604 212.157 251.346 212.122 251.086C212.953 251.494 213.819 251.884 214.711 252.239C214.214 252.256 213.72 252.283 213.228 252.32ZM218.098 252.272C217.881 252.261 217.664 252.251 217.448 252.242C217.42 250.552 217.227 247.381 216.318 243.465C216.547 243.521 216.781 243.578 217.022 243.638C217.886 247.484 218.072 250.596 218.098 252.272ZM217.266 252.236C217.003 252.227 216.741 252.222 216.479 252.219C214.288 248.878 212.552 246.045 211.383 244.078C211.347 243.6 211.314 243.118 211.284 242.631C212.435 244.601 214.499 248.037 217.266 252.236Z" fill="#D36E66"/>
<path d="M480.501 265.991C480.501 269.336 477.765 272.071 474.421 272.071H246.692C243.348 272.071 240.612 269.336 240.612 265.991V128.764C240.612 125.42 243.348 122.684 246.692 122.684H474.421C477.765 122.684 480.501 125.42 480.501 128.764V265.991Z" fill="#6E7FDD"/>
<path d="M247.383 264.745H473.73V130.01H247.383V264.745Z" fill="#D0DBF7"/>
<path d="M397.797 290.724H323.316V272.071H397.797V290.724Z" fill="#8397ED"/>
<path d="M433.445 301.434C419.824 290.437 392.298 282.918 360.557 282.918C328.815 282.918 301.289 290.437 287.668 301.434H433.445Z" fill="#6E7FDD"/>
<path d="M287.668 303.334C288.97 303.334 290.272 303.334 291.574 303.334C295.117 303.334 298.659 303.334 302.201 303.334C307.414 303.334 312.628 303.334 317.841 303.334C324.227 303.334 330.615 303.334 337.002 303.334C343.998 303.334 350.996 303.334 357.992 303.334C365.024 303.334 372.055 303.334 379.087 303.334C385.673 303.334 392.259 303.334 398.846 303.334C404.411 303.334 409.976 303.334 415.542 303.334C419.527 303.334 423.513 303.334 427.5 303.334C429.397 303.334 431.302 303.38 433.199 303.334C433.282 303.332 433.363 303.334 433.445 303.334C435.89 303.334 435.895 299.534 433.445 299.534C432.143 299.534 430.841 299.534 429.539 299.534C425.997 299.534 422.454 299.534 418.911 299.534C413.698 299.534 408.486 299.534 403.272 299.534C396.885 299.534 390.499 299.534 384.111 299.534C377.114 299.534 370.117 299.534 363.121 299.534C356.089 299.534 349.058 299.534 342.026 299.534C335.44 299.534 328.853 299.534 322.267 299.534C316.702 299.534 311.137 299.534 305.571 299.534C301.585 299.534 297.6 299.534 293.613 299.534C291.716 299.534 289.811 299.488 287.913 299.534C287.832 299.536 287.749 299.534 287.668 299.534C285.223 299.534 285.218 303.334 287.668 303.334Z" fill="#8397ED"/>
<path d="M259.746 255.954H461.368V139.384H259.746V255.954Z" fill="white"/>
<path d="M259.746 150.617H461.368V139.384H259.746V150.617Z" fill="#E2E6FF"/>
<path d="M269.547 145.259C269.547 146.679 268.395 147.83 266.976 147.83C265.556 147.83 264.405 146.679 264.405 145.259C264.405 143.839 265.556 142.688 266.976 142.688C268.395 142.688 269.547 143.839 269.547 145.259Z" fill="#EB725F"/>
<path d="M278.202 145.259C278.202 146.679 277.051 147.83 275.631 147.83C274.212 147.83 273.061 146.679 273.061 145.259C273.061 143.839 274.212 142.688 275.631 142.688C277.051 142.688 278.202 143.839 278.202 145.259Z" fill="#F9AB43"/>
<path d="M286.857 145.259C286.857 146.679 285.706 147.83 284.287 147.83C282.867 147.83 281.716 146.679 281.716 145.259C281.716 143.839 282.867 142.688 284.287 142.688C285.706 142.688 286.857 143.839 286.857 145.259Z" fill="#6E7FDD"/>
<path d="M431.797 199.923C431.797 206.87 425.827 212.554 418.529 212.554H306.356C299.059 212.554 293.088 206.87 293.088 199.923C293.088 192.975 299.059 187.291 306.356 187.291H418.529C425.827 187.291 431.797 192.975 431.797 199.923Z" fill="#E2E6FF"/>
<path d="M308.96 201.363C308.171 200.629 307.715 199.633 307.677 198.556C307.638 197.479 308.021 196.452 308.755 195.663C309.488 194.874 310.486 194.419 311.562 194.38C312.639 194.341 313.666 194.724 314.455 195.458C315.244 196.192 315.7 197.189 315.739 198.266C315.777 199.343 315.394 200.37 314.661 201.159C313.927 201.947 312.93 202.402 311.853 202.441C310.776 202.481 309.749 202.098 308.96 201.363ZM320.835 205.877L316.232 201.594C316.927 200.61 317.285 199.435 317.241 198.212C317.188 196.733 316.563 195.365 315.48 194.357C314.397 193.349 312.986 192.824 311.509 192.877C310.03 192.93 308.662 193.556 307.654 194.639C306.647 195.721 306.121 197.132 306.174 198.61C306.227 200.087 306.853 201.457 307.936 202.464C309.019 203.472 310.429 203.998 311.907 203.944C313.131 203.9 314.276 203.458 315.207 202.694L319.811 206.978L320.835 205.877Z" fill="#6E7FDD"/>
<path d="M342.098 199.707C342.098 200.426 341.515 201.009 340.797 201.009C340.078 201.009 339.495 200.426 339.495 199.707C339.495 198.988 340.078 198.406 340.797 198.406C341.515 198.406 342.098 198.988 342.098 199.707Z" fill="#B6C3F2"/>
<path d="M357.298 199.707C357.298 200.426 356.715 201.009 355.997 201.009C355.278 201.009 354.695 200.426 354.695 199.707C354.695 198.988 355.278 198.406 355.997 198.406C356.715 198.406 357.298 198.988 357.298 199.707Z" fill="#B6C3F2"/>
<path d="M372.498 199.707C372.498 200.426 371.915 201.009 371.196 201.009C370.477 201.009 369.895 200.426 369.895 199.707C369.895 198.988 370.477 198.406 371.196 198.406C371.915 198.406 372.498 198.988 372.498 199.707Z" fill="#B6C3F2"/>
<path d="M387.698 199.707C387.698 200.426 387.115 201.009 386.397 201.009C385.678 201.009 385.095 200.426 385.095 199.707C385.095 198.988 385.678 198.406 386.397 198.406C387.115 198.406 387.698 198.988 387.698 199.707Z" fill="#B6C3F2"/>
<path d="M405.9 204.292H506.256V93.8797H405.9V204.292Z" fill="#F5F9FF"/>
<path d="M506.256 106.326H405.9V93.8797H506.256V106.326Z" fill="#E2E6FF"/>
<path d="M416.759 100.39C416.759 101.963 415.484 103.238 413.911 103.238C412.339 103.238 411.062 101.963 411.062 100.39C411.062 98.8174 412.339 97.5421 413.911 97.5421C415.484 97.5421 416.759 98.8174 416.759 100.39Z" fill="#EB725F"/>
<path d="M426.35 100.39C426.35 101.963 425.075 103.238 423.502 103.238C421.929 103.238 420.654 101.963 420.654 100.39C420.654 98.8174 421.929 97.5421 423.502 97.5421C425.075 97.5421 426.35 98.8174 426.35 100.39Z" fill="#F9AB43"/>
<path d="M435.942 100.39C435.942 101.963 434.666 103.238 433.093 103.238C431.519 103.238 430.244 101.963 430.244 100.39C430.244 98.8174 431.519 97.5421 433.093 97.5421C434.666 97.5421 435.942 98.8174 435.942 100.39Z" fill="#6E7FDD"/>
<path d="M513.939 200.243L509.794 204.388L472.645 167.239L476.79 163.094L513.939 200.243Z" fill="#EB725F"/>
<path d="M488.949 171.598L481.15 179.397L470.279 168.526L478.078 160.728L488.949 171.598Z" fill="#6E7FDD"/>
<path d="M457.096 172.454C450.713 172.454 444.332 170.025 439.473 165.166C429.757 155.45 429.757 139.639 439.473 129.922C444.332 125.064 450.714 122.634 457.096 122.634C463.478 122.634 469.859 125.063 474.718 129.922C483.095 138.299 484.25 151.206 478.182 160.832L478.078 160.728L470.279 168.526L470.384 168.63C466.34 171.179 461.717 172.454 457.096 172.454Z" fill="#F5F9FF"/>
<path d="M470.384 168.63L470.279 168.526L478.078 160.728L478.182 160.832C477.212 162.371 476.057 163.827 474.718 165.166C473.378 166.506 471.923 167.66 470.384 168.63Z" fill="#8997E4"/>
<path d="M441.252 131.701C432.517 140.437 432.517 154.651 441.252 163.386C449.988 172.123 464.202 172.123 472.938 163.386C481.674 154.651 481.674 140.437 472.938 131.701C464.202 122.966 449.989 122.965 441.252 131.701ZM477.083 167.532C466.062 178.553 448.129 178.554 437.107 167.532C426.087 156.511 426.087 138.577 437.107 127.556C448.129 116.535 466.061 116.535 477.083 127.556C488.104 138.578 488.104 156.511 477.083 167.532Z" fill="#EB725F"/>
<path d="M469.491 138.799L465.841 135.149L457.096 143.894L448.35 135.149L444.7 138.799L453.446 147.544L444.7 156.289L448.35 159.939L457.096 151.194L465.841 159.939L469.491 156.289L460.746 147.544L469.491 138.799Z" fill="#F9AB43"/>
<path d="M297.171 221.444H251.773V303.457H321.796V245.035L297.171 221.444Z" fill="#EB725F"/>
<path d="M297.17 221.444L321.796 245.035H297.17V221.444Z" fill="#F4AEA6"/>
<path d="M279.316 252.962C279.316 255.424 277.886 257.419 276.122 257.419C274.358 257.419 272.928 255.424 272.928 252.962C272.928 250.5 274.358 248.505 276.122 248.505C277.886 248.505 279.316 250.5 279.316 252.962Z" fill="white"/>
<path d="M300.552 252.962C300.552 255.424 299.122 257.419 297.358 257.419C295.594 257.419 294.164 255.424 294.164 252.962C294.164 250.5 295.594 248.505 297.358 248.505C299.122 248.505 300.552 250.5 300.552 252.962Z" fill="white"/>
<path d="M277.856 266.343C279.185 264.887 281.034 263.743 282.873 263.079C287.529 261.401 292.03 263.155 295.576 266.343C296.523 267.194 297.93 265.796 296.979 264.941C293.048 261.407 287.948 259.331 282.718 261.04C280.425 261.789 278.096 263.141 276.453 264.941C275.595 265.882 276.993 267.287 277.856 266.343Z" fill="white"/>
<path d="M273.251 83.1608H222.187C219.141 83.1608 216.648 85.6529 216.648 88.6989V124.518C216.648 127.564 219.141 130.057 222.187 130.057H240.129L247.719 139.302L255.309 130.057H273.251C276.297 130.057 278.789 127.564 278.789 124.518V88.6989C278.789 85.6529 276.297 83.1608 273.251 83.1608Z" fill="#F9AB43"/>
<path d="M247.719 120.447C244.509 120.447 241.555 119.337 239.216 117.484L258.476 98.2231C260.329 100.562 261.44 103.517 261.44 106.726C261.44 114.292 255.285 120.447 247.719 120.447ZM247.719 93.0049C250.928 93.0049 253.881 94.1153 256.221 95.9682L236.961 115.229C235.108 112.889 233.997 109.935 233.997 106.726C233.997 99.1602 240.153 93.0049 247.719 93.0049ZM247.719 89.816C238.394 89.816 230.809 97.4016 230.809 106.726C230.809 116.05 238.394 123.636 247.719 123.636C257.043 123.636 264.629 116.05 264.629 106.726C264.629 97.4016 257.043 89.816 247.719 89.816Z" fill="white"/>
<path d="M463.851 227.185L421.5 226.906L420.994 303.416L486.32 303.848L486.679 249.345L463.851 227.185Z" fill="#D0DBF7"/>
<path d="M463.851 227.185L486.679 249.344L463.706 249.193L463.851 227.185Z" fill="#E3EBFC"/>
<path d="M467.764 255.706L463.729 251.618L453.935 261.283L444.271 251.489L440.183 255.524L449.848 265.317L440.055 274.981L444.089 279.069L453.882 269.405L463.548 279.198L467.635 275.164L457.97 265.371L467.764 255.706Z" fill="#EEF4FF"/>
<path d="M250.312 168.169L224.964 155.465L202.014 201.255L241.109 220.85L257.458 188.231L250.312 168.169Z" fill="#D0DBF7"/>
<path d="M250.312 168.169L257.458 188.231L243.71 181.34L250.312 168.169Z" fill="#E3EBFC"/>
<path d="M244.219 186.452L243.006 182.803L234.265 185.708L231.361 176.967L227.712 178.178L230.617 186.919L221.876 189.824L223.088 193.472L231.829 190.568L234.734 199.309L238.382 198.096L235.478 189.356L244.219 186.452Z" fill="#EEF4FF"/>
<path d="M345.122 83.1721L324.836 89.7734L336.761 126.421L368.051 116.24L359.557 90.1329L345.122 83.1721Z" fill="#D0DBF7"/>
<path d="M345.122 83.1722L359.556 90.133L348.552 93.7134L345.122 83.1722Z" fill="#E3EBFC"/>
<path d="M351.527 96.1811L348.949 94.8693L345.805 101.046L339.629 97.9017L338.317 100.48L344.493 103.624L341.349 109.8L343.927 111.112L347.071 104.936L353.248 108.08L354.56 105.501L348.384 102.358L351.527 96.1811Z" fill="#EEF4FF"/>
<path d="M391.142 90.2C387.255 90.1863 384.114 87.0239 384.128 83.1365C384.141 79.2491 387.303 76.1088 391.191 76.1217C395.078 76.1354 398.219 79.2978 398.205 83.1852C398.192 87.0726 395.03 90.2129 391.142 90.2ZM407.748 79.6565L405.971 79.6496C405.6 78.0795 404.987 76.6066 404.171 75.266L405.433 74.0127C406.417 73.0354 406.423 71.4295 405.446 70.4453L403.981 68.9701C403.003 67.9859 401.397 67.9799 400.413 68.958L399.15 70.2112C397.816 69.3859 396.347 68.7627 394.779 68.3804L394.785 66.6043C394.791 65.2165 393.659 64.0773 392.272 64.0727L390.193 64.0651C388.806 64.0605 387.666 65.1922 387.661 66.5792L387.655 68.356C386.086 68.7277 384.613 69.3403 383.271 70.1565L382.018 68.8941C381.04 67.9092 379.435 67.9039 378.451 68.882L376.976 70.3465C375.991 71.3246 375.985 72.9297 376.963 73.9139L378.217 75.1763C377.392 76.5116 376.768 77.9799 376.386 79.5478L374.61 79.5417C373.222 79.5364 372.083 80.668 372.078 82.0558L372.071 84.1344C372.067 85.5214 373.198 86.6607 374.585 86.666L376.361 86.672C376.732 88.2414 377.346 89.7143 378.162 91.0557L376.9 92.309C375.915 93.2863 375.909 94.8922 376.887 95.8764L378.352 97.3516C379.329 98.3358 380.936 98.3419 381.92 97.3637L383.182 96.1105C384.517 96.9351 385.985 97.559 387.553 97.9413L387.547 99.7174C387.543 101.105 388.673 102.244 390.06 102.249L392.14 102.256C393.528 102.261 394.666 101.13 394.671 99.7418L394.677 97.9656C396.248 97.5948 397.721 96.9807 399.061 96.1652L400.315 97.4276C401.293 98.4118 402.898 98.4179 403.883 97.4397L405.357 95.9752C406.341 94.9971 406.347 93.392 405.369 92.407L404.117 91.1454C404.941 89.8101 405.564 88.3418 405.947 86.7739L407.723 86.78C409.111 86.7845 410.25 85.6536 410.254 84.2659L410.262 82.1873C410.267 80.7995 409.135 79.6603 407.748 79.6565Z" fill="#EB725F"/>
<path d="M391.144 89.3972C387.701 89.3851 384.918 86.5837 384.93 83.1394C384.942 79.6943 387.744 76.9119 391.188 76.9241C394.632 76.9355 397.415 79.7376 397.404 83.1819C397.391 86.6263 394.589 89.4094 391.144 89.3972ZM391.2 73.1173C385.655 73.099 381.143 77.5792 381.124 83.1257C381.105 88.6722 385.586 93.1843 391.132 93.2033C396.678 93.2223 401.19 88.7421 401.209 83.1956C401.229 77.6484 396.748 73.137 391.2 73.1173Z" fill="#F9AB43"/>
<path d="M267.419 282.899H269.267L271.979 287.291V282.899H273.848V290.278H272.011L269.288 285.876V290.278H267.419V282.899Z" fill="white"/>
<path d="M277.713 290.436C277.087 290.436 276.538 290.323 276.067 290.098C275.595 289.866 275.229 289.549 274.969 289.148C274.716 288.74 274.589 288.272 274.589 287.744C274.589 287.217 274.716 286.752 274.969 286.351C275.229 285.943 275.595 285.626 276.067 285.401C276.538 285.169 277.087 285.053 277.713 285.053C278.34 285.053 278.889 285.169 279.36 285.401C279.832 285.626 280.194 285.943 280.447 286.351C280.708 286.752 280.838 287.217 280.838 287.744C280.838 288.272 280.708 288.74 280.447 289.148C280.194 289.549 279.832 289.866 279.36 290.098C278.889 290.323 278.34 290.436 277.713 290.436ZM277.713 288.99C278.086 288.99 278.382 288.881 278.6 288.663C278.825 288.438 278.938 288.131 278.938 287.744C278.938 287.357 278.825 287.055 278.6 286.837C278.382 286.611 278.086 286.499 277.713 286.499C277.34 286.499 277.041 286.611 276.816 286.837C276.598 287.055 276.489 287.357 276.489 287.744C276.489 288.131 276.598 288.438 276.816 288.663C277.041 288.881 277.34 288.99 277.713 288.99Z" fill="white"/>
<path d="M285.16 282.899H287.809C288.618 282.899 289.326 283.047 289.931 283.343C290.536 283.638 291.001 284.064 291.324 284.62C291.655 285.169 291.82 285.813 291.82 286.552C291.82 287.776 291.461 288.705 290.744 289.338C290.026 289.965 289.03 290.278 287.756 290.278H285.16V282.899ZM287.915 288.705C288.555 288.705 289.044 288.511 289.382 288.124C289.727 287.737 289.899 287.213 289.899 286.552C289.899 285.946 289.727 285.45 289.382 285.063C289.044 284.669 288.576 284.472 287.978 284.472H287.028V288.705H287.915Z" fill="white"/>
<path d="M294.152 290.436C293.519 290.436 293.005 290.285 292.611 289.982C292.224 289.673 292.03 289.243 292.03 288.694C292.03 288.124 292.217 287.688 292.59 287.386C292.97 287.076 293.512 286.921 294.215 286.921C294.49 286.921 294.764 286.953 295.039 287.016C295.313 287.072 295.549 287.15 295.746 287.248V287.143C295.746 286.601 295.303 286.33 294.416 286.33C293.797 286.33 293.23 286.45 292.716 286.689V285.412C292.942 285.306 293.237 285.222 293.603 285.158C293.969 285.088 294.349 285.053 294.743 285.053C295.686 285.053 296.397 285.243 296.875 285.623C297.361 285.996 297.604 286.52 297.604 287.196V290.278H295.862V289.845C295.672 290.028 295.433 290.172 295.144 290.278C294.856 290.383 294.525 290.436 294.152 290.436ZM294.701 289.296C294.919 289.296 295.123 289.254 295.313 289.169C295.503 289.078 295.647 288.962 295.746 288.821V288.378C295.443 288.174 295.099 288.072 294.711 288.072C294.465 288.072 294.275 288.124 294.141 288.23C294.008 288.336 293.941 288.49 293.941 288.694C293.941 288.884 294.004 289.032 294.131 289.138C294.265 289.243 294.455 289.296 294.701 289.296Z" fill="white"/>
<path d="M300.426 290.436C299.8 290.436 299.325 290.264 299.001 289.919C298.684 289.567 298.526 289.088 298.526 288.483V286.499H297.808V285.211H298.526V283.691H300.384V285.211H301.545V286.499H300.384V288.23C300.384 288.504 300.433 288.701 300.532 288.821C300.637 288.941 300.82 289.001 301.081 289.001C301.313 289.001 301.545 288.937 301.777 288.811V290.193C301.594 290.278 301.397 290.338 301.186 290.373C300.982 290.415 300.729 290.436 300.426 290.436Z" fill="white"/>
<path d="M304.058 290.436C303.425 290.436 302.911 290.285 302.517 289.982C302.13 289.673 301.937 289.243 301.937 288.694C301.937 288.124 302.123 287.688 302.496 287.386C302.876 287.076 303.418 286.921 304.122 286.921C304.396 286.921 304.67 286.953 304.945 287.016C305.219 287.072 305.455 287.15 305.652 287.248V287.143C305.652 286.601 305.209 286.33 304.322 286.33C303.703 286.33 303.136 286.45 302.623 286.689V285.412C302.848 285.306 303.143 285.222 303.509 285.158C303.875 285.088 304.255 285.053 304.649 285.053C305.592 285.053 306.303 285.243 306.782 285.623C307.267 285.996 307.51 286.52 307.51 287.196V290.278H305.768V289.845C305.578 290.028 305.339 290.172 305.05 290.278C304.762 290.383 304.431 290.436 304.058 290.436ZM304.607 289.296C304.825 289.296 305.029 289.254 305.219 289.169C305.409 289.078 305.554 288.962 305.652 288.821V288.378C305.349 288.174 305.005 288.072 304.618 288.072C304.371 288.072 304.181 288.124 304.048 288.23C303.914 288.336 303.847 288.49 303.847 288.694C303.847 288.884 303.91 289.032 304.037 289.138C304.171 289.243 304.361 289.296 304.607 289.296Z" fill="white"/>
</svg>
