<svg width="710" height="444" viewBox="0 0 710 444" fill="none" xmlns="http://www.w3.org/2000/svg">
<path d="M408.733 96.127H403.449V90.8435H401.569V96.127H396.286V98.0073H401.569V103.29H403.449V98.0073H408.733V96.127Z" fill="#E2E6FF"/>
<path d="M485.387 130.06H480.759V125.433H479.111V130.06H474.483V131.708H479.111V136.336H480.759V131.708H485.387V130.06Z" fill="#E2E6FF"/>
<path d="M306.904 79.8121H302.275V75.1837H300.628V79.8121H296V81.459H300.628V86.0874H302.275V81.459H306.904V79.8121Z" fill="#E2E6FF"/>
<path d="M221.483 122.889H216.2V117.606H214.319V122.889H209.037V124.769H214.319V130.053H216.2V124.769H221.483V122.889Z" fill="#E2E6FF"/>
<path d="M498.451 83.8006H493.822V79.1722H492.175V83.8006H487.546V85.4483H492.175V90.0767H493.822V85.4483H498.451V83.8006Z" fill="#E2E6FF"/>
<path d="M255.064 69.3895H249.781V64.1067H247.901V69.3895H242.617V71.2705H247.901V76.5532H249.781V71.2705H255.064V69.3895Z" fill="#E2E6FF"/>
<path d="M518.242 277.768H513.613V273.14H511.966V277.768H507.337V279.416H511.966V284.044H513.613V279.416H518.242V277.768Z" fill="#E2E6FF"/>
<path d="M203.642 263.364H198.358V258.081H196.478V263.364H191.195V265.244H196.478V270.527H198.358V265.244H203.642V263.364Z" fill="#E2E6FF"/>
<path d="M418.344 105.126C418.344 105.934 417.689 106.589 416.881 106.589C416.073 106.589 415.418 105.934 415.418 105.126C415.418 104.318 416.073 103.663 416.881 103.663C417.689 103.663 418.344 104.318 418.344 105.126Z" fill="#CAD2F9"/>
<path d="M443.461 63.8042C443.461 65.3348 442.221 66.5752 440.69 66.5752C439.159 66.5752 437.919 65.3348 437.919 63.8042C437.919 62.2743 439.159 61.034 440.69 61.034C442.221 61.034 443.461 62.2743 443.461 63.8042Z" fill="#CAD2F9"/>
<path d="M468.384 79.1723C468.384 79.9801 467.729 80.6353 466.921 80.6353C466.113 80.6353 465.458 79.9801 465.458 79.1723C465.458 78.3644 466.113 77.7093 466.921 77.7093C467.729 77.7093 468.384 78.3644 468.384 79.1723Z" fill="#CAD2F9"/>
<path d="M516.508 187.635C516.508 188.443 515.852 189.098 515.045 189.098C514.236 189.098 513.582 188.443 513.582 187.635C513.582 186.826 514.236 186.172 515.045 186.172C515.852 186.172 516.508 186.826 516.508 187.635Z" fill="#CAD2F9"/>
<path d="M521.298 253.349C521.298 254.879 520.058 256.119 518.528 256.119C516.997 256.119 515.757 254.879 515.757 253.349C515.757 251.818 516.997 250.578 518.528 250.578C520.058 250.578 521.298 251.818 521.298 253.349Z" fill="#CAD2F9"/>
<path d="M312.613 105.3C312.613 106.83 311.373 108.071 309.843 108.071C308.312 108.071 307.072 106.83 307.072 105.3C307.072 103.77 308.312 102.529 309.843 102.529C311.373 102.529 312.613 103.77 312.613 105.3Z" fill="#CAD2F9"/>
<path d="M333.622 66.5753C333.622 67.3832 332.967 68.0383 332.159 68.0383C331.351 68.0383 330.696 67.3832 330.696 66.5753C330.696 65.7675 331.351 65.1123 332.159 65.1123C332.967 65.1123 333.622 65.7675 333.622 66.5753Z" fill="#CAD2F9"/>
<path d="M217.331 61.2804C217.331 62.0882 216.676 62.7441 215.868 62.7441C215.06 62.7441 214.405 62.0882 214.405 61.2804C214.405 60.4732 215.06 59.8174 215.868 59.8174C216.676 59.8174 217.331 60.4732 217.331 61.2804Z" fill="#CAD2F9"/>
<path d="M200.189 149.842C200.189 151.372 198.948 152.613 197.418 152.613C195.888 152.613 194.647 151.372 194.647 149.842C194.647 148.312 195.888 147.071 197.418 147.071C198.948 147.071 200.189 148.312 200.189 149.842Z" fill="#CAD2F9"/>
<path d="M198.881 293.689C198.881 294.497 198.226 295.152 197.418 295.152C196.61 295.152 195.955 294.497 195.955 293.689C195.955 292.881 196.61 292.226 197.418 292.226C198.226 292.226 198.881 292.881 198.881 293.689Z" fill="#CAD2F9"/>
<path d="M529.579 315.463C529.579 322.625 451.417 328.431 355 328.431C258.583 328.431 180.421 322.625 180.421 315.463C180.421 308.301 258.583 302.495 355 302.495C451.417 302.495 529.579 308.301 529.579 315.463Z" fill="#EDF0FC"/>
<path d="M517.372 198.888C432.595 233.086 464.012 268.253 464.012 268.253C464.012 268.253 506.059 289.601 517.372 198.888Z" fill="#EB725F"/>
<mask id="mask0_6138_3444" style="mask-type:luminance" maskUnits="userSpaceOnUse" x="458" y="198" width="60" height="73">
<path d="M517.372 198.888C432.595 233.086 464.012 268.253 464.012 268.253C464.012 268.253 506.059 289.601 517.372 198.888Z" fill="white"/>
</mask>
<g mask="url(#mask0_6138_3444)">
<path d="M456.297 278.885L455.714 278.436L520.359 194.403L520.943 194.853L456.297 278.885Z" fill="#C14033"/>
<path d="M464.048 268.376L464.428 267.147C469.634 250.342 461.209 230.912 461.124 230.718L461.796 230.421C461.882 230.614 470.067 249.482 465.443 266.295C468.821 263.921 481.552 256.449 502.139 261.439L501.966 262.154C478.225 256.399 465.15 267.421 465.021 267.534L464.048 268.376Z" fill="#C14033"/>
<path d="M473.018 256.716L473.399 255.485C478.605 238.682 470.179 219.252 470.094 219.057L470.766 218.761C470.851 218.954 479.038 237.821 474.413 254.634C477.791 252.261 490.522 244.788 511.108 249.779L510.936 250.494C487.195 244.738 474.119 255.761 473.991 255.873L473.018 256.716Z" fill="#C14033"/>
<path d="M481.988 245.054L482.369 243.825C487.574 227.021 479.15 207.592 479.065 207.397L479.737 207.1C479.822 207.293 488.008 226.161 483.385 242.974C486.761 240.6 499.493 233.128 520.08 238.119L519.906 238.833C496.165 233.078 483.09 244.101 482.961 244.212L481.988 245.054Z" fill="#C14033"/>
<path d="M490.959 233.395L491.339 232.165C496.545 215.36 488.12 195.931 488.035 195.737L488.708 195.439C488.793 195.632 496.978 214.5 492.354 231.313C495.732 228.939 508.463 221.467 529.05 226.458L528.877 227.172C505.136 221.417 492.061 232.44 491.932 232.552L490.959 233.395Z" fill="#C14033"/>
<path d="M499.929 221.734L500.31 220.504C505.516 203.7 497.09 184.27 497.005 184.076L497.677 183.779C497.763 183.972 505.949 202.84 501.324 219.653C504.702 217.28 517.433 209.806 538.019 214.797L537.847 215.512C514.107 209.756 501.031 220.779 500.902 220.891L499.929 221.734Z" fill="#C14033"/>
<path d="M508.899 210.073L509.28 208.843C514.486 192.039 506.061 172.609 505.975 172.415L506.648 172.119C506.733 172.312 514.919 191.179 510.295 207.992C513.673 205.619 526.403 198.146 546.99 203.136L546.818 203.852C523.076 198.095 510.001 209.118 509.872 209.23L508.899 210.073Z" fill="#C14033"/>
</g>
<path d="M487.795 266.865C490.28 265.444 492.811 263.511 495.306 260.921C495.514 260.705 495.721 260.486 495.928 260.261C498.578 257.386 501.179 253.754 503.638 249.184C503.761 248.955 503.885 248.719 504.008 248.487C505.722 245.217 507.361 241.484 508.895 237.223C508.981 236.984 509.067 236.743 509.153 236.501C510.32 233.189 511.423 229.566 512.448 225.606C512.513 225.357 512.575 225.112 512.639 224.86C513.432 221.729 514.177 218.394 514.867 214.835C514.917 214.576 514.967 214.316 515.016 214.056C515.534 211.327 516.02 208.46 516.469 205.47C516.512 205.189 516.553 204.91 516.595 204.626C516.834 202.995 517.064 201.322 517.282 199.612C517.312 199.369 517.342 199.132 517.372 198.888C511.928 242.545 499.365 260.247 487.795 266.865Z" fill="#E5ECF5"/>
<path d="M487.796 266.865L485.831 260.571C486.735 260.519 487.666 260.492 488.625 260.492C490.721 260.492 492.95 260.623 495.307 260.921C492.811 263.511 490.28 265.444 487.796 266.865ZM495.928 260.261C493.347 259.91 490.913 259.757 488.634 259.757C487.593 259.757 486.583 259.789 485.606 259.849L482.913 251.219C486.676 249.907 491.592 248.831 497.596 248.831C499.501 248.831 501.517 248.94 503.638 249.184C501.179 253.754 498.578 257.386 495.928 260.261ZM482.694 250.52L481.374 246.288L482.987 244.19C483.511 243.755 491.72 237.17 506.566 237.17C507.326 237.17 508.101 237.188 508.895 237.223C507.361 241.484 505.722 245.217 504.008 248.487C501.755 248.216 499.62 248.097 497.604 248.097C491.521 248.097 486.527 249.187 482.694 250.52ZM484.483 242.246L491.957 232.531C492.435 232.134 499.545 226.422 512.448 225.606C511.423 229.566 510.32 233.189 509.153 236.501C508.273 236.457 507.413 236.436 506.574 236.436C495.356 236.436 487.84 240.145 484.483 242.246ZM493.453 230.586L500.929 220.868C501.334 220.532 506.131 216.687 514.867 214.835C514.177 218.394 513.433 221.729 512.639 224.86C503.021 225.422 496.513 228.671 493.453 230.586ZM502.424 218.925L509.9 209.207C510.175 208.98 512.409 207.187 516.47 205.47C516.02 208.46 515.534 211.327 515.016 214.056C508.97 215.295 504.721 217.486 502.424 218.925ZM511.394 207.265L517.282 199.612C517.064 201.322 516.834 202.995 516.595 204.626C514.34 205.549 512.599 206.51 511.394 207.265Z" fill="#D36E66"/>
<path d="M481.374 246.288L481.239 245.858L482.077 244.77L481.988 245.054L482.961 244.212C482.964 244.21 482.973 244.202 482.987 244.19L481.374 246.288ZM483.544 242.863L491.047 233.109L490.959 233.394L491.932 232.552C491.935 232.549 491.943 232.542 491.957 232.531L484.483 242.246C484.122 242.473 483.809 242.68 483.544 242.863ZM492.514 231.202L500.017 221.449L499.929 221.734L500.902 220.891C500.905 220.888 500.914 220.88 500.929 220.868L493.453 230.585C493.092 230.812 492.779 231.019 492.514 231.202ZM501.485 219.541L508.987 209.789L508.899 210.073L509.872 209.23C509.875 209.228 509.884 209.22 509.9 209.207L502.424 218.925C502.063 219.151 501.75 219.359 501.485 219.541ZM510.455 207.881L517.372 198.888C517.342 199.132 517.312 199.369 517.282 199.612L511.394 207.265C511.033 207.491 510.719 207.699 510.455 207.881Z" fill="#AD413E"/>
<path d="M495.307 260.921C492.95 260.623 490.721 260.491 488.625 260.491C487.666 260.491 486.735 260.519 485.831 260.571L485.606 259.849C486.583 259.788 487.593 259.757 488.634 259.757C490.913 259.757 493.347 259.91 495.928 260.261C495.721 260.486 495.514 260.705 495.307 260.921Z" fill="#AD413E"/>
<path d="M482.912 251.219L482.694 250.52C486.527 249.187 491.521 248.097 497.604 248.097C499.62 248.097 501.755 248.216 504.008 248.487C503.885 248.719 503.761 248.955 503.638 249.183C501.516 248.94 499.501 248.831 497.596 248.831C491.592 248.831 486.676 249.907 482.912 251.219Z" fill="#AD413E"/>
<path d="M481.988 245.054L482.076 244.77L483.544 242.863C483.808 242.68 484.122 242.473 484.483 242.246C487.84 240.145 495.356 236.436 506.574 236.436C507.413 236.436 508.273 236.457 509.153 236.501C509.067 236.743 508.981 236.984 508.895 237.223C508.101 237.188 507.326 237.17 506.566 237.17C491.72 237.17 483.511 243.755 482.987 244.19C482.972 244.202 482.964 244.21 482.961 244.212L481.988 245.054Z" fill="#AD413E"/>
<path d="M490.959 233.395L491.047 233.11L492.514 231.202C492.779 231.02 493.092 230.812 493.453 230.586C496.513 228.671 503.021 225.422 512.639 224.86C512.575 225.112 512.513 225.357 512.448 225.606C499.545 226.422 492.435 232.134 491.957 232.531C491.943 232.543 491.935 232.549 491.932 232.552L490.959 233.395Z" fill="#AD413E"/>
<path d="M499.929 221.734L500.017 221.449L501.485 219.541C501.75 219.359 502.063 219.151 502.424 218.925C504.722 217.486 508.97 215.295 515.016 214.056C514.967 214.316 514.917 214.576 514.867 214.835C506.131 216.687 501.334 220.532 500.929 220.868C500.914 220.88 500.905 220.888 500.902 220.891L499.929 221.734Z" fill="#AD413E"/>
<path d="M508.899 210.073L508.987 209.789L510.455 207.881C510.719 207.699 511.032 207.492 511.393 207.265C512.599 206.51 514.34 205.549 516.595 204.626C516.553 204.91 516.512 205.189 516.47 205.47C512.409 207.187 510.174 208.98 509.9 209.207C509.884 209.22 509.875 209.228 509.872 209.23L508.899 210.073Z" fill="#AD413E"/>
<path d="M210.257 140.698C207.363 235.103 253.685 220.005 253.685 220.005C253.685 220.005 291.356 189.108 210.257 140.698Z" fill="#EB725F"/>
<mask id="mask1_6138_3444" style="mask-type:luminance" maskUnits="userSpaceOnUse" x="210" y="140" width="53" height="81">
<path d="M210.257 140.698C207.363 235.103 253.685 220.005 253.685 220.005C253.685 220.005 291.356 189.108 210.257 140.698Z" fill="white"/>
</mask>
<g mask="url(#mask1_6138_3444)">
<path d="M260.535 231.722L259.869 232.087L207.256 136.009L207.923 135.644L260.535 231.722Z" fill="#C14033"/>
<path d="M253.817 220.022L252.812 219.151C239.081 207.242 217.201 207.134 216.982 207.134L216.981 206.375C217.198 206.374 238.448 206.475 252.429 217.837C251.588 213.655 249.811 198.508 263.089 181.11L263.694 181.57C248.381 201.634 253.372 218.583 253.424 218.752L253.817 220.022Z" fill="#C14033"/>
<path d="M246.517 206.69L245.511 205.819C231.78 193.91 209.9 193.802 209.681 193.802L209.68 193.043C209.898 193.042 231.147 193.143 245.128 204.505C244.287 200.323 242.511 185.175 255.789 167.777L256.393 168.238C241.081 188.302 246.071 205.251 246.124 205.419L246.517 206.69Z" fill="#C14033"/>
<path d="M239.216 193.359L238.211 192.488C224.48 180.578 202.6 180.471 202.38 180.471L202.379 179.711C202.597 179.71 223.846 179.811 237.827 191.173C236.986 186.991 235.21 171.843 248.488 154.445L249.093 154.906C233.78 174.97 238.771 191.919 238.823 192.087L239.216 193.359Z" fill="#C14033"/>
<path d="M231.915 180.027L230.91 179.155C217.179 167.246 195.299 167.138 195.08 167.138L195.079 166.379C195.297 166.379 216.546 166.478 230.527 177.841C229.686 173.659 227.909 158.512 241.188 141.113L241.792 141.574C226.479 161.638 231.47 178.586 231.522 178.755L231.915 180.027Z" fill="#C14033"/>
<path d="M224.615 166.695L223.609 165.823C209.879 153.914 187.998 153.807 187.779 153.807L187.778 153.047C187.996 153.046 209.245 153.146 223.226 164.51C222.385 160.328 220.609 145.18 233.887 127.781L234.491 128.243C219.179 148.306 224.17 165.255 224.222 165.424L224.615 166.695Z" fill="#C14033"/>
<path d="M217.314 153.363L216.309 152.491C202.578 140.582 180.698 140.475 180.478 140.475L180.477 139.715C180.695 139.715 201.944 139.814 215.925 151.178C215.084 146.996 213.308 131.848 226.586 114.449L227.191 114.911C211.878 134.974 216.869 151.923 216.921 152.092L217.314 153.363Z" fill="#C14033"/>
</g>
<path d="M235.297 185.633L231.513 178.722C231.335 178.102 228.889 169.004 233.481 156.463C234.098 156.949 234.704 157.433 235.297 157.915V185.633ZM230.295 176.499L224.212 165.39C224.066 164.88 222.416 158.741 224.298 149.697C227.378 151.829 230.223 153.92 232.854 155.972C229.388 165.304 229.755 172.81 230.295 176.499ZM222.995 163.167L216.911 152.059C216.814 151.721 216.042 148.858 216.107 144.288C218.748 145.957 221.257 147.609 223.623 149.232C222.281 155.468 222.589 160.396 222.995 163.167ZM215.694 149.836L210.902 141.085C212.429 142.001 213.917 142.914 215.36 143.819C215.296 146.336 215.481 148.382 215.694 149.836Z" fill="#D36E66"/>
<path d="M235.297 186.425L231.683 179.825L231.915 180.027L231.522 178.755C231.521 178.751 231.518 178.741 231.513 178.722L235.297 185.633V186.425ZM230.488 177.642L224.382 166.493L224.615 166.695L224.222 165.424C224.221 165.42 224.217 165.409 224.212 165.391L230.295 176.499C230.359 176.935 230.425 177.317 230.488 177.642ZM223.187 164.311L217.081 153.161L217.314 153.363L216.921 152.092C216.92 152.088 216.917 152.078 216.912 152.059L222.995 163.168C223.059 163.603 223.125 163.985 223.187 164.311ZM215.886 150.979L210.257 140.698C210.474 140.828 210.686 140.955 210.902 141.085L215.694 149.836C215.758 150.27 215.824 150.653 215.886 150.979Z" fill="#AD413E"/>
<path d="M231.915 180.027L231.683 179.825L230.488 177.642C230.425 177.317 230.359 176.935 230.295 176.499C229.756 172.81 229.388 165.304 232.854 155.972C233.066 156.137 233.272 156.298 233.481 156.463C228.89 169.004 231.335 178.102 231.513 178.722C231.518 178.741 231.521 178.751 231.522 178.755L231.915 180.027Z" fill="#AD413E"/>
<path d="M224.615 166.695L224.382 166.492L223.187 164.31C223.125 163.985 223.059 163.603 222.995 163.167C222.589 160.396 222.282 155.468 223.623 149.232C223.849 149.387 224.074 149.542 224.298 149.697C222.416 158.741 224.066 164.88 224.212 165.39C224.217 165.409 224.221 165.42 224.222 165.424L224.615 166.695Z" fill="#AD413E"/>
<path d="M217.314 153.363L217.081 153.161L215.886 150.979C215.824 150.653 215.758 150.27 215.694 149.836C215.482 148.382 215.296 146.336 215.36 143.819C215.611 143.976 215.859 144.132 216.107 144.288C216.042 148.858 216.815 151.721 216.912 152.059C216.917 152.078 216.92 152.088 216.921 152.092L217.314 153.363Z" fill="#AD413E"/>
<path d="M202.779 185.611C203.603 187.418 204.617 189.153 205.629 190.858C208.43 195.583 211.603 200.088 214.986 204.413C220.236 211.125 226.033 217.406 232.209 223.273C240.429 231.083 249.342 238.152 258.733 244.501C270.42 252.401 282.846 259.188 295.721 264.943C297.491 265.735 299.27 266.505 301.056 267.259C301.619 267.497 301.995 266.624 301.431 266.386C288.095 260.759 275.194 254.083 263.038 246.214C253.317 239.921 244.071 232.877 235.52 225.063C229.014 219.118 222.907 212.726 217.361 205.873C213.694 201.342 210.258 196.608 207.205 191.639C206.336 190.225 205.497 188.791 204.713 187.328C204.367 186.683 204.089 185.962 203.701 185.343L203.662 185.258C203.408 184.703 202.525 185.053 202.779 185.611Z" fill="#6E7FDD"/>
<path d="M209.454 196.854C209.454 196.854 194.21 192.77 198.034 172.831C198.034 172.831 209.279 181.685 209.454 196.854Z" fill="#6E7FDD"/>
<path d="M199.512 178.378C200.835 181.48 202.09 184.496 203.569 187.411L204.116 188.506L204.707 189.576C205.084 190.3 205.519 190.989 205.929 191.696C206.769 193.105 207.724 194.426 208.688 195.828C207.286 194.886 206.018 193.714 204.96 192.382C203.897 191.054 202.969 189.613 202.212 188.094C201.467 186.569 200.827 184.995 200.367 183.367C199.904 181.743 199.566 180.074 199.512 178.378Z" fill="#D0DBF7"/>
<path d="M214.407 203.159C214.407 203.159 204.663 190.744 219.686 177.089C219.686 177.089 223.369 190.92 214.407 203.159Z" fill="#6E7FDD"/>
<path d="M217.54 182.414C216.738 185.688 215.931 188.855 215.365 192.075L215.146 193.279L214.976 194.488C214.844 195.293 214.778 196.106 214.681 196.918C214.508 198.548 214.479 200.179 214.409 201.878C213.854 200.283 213.542 198.585 213.496 196.885C213.441 195.184 213.563 193.475 213.87 191.806C214.189 190.139 214.622 188.495 215.231 186.917C215.835 185.34 216.565 183.803 217.54 182.414Z" fill="#D0DBF7"/>
<path d="M214.62 202.894C214.62 202.894 201.622 211.843 188.931 195.997C188.931 195.997 202.965 193.184 214.62 202.894Z" fill="#6E7FDD"/>
<path d="M194.111 198.472C197.33 199.477 200.44 200.48 203.618 201.246L204.805 201.54L206.003 201.784C206.798 201.967 207.605 202.082 208.409 202.231C210.026 202.505 211.651 202.636 213.342 202.811C211.716 203.266 210.002 203.472 208.302 203.412C206.601 203.36 204.903 203.13 203.257 202.721C201.612 202.299 199.999 201.764 198.461 201.057C196.926 200.356 195.437 199.531 194.111 198.472Z" fill="#D0DBF7"/>
<path d="M224.035 214.808C224.035 214.808 213.107 203.421 226.701 188.342C226.701 188.342 231.739 201.739 224.035 214.808Z" fill="#6E7FDD"/>
<path d="M225.094 193.853C224.621 197.193 224.133 200.423 223.889 203.682L223.79 204.902L223.742 206.123C223.689 206.937 223.705 207.752 223.689 208.571C223.679 210.211 223.811 211.836 223.91 213.533C223.199 212.001 222.721 210.342 222.506 208.655C222.283 206.969 222.236 205.256 222.374 203.565C222.526 201.874 222.794 200.195 223.244 198.564C223.688 196.935 224.262 195.334 225.094 193.853Z" fill="#D0DBF7"/>
<path d="M224.222 214.523C224.222 214.523 212.175 224.718 197.975 210.21C197.975 210.21 211.66 206.019 224.222 214.523Z" fill="#6E7FDD"/>
<path d="M203.375 212.158C206.678 212.839 209.871 213.527 213.11 213.975L214.32 214.149L215.537 214.274C216.346 214.376 217.16 214.412 217.975 214.479C219.611 214.591 221.242 214.56 222.941 214.568C221.369 215.182 219.683 215.556 217.986 215.665C216.288 215.782 214.576 215.723 212.896 215.478C211.219 215.221 209.56 214.85 207.961 214.299C206.362 213.754 204.799 213.08 203.375 212.158Z" fill="#D0DBF7"/>
<path d="M235.02 225.712C235.02 225.712 223.226 215.226 235.585 199.119C235.585 199.119 241.666 212.076 235.02 225.712Z" fill="#6E7FDD"/>
<path d="M234.418 204.741C234.21 208.106 233.979 211.365 233.994 214.634L233.992 215.858L234.041 217.08C234.053 217.895 234.133 218.707 234.181 219.523C234.301 221.158 234.562 222.768 234.795 224.452C233.965 222.982 233.356 221.365 233.009 219.7C232.653 218.037 232.47 216.333 232.475 214.635C232.493 212.938 232.627 211.244 232.946 209.583C233.26 207.923 233.706 206.282 234.418 204.741Z" fill="#D0DBF7"/>
<path d="M235.184 225.415C235.184 225.415 223.982 236.531 208.678 223.191C208.678 223.191 221.988 217.93 235.184 225.415Z" fill="#6E7FDD"/>
<path d="M214.215 224.705C217.562 225.123 220.799 225.557 224.063 225.747L225.284 225.826L226.506 225.853C227.321 225.892 228.135 225.862 228.953 225.864C230.593 225.848 232.216 225.687 233.911 225.56C232.392 226.297 230.741 226.803 229.057 227.046C227.375 227.297 225.663 227.374 223.97 227.263C222.276 227.139 220.594 226.899 218.956 226.477C217.319 226.06 215.708 225.513 214.215 224.705Z" fill="#D0DBF7"/>
<path d="M248.685 237.087C248.685 237.087 235.59 228.278 245.676 210.659C245.676 210.659 253.441 222.682 248.685 237.087Z" fill="#6E7FDD"/>
<path d="M245.274 216.386C245.52 219.749 245.728 223.009 246.181 226.246L246.344 227.46L246.556 228.663C246.677 229.47 246.866 230.263 247.023 231.065C247.361 232.67 247.835 234.23 248.292 235.868C247.272 234.522 246.453 233.002 245.885 231.399C245.309 229.798 244.899 228.134 244.676 226.452C244.466 224.768 244.371 223.071 244.466 221.381C244.554 219.695 244.775 218.008 245.274 216.386Z" fill="#D0DBF7"/>
<path d="M248.807 236.769C248.807 236.769 239.198 249.289 222.242 238.123C222.242 238.123 234.727 231.124 248.807 236.769Z" fill="#6E7FDD"/>
<path d="M227.933 238.881C231.305 238.846 234.572 238.841 237.831 238.591L239.052 238.505L240.267 238.369C241.079 238.298 241.882 238.159 242.693 238.053C244.316 237.815 245.903 237.438 247.565 237.085C246.159 238.019 244.59 238.742 242.955 239.209C241.322 239.684 239.636 239.988 237.942 240.107C236.248 240.21 234.549 240.2 232.868 240C231.191 239.807 229.521 239.481 227.933 238.881Z" fill="#D0DBF7"/>
<path d="M261.544 246.196C261.544 246.196 247.784 238.468 256.421 220.096C256.421 220.096 265.127 231.456 261.544 246.196Z" fill="#6E7FDD"/>
<path d="M256.481 225.836C256.996 229.169 257.466 232.401 258.178 235.592L258.437 236.789L258.745 237.971C258.931 238.765 259.182 239.541 259.404 240.328C259.87 241.9 260.468 243.417 261.056 245.013C259.931 243.753 258.991 242.304 258.296 240.751C257.594 239.202 257.052 237.578 256.694 235.918C256.349 234.256 256.119 232.572 256.076 230.88C256.028 229.193 256.113 227.493 256.481 225.836Z" fill="#D0DBF7"/>
<path d="M261.64 245.87C261.64 245.87 253.069 259.12 235.271 249.354C235.271 249.354 247.152 241.374 261.64 245.87Z" fill="#6E7FDD"/>
<path d="M241.004 249.652C244.362 249.346 247.618 249.079 250.847 248.569L252.057 248.384L253.256 248.151C254.061 248.014 254.85 247.811 255.65 247.64C257.248 247.273 258.799 246.77 260.428 246.284C259.101 247.328 257.596 248.175 256.004 248.771C254.413 249.376 252.758 249.816 251.079 250.069C249.399 250.31 247.704 250.435 246.013 250.372C244.325 250.313 242.635 250.122 241.004 249.652Z" fill="#D0DBF7"/>
<path d="M275.481 254.532C275.481 254.532 261.721 246.805 270.357 228.432C270.357 228.432 279.064 239.792 275.481 254.532Z" fill="#6E7FDD"/>
<path d="M270.418 234.172C270.932 237.505 271.402 240.738 272.114 243.929L272.373 245.124L272.682 246.308C272.868 247.102 273.119 247.877 273.341 248.664C273.807 250.237 274.405 251.754 274.992 253.349C273.868 252.09 272.928 250.64 272.233 249.088C271.531 247.539 270.988 245.913 270.631 244.254C270.286 242.592 270.055 240.908 270.013 239.217C269.966 237.529 270.05 235.83 270.418 234.172Z" fill="#D0DBF7"/>
<path d="M275.577 254.206C275.577 254.206 267.006 267.458 249.207 257.69C249.207 257.69 261.089 249.71 275.577 254.206Z" fill="#6E7FDD"/>
<path d="M254.941 257.989C258.299 257.683 261.555 257.416 264.783 256.904L265.993 256.721L267.193 256.486C267.997 256.351 268.787 256.148 269.587 255.976C271.185 255.609 272.736 255.107 274.365 254.621C273.039 255.664 271.533 256.512 269.941 257.108C268.351 257.713 266.695 258.152 265.016 258.406C263.336 258.646 261.641 258.771 259.95 258.708C258.262 258.65 256.572 258.459 254.941 257.989Z" fill="#D0DBF7"/>
<path d="M504.69 153.534C503.279 154.931 502.001 156.483 500.75 158.021C497.284 162.283 494.152 166.816 491.261 171.484C486.776 178.729 482.884 186.339 479.511 194.161C475.022 204.573 471.465 215.38 468.752 226.386C465.373 240.081 463.296 254.087 462.342 268.157C462.21 270.092 462.102 272.028 462.012 273.964C461.984 274.574 462.932 274.626 462.961 274.014C463.635 259.556 465.444 245.143 468.631 231.018C471.178 219.72 474.595 208.61 478.975 197.887C482.307 189.728 486.196 181.789 490.712 174.218C493.698 169.211 496.952 164.352 500.561 159.77C501.589 158.467 502.645 157.184 503.747 155.942C504.232 155.394 504.814 154.885 505.26 154.307L505.326 154.241C505.76 153.811 505.126 153.104 504.69 153.534Z" fill="#6E7FDD"/>
<path d="M496.445 163.682C496.445 163.682 495.013 147.965 515.044 144.667C515.044 144.667 510.621 158.278 496.445 163.682Z" fill="#6E7FDD"/>
<path d="M510.349 147.97C507.896 150.283 505.498 152.503 503.274 154.898L502.435 155.789L501.635 156.714C501.086 157.317 500.589 157.964 500.067 158.592C499.036 159.868 498.125 161.22 497.143 162.608C497.543 160.967 498.205 159.372 499.09 157.92C499.968 156.464 501 155.095 502.164 153.86C503.338 152.634 504.595 151.489 505.964 150.496C507.328 149.5 508.776 148.607 510.349 147.97Z" fill="#D0DBF7"/>
<path d="M492.239 170.508C492.239 170.508 500.524 157.075 518.528 166.458C518.528 166.458 506.821 174.691 492.239 170.508Z" fill="#6E7FDD"/>
<path d="M512.79 166.283C509.438 166.66 506.189 166.997 502.972 167.578L501.766 167.787L500.572 168.047C499.77 168.2 498.986 168.42 498.19 168.609C496.599 169.01 495.06 169.545 493.442 170.067C494.746 168.994 496.232 168.116 497.812 167.485C499.389 166.847 501.035 166.372 502.708 166.082C504.383 165.806 506.074 165.644 507.766 165.671C509.454 165.693 511.149 165.847 512.79 166.283Z" fill="#D0DBF7"/>
<path d="M492.561 170.616C492.561 170.616 479.673 161.509 490.161 144.126C490.161 144.126 497.647 156.324 492.561 170.616Z" fill="#6E7FDD"/>
<path d="M489.627 149.842C489.795 153.21 489.929 156.474 490.307 159.722L490.442 160.938L490.626 162.146C490.729 162.955 490.899 163.753 491.038 164.558C491.339 166.17 491.778 167.74 492.197 169.388C491.208 168.02 490.423 166.481 489.892 164.865C489.354 163.252 488.983 161.58 488.798 159.892C488.627 158.203 488.572 156.504 488.704 154.818C488.831 153.134 489.091 151.453 489.627 149.842Z" fill="#D0DBF7"/>
<path d="M484.632 183.567C484.632 183.567 491.544 169.379 510.389 176.928C510.389 176.928 499.557 186.282 484.632 183.567Z" fill="#6E7FDD"/>
<path d="M504.663 177.322C501.365 178.032 498.166 178.69 495.022 179.586L493.843 179.916L492.68 180.292C491.898 180.524 491.139 180.82 490.366 181.087C488.824 181.645 487.344 182.33 485.786 183.01C486.977 181.813 488.369 180.79 489.879 180.007C491.384 179.215 492.975 178.579 494.61 178.124C496.249 177.683 497.917 177.354 499.604 177.214C501.285 177.067 502.987 177.053 504.663 177.322Z" fill="#D0DBF7"/>
<path d="M484.964 183.643C484.964 183.643 471.235 175.86 479.945 157.522C479.945 157.522 488.606 168.918 484.964 183.643Z" fill="#6E7FDD"/>
<path d="M479.983 163.262C480.484 166.598 480.941 169.832 481.64 173.025L481.895 174.222L482.197 175.407C482.38 176.202 482.629 176.978 482.848 177.766C483.307 179.341 483.899 180.86 484.48 182.457C483.36 181.194 482.427 179.741 481.738 178.186C481.042 176.634 480.506 175.007 480.155 173.345C479.817 171.683 479.593 169.998 479.558 168.306C479.518 166.617 479.609 164.919 479.983 163.262Z" fill="#D0DBF7"/>
<path d="M478.193 197.643C478.193 197.643 483.961 182.952 503.344 188.987C503.344 188.987 493.285 199.169 478.193 197.643Z" fill="#6E7FDD"/>
<path d="M497.667 189.834C494.436 190.801 491.298 191.71 488.235 192.853L487.086 193.274L485.956 193.741C485.196 194.034 484.462 194.389 483.712 194.717C482.219 195.395 480.798 196.195 479.299 196.995C480.391 195.708 481.698 194.579 483.14 193.678C484.579 192.77 486.115 192.01 487.708 191.427C489.308 190.858 490.944 190.398 492.613 190.125C494.279 189.847 495.974 189.698 497.667 189.834Z" fill="#D0DBF7"/>
<path d="M478.529 197.692C478.529 197.692 464.228 191.019 471.46 172.05C471.46 172.05 480.995 182.724 478.529 197.692Z" fill="#6E7FDD"/>
<path d="M471.952 177.769C472.716 181.055 473.426 184.243 474.375 187.371L474.724 188.544L475.12 189.701C475.366 190.479 475.674 191.233 475.954 192.001C476.537 193.534 477.247 195.001 477.952 196.548C476.737 195.377 475.691 194.003 474.882 192.507C474.065 191.015 473.402 189.434 472.921 187.807C472.453 186.176 472.095 184.513 471.927 182.83C471.753 181.15 471.709 179.45 471.952 177.769Z" fill="#D0DBF7"/>
<path d="M472.238 214.395C472.238 214.395 475.982 199.063 496 202.442C496 202.442 487.399 213.882 472.238 214.395Z" fill="#6E7FDD"/>
<path d="M490.487 204.044C487.416 205.436 484.429 206.757 481.547 208.301L480.465 208.872L479.407 209.487C478.693 209.879 478.014 210.33 477.314 210.756C475.925 211.627 474.625 212.611 473.247 213.606C474.157 212.184 475.3 210.889 476.609 209.803C477.912 208.709 479.332 207.75 480.834 206.959C482.343 206.18 483.901 205.505 485.519 205.01C487.133 204.511 488.793 204.135 490.487 204.044Z" fill="#D0DBF7"/>
<path d="M472.578 214.4C472.578 214.4 457.51 209.706 462.133 189.937C462.133 189.937 473.013 199.236 472.578 214.4Z" fill="#6E7FDD"/>
<path d="M463.386 195.539C464.584 198.692 465.717 201.756 467.078 204.729L467.58 205.845L468.128 206.937C468.475 207.675 468.882 208.381 469.263 209.105C470.046 210.546 470.947 211.905 471.853 213.344C470.491 212.346 469.27 211.124 468.267 209.75C467.258 208.381 466.389 206.904 465.694 205.356C465.011 203.802 464.435 202.203 464.041 200.558C463.643 198.916 463.372 197.237 463.386 195.539Z" fill="#D0DBF7"/>
<path d="M468.131 229.609C468.131 229.609 470.63 214.026 490.856 215.785C490.856 215.785 483.202 227.88 468.131 229.609Z" fill="#6E7FDD"/>
<path d="M485.489 217.824C482.539 219.46 479.668 221.017 476.92 222.787L475.887 223.443L474.883 224.141C474.202 224.59 473.562 225.094 472.9 225.573C471.584 226.554 470.368 227.639 469.073 228.741C469.866 227.251 470.902 225.868 472.119 224.68C473.33 223.486 474.668 222.415 476.101 221.507C477.542 220.609 479.043 219.812 480.615 219.187C482.184 218.559 483.807 218.052 485.489 217.824Z" fill="#D0DBF7"/>
<path d="M468.471 229.586C468.471 229.586 453.074 226.119 456.093 206.043C456.093 206.043 467.685 214.437 468.471 229.586Z" fill="#6E7FDD"/>
<path d="M457.792 211.526C459.24 214.572 460.616 217.536 462.21 220.389L462.801 221.461L463.434 222.506C463.84 223.214 464.302 223.885 464.741 224.575C465.637 225.949 466.644 227.231 467.663 228.592C466.225 227.707 464.91 226.588 463.8 225.298C462.684 224.015 461.699 222.613 460.882 221.126C460.076 219.632 459.373 218.084 458.849 216.475C458.32 214.872 457.915 213.22 457.792 211.526Z" fill="#D0DBF7"/>
<path d="M465.122 245.567C465.122 245.567 467.621 229.984 487.846 231.744C487.846 231.744 480.192 243.838 465.122 245.567Z" fill="#6E7FDD"/>
<path d="M482.479 233.783C479.53 235.418 476.659 236.976 473.91 238.746L472.878 239.402L471.874 240.099C471.193 240.548 470.552 241.052 469.889 241.532C468.575 242.512 467.358 243.597 466.063 244.699C466.857 243.209 467.893 241.827 469.11 240.639C470.32 239.445 471.659 238.374 473.092 237.465C474.533 236.568 476.033 235.77 477.606 235.146C479.174 234.518 480.798 234.011 482.479 233.783Z" fill="#D0DBF7"/>
<path d="M465.462 245.545C465.462 245.545 450.065 242.078 453.083 222.001C453.083 222.001 464.676 230.396 465.462 245.545Z" fill="#6E7FDD"/>
<path d="M454.783 227.485C456.231 230.531 457.605 233.494 459.201 236.348L459.791 237.419L460.425 238.464C460.831 239.172 461.293 239.843 461.731 240.534C462.627 241.908 463.634 243.189 464.654 244.551C463.216 243.666 461.901 242.546 460.791 241.257C459.674 239.974 458.69 238.572 457.872 237.084C457.067 235.59 456.364 234.043 455.839 232.434C455.31 230.831 454.905 229.178 454.783 227.485Z" fill="#D0DBF7"/>
<path d="M474.703 282.566C474.703 287.164 470.941 290.926 466.343 290.926H243.657C239.059 290.926 235.297 287.164 235.297 282.566V150.076C235.297 145.478 239.059 141.716 243.657 141.716H466.343C470.941 141.716 474.703 145.478 474.703 150.076V282.566Z" fill="#6E7FDD"/>
<path d="M244.244 261.052H465.755V152.903H244.244V261.052Z" fill="#F2F2F2"/>
<path d="M391.999 302.399H318.001V290.926H391.999V302.399Z" fill="#A7BBF9"/>
<path d="M412.192 313.72V311.943C412.192 306.078 407.394 301.279 401.529 301.279H308.471C302.606 301.279 297.808 306.078 297.808 311.943V313.72H412.192Z" fill="#6E7FDD"/>
<path d="M232.697 290.942V290.898H225.114V292.713C224.47 293.13 223.861 293.615 223.292 294.175C221.063 296.36 219.95 299.134 219.95 302.494C219.95 305.771 221.063 308.524 223.292 310.75C223.861 311.32 224.47 311.814 225.114 312.239V314.088H232.697V314.044C235.534 313.834 237.989 312.739 240.055 310.75C242.363 308.524 243.521 305.771 243.521 302.494C243.521 299.216 242.363 296.466 240.055 294.237C237.989 292.247 235.534 291.154 232.697 290.942Z" fill="#F9AB43"/>
<path d="M257.637 228.697C251.589 224.37 243.394 222.206 233.059 222.206C223.481 222.206 214.824 223.969 207.094 227.498V242.974C210.707 241.127 214.532 239.696 218.563 238.689C222.597 237.681 226.505 237.176 230.286 237.176C238.436 237.176 242.514 243.549 242.514 248.422C242.514 250.355 241.901 251.973 240.685 253.275C239.466 254.577 237.302 256.236 234.193 258.253L230.916 260.519C224.111 265.311 220.707 271.991 220.707 280.562V283.21H242.891V280.812C242.891 278.631 243.247 276.782 243.963 275.268C244.675 273.755 245.747 272.392 247.175 271.173C248.603 269.954 250.873 268.21 253.983 265.941C258.603 262.663 261.88 259.703 263.814 257.056C265.746 254.408 266.712 250.943 266.712 246.656C266.712 239.011 263.688 233.025 257.637 228.697Z" fill="#F9AB43"/>
<path d="M216.734 310.75C214.505 308.524 213.392 305.771 213.392 302.494C213.392 299.134 214.505 296.36 216.734 294.175C218.957 291.99 221.755 290.898 225.114 290.898C228.392 290.898 231.186 292.011 233.497 294.237C235.806 296.466 236.963 299.216 236.963 302.494C236.963 305.771 235.806 308.524 233.497 310.75C231.186 312.976 228.392 314.088 225.114 314.088C221.755 314.088 218.957 312.976 216.734 310.75ZM214.149 280.562C214.149 271.991 217.553 265.311 224.358 260.519L227.635 258.253C230.745 256.236 232.909 254.577 234.127 253.275C235.344 251.973 235.956 250.355 235.956 248.422C235.956 243.549 231.878 241.111 223.728 241.111C219.947 241.111 216.039 241.615 212.005 242.624C207.974 243.631 204.15 245.062 200.537 246.909V227.498C208.266 223.969 216.923 222.206 226.502 222.206C236.836 222.206 245.031 224.37 251.079 228.697C257.13 233.025 260.154 239.011 260.154 246.657C260.154 250.943 259.188 254.408 257.257 257.056C255.322 259.703 252.045 262.663 247.425 265.941C244.316 268.21 242.045 269.954 240.617 271.173C239.189 272.392 238.117 273.755 237.405 275.268C236.689 276.782 236.333 278.631 236.333 280.812V283.21H214.149V280.562Z" fill="#FFCF74"/>
<path d="M502.657 314.48H423.132L453.532 217.081H472.257L502.657 314.48Z" fill="#FFCF74"/>
<mask id="mask2_6138_3444" style="mask-type:luminance" maskUnits="userSpaceOnUse" x="423" y="217" width="80" height="98">
<path d="M502.657 314.48H423.132L453.532 217.081H472.257L502.657 314.48Z" fill="white"/>
</mask>
<g mask="url(#mask2_6138_3444)">
<path d="M412.708 290.581H513.082V275.845H412.708V290.581Z" fill="#F9AB43"/>
<path d="M412.708 260.615H513.082V245.878H412.708V260.615Z" fill="#F9AB43"/>
<path d="M412.708 230.648H513.082V215.913H412.708V230.648Z" fill="#F9AB43"/>
</g>
<path d="M502.657 314.48H470.081C472.383 307.099 474.087 299.068 475.078 290.581H495.198L502.657 314.48ZM490.599 275.845H476.053C476.067 274.982 476.075 274.115 476.075 273.244C476.075 268.953 475.895 264.738 475.549 260.615H485.845L490.599 275.845ZM481.246 245.878H473.539C472.52 240.551 471.212 235.456 469.646 230.648H476.492L481.246 245.878Z" fill="#E5C178"/>
<path d="M495.198 290.581H475.078C475.635 285.801 475.967 280.877 476.053 275.845H490.599L495.198 290.581Z" fill="#E0A14C"/>
<path d="M485.845 260.615H475.549C475.123 255.546 474.445 250.62 473.539 245.878H481.246L485.845 260.615Z" fill="#E0A14C"/>
<path d="M476.492 230.648H469.646C468.072 225.815 466.239 221.273 464.179 217.081H472.257L476.492 230.648Z" fill="#E0A14C"/>
<path d="M509.463 314.48H416.326V304.334H509.463V314.48Z" fill="#F9AB43"/>
<path d="M437.972 298.498C436.827 298.498 435.663 297.572 436.087 296.157L436.123 296.036C436.582 294.205 437.152 292.39 437.724 290.581H441.727C441.069 292.776 440.41 294.972 439.751 297.168C439.473 298.096 438.727 298.498 437.972 298.498ZM446.148 275.845H442.18C442.776 273.861 443.371 271.878 443.966 269.894C444.894 266.801 445.822 263.708 446.75 260.615H450.717C449.444 264.86 448.17 269.105 446.896 273.351C446.647 274.182 446.398 275.014 446.148 275.845ZM455.138 245.878H451.17C452.495 241.464 453.819 237.048 455.144 232.634C455.342 231.972 455.541 231.31 455.74 230.648H459.765C459.281 232.207 458.773 233.76 458.307 235.315C457.25 238.836 456.194 242.357 455.138 245.878Z" fill="#FFDD9E"/>
<path d="M441.727 290.581H437.724C438.05 289.548 438.379 288.517 438.688 287.487C439.852 283.606 441.017 279.725 442.18 275.845H446.147C444.716 280.618 443.284 285.393 441.851 290.167C441.81 290.305 441.769 290.442 441.727 290.581Z" fill="#FBC47C"/>
<path d="M450.717 260.615H446.75C447.866 256.893 448.982 253.171 450.099 249.45C450.456 248.259 450.813 247.069 451.17 245.878H455.138C454.435 248.221 453.732 250.565 453.029 252.907C452.258 255.476 451.487 258.046 450.717 260.615Z" fill="#FBC47C"/>
<path d="M459.764 230.648H455.74C456.241 228.977 456.743 227.305 457.244 225.634C457.522 224.705 458.269 224.303 459.023 224.303C460.169 224.303 461.332 225.229 460.908 226.644L460.872 226.764C460.546 228.066 460.163 229.36 459.764 230.648Z" fill="#FBC47C"/>
<path d="M444.283 93.721C442.129 93.721 440.104 94.5601 438.581 96.0831C437.058 97.6061 436.219 99.6308 436.219 101.785C436.219 103.938 437.058 105.964 438.581 107.486C440.104 109.01 442.129 109.848 444.283 109.848C446.437 109.848 448.462 109.01 449.984 107.487C451.507 105.964 452.346 103.938 452.346 101.785C452.346 99.6308 451.507 97.6061 449.984 96.0831C448.462 94.5601 446.437 93.721 444.283 93.721ZM444.283 112.854C441.326 112.854 438.546 111.703 436.455 109.612C434.365 107.522 433.213 104.742 433.213 101.785C433.213 98.8282 434.365 96.0481 436.455 93.9574C438.546 91.8666 441.326 90.7152 444.283 90.7152C447.239 90.7152 450.018 91.8666 452.109 93.9574C454.201 96.0481 455.352 98.8282 455.352 101.785C455.352 104.742 454.201 107.522 452.109 109.613C450.018 111.703 447.239 112.854 444.283 112.854Z" fill="#EB725F"/>
<path d="M459.856 119.483L449.984 109.612L452.109 107.487L461.98 117.358L459.856 119.483Z" fill="#EB725F"/>
<path d="M446.599 98.6177C445.322 97.3401 443.242 97.3401 441.965 98.6177L440.69 97.3424C442.671 95.3618 445.894 95.3618 447.875 97.3424L446.599 98.6177Z" fill="#EB725F"/>
<path d="M252.136 115.613C252.158 118.966 249.456 121.702 246.103 121.723C242.749 121.744 240.013 119.043 239.992 115.689C239.971 112.336 242.672 109.6 246.026 109.579C249.379 109.558 252.115 112.26 252.136 115.613ZM244.077 106.683L244.083 107.646C243.234 107.856 242.44 108.196 241.717 108.645L241.031 107.968C240.496 107.44 239.626 107.445 239.097 107.98L238.306 108.782C237.778 109.317 237.783 110.186 238.318 110.715L239.004 111.392C238.564 112.121 238.234 112.919 238.035 113.771L237.072 113.777C236.32 113.782 235.709 114.401 235.713 115.153L235.721 116.28C235.726 117.032 236.345 117.643 237.097 117.638L238.06 117.632C238.269 118.481 238.609 119.276 239.058 119.999L238.381 120.684C237.853 121.219 237.858 122.089 238.393 122.618L239.195 123.41C239.73 123.938 240.6 123.932 241.129 123.397L241.806 122.711C242.534 123.151 243.333 123.482 244.185 123.68L244.191 124.643C244.195 125.395 244.815 126.006 245.566 126.002L246.693 125.994C247.445 125.99 248.056 125.37 248.051 124.619L248.045 123.656C248.894 123.446 249.689 123.106 250.412 122.657L251.097 123.334C251.633 123.863 252.503 123.857 253.031 123.322L253.823 122.52C254.351 121.985 254.346 121.115 253.811 120.587L253.124 119.91C253.564 119.182 253.894 118.382 254.093 117.531L255.056 117.525C255.808 117.52 256.42 116.901 256.415 116.149L256.408 115.022C256.403 114.271 255.784 113.659 255.032 113.664L254.069 113.669C253.859 112.82 253.52 112.026 253.07 111.304L253.748 110.617C254.276 110.083 254.27 109.213 253.735 108.684L252.934 107.893C252.399 107.364 251.528 107.37 251 107.905L250.323 108.59C249.595 108.15 248.795 107.82 247.944 107.621L247.938 106.659C247.934 105.908 247.314 105.296 246.562 105.3L245.435 105.308C244.684 105.312 244.072 105.931 244.077 106.683Z" fill="#EB725F"/>
<path d="M275.667 101.995C275.696 106.493 272.073 110.161 267.575 110.189C263.077 110.218 259.409 106.595 259.38 102.098C259.352 97.6 262.975 93.9307 267.472 93.9026C271.97 93.8745 275.639 97.4974 275.667 101.995ZM264.859 90.019L264.866 91.3103C263.728 91.5915 262.662 92.0475 261.693 92.6501L260.773 91.7412C260.056 91.0329 258.889 91.0405 258.18 91.7579L257.118 92.8325C256.41 93.5507 256.417 94.7174 257.134 95.4264L258.054 96.3346C257.465 97.3112 257.022 98.3828 256.755 99.5251L255.464 99.5335C254.456 99.5395 253.635 100.369 253.642 101.379L253.651 102.89C253.658 103.898 254.489 104.718 255.496 104.711L256.788 104.704C257.069 105.842 257.525 106.908 258.127 107.877L257.219 108.797C256.51 109.515 256.518 110.681 257.235 111.39L258.311 112.452C259.028 113.16 260.195 113.153 260.904 112.435L261.813 111.516C262.788 112.105 263.861 112.548 265.003 112.814L265.011 114.106C265.017 115.115 265.847 115.934 266.856 115.928L268.367 115.918C269.375 115.912 270.195 115.082 270.189 114.074L270.181 112.783C271.319 112.501 272.386 112.045 273.354 111.443L274.274 112.351C274.992 113.06 276.159 113.052 276.867 112.335L277.929 111.259C278.638 110.542 278.631 109.375 277.912 108.666L276.993 107.757C277.583 106.782 278.026 105.709 278.292 104.568L279.584 104.559C280.592 104.553 281.412 103.723 281.406 102.714L281.396 101.203C281.39 100.195 280.56 99.3746 279.551 99.3815L278.26 99.3891C277.979 98.2506 277.523 97.1843 276.92 96.2153L277.828 95.2957C278.537 94.5783 278.53 93.4109 277.812 92.7026L276.737 91.6409C276.019 90.9325 274.852 90.9394 274.144 91.6576L273.235 92.5772C272.259 91.9867 271.187 91.5443 270.045 91.2776L270.037 89.9863C270.031 88.9778 269.2 88.1578 268.191 88.1639L266.681 88.1737C265.672 88.1798 264.852 89.0105 264.859 90.019Z" fill="#EB725F"/>
<path d="M499.674 126.114C499.191 125.633 498.949 125.036 498.949 124.325C498.949 123.597 499.191 122.996 499.674 122.523C500.155 122.049 500.762 121.812 501.49 121.812C502.201 121.812 502.805 122.054 503.307 122.536C503.807 123.019 504.058 123.615 504.058 124.325C504.058 125.036 503.807 125.633 503.307 126.114C502.805 126.597 502.201 126.839 501.49 126.839C500.762 126.839 500.155 126.597 499.674 126.114ZM499.113 119.572C499.113 117.715 499.851 116.266 501.326 115.228L502.036 114.737C502.71 114.3 503.179 113.941 503.443 113.658C503.707 113.376 503.84 113.026 503.84 112.607C503.84 111.55 502.956 111.022 501.189 111.022C500.37 111.022 499.523 111.132 498.649 111.35C497.775 111.568 496.946 111.879 496.163 112.279V108.072C497.838 107.307 499.715 106.924 501.791 106.924C504.031 106.924 505.807 107.394 507.117 108.332C508.429 109.27 509.084 110.567 509.084 112.224C509.084 113.153 508.875 113.904 508.456 114.477C508.037 115.051 507.327 115.693 506.325 116.403C505.652 116.896 505.159 117.273 504.85 117.537C504.541 117.801 504.308 118.097 504.154 118.425C503.999 118.753 503.921 119.154 503.921 119.626V120.146H499.113V119.572Z" fill="#CAD2F9"/>
<path d="M213.931 100.366C213.522 99.9568 213.318 99.4506 213.318 98.8487C213.318 98.2308 213.522 97.7217 213.931 97.3196C214.34 96.9183 214.854 96.7177 215.471 96.7177C216.073 96.7177 216.587 96.9221 217.011 97.331C217.436 97.7406 217.648 98.246 217.648 98.8487C217.648 99.4506 217.436 99.9568 217.011 100.366C216.587 100.775 216.073 100.979 215.471 100.979C214.854 100.979 214.34 100.775 213.931 100.366ZM213.456 94.8185C213.456 93.2437 214.082 92.0163 215.332 91.1362L215.934 90.7198C216.505 90.3489 216.903 90.0449 217.127 89.8047C217.351 89.5661 217.463 89.2689 217.463 88.9132C217.463 88.018 216.714 87.5703 215.216 87.5703C214.522 87.5703 213.804 87.663 213.063 87.8477C212.322 88.0332 211.619 88.2961 210.955 88.6351V85.0692C212.376 84.4209 213.966 84.0964 215.726 84.0964C217.625 84.0964 219.131 84.4938 220.242 85.2888C221.353 86.0845 221.909 87.1842 221.909 88.5887C221.909 89.3768 221.732 90.0137 221.377 90.4994C221.022 90.9858 220.419 91.5299 219.57 92.1326C218.999 92.5491 218.582 92.8698 218.319 93.0932C218.057 93.3174 217.86 93.5683 217.729 93.8457C217.598 94.1238 217.532 94.4635 217.532 94.8648V95.3049H213.456V94.8185Z" fill="#CAD2F9"/>
<path d="M366.248 106.223C365.664 105.639 365.372 104.917 365.372 104.057C365.372 103.177 365.664 102.448 366.248 101.875C366.831 101.303 367.565 101.017 368.446 101.017C369.306 101.017 370.039 101.308 370.645 101.892C371.25 102.477 371.554 103.198 371.554 104.057C371.554 104.917 371.25 105.639 370.645 106.223C370.039 106.806 369.306 107.099 368.446 107.099C367.565 107.099 366.831 106.806 366.248 106.223ZM365.57 98.3057C365.57 96.0576 366.463 94.3058 368.248 93.0487L369.108 92.4544C369.922 91.9255 370.49 91.4907 370.81 91.1487C371.129 90.8067 371.289 90.3827 371.289 89.8757C371.289 88.5982 370.22 87.9583 368.082 87.9583C367.091 87.9583 366.066 88.0905 365.008 88.3557C363.951 88.6195 362.948 88.9949 362 89.479V84.3885C364.027 83.4629 366.298 83 368.81 83C371.521 83 373.67 83.5678 375.256 84.7024C376.844 85.8379 377.636 87.408 377.636 89.4129C377.636 90.537 377.383 91.4459 376.876 92.1398C376.369 92.8344 375.51 93.6111 374.298 94.4707C373.482 95.0658 372.887 95.5225 372.512 95.8433C372.138 96.1625 371.856 96.5204 371.669 96.9171C371.482 97.3139 371.388 97.7987 371.388 98.371V98.9995H365.57V98.3057Z" fill="#CAD2F9"/>
<path d="M443.958 220.01C443.958 227.619 437.733 233.844 430.125 233.844H279.875C272.267 233.844 266.042 227.619 266.042 220.01V131.715C266.042 124.107 272.267 117.881 279.875 117.881H430.125C437.733 117.881 443.958 124.107 443.958 131.715V220.01Z" fill="#E3EBFC"/>
<path d="M430.125 117.881H279.875C272.267 117.881 266.042 124.107 266.042 131.715V141.064H443.958V131.715C443.958 124.107 437.733 117.881 430.125 117.881Z" fill="#D0DBF7"/>
<path d="M284.323 130.123C284.323 132.441 282.445 134.319 280.128 134.319C277.811 134.319 275.933 132.441 275.933 130.123C275.933 127.807 277.811 125.928 280.128 125.928C282.445 125.928 284.323 127.807 284.323 130.123Z" fill="white"/>
<path d="M297.083 130.123C297.083 132.441 295.205 134.319 292.888 134.319C290.571 134.319 288.692 132.441 288.692 130.123C288.692 127.807 290.571 125.928 292.888 125.928C295.205 125.928 297.083 127.807 297.083 130.123Z" fill="white"/>
<path d="M309.843 130.123C309.843 132.441 307.964 134.319 305.648 134.319C303.331 134.319 301.452 132.441 301.452 130.123C301.452 127.807 303.331 125.928 305.648 125.928C307.964 125.928 309.843 127.807 309.843 130.123Z" fill="white"/>
<path d="M430.125 233.844H358.341C403.15 219.182 434.358 186.395 434.358 148.298C434.358 145.864 434.23 143.451 433.979 141.064H443.958V220.01C443.958 227.619 437.733 233.844 430.125 233.844Z" fill="#CCDAF3"/>
<path d="M443.958 141.064H433.979C433.134 133.008 430.889 125.239 427.425 117.881H430.125C437.733 117.881 443.958 124.107 443.958 131.715V141.064Z" fill="#BBCCEE"/>
<path d="M275.578 213.983C274.865 213.983 274.152 213.524 274.152 212.607C274.152 210.171 274.152 207.735 274.152 205.3C274.152 194.59 274.152 183.88 274.152 173.171C274.152 166.441 274.152 159.71 274.152 152.98C274.152 152.062 274.864 151.604 275.576 151.604C276.289 151.604 277.002 152.063 277.002 152.98C277.002 155.416 277.002 157.852 277.002 160.288C277.002 170.998 277.002 181.708 277.002 192.418C277.002 199.147 277.002 205.877 277.002 212.607C277.002 213.525 276.29 213.983 275.578 213.983Z" fill="#EBF1FD"/>
<path d="M325.505 206.139C324.894 207.078 324.886 207.622 324.918 207.717C324.969 207.777 325.429 208.067 326.546 208.067H382.454C383.572 208.067 384.031 207.777 384.093 207.699C384.114 207.623 384.106 207.078 383.495 206.139L356.263 164.275C355.717 163.434 355.059 162.932 354.5 162.932C353.943 162.932 353.285 163.434 352.737 164.276L325.505 206.139ZM382.454 214H326.546C323.394 214 320.904 212.736 319.714 210.532C318.525 208.328 318.831 205.545 320.554 202.897L347.786 161.033C349.453 158.47 351.9 157 354.5 157C357.101 157 359.547 158.47 361.215 161.033L388.447 202.897C390.169 205.545 390.475 208.328 389.285 210.532C388.097 212.736 385.608 214 382.454 214Z" fill="#F9AB43"/>
<path d="M351 175H358L356.699 194.569H352.301L351 175ZM352.569 202.334C352.062 201.889 351.807 201.34 351.807 200.686C351.807 200.033 352.062 199.484 352.569 199.039C353.079 198.595 353.706 198.372 354.455 198.372C355.203 198.372 355.838 198.595 356.363 199.039C356.885 199.484 357.148 200.033 357.148 200.686C357.148 201.34 356.885 201.889 356.363 202.334C355.838 202.778 355.203 203 354.455 203C353.706 203 353.079 202.778 352.569 202.334Z" fill="#F9AB43"/>
<path d="M208.859 420V397.216H211.291V420H208.859ZM227.554 420V410.304C227.554 408.896 227.202 407.851 226.498 407.168C225.815 406.464 224.876 406.112 223.682 406.112C222.487 406.112 221.538 406.464 220.834 407.168C220.13 407.872 219.778 408.917 219.778 410.304V420H217.474V404.256H219.778V405.984C220.332 405.344 220.983 404.864 221.73 404.544C222.476 404.224 223.298 404.064 224.194 404.064C225.9 404.064 227.244 404.555 228.226 405.536C229.314 406.603 229.858 408.064 229.858 409.92V420H227.554ZM239.859 420C239.176 420 238.579 419.893 238.067 419.68C237.576 419.445 237.16 419.136 236.819 418.752C236.499 418.368 236.253 417.92 236.083 417.408C235.912 416.896 235.827 416.352 235.827 415.776V406.112H233.843V404.352H235.827V399.424H238.131V404.352H241.491V406.112H238.131V415.712C238.131 416.437 238.301 417.003 238.643 417.408C238.984 417.813 239.528 418.016 240.275 418.016H241.491V420H239.859ZM247.508 412.736C247.508 414.464 247.902 415.808 248.692 416.768C249.481 417.707 250.633 418.176 252.148 418.176C253.065 418.176 253.822 418.037 254.42 417.76C255.038 417.461 255.657 417.003 256.276 416.384L257.844 417.76C257.438 418.165 257.033 418.517 256.628 418.816C256.244 419.115 255.828 419.371 255.38 419.584C254.932 419.776 254.43 419.925 253.876 420.032C253.342 420.139 252.745 420.192 252.084 420.192C251.038 420.192 250.089 420.032 249.236 419.712C248.404 419.392 247.689 418.901 247.092 418.24C246.494 417.579 246.025 416.747 245.684 415.744C245.364 414.72 245.204 413.515 245.204 412.128C245.204 409.568 245.78 407.584 246.932 406.176C248.084 404.768 249.662 404.064 251.668 404.064C253.716 404.064 255.305 404.747 256.436 406.112C257.566 407.477 258.132 409.333 258.132 411.68V412.736H247.508ZM255.828 411.008C255.806 410.688 255.785 410.411 255.764 410.176C255.742 409.941 255.71 409.728 255.668 409.536C255.646 409.344 255.604 409.163 255.54 408.992C255.497 408.8 255.433 408.597 255.348 408.384C255.049 407.659 254.569 407.083 253.908 406.656C253.246 406.229 252.5 406.016 251.668 406.016C250.836 406.016 250.089 406.229 249.428 406.656C248.766 407.083 248.286 407.659 247.988 408.384C247.817 408.811 247.7 409.195 247.636 409.536C247.572 409.877 247.529 410.368 247.508 411.008H255.828ZM271.836 407.264C271.41 406.837 271.004 406.539 270.62 406.368C270.236 406.197 269.735 406.112 269.116 406.112C268.54 406.112 268.018 406.219 267.548 406.432C267.079 406.645 266.684 406.944 266.364 407.328C266.044 407.712 265.788 408.16 265.596 408.672C265.426 409.184 265.34 409.739 265.34 410.336V420H263.036V404.256H265.34V406.176C265.767 405.515 266.375 405.003 267.164 404.64C267.975 404.256 268.839 404.064 269.756 404.064C270.503 404.064 271.175 404.171 271.772 404.384C272.391 404.597 272.978 404.981 273.532 405.536L271.836 407.264ZM286.585 420V410.304C286.585 408.896 286.233 407.851 285.529 407.168C284.846 406.464 283.908 406.112 282.713 406.112C281.518 406.112 280.569 406.464 279.865 407.168C279.161 407.872 278.809 408.917 278.809 410.304V420H276.505V404.256H278.809V405.984C279.364 405.344 280.014 404.864 280.761 404.544C281.508 404.224 282.329 404.064 283.225 404.064C284.932 404.064 286.276 404.555 287.257 405.536C288.345 406.603 288.889 408.064 288.889 409.92V420H286.585ZM303.402 420V418.496C302.762 419.136 302.1 419.584 301.418 419.84C300.756 420.075 299.903 420.192 298.858 420.192C297.77 420.192 296.874 420.085 296.17 419.872C295.487 419.637 294.9 419.264 294.41 418.752C294.026 418.368 293.727 417.899 293.514 417.344C293.322 416.768 293.226 416.171 293.226 415.552C293.226 414.165 293.684 413.067 294.602 412.256C295.54 411.424 296.895 411.008 298.666 411.008H303.402V409.504C303.402 408.352 303.092 407.488 302.474 406.912C301.855 406.336 300.82 406.048 299.37 406.048C298.346 406.048 297.546 406.187 296.97 406.464C296.394 406.72 295.871 407.179 295.402 407.84L293.834 406.4C294.538 405.483 295.316 404.864 296.17 404.544C297.044 404.224 298.122 404.064 299.402 404.064C301.535 404.064 303.114 404.512 304.138 405.408C305.183 406.283 305.706 407.584 305.706 409.312V420H303.402ZM303.402 412.736H298.986C296.639 412.736 295.466 413.664 295.466 415.52C295.466 416.437 295.754 417.12 296.33 417.568C296.906 417.995 297.823 418.208 299.082 418.208C299.764 418.208 300.394 418.155 300.97 418.048C301.567 417.941 302.111 417.643 302.602 417.152C303.135 416.64 303.402 415.733 303.402 414.432V412.736ZM315.254 420C313.867 420 312.854 419.605 312.214 418.816C311.574 418.005 311.254 417.003 311.254 415.808V397.216H313.558V415.712C313.558 416.48 313.707 417.056 314.006 417.44C314.304 417.824 314.859 418.016 315.67 418.016H316.918V420H315.254ZM342.93 413.728C342.93 414.731 342.738 415.637 342.354 416.448C341.992 417.237 341.458 417.909 340.754 418.464C340.072 419.019 339.24 419.445 338.258 419.744C337.298 420.043 336.232 420.192 335.058 420.192C333.352 420.192 331.89 419.957 330.674 419.488C329.458 419.019 328.317 418.251 327.25 417.184L328.914 415.52C329.853 416.459 330.802 417.109 331.762 417.472C332.722 417.835 333.842 418.016 335.122 418.016C336.786 418.016 338.098 417.653 339.058 416.928C340.018 416.181 340.498 415.136 340.498 413.792C340.498 413.195 340.402 412.651 340.21 412.16C340.04 411.669 339.773 411.264 339.41 410.944C339.048 410.624 338.664 410.4 338.258 410.272C337.874 410.123 337.266 409.984 336.434 409.856L333.778 409.44C331.965 409.141 330.568 408.565 329.586 407.712C328.434 406.688 327.858 405.269 327.858 403.456C327.858 402.496 328.029 401.621 328.37 400.832C328.712 400.021 329.192 399.339 329.81 398.784C330.45 398.229 331.218 397.803 332.114 397.504C333.01 397.184 334.024 397.024 335.154 397.024C336.605 397.024 337.853 397.227 338.898 397.632C339.944 398.016 340.957 398.645 341.938 399.52L340.37 401.088C339.666 400.448 338.909 399.968 338.098 399.648C337.288 399.307 336.274 399.136 335.058 399.136C333.522 399.136 332.338 399.52 331.506 400.288C330.674 401.056 330.258 402.08 330.258 403.36C330.258 404.512 330.6 405.387 331.282 405.984C331.645 406.283 332.093 406.539 332.626 406.752C333.181 406.965 333.757 407.125 334.354 407.232L336.85 407.616C337.384 407.701 337.853 407.797 338.258 407.904C338.685 407.989 339.058 408.096 339.378 408.224C339.698 408.352 339.986 408.501 340.242 408.672C340.52 408.821 340.776 409.003 341.01 409.216C342.29 410.304 342.93 411.808 342.93 413.728ZM349.039 412.736C349.039 414.464 349.433 415.808 350.223 416.768C351.012 417.707 352.164 418.176 353.679 418.176C354.596 418.176 355.353 418.037 355.951 417.76C356.569 417.461 357.188 417.003 357.807 416.384L359.375 417.76C358.969 418.165 358.564 418.517 358.159 418.816C357.775 419.115 357.359 419.371 356.911 419.584C356.463 419.776 355.961 419.925 355.407 420.032C354.873 420.139 354.276 420.192 353.615 420.192C352.569 420.192 351.62 420.032 350.767 419.712C349.935 419.392 349.22 418.901 348.623 418.24C348.025 417.579 347.556 416.747 347.215 415.744C346.895 414.72 346.735 413.515 346.735 412.128C346.735 409.568 347.311 407.584 348.463 406.176C349.615 404.768 351.193 404.064 353.199 404.064C355.247 404.064 356.836 404.747 357.967 406.112C359.097 407.477 359.663 409.333 359.663 411.68V412.736H349.039ZM357.359 411.008C357.337 410.688 357.316 410.411 357.295 410.176C357.273 409.941 357.241 409.728 357.199 409.536C357.177 409.344 357.135 409.163 357.071 408.992C357.028 408.8 356.964 408.597 356.879 408.384C356.58 407.659 356.1 407.083 355.439 406.656C354.777 406.229 354.031 406.016 353.199 406.016C352.367 406.016 351.62 406.229 350.959 406.656C350.297 407.083 349.817 407.659 349.519 408.384C349.348 408.811 349.231 409.195 349.167 409.536C349.103 409.877 349.06 410.368 349.039 411.008H357.359ZM373.368 407.264C372.941 406.837 372.536 406.539 372.152 406.368C371.768 406.197 371.266 406.112 370.648 406.112C370.072 406.112 369.549 406.219 369.08 406.432C368.61 406.645 368.216 406.944 367.896 407.328C367.576 407.712 367.32 408.16 367.128 408.672C366.957 409.184 366.872 409.739 366.872 410.336V420H364.568V404.256H366.872V406.176C367.298 405.515 367.906 405.003 368.696 404.64C369.506 404.256 370.37 404.064 371.288 404.064C372.034 404.064 372.706 404.171 373.304 404.384C373.922 404.597 374.509 404.981 375.064 405.536L373.368 407.264ZM383.316 420H381.268L375.508 404.256H378.004L382.292 416.896L386.612 404.256H389.108L383.316 420ZM393.789 412.736C393.789 414.464 394.183 415.808 394.973 416.768C395.762 417.707 396.914 418.176 398.429 418.176C399.346 418.176 400.103 418.037 400.701 417.76C401.319 417.461 401.938 417.003 402.557 416.384L404.125 417.76C403.719 418.165 403.314 418.517 402.909 418.816C402.525 419.115 402.109 419.371 401.661 419.584C401.213 419.776 400.711 419.925 400.157 420.032C399.623 420.139 399.026 420.192 398.365 420.192C397.319 420.192 396.37 420.032 395.517 419.712C394.685 419.392 393.97 418.901 393.373 418.24C392.775 417.579 392.306 416.747 391.965 415.744C391.645 414.72 391.485 413.515 391.485 412.128C391.485 409.568 392.061 407.584 393.213 406.176C394.365 404.768 395.943 404.064 397.949 404.064C399.997 404.064 401.586 404.747 402.717 406.112C403.847 407.477 404.413 409.333 404.413 411.68V412.736H393.789ZM402.109 411.008C402.087 410.688 402.066 410.411 402.045 410.176C402.023 409.941 401.991 409.728 401.949 409.536C401.927 409.344 401.885 409.163 401.821 408.992C401.778 408.8 401.714 408.597 401.629 408.384C401.33 407.659 400.85 407.083 400.189 406.656C399.527 406.229 398.781 406.016 397.949 406.016C397.117 406.016 396.37 406.229 395.709 406.656C395.047 407.083 394.567 407.659 394.269 408.384C394.098 408.811 393.981 409.195 393.917 409.536C393.853 409.877 393.81 410.368 393.789 411.008H402.109ZM418.118 407.264C417.691 406.837 417.286 406.539 416.902 406.368C416.518 406.197 416.016 406.112 415.398 406.112C414.822 406.112 414.299 406.219 413.83 406.432C413.36 406.645 412.966 406.944 412.646 407.328C412.326 407.712 412.07 408.16 411.878 408.672C411.707 409.184 411.622 409.739 411.622 410.336V420H409.318V404.256H411.622V406.176C412.048 405.515 412.656 405.003 413.446 404.64C414.256 404.256 415.12 404.064 416.038 404.064C416.784 404.064 417.456 404.171 418.054 404.384C418.672 404.597 419.259 404.981 419.814 405.536L418.118 407.264ZM431.171 420V397.216H445.315V399.392H433.603V407.424H443.587V409.6H433.603V417.824H445.315V420H431.171ZM458.743 407.264C458.316 406.837 457.911 406.539 457.527 406.368C457.143 406.197 456.641 406.112 456.023 406.112C455.447 406.112 454.924 406.219 454.455 406.432C453.985 406.645 453.591 406.944 453.271 407.328C452.951 407.712 452.695 408.16 452.503 408.672C452.332 409.184 452.247 409.739 452.247 410.336V420H449.943V404.256H452.247V406.176C452.673 405.515 453.281 405.003 454.071 404.64C454.881 404.256 455.745 404.064 456.663 404.064C457.409 404.064 458.081 404.171 458.679 404.384C459.297 404.597 459.884 404.981 460.439 405.536L458.743 407.264ZM472.211 407.264C471.785 406.837 471.379 406.539 470.995 406.368C470.611 406.197 470.11 406.112 469.491 406.112C468.915 406.112 468.393 406.219 467.923 406.432C467.454 406.645 467.059 406.944 466.739 407.328C466.419 407.712 466.163 408.16 465.971 408.672C465.801 409.184 465.715 409.739 465.715 410.336V420H463.411V404.256H465.715V406.176C466.142 405.515 466.75 405.003 467.539 404.64C468.35 404.256 469.214 404.064 470.131 404.064C470.878 404.064 471.55 404.171 472.147 404.384C472.766 404.597 473.353 404.981 473.907 405.536L472.211 407.264ZM488.912 412.128C488.912 413.344 488.784 414.496 488.528 415.584C488.293 416.651 487.781 417.589 486.992 418.4C486.437 418.955 485.787 419.392 485.04 419.712C484.293 420.032 483.44 420.192 482.48 420.192C481.52 420.192 480.667 420.032 479.92 419.712C479.173 419.392 478.523 418.955 477.968 418.4C477.563 417.995 477.232 417.557 476.976 417.088C476.741 416.597 476.549 416.096 476.4 415.584C476.272 415.051 476.176 414.496 476.112 413.92C476.069 413.344 476.048 412.747 476.048 412.128C476.048 411.531 476.069 410.944 476.112 410.368C476.176 409.771 476.272 409.216 476.4 408.704C476.549 408.171 476.741 407.669 476.976 407.2C477.232 406.709 477.563 406.261 477.968 405.856C478.523 405.301 479.173 404.864 479.92 404.544C480.667 404.224 481.52 404.064 482.48 404.064C483.44 404.064 484.293 404.224 485.04 404.544C485.787 404.864 486.437 405.301 486.992 405.856C487.781 406.667 488.293 407.616 488.528 408.704C488.784 409.771 488.912 410.912 488.912 412.128ZM486.608 412.128C486.608 411.68 486.597 411.232 486.576 410.784C486.555 410.336 486.501 409.899 486.416 409.472C486.331 409.045 486.203 408.651 486.032 408.288C485.861 407.904 485.637 407.563 485.36 407.264C484.592 406.496 483.632 406.112 482.48 406.112C481.349 406.112 480.4 406.496 479.632 407.264C479.333 407.563 479.099 407.904 478.928 408.288C478.779 408.651 478.651 409.045 478.544 409.472C478.459 409.899 478.405 410.336 478.384 410.784C478.363 411.232 478.352 411.68 478.352 412.128C478.352 412.576 478.363 413.024 478.384 413.472C478.405 413.92 478.459 414.357 478.544 414.784C478.651 415.211 478.779 415.616 478.928 416C479.099 416.384 479.333 416.715 479.632 416.992C480.4 417.76 481.349 418.144 482.48 418.144C483.632 418.144 484.592 417.76 485.36 416.992C485.637 416.715 485.861 416.384 486.032 416C486.203 415.616 486.331 415.211 486.416 414.784C486.501 414.357 486.555 413.92 486.576 413.472C486.597 413.024 486.608 412.576 486.608 412.128ZM502.649 407.264C502.222 406.837 501.817 406.539 501.433 406.368C501.049 406.197 500.547 406.112 499.929 406.112C499.353 406.112 498.83 406.219 498.361 406.432C497.891 406.645 497.497 406.944 497.177 407.328C496.857 407.712 496.601 408.16 496.409 408.672C496.238 409.184 496.153 409.739 496.153 410.336V420H493.849V404.256H496.153V406.176C496.579 405.515 497.187 405.003 497.977 404.64C498.787 404.256 499.651 404.064 500.569 404.064C501.315 404.064 501.987 404.171 502.585 404.384C503.203 404.597 503.79 404.981 504.345 405.536L502.649 407.264Z" fill="#637488"/>
</svg>
