<svg width="20" height="14" viewBox="0 0 20 14" fill="none" xmlns="http://www.w3.org/2000/svg">
<path d="M9.148 9.42627C10.0003 8.84674 10.6474 8.00244 10.9935 7.01825C11.3397 6.03405 11.3666 4.9622 11.0702 3.9612C10.7738 2.9602 10.1699 2.08319 9.34771 1.45987C8.52556 0.836545 7.52884 0.5 6.50493 0.5C5.48103 0.5 4.48431 0.836545 3.66216 1.45987C2.84001 2.08319 2.23609 2.9602 1.93969 3.9612C1.64329 4.9622 1.67016 6.03405 2.01632 7.01825C2.36249 8.00244 3.00956 8.84674 3.86186 9.42627C2.32013 10.0066 1.00346 11.0806 0.108308 12.4879C0.0612624 12.5593 0.0285841 12.6396 0.0121732 12.724C-0.00423772 12.8084 -0.00405398 12.8954 0.0127137 12.9797C0.0294815 13.0641 0.0624987 13.1442 0.109846 13.2154C0.157194 13.2866 0.217927 13.3475 0.288516 13.3945C0.359105 13.4415 0.438141 13.4738 0.521031 13.4893C0.603921 13.5049 0.689011 13.5034 0.771354 13.4851C0.853697 13.4668 0.931652 13.4319 1.00069 13.3825C1.06972 13.3332 1.12846 13.2703 1.17349 13.1975C1.7509 12.2904 2.54101 11.5451 3.47207 11.0291C4.40313 10.5131 5.44564 10.2428 6.50493 10.2428C7.56422 10.2428 8.60674 10.5131 9.5378 11.0291C10.4689 11.5451 11.259 12.2904 11.8364 13.1975C11.9297 13.3391 12.0737 13.4375 12.2375 13.4714C12.4012 13.5054 12.5715 13.4722 12.7114 13.3789C12.8514 13.2857 12.9498 13.14 12.9853 12.9732C13.0209 12.8065 12.9908 12.6322 12.9016 12.4879C12.0064 11.0806 10.6897 10.0066 9.148 9.42627ZM3.00734 5.37332C3.00734 4.66678 3.21247 3.97611 3.59679 3.38864C3.98111 2.80118 4.52736 2.34331 5.16646 2.07293C5.80556 1.80255 6.50881 1.7318 7.18728 1.86964C7.86575 2.00748 8.48896 2.34771 8.97811 2.84731C9.46725 3.3469 9.80037 3.98343 9.93532 4.67639C10.0703 5.36935 10.001 6.08763 9.73629 6.74038C9.47157 7.39314 9.02327 7.95106 8.44809 8.34359C7.87292 8.73612 7.19669 8.94563 6.50493 8.94563C5.57764 8.94456 4.68862 8.56784 4.03292 7.89814C3.37722 7.22843 3.00839 6.32042 3.00734 5.37332ZM19.7115 13.3867C19.5703 13.4807 19.3982 13.5137 19.2332 13.4782C19.0682 13.4427 18.9237 13.3418 18.8316 13.1975C18.2549 12.2899 17.4648 11.5442 16.5336 11.0284C15.6023 10.5127 14.5595 10.2432 13.5001 10.2447C13.3315 10.2447 13.1697 10.1762 13.0505 10.0544C12.9312 9.93261 12.8642 9.7674 12.8642 9.59514C12.8642 9.42288 12.9312 9.25768 13.0505 9.13587C13.1697 9.01406 13.3315 8.94563 13.5001 8.94563C14.0152 8.94514 14.5238 8.82845 14.9896 8.60392C15.4554 8.37938 15.8669 8.05254 16.1947 7.64675C16.5225 7.24095 16.7585 6.76622 16.8859 6.25647C17.0132 5.74672 17.0287 5.21454 16.9313 4.69794C16.834 4.18135 16.6261 3.6931 16.3225 3.26808C16.019 2.84306 15.6273 2.49176 15.1754 2.23929C14.7235 1.98681 14.2226 1.83938 13.7085 1.80755C13.1944 1.77571 12.6797 1.86025 12.2012 2.05512C12.1232 2.08956 12.0393 2.10769 11.9543 2.10842C11.8693 2.10915 11.785 2.09248 11.7065 2.05939C11.6279 2.0263 11.5566 1.97746 11.4969 1.91576C11.4371 1.85406 11.39 1.78075 11.3585 1.70016C11.3269 1.61956 11.3115 1.53333 11.3131 1.44654C11.3147 1.35976 11.3334 1.27419 11.3679 1.19489C11.4025 1.11558 11.4522 1.04416 11.5142 0.984828C11.5763 0.925499 11.6493 0.879472 11.7291 0.849465C12.824 0.403454 14.0419 0.387404 15.1478 0.804411C16.2536 1.22142 17.1691 2.04193 17.7176 3.10767C18.2661 4.1734 18.4087 5.40885 18.118 6.57566C17.8272 7.74247 17.1237 8.75798 16.1432 9.42627C17.6849 10.0066 19.0016 11.0806 19.8967 12.4879C19.9889 12.6322 20.0211 12.8079 19.9864 12.9765C19.9516 13.145 19.8528 13.2926 19.7115 13.3867Z" fill="white"/>
</svg>
