<svg width="28" height="28" viewBox="0 0 28 28" fill="none" xmlns="http://www.w3.org/2000/svg">
<path d="M19.5718 22.2549C16.737 24.2404 13.5811 25.7072 8.79785 25.979C8.83182 25.8184 9.95584 19.9976 16.5178 16.0388C21.5419 12.991 27.8074 10.5206 26.1491 5.08887C26.6667 5.49071 27.0967 5.9941 27.4126 6.56813C27.7286 7.14216 27.9238 7.77472 27.9865 8.42696C28.252 12.2282 24.528 18.7655 19.5718 22.2549Z" fill="#A7A9AC"/>
<path d="M25.3877 10.0009C24.3039 8.81825 19.8294 10.5475 19.8294 10.5475C19.8294 10.5475 18.2854 11.1651 17.0502 11.1281C16.3492 11.1281 16.0929 10.7915 16.5006 10.4672C16.7458 10.3176 17.0109 10.2033 17.288 10.1276C17.4117 10.0762 17.5184 9.99098 17.596 9.88176C17.6735 9.77254 17.7188 9.64369 17.7265 9.50996C17.8284 8.2408 17.8099 5.11269 15.0986 5.1621C12.551 5.21151 12.1156 7.11987 13.2458 9.34321C13.9561 10.7451 12.6653 10.8501 11.6741 10.7266C8.32362 10.2974 3.27479 8.27786 1.40039 2.7998C9.2778 4.9058 22.1484 2.29029 26.1443 5.07564C26.1875 5.11887 28.2256 8.04935 25.3877 10.0009Z" fill="#5E217C"/>
</svg>
