<svg width="559" height="302" viewBox="0 0 559 302" fill="none" xmlns="http://www.w3.org/2000/svg">
<g clip-path="url(#clip0_1167_4478)">
<rect x="5.33398" y="1.06714" width="237.895" height="213.428" rx="9" fill="white"/>
<path d="M35.4073 252.221L33.6637 260.977C33.5323 261.646 33.395 262.328 33.2457 263.003C31.7884 262.701 30.2773 262.785 28.8627 263.248C29.985 264.853 30.9908 266.537 31.8723 268.286C30.7736 271.675 29.1613 274.807 26.4622 277.072C24.6595 278.551 22.5065 279.541 20.2107 279.945C17.9149 280.349 15.5537 280.154 13.355 279.379L13.4327 279.033C10.5306 273.397 12.107 266.29 15.7137 261.085C17.5533 258.516 19.7329 256.21 22.1927 254.229C24.629 252.197 27.2624 250.374 29.8719 248.575C30.458 248.172 31.1509 247.953 31.8622 247.945C32.5734 247.938 33.2707 248.143 33.8649 248.534C34.4591 248.926 34.9232 249.486 35.198 250.142C35.4727 250.799 35.5456 251.523 35.4073 252.221Z" fill="#E4E4E4"/>
<path d="M13.976 300.447C13.2421 295.096 12.4873 289.677 13.002 284.269C13.4594 279.466 14.923 274.775 17.904 270.928C19.4861 268.89 21.4113 267.144 23.5929 265.768C24.162 265.41 24.6851 266.312 24.119 266.669C20.3443 269.057 17.4247 272.582 15.7811 276.738C13.9658 281.359 13.6744 286.397 13.9897 291.306C14.179 294.274 14.5797 297.222 14.9839 300.169C15.0165 300.302 14.9969 300.443 14.9292 300.562C14.8615 300.682 14.7508 300.771 14.6197 300.811C14.4864 300.847 14.3442 300.829 14.2241 300.761C14.1041 300.692 14.0157 300.579 13.9784 300.446L13.976 300.447Z" fill="#F2F2F2"/>
<path d="M20.2743 32.0554C45.8541 31.6102 71.4366 31.5462 97.0219 31.8635C122.603 32.1827 148.176 32.8848 173.741 33.9698C188.086 34.5787 202.426 35.3082 216.759 36.1582C217.911 36.2264 217.907 34.4331 216.759 34.3652C191.22 32.8526 165.663 31.7208 140.086 30.9697C114.514 30.2207 88.9338 29.8547 63.3464 29.8717C48.9882 29.8812 34.6309 30.0115 20.2743 30.2624C19.1228 30.2824 19.1192 32.0755 20.2743 32.0554Z" fill="#EBEBEB"/>
<path d="M198.541 20.8127L209.726 19.9795C210.869 19.8943 210.878 18.1006 209.726 18.1865L198.541 19.0197C197.398 19.1048 197.389 20.8985 198.541 20.8127Z" fill="#E6E6E6"/>
<path d="M198.541 31.5707L209.726 30.7375C210.869 30.6524 210.878 28.8587 209.726 28.9445L198.541 29.7777C197.398 29.8629 197.389 31.6566 198.541 31.5707Z" fill="#E6E6E6"/>
<path d="M197.7 26.6579L213.603 28.1039C214.75 28.2083 214.743 26.4146 213.603 26.3109L197.7 24.8649C196.552 24.7605 196.559 26.5541 197.7 26.6579Z" fill="#E6E6E6"/>
<path d="M26.8938 18.4014C26.116 18.3966 25.354 18.6211 24.7027 19.0468C24.0514 19.4725 23.5398 20.0807 23.2315 20.7954C22.8866 21.495 22.7802 22.2884 22.9284 23.0543C23.0766 23.8201 23.4714 24.5163 24.0523 25.0364C24.5985 25.5014 25.2535 25.8203 25.9561 25.9632C26.6588 26.1061 27.3862 26.0683 28.0703 25.8534C28.77 25.6088 29.3767 25.1532 29.807 24.5492C30.2372 23.9453 30.4699 23.2227 30.4729 22.4809C30.5041 21.658 30.2814 20.8454 29.8349 20.1536C29.3885 19.4619 28.74 18.9245 27.9777 18.6146C27.7486 18.5524 27.5043 18.5832 27.2979 18.7005C27.0915 18.8178 26.9398 19.012 26.8759 19.2408C26.8194 19.4698 26.8527 19.7118 26.9691 19.9169C27.0855 20.1221 27.276 20.2748 27.5015 20.3436C27.6576 20.404 27.3588 20.2668 27.5046 20.3463C27.5645 20.3789 27.6256 20.4085 27.6844 20.4434C27.7345 20.473 27.7824 20.5055 27.831 20.5373C27.9982 20.6465 27.7494 20.4571 27.8563 20.5553C27.949 20.6404 28.0408 20.7235 28.125 20.8175C28.1569 20.853 28.2817 20.9518 28.1847 20.8827C28.1105 20.8299 28.1561 20.8423 28.1847 20.8848C28.2064 20.9169 28.2293 20.9483 28.2508 20.9806C28.3206 21.0864 28.3841 21.1963 28.4409 21.3096C28.454 21.3358 28.4661 21.3626 28.4795 21.3887C28.5045 21.4376 28.5409 21.4504 28.4819 21.3892C28.4256 21.3307 28.4615 21.3347 28.4816 21.391C28.4949 21.428 28.5093 21.4645 28.5222 21.5017C28.5642 21.6226 28.5995 21.7458 28.6278 21.8706C28.641 21.9283 28.6515 21.9864 28.6628 22.0444C28.7028 22.2503 28.657 21.9165 28.6666 22.0694C28.6747 22.1971 28.6841 22.3234 28.6819 22.4516C28.6809 22.5102 28.6783 22.5688 28.6743 22.6274C28.6722 22.6565 28.6689 22.6857 28.667 22.7148C28.6577 22.8555 28.6574 22.6634 28.6771 22.6503C28.6362 22.7697 28.609 22.8934 28.5962 23.0191C28.5801 23.0748 28.5611 23.1293 28.5432 23.1845C28.4809 23.3768 28.6017 23.0796 28.5353 23.2111C28.4806 23.324 28.4195 23.4337 28.3523 23.5396C28.3231 23.584 28.2131 23.6842 28.3031 23.6144C28.4007 23.5388 28.2519 23.6691 28.2201 23.7026C28.1793 23.7457 28.137 23.7872 28.0931 23.8273C28.065 23.8548 28.0353 23.8806 28.0042 23.9046C27.9985 23.9017 28.1539 23.8008 28.0702 23.8542C27.9637 23.9221 27.863 23.9948 27.7508 24.054C27.7377 24.0609 27.5943 24.1273 27.5949 24.1297C27.5888 24.1055 27.7793 24.0626 27.6485 24.1048C27.621 24.1137 27.5941 24.1245 27.5667 24.1337C27.4476 24.1738 27.3261 24.2062 27.2029 24.2307C27.1747 24.2363 27.1448 24.2392 27.117 24.2464C27.0244 24.2703 27.2055 24.2323 27.2109 24.2355C27.1425 24.2325 27.074 24.2386 27.0071 24.2535C26.88 24.2608 26.7526 24.2608 26.6255 24.2535C26.5961 24.2518 26.5668 24.2489 26.5374 24.2472C26.4691 24.2432 26.4191 24.194 26.5099 24.2474C26.5799 24.2886 26.5741 24.2585 26.512 24.2471C26.483 24.2417 26.4538 24.2372 26.4248 24.2317C26.299 24.2082 26.1746 24.1777 26.0522 24.1404C25.9863 24.1203 25.9218 24.0969 25.8568 24.0742C25.8285 24.0659 25.8009 24.0553 25.7744 24.0424C25.774 24.035 25.9419 24.1227 25.8532 24.0749C25.7413 24.0145 25.6256 23.964 25.5164 23.898C25.4581 23.8628 25.4021 23.8245 25.3454 23.7868C25.3205 23.7718 25.2968 23.7548 25.2745 23.736C25.2764 23.7285 25.4134 23.8555 25.3415 23.7869C25.2505 23.7002 25.1532 23.6225 25.0671 23.5301C25.0474 23.509 25.0288 23.4869 25.0091 23.4657L24.9901 23.444C24.9416 23.3846 24.9407 23.3849 24.9874 23.4448C25.0349 23.4588 25.0327 23.511 24.9877 23.4432C24.9716 23.4191 24.9546 23.3957 24.9386 23.3715C24.8658 23.2678 24.8038 23.1569 24.7534 23.0406C24.7578 23.0372 24.831 23.2563 24.775 23.091C24.7644 23.0597 24.7525 23.029 24.7422 22.9977C24.7216 22.9356 24.7035 22.8728 24.6878 22.8093C24.6723 22.7464 24.6644 22.6815 24.6488 22.6189C24.6225 22.5133 24.6642 22.7022 24.6594 22.6974C24.6445 22.6827 24.6508 22.5911 24.6497 22.5692C24.6425 22.4285 24.6586 22.292 24.6611 22.1522C24.663 22.0439 24.6521 22.2366 24.6499 22.2309C24.6504 22.1985 24.6561 22.1663 24.6669 22.1357C24.6831 22.062 24.6982 21.9883 24.718 21.9154C24.7407 21.8319 24.7669 21.7494 24.7965 21.6679C24.8076 21.6375 24.821 21.6074 24.8313 21.5767C24.869 21.4641 24.7567 21.7127 24.8186 21.6111C24.9039 21.4715 24.9673 21.3203 25.0578 21.1824C25.0792 21.1497 25.2096 20.9676 25.1404 21.0595C25.0715 21.1511 25.2112 20.9775 25.2377 20.948C25.3475 20.8256 25.4767 20.7251 25.5905 20.6078C25.6578 20.5384 25.5435 20.642 25.5368 20.6468C25.572 20.6216 25.6065 20.5955 25.6421 20.5709C25.7043 20.528 25.768 20.4874 25.8333 20.4492C25.9068 20.4061 25.9899 20.374 26.0611 20.3283C26.1452 20.2745 25.9967 20.352 25.9941 20.3536C26.0325 20.3345 26.0727 20.3192 26.1141 20.3078C26.1834 20.2832 26.4851 20.153 26.5483 20.1937C26.5455 20.1918 26.3193 20.2119 26.5021 20.2002C26.5453 20.1974 26.5884 20.1932 26.6317 20.1914C26.7192 20.1877 26.8064 20.1899 26.8939 20.1945C27.1309 20.1929 27.3579 20.098 27.5255 19.9302C27.6931 19.7624 27.788 19.5353 27.7896 19.298C27.7845 19.0618 27.6885 18.8367 27.5216 18.6697C27.3547 18.5026 27.1298 18.4065 26.8938 18.4014Z" fill="#E6E6E6"/>
<path d="M39.4337 18.4014C38.6559 18.3966 37.8939 18.6211 37.2426 19.0468C36.5914 19.4725 36.0797 20.0807 35.7714 20.7954C35.4265 21.495 35.3201 22.2884 35.4683 23.0543C35.6165 23.8201 36.0113 24.5163 36.5923 25.0364C37.1384 25.5014 37.7934 25.8203 38.4961 25.9632C39.1987 26.1061 39.9261 26.0683 40.6103 25.8534C41.3099 25.6088 41.9166 25.1532 42.3469 24.5492C42.7771 23.9453 43.0098 23.2227 43.0128 22.4809C43.044 21.658 42.8213 20.8454 42.3748 20.1536C41.9284 19.4619 41.2799 18.9245 40.5176 18.6146C40.2886 18.5524 40.0442 18.5832 39.8378 18.7005C39.6314 18.8178 39.4797 19.012 39.4158 19.2408C39.3593 19.4698 39.3927 19.7118 39.509 19.9169C39.6254 20.1221 39.8159 20.2748 40.0414 20.3436C40.1975 20.404 39.8988 20.2668 40.0445 20.3463C40.1045 20.3789 40.1655 20.4085 40.2244 20.4434C40.2744 20.473 40.3223 20.5055 40.371 20.5373C40.5382 20.6465 40.2893 20.4571 40.3962 20.5553C40.4889 20.6404 40.5807 20.7235 40.665 20.8175C40.6968 20.853 40.8216 20.9518 40.7246 20.8827C40.6504 20.8299 40.696 20.8423 40.7246 20.8848C40.7463 20.9169 40.7692 20.9483 40.7907 20.9806C40.8605 21.0864 40.924 21.1963 40.9808 21.3096C40.9939 21.3358 41.006 21.3626 41.0194 21.3887C41.0444 21.4376 41.0808 21.4504 41.0218 21.3892C40.9655 21.3307 41.0014 21.3347 41.0215 21.391C41.0348 21.428 41.0492 21.4645 41.0621 21.5017C41.1041 21.6226 41.1394 21.7458 41.1677 21.8706C41.1809 21.9283 41.1914 21.9864 41.2027 22.0444C41.2427 22.2503 41.1969 21.9165 41.2066 22.0694C41.2146 22.1971 41.224 22.3234 41.2218 22.4516C41.2208 22.5102 41.2183 22.5688 41.2142 22.6274C41.2121 22.6565 41.2089 22.6857 41.2069 22.7148C41.1977 22.8555 41.1974 22.6634 41.217 22.6503C41.1761 22.7697 41.1489 22.8934 41.1361 23.0191C41.12 23.0748 41.101 23.1293 41.0831 23.1845C41.0208 23.3768 41.1416 23.0796 41.0752 23.2111C41.0206 23.324 40.9595 23.4337 40.8922 23.5396C40.863 23.584 40.753 23.6842 40.843 23.6144C40.9406 23.5388 40.7918 23.6691 40.76 23.7026C40.7192 23.7457 40.6769 23.7872 40.633 23.8273C40.6049 23.8548 40.5752 23.8806 40.5442 23.9046C40.5385 23.9017 40.6938 23.8008 40.6101 23.8542C40.5036 23.9221 40.4029 23.9948 40.2907 24.054C40.2777 24.0609 40.1343 24.1273 40.1349 24.1297C40.1287 24.1055 40.3192 24.0626 40.1884 24.1048C40.1609 24.1137 40.134 24.1245 40.1066 24.1337C39.9876 24.1738 39.866 24.2062 39.7428 24.2307C39.7146 24.2363 39.6847 24.2392 39.6569 24.2464C39.5643 24.2703 39.7454 24.2323 39.7509 24.2355C39.6824 24.2325 39.6139 24.2386 39.547 24.2535C39.4199 24.2608 39.2925 24.2608 39.1654 24.2535C39.136 24.2518 39.1067 24.2489 39.0773 24.2472C39.0091 24.2432 38.959 24.194 39.0498 24.2474C39.1199 24.2886 39.114 24.2585 39.052 24.2471C39.0229 24.2417 38.9938 24.2372 38.9647 24.2317C38.8389 24.2082 38.7145 24.1777 38.5921 24.1404C38.5262 24.1203 38.4617 24.0969 38.3967 24.0742C38.3684 24.0659 38.3408 24.0553 38.3143 24.0424C38.3139 24.035 38.4818 24.1227 38.3931 24.0749C38.2813 24.0145 38.1656 23.964 38.0563 23.898C37.998 23.8628 37.942 23.8245 37.8853 23.7868C37.8604 23.7718 37.8367 23.7548 37.8144 23.736C37.8163 23.7285 37.9533 23.8555 37.8814 23.7869C37.7904 23.7002 37.6932 23.6225 37.607 23.5301C37.5873 23.509 37.5687 23.4869 37.549 23.4657L37.53 23.444C37.4815 23.3846 37.4806 23.3849 37.5273 23.4448C37.5748 23.4588 37.5726 23.511 37.5276 23.4432C37.5116 23.4191 37.4945 23.3957 37.4785 23.3715C37.4057 23.2678 37.3437 23.1569 37.2933 23.0406C37.2977 23.0372 37.3709 23.2563 37.3149 23.091C37.3044 23.0597 37.2925 23.029 37.2821 22.9977C37.2615 22.9356 37.2434 22.8728 37.2277 22.8093C37.2123 22.7464 37.2043 22.6815 37.1887 22.6189C37.1624 22.5133 37.2041 22.7022 37.1993 22.6974C37.1844 22.6827 37.1907 22.5911 37.1896 22.5692C37.1825 22.4285 37.1985 22.292 37.201 22.1522C37.2029 22.0439 37.192 22.2366 37.1898 22.2309C37.1903 22.1985 37.1961 22.1663 37.2068 22.1357C37.223 22.062 37.2381 21.9883 37.2579 21.9154C37.2806 21.8319 37.3068 21.7494 37.3364 21.6679C37.3475 21.6375 37.361 21.6074 37.3713 21.5767C37.4089 21.4641 37.2966 21.7127 37.3586 21.6111C37.4438 21.4715 37.5072 21.3203 37.5977 21.1824C37.6192 21.1497 37.7495 20.9676 37.6803 21.0595C37.6114 21.1511 37.7511 20.9775 37.7776 20.948C37.8875 20.8256 38.0167 20.7251 38.1304 20.6078C38.1977 20.5384 38.0834 20.642 38.0767 20.6468C38.1119 20.6216 38.1464 20.5955 38.1821 20.5709C38.2443 20.528 38.308 20.4874 38.3732 20.4492C38.4467 20.4061 38.5298 20.374 38.601 20.3283C38.6851 20.2745 38.5366 20.352 38.534 20.3536C38.5724 20.3345 38.6126 20.3192 38.654 20.3078C38.7233 20.2832 39.025 20.153 39.0883 20.1937C39.0854 20.1918 38.8592 20.2119 39.0421 20.2002C39.0853 20.1974 39.1283 20.1932 39.1716 20.1914C39.2591 20.1877 39.3463 20.1899 39.4338 20.1945C39.6709 20.1929 39.8978 20.098 40.0654 19.9302C40.2331 19.7624 40.3279 19.5353 40.3295 19.298C40.3244 19.0618 40.2284 18.8367 40.0615 18.6697C39.8946 18.5026 39.6697 18.4065 39.4337 18.4014Z" fill="#E6E6E6"/>
<path d="M51.9737 18.4014C51.1958 18.3966 50.4338 18.6211 49.7825 19.0468C49.1313 19.4725 48.6196 20.0807 48.3113 20.7954C47.9665 21.495 47.86 22.2884 48.0082 23.0543C48.1565 23.8201 48.5512 24.5163 49.1322 25.0364C49.6783 25.5014 50.3333 25.8203 51.036 25.9632C51.7387 26.1061 52.4661 26.0683 53.1502 25.8534C53.8498 25.6088 54.4565 25.1532 54.8868 24.5492C55.3171 23.9453 55.5497 23.2227 55.5527 22.4809C55.5839 21.658 55.3612 20.8454 54.9148 20.1536C54.4683 19.4619 53.8198 18.9245 53.0575 18.6146C52.8285 18.5524 52.5841 18.5832 52.3777 18.7005C52.1713 18.8178 52.0196 19.012 51.9557 19.2408C51.8992 19.4698 51.9326 19.7118 52.0489 19.9169C52.1653 20.1221 52.3558 20.2748 52.5813 20.3436C52.7374 20.404 52.4387 20.2668 52.5844 20.3463C52.6444 20.3789 52.7054 20.4085 52.7643 20.4434C52.8143 20.473 52.8622 20.5055 52.9109 20.5373C53.0781 20.6465 52.8293 20.4571 52.9361 20.5553C53.0288 20.6404 53.1206 20.7235 53.2049 20.8175C53.2367 20.853 53.3615 20.9518 53.2645 20.8827C53.1903 20.8299 53.2359 20.8423 53.2645 20.8848C53.2862 20.9169 53.3092 20.9483 53.3306 20.9806C53.4004 21.0864 53.4639 21.1963 53.5207 21.3096C53.5339 21.3358 53.5459 21.3626 53.5593 21.3887C53.5844 21.4376 53.6207 21.4504 53.5618 21.3892C53.5054 21.3307 53.5413 21.3347 53.5614 21.391C53.5747 21.428 53.5892 21.4645 53.6021 21.5017C53.6441 21.6226 53.6793 21.7458 53.7077 21.8706C53.7208 21.9283 53.7313 21.9864 53.7426 22.0444C53.7826 22.2503 53.7368 21.9165 53.7465 22.0694C53.7545 22.1971 53.764 22.3234 53.7617 22.4516C53.7607 22.5102 53.7582 22.5688 53.7541 22.6274C53.752 22.6565 53.7488 22.6857 53.7469 22.7148C53.7376 22.8555 53.7373 22.6634 53.7569 22.6503C53.716 22.7697 53.6888 22.8934 53.676 23.0191C53.6599 23.0748 53.6409 23.1293 53.623 23.1845C53.5607 23.3768 53.6816 23.0796 53.6151 23.2111C53.5605 23.324 53.4994 23.4337 53.4321 23.5396C53.403 23.584 53.2929 23.6842 53.3829 23.6144C53.4806 23.5388 53.3317 23.6691 53.2999 23.7026C53.2591 23.7457 53.2168 23.7872 53.1729 23.8273C53.1448 23.8548 53.1152 23.8806 53.0841 23.9046C53.0784 23.9017 53.2337 23.8008 53.15 23.8542C53.0436 23.9221 52.9428 23.9948 52.8306 24.054C52.8176 24.0609 52.6742 24.1273 52.6748 24.1297C52.6686 24.1055 52.8591 24.0626 52.7283 24.1048C52.7009 24.1137 52.6739 24.1245 52.6466 24.1337C52.5275 24.1738 52.4059 24.2062 52.2827 24.2307C52.2545 24.2363 52.2246 24.2392 52.1969 24.2464C52.1043 24.2703 52.2853 24.2323 52.2908 24.2355C52.2223 24.2325 52.1538 24.2386 52.0869 24.2535C51.9599 24.2608 51.8324 24.2608 51.7054 24.2535C51.676 24.2518 51.6466 24.2489 51.6172 24.2472C51.549 24.2432 51.4989 24.194 51.5897 24.2474C51.6598 24.2886 51.654 24.2585 51.5919 24.2471C51.5628 24.2417 51.5337 24.2372 51.5046 24.2317C51.3789 24.2082 51.2545 24.1777 51.132 24.1404C51.0662 24.1203 51.0016 24.0969 50.9366 24.0742C50.9083 24.0659 50.8807 24.0553 50.8542 24.0424C50.8538 24.035 51.0217 24.1227 50.9331 24.0749C50.8212 24.0145 50.7055 23.964 50.5962 23.898C50.5379 23.8628 50.4819 23.8245 50.4252 23.7868C50.4003 23.7718 50.3766 23.7548 50.3543 23.736C50.3562 23.7285 50.4932 23.8555 50.4213 23.7869C50.3304 23.7002 50.2331 23.6225 50.1469 23.5301C50.1272 23.509 50.1086 23.4869 50.089 23.4657L50.07 23.444C50.0214 23.3846 50.0205 23.3849 50.0673 23.4448C50.1147 23.4588 50.1126 23.511 50.0675 23.4432C50.0515 23.4191 50.0344 23.3957 50.0184 23.3715C49.9457 23.2678 49.8836 23.1569 49.8332 23.0406C49.8376 23.0372 49.9108 23.2563 49.8549 23.091C49.8443 23.0597 49.8324 23.029 49.822 22.9977C49.8014 22.9356 49.7833 22.8728 49.7677 22.8093C49.7522 22.7464 49.7442 22.6815 49.7286 22.6189C49.7023 22.5133 49.744 22.7022 49.7392 22.6974C49.7243 22.6827 49.7307 22.5911 49.7295 22.5692C49.7224 22.4285 49.7384 22.292 49.7409 22.1522C49.7428 22.0439 49.7319 22.2366 49.7297 22.2309C49.7302 22.1985 49.736 22.1663 49.7467 22.1357C49.7629 22.062 49.778 21.9883 49.7978 21.9154C49.8206 21.8319 49.8467 21.7494 49.8763 21.6679C49.8874 21.6375 49.9009 21.6074 49.9112 21.5767C49.9489 21.4641 49.8365 21.7127 49.8985 21.6111C49.9837 21.4715 50.0472 21.3203 50.1376 21.1824C50.1591 21.1497 50.2894 20.9676 50.2202 21.0595C50.1513 21.1511 50.2911 20.9775 50.3175 20.948C50.4274 20.8256 50.5566 20.7251 50.6703 20.6078C50.7377 20.5384 50.6233 20.642 50.6166 20.6468C50.6518 20.6216 50.6863 20.5955 50.722 20.5709C50.7842 20.528 50.8479 20.4874 50.9131 20.4492C50.9866 20.4061 51.0697 20.374 51.1409 20.3283C51.225 20.2745 51.0766 20.352 51.0739 20.3536C51.1123 20.3345 51.1525 20.3192 51.1939 20.3078C51.2632 20.2832 51.5649 20.153 51.6282 20.1937C51.6253 20.1918 51.3991 20.2119 51.582 20.2002C51.6252 20.1974 51.6682 20.1932 51.7115 20.1914C51.799 20.1877 51.8863 20.1899 51.9737 20.1945C52.2108 20.1929 52.4377 20.098 52.6053 19.9302C52.773 19.7624 52.8678 19.5353 52.8694 19.298C52.8643 19.0618 52.7683 18.8367 52.6014 18.6697C52.4345 18.5026 52.2096 18.4065 51.9737 18.4014Z" fill="#E6E6E6"/>
<path d="M233.13 216.954H13.4392C10.6611 216.951 7.99779 215.845 6.03341 213.879C4.06903 211.913 2.96406 209.247 2.96094 206.467V10.4875C2.96405 7.70702 4.069 5.04129 6.03337 3.07517C7.99774 1.10905 10.6611 0.00311794 13.4392 0H233.13C235.908 0.00311795 238.571 1.10905 240.535 3.07517C242.5 5.04129 243.605 7.70702 243.608 10.4875V206.467C243.605 209.247 242.5 211.913 240.535 213.879C238.571 215.845 235.908 216.951 233.13 216.954ZM13.4392 1.19534C10.9778 1.19814 8.61798 2.17804 6.87751 3.92005C5.13704 5.66207 4.15801 8.02394 4.15521 10.4875V206.467C4.15808 208.93 5.13714 211.292 6.8776 213.034C8.61806 214.776 10.9778 215.756 13.4392 215.759H233.13C235.591 215.756 237.951 214.776 239.691 213.034C241.432 211.292 242.411 208.93 242.413 206.467V10.4875C242.411 8.02395 241.432 5.66207 239.691 3.92005C237.951 2.17804 235.591 1.19814 233.13 1.19534H13.4392Z" fill="#E6E6E6"/>
<path d="M13.0752 133.344L90.3325 133.108L167.196 132.874L210.554 132.742C210.786 132.734 211.006 132.636 211.168 132.469C211.329 132.302 211.419 132.078 211.419 131.846C211.419 131.613 211.329 131.39 211.168 131.223C211.006 131.055 210.786 130.958 210.554 130.949L133.297 131.185L56.4338 131.419L13.0752 131.551C12.843 131.559 12.623 131.657 12.4616 131.824C12.3002 131.991 12.21 132.215 12.21 132.447C12.21 132.68 12.3002 132.903 12.4616 133.07C12.623 133.238 12.843 133.336 13.0752 133.344Z" fill="#E6E6E6"/>
<path d="M52.0502 131.89L52.528 103.658C52.5475 102.504 50.7561 102.503 50.7365 103.658L50.2588 131.89C50.2393 133.044 52.0307 133.044 52.0502 131.89Z" fill="#E6E6E6"/>
<path d="M88.9745 132.196L90.1387 96.7092L90.4713 86.5703C90.5091 85.4162 88.7177 85.4175 88.6799 86.5703L87.5157 122.057L87.1831 132.196C87.1452 133.35 88.9367 133.348 88.9745 132.196Z" fill="#E6E6E6"/>
<path d="M125.799 69.7488C125.097 82.3178 123.798 119.391 123.095 131.96C123.031 133.113 124.823 133.109 124.887 131.96C125.589 119.391 126.888 82.3178 127.59 69.7488C127.655 68.5959 125.863 68.5996 125.799 69.7488Z" fill="#E6E6E6"/>
<path d="M162.446 119.348L162.227 131.429C162.206 132.583 163.997 132.583 164.018 131.429C164.278 117.161 164.943 117.626 165.016 113.599C165.037 112.445 163.245 112.444 163.224 113.599C163.224 113.599 162.706 105.08 162.446 119.348Z" fill="#E6E6E6"/>
<path d="M198.342 87.6116L198.544 121.505L198.602 131.21C198.61 131.442 198.708 131.662 198.875 131.824C199.042 131.985 199.266 132.076 199.498 132.076C199.73 132.076 199.953 131.985 200.121 131.824C200.288 131.662 200.386 131.442 200.394 131.21L200.191 97.3166L200.133 87.6116C200.125 87.3792 200.027 87.159 199.86 86.9975C199.693 86.8359 199.47 86.7456 199.237 86.7456C199.005 86.7456 198.782 86.8359 198.615 86.9975C198.447 87.159 198.35 87.3792 198.342 87.6116Z" fill="#E6E6E6"/>
<path d="M13.2193 132.335C11.7364 128.256 15.0791 124.334 18.5137 122.571C22.6286 120.459 27.3622 119.981 31.5207 117.945C37.7204 114.91 42.236 109.463 46.2541 104.011C50.3897 98.3994 54.1738 92.3767 59.4289 87.714C62.198 85.2023 65.4686 83.3079 69.0241 82.1562C73.504 80.7569 78.2552 80.6609 82.8842 81.2248C92.4495 82.3901 101.317 86.3444 110.546 88.8576C119.248 91.2271 128.835 92.5596 137.376 88.8749C141.715 87.0028 145.264 83.863 149.075 81.146C152.764 78.4889 156.888 76.4976 161.262 75.2622C169.835 72.876 179.198 73.5131 187.181 77.5471C194.518 81.2075 200.327 87.3445 203.584 94.875C207.368 103.923 206.875 114.034 205.639 123.557C205.32 126.019 204.939 128.472 204.555 130.924C204.378 132.053 206.104 132.539 206.282 131.401C207.822 121.581 209.356 111.45 207.441 101.568C205.785 92.9389 201.044 85.2097 194.106 79.8265C187.139 74.4286 178.478 71.6927 169.677 72.1098C165.065 72.324 160.524 73.3346 156.256 75.0971C151.826 76.9313 148.074 79.6499 144.264 82.5105C140.346 85.4516 136.307 87.8844 131.442 88.8436C126.724 89.774 121.816 89.4252 117.118 88.5468C107.425 86.7341 98.3904 82.5789 88.7796 80.4499C79.8753 78.4774 70.2668 78.2803 62.2933 83.3151C56.1598 87.188 51.8259 93.2005 47.6665 99.0063C43.5437 104.761 39.3687 110.915 33.3399 114.846C29.6623 117.244 25.5283 118.129 21.4143 119.478C17.2897 120.83 13.33 123.111 11.6482 127.34C10.9234 129.082 10.8677 131.031 11.4919 132.812C11.883 133.887 13.6148 133.423 13.2193 132.335Z" fill="#ECDEFF"/>
<path d="M51.4567 99.754L51.4536 99.7556L51.4597 99.754H51.4567Z" fill="#E6E6E6"/>
<path d="M54.562 98.1048C54.148 97.371 53.4875 96.8078 52.6978 96.5152C51.9081 96.2227 51.0404 96.2198 50.2488 96.507C49.8553 96.6508 49.4946 96.8721 49.188 97.1578C48.8814 97.4435 48.6352 97.7878 48.4639 98.1704C48.4296 98.2518 48.4096 98.3373 48.3816 98.4206C48.3428 98.4834 48.2961 98.5401 48.2613 98.6058C47.8901 99.3463 47.7884 100.193 47.9739 101.001C48.1593 101.808 48.6203 102.526 49.2774 103.029C49.9345 103.533 50.7466 103.792 51.5738 103.761C52.401 103.73 53.1916 103.412 53.8093 102.86C54.4585 102.273 54.8872 101.48 55.0241 100.615C55.1611 99.7503 54.998 98.8643 54.562 98.1048ZM52.3184 99.6274C52.3231 99.7143 52.3258 99.6727 52.3184 99.6274V99.6274ZM52.0904 99.1084C52.0816 99.0983 52.0827 99.0994 52.0904 99.1084V99.1084ZM51.0852 99.513C51.0704 99.4888 51.0717 99.4922 51.0852 99.513V99.513ZM51.3234 99.7152C51.3577 99.7304 51.3802 99.7345 51.3234 99.7152V99.7152ZM51.4298 99.7659L51.4534 99.7551C51.4476 99.7556 51.4418 99.7545 51.4367 99.7518L51.4374 99.7517L51.4559 99.7539L51.4593 99.7524L51.4487 99.7499C51.4579 99.7496 51.4587 99.7509 51.4593 99.7524C51.5659 99.7035 51.494 99.727 51.4322 99.7461L51.4281 99.7451C51.3895 99.7255 51.3481 99.7122 51.3053 99.7057C51.3013 99.7035 51.2967 99.7019 51.2933 99.6995C51.2591 99.6751 51.0857 99.5395 51.2465 99.6816C51.2115 99.6507 51.1769 99.6203 51.144 99.5869C51.1246 99.567 51.107 99.5454 51.0915 99.5223C51.0704 99.4861 51.0499 99.4495 51.0301 99.4127L51.0271 99.3928C51.0245 99.3763 51.0225 99.3694 51.0203 99.3595C51.0214 99.3492 51.023 99.3382 51.0246 99.3275C51.0366 99.2953 51.0443 99.2616 51.0473 99.2273L51.0543 99.2186C51.08 99.1826 51.1025 99.1407 51.1271 99.1034C50.9973 99.3007 51.1778 99.0816 51.1913 99.0538C51.1936 99.0491 51.1896 99.0517 51.1906 99.0484C51.1959 99.0455 51.1943 99.0475 51.2006 99.0438C51.2408 99.02 51.279 98.9936 51.3198 98.9709C51.3685 98.944 51.5601 98.8895 51.3614 98.9464C51.4065 98.9335 51.4499 98.9171 51.4955 98.9052C51.5038 98.9031 51.5707 98.8937 51.6067 98.8872C51.6384 98.8864 51.6691 98.8854 51.6723 98.8855C51.6872 98.8857 51.7021 98.8875 51.7169 98.8881C51.684 98.8926 51.8301 98.9242 51.8735 98.9309C51.8798 98.9358 51.883 98.9389 51.8916 98.9452C51.9283 98.972 51.9729 98.9959 52.0116 99.021C51.8384 98.9089 52.0139 99.0299 52.047 99.063C52.0668 99.0828 52.085 99.1039 52.1036 99.1247C52.1207 99.1446 52.1361 99.1658 52.1498 99.1881C52.1782 99.2402 52.2084 99.2929 52.2382 99.3441L52.2465 99.3573C52.2463 99.359 52.2462 99.3607 52.2463 99.3624C52.2618 99.4455 52.2848 99.5271 52.3148 99.6061C52.3163 99.6128 52.3175 99.6195 52.3182 99.6263C52.321 99.6719 52.3248 99.7173 52.3249 99.763L52.3245 99.7723C52.1866 99.7003 52.0335 99.6622 51.8779 99.6611C51.7224 99.66 51.5688 99.6959 51.4298 99.7659Z" fill="#E6E6E6"/>
<path d="M51.4616 99.7529C51.4643 99.7538 51.4611 99.7539 51.4611 99.7539L51.4616 99.7529Z" fill="#E6E6E6"/>
<path d="M51.4618 99.7538L51.4584 99.7543C51.4628 99.7548 51.4618 99.7538 51.4618 99.7538Z" fill="#E6E6E6"/>
<path d="M51.4596 99.7522L51.4616 99.7532L51.4596 99.7522Z" fill="#E6E6E6"/>
<path d="M89.6736 83.0193L89.6705 83.0208L89.6766 83.0193H89.6736Z" fill="#E6E6E6"/>
<path d="M92.7789 81.3701C92.3649 80.6362 91.7044 80.073 90.9147 79.7805C90.125 79.488 89.2573 79.4851 88.4657 79.7723C88.0722 79.9161 87.7115 80.1373 87.4049 80.423C87.0984 80.7088 86.8521 81.0531 86.6808 81.4357C86.6465 81.517 86.6265 81.6025 86.5985 81.6858C86.5597 81.7486 86.513 81.8054 86.4783 81.8711C86.107 82.6116 86.0053 83.4585 86.1908 84.2659C86.3763 85.0734 86.8372 85.7908 87.4943 86.2947C88.1514 86.7986 88.9635 87.0573 89.7907 87.0264C90.6179 86.9955 91.4085 86.6768 92.0262 86.1252C92.6754 85.5379 93.1041 84.7458 93.241 83.8806C93.378 83.0155 93.2149 82.1295 92.7789 81.3701ZM90.5353 82.8927C90.54 82.9796 90.5427 82.938 90.5353 82.8927V82.8927ZM90.3073 82.3737C90.2985 82.3636 90.2996 82.3647 90.3073 82.3737V82.3737ZM89.3021 82.7782C89.2873 82.754 89.2886 82.7575 89.3021 82.7782V82.7782ZM89.5403 82.9804C89.5746 82.9957 89.5971 82.9997 89.5403 82.9804V82.9804ZM89.6467 83.0312L89.6703 83.0203C89.6645 83.0209 89.6587 83.0197 89.6536 83.017L89.6543 83.0169L89.6728 83.0192L89.6762 83.0176L89.6655 83.0152C89.6748 83.0148 89.6756 83.0162 89.6762 83.0176C89.7828 82.9688 89.7109 82.9922 89.6491 83.0114L89.645 83.0104C89.6064 82.9908 89.5649 82.9775 89.5222 82.971C89.5182 82.9687 89.5135 82.9671 89.5102 82.9648C89.4759 82.9403 89.3026 82.8048 89.4634 82.9469C89.4284 82.916 89.3938 82.8856 89.3609 82.8522C89.3415 82.8323 89.3239 82.8106 89.3083 82.7875C89.2872 82.7513 89.2668 82.7148 89.247 82.6779L89.244 82.658C89.2414 82.6415 89.2394 82.6347 89.2372 82.6247C89.2382 82.6145 89.2399 82.6035 89.2415 82.5928C89.2535 82.5605 89.2611 82.5268 89.2642 82.4926L89.2712 82.4838C89.2969 82.4479 89.3194 82.406 89.344 82.3686C89.2142 82.566 89.3947 82.3468 89.4082 82.3191C89.4105 82.3143 89.4065 82.3169 89.4075 82.3137C89.4127 82.3107 89.4111 82.3127 89.4175 82.309C89.4577 82.2853 89.4958 82.2589 89.5367 82.2362C89.5854 82.2092 89.777 82.1548 89.5783 82.2116C89.6234 82.1987 89.6667 82.1824 89.7124 82.1705C89.7206 82.1683 89.7876 82.1589 89.8236 82.1525C89.8553 82.1517 89.886 82.1507 89.8892 82.1507C89.9041 82.1509 89.9189 82.1527 89.9338 82.1534C89.9008 82.1578 90.047 82.1894 90.0904 82.1961C90.0967 82.201 90.0999 82.2042 90.1084 82.2105C90.1451 82.2373 90.1898 82.2612 90.2285 82.2862C90.0553 82.1742 90.2308 82.2951 90.2639 82.3282C90.2837 82.3481 90.3019 82.3692 90.3205 82.39C90.3376 82.4098 90.353 82.431 90.3667 82.4533C90.3951 82.5054 90.4253 82.5582 90.4551 82.6094L90.4634 82.6226C90.4632 82.6242 90.4631 82.6259 90.4631 82.6276C90.4787 82.7108 90.5016 82.7923 90.5317 82.8713C90.5332 82.878 90.5343 82.8848 90.5351 82.8916C90.5379 82.9371 90.5417 82.9825 90.5418 83.0283L90.5414 83.0375C90.4034 82.9656 90.2504 82.9274 90.0948 82.9263C89.9393 82.9252 89.7857 82.9612 89.6467 83.0312Z" fill="#E6E6E6"/>
<path d="M89.6788 83.019L89.6753 83.0196C89.6797 83.02 89.6788 83.019 89.6788 83.019Z" fill="#E6E6E6"/>
<path d="M89.6765 83.0175L89.6785 83.0185L89.6765 83.0175Z" fill="#E6E6E6"/>
<path d="M89.6785 83.0182C89.6812 83.019 89.678 83.0191 89.678 83.0191L89.6785 83.0182Z" fill="#E6E6E6"/>
<path d="M126.699 91.3849L126.701 91.3859L126.699 91.3849Z" fill="#E6E6E6"/>
<path d="M129.802 64.6353C129.387 63.9015 128.727 63.3383 127.937 63.0457C127.148 62.7532 126.28 62.7503 125.488 63.0376C125.095 63.1813 124.734 63.4026 124.428 63.6883C124.121 63.974 123.875 64.3183 123.703 64.701C123.669 64.7823 123.649 64.8678 123.621 64.9511C123.582 65.0139 123.536 65.0706 123.501 65.1363C123.13 65.8768 123.028 66.7238 123.213 67.5312C123.399 68.3387 123.86 69.0561 124.517 69.56C125.174 70.0638 125.986 70.3226 126.813 70.2917C127.641 70.2607 128.431 69.942 129.049 69.3905C129.698 68.8031 130.127 68.011 130.264 67.1459C130.401 66.2808 130.238 65.3948 129.802 64.6353ZM127.558 66.158C127.563 66.2448 127.565 66.2032 127.558 66.158V66.158ZM127.33 65.6389C127.321 65.6288 127.322 65.6299 127.33 65.6389V65.6389ZM126.325 66.0435C126.31 66.0193 126.311 66.0228 126.325 66.0435V66.0435ZM126.563 66.2457C126.597 66.261 126.62 66.265 126.563 66.2457V66.2457ZM126.669 66.2964L126.693 66.2856C126.687 66.2861 126.681 66.285 126.676 66.2823L126.677 66.2822L126.695 66.2845L126.699 66.2829L126.688 66.2804C126.697 66.2801 126.698 66.2815 126.699 66.2829C126.805 66.2341 126.733 66.2575 126.672 66.2766L126.668 66.2757C126.629 66.2561 126.588 66.2428 126.545 66.2362C126.541 66.234 126.536 66.2324 126.533 66.23C126.499 66.2056 126.325 66.0701 126.486 66.2121C126.451 66.1812 126.416 66.1508 126.383 66.1174C126.364 66.0975 126.346 66.0759 126.331 66.0528C126.31 66.0166 126.289 65.98 126.27 65.9432L126.267 65.9233C126.264 65.9068 126.262 65.8999 126.26 65.89C126.261 65.8797 126.262 65.8687 126.264 65.858C126.276 65.8258 126.284 65.7921 126.287 65.7578L126.294 65.7491C126.319 65.7132 126.342 65.6712 126.367 65.6339C126.237 65.8312 126.417 65.6121 126.431 65.5843C126.433 65.5796 126.429 65.5822 126.43 65.5789C126.435 65.576 126.434 65.578 126.44 65.5743C126.48 65.5506 126.518 65.5241 126.559 65.5015C126.608 65.4745 126.8 65.42 126.601 65.4769C126.646 65.464 126.689 65.4477 126.735 65.4357C126.743 65.4336 126.81 65.4242 126.846 65.4177C126.878 65.4169 126.909 65.416 126.912 65.416C126.927 65.4162 126.942 65.418 126.956 65.4187C126.923 65.4231 127.07 65.4547 127.113 65.4614C127.119 65.4663 127.122 65.4695 127.131 65.4757C127.168 65.5026 127.212 65.5264 127.251 65.5515C127.078 65.4394 127.253 65.5604 127.286 65.5935C127.306 65.6133 127.324 65.6344 127.343 65.6553C127.36 65.6751 127.376 65.6963 127.389 65.7186C127.418 65.7707 127.448 65.8234 127.478 65.8747L127.486 65.8878C127.486 65.8895 127.486 65.8912 127.486 65.8929C127.501 65.976 127.524 66.0576 127.554 66.1366C127.556 66.1433 127.557 66.1501 127.558 66.1569C127.56 66.2024 127.564 66.2478 127.564 66.2936L127.564 66.3028C127.426 66.2308 127.273 66.1927 127.117 66.1916C126.962 66.1905 126.808 66.2264 126.669 66.2964Z" fill="#E6E6E6"/>
<path d="M126.696 91.3867L126.693 91.3882L126.699 91.3867H126.696Z" fill="#E6E6E6"/>
<path d="M126.701 91.3865L126.698 91.387C126.702 91.3875 126.701 91.3865 126.701 91.3865Z" fill="#E6E6E6"/>
<path d="M126.701 91.3855C126.704 91.3863 126.701 91.3864 126.701 91.3864L126.701 91.3855Z" fill="#E6E6E6"/>
<path d="M167.421 110.656C167.007 109.922 166.347 109.359 165.557 109.066C164.767 108.774 163.9 108.771 163.108 109.058C162.715 109.202 162.354 109.423 162.047 109.709C161.741 109.995 161.494 110.339 161.323 110.721C161.289 110.803 161.269 110.888 161.241 110.972C161.202 111.034 161.155 111.091 161.121 111.157C160.749 111.897 160.648 112.744 160.833 113.552C161.019 114.359 161.48 115.077 162.137 115.58C162.794 116.084 163.606 116.343 164.433 116.312C165.26 116.281 166.051 115.963 166.669 115.411C167.318 114.824 167.746 114.032 167.883 113.166C168.02 112.301 167.857 111.415 167.421 110.656ZM165.178 112.178C165.182 112.265 165.185 112.224 165.178 112.178V112.178ZM164.95 111.659C164.941 111.649 164.942 111.65 164.95 111.659V111.659ZM163.944 112.064C163.93 112.04 163.931 112.043 163.944 112.064V112.064ZM164.183 112.266C164.217 112.281 164.239 112.286 164.183 112.266V112.266ZM164.289 112.317L164.313 112.306C164.307 112.307 164.301 112.306 164.296 112.303L164.297 112.303L164.315 112.305L164.319 112.303L164.308 112.301C164.317 112.301 164.318 112.302 164.319 112.303C164.425 112.255 164.353 112.278 164.291 112.297L164.287 112.296C164.249 112.277 164.207 112.263 164.164 112.257C164.161 112.255 164.156 112.253 164.153 112.251C164.118 112.226 163.945 112.091 164.106 112.233C164.071 112.202 164.036 112.171 164.003 112.138C163.984 112.118 163.966 112.096 163.951 112.073C163.93 112.037 163.909 112.001 163.889 111.964L163.886 111.944C163.884 111.927 163.882 111.92 163.88 111.911C163.881 111.9 163.882 111.889 163.884 111.879C163.896 111.846 163.903 111.813 163.907 111.778L163.913 111.77C163.939 111.734 163.962 111.692 163.986 111.654C163.856 111.852 164.037 111.633 164.051 111.605C164.053 111.6 164.049 111.603 164.05 111.599C164.055 111.596 164.053 111.599 164.06 111.595C164.1 111.571 164.138 111.545 164.179 111.522C164.228 111.495 164.419 111.441 164.221 111.497C164.266 111.484 164.309 111.468 164.355 111.456C164.363 111.454 164.43 111.445 164.466 111.438C164.498 111.437 164.528 111.436 164.532 111.437C164.546 111.437 164.561 111.439 164.576 111.439C164.543 111.444 164.689 111.475 164.733 111.482C164.739 111.487 164.742 111.49 164.751 111.496C164.787 111.523 164.832 111.547 164.871 111.572C164.698 111.46 164.873 111.581 164.906 111.614C164.926 111.634 164.944 111.655 164.963 111.676C164.98 111.696 164.995 111.717 165.009 111.739C165.037 111.791 165.068 111.844 165.097 111.895L165.106 111.908C165.106 111.91 165.105 111.912 165.105 111.913C165.121 111.997 165.144 112.078 165.174 112.157C165.176 112.164 165.177 112.171 165.177 112.177C165.18 112.223 165.184 112.268 165.184 112.314L165.184 112.323C165.046 112.251 164.893 112.213 164.737 112.212C164.582 112.211 164.428 112.247 164.289 112.317Z" fill="#E6E6E6"/>
<path d="M164.316 72.8589L164.313 72.8604L164.319 72.8589H164.316Z" fill="#E6E6E6"/>
<path d="M164.321 72.8586L164.318 72.8592C164.322 72.8596 164.321 72.8586 164.321 72.8586Z" fill="#E6E6E6"/>
<path d="M164.321 72.8578C164.323 72.8586 164.32 72.8587 164.32 72.8587L164.321 72.8578Z" fill="#E6E6E6"/>
<path d="M164.319 72.8572L164.321 72.8582L164.319 72.8572Z" fill="#E6E6E6"/>
<path d="M202.652 83.163C202.238 82.4292 201.578 81.866 200.788 81.5735C199.998 81.2809 199.131 81.278 198.339 81.5653C197.946 81.709 197.585 81.9303 197.278 82.216C196.972 82.5017 196.726 82.8461 196.554 83.2287C196.52 83.31 196.5 83.3955 196.472 83.4788C196.433 83.5416 196.386 83.5983 196.352 83.664C195.98 84.4045 195.879 85.2515 196.064 86.0589C196.25 86.8664 196.711 87.5838 197.368 88.0877C198.025 88.5916 198.837 88.8503 199.664 88.8194C200.491 88.7884 201.282 88.4697 201.9 87.9182C202.549 87.3308 202.978 86.5387 203.114 85.6736C203.251 84.8085 203.088 83.9225 202.652 83.163ZM200.409 84.6857C200.413 84.7725 200.416 84.7309 200.409 84.6857V84.6857ZM200.181 84.1666C200.172 84.1565 200.173 84.1576 200.181 84.1666V84.1666ZM199.176 84.5712C199.161 84.547 199.162 84.5505 199.176 84.5712V84.5712ZM199.414 84.7734C199.448 84.7887 199.47 84.7927 199.414 84.7734V84.7734ZM199.52 84.8241L199.544 84.8133C199.538 84.8138 199.532 84.8127 199.527 84.81L199.528 84.8099L199.546 84.8122L199.55 84.8106L199.539 84.8081C199.548 84.8078 199.549 84.8092 199.55 84.8106C199.656 84.7618 199.584 84.7852 199.523 84.8043L199.518 84.8034C199.48 84.7838 199.438 84.7705 199.396 84.7639C199.392 84.7617 199.387 84.7601 199.384 84.7577C199.349 84.7333 199.176 84.5978 199.337 84.7399C199.302 84.7089 199.267 84.6785 199.234 84.6452C199.215 84.6252 199.197 84.6036 199.182 84.5805C199.161 84.5443 199.14 84.5078 199.12 84.4709L199.117 84.451C199.115 84.4345 199.113 84.4276 199.111 84.4177C199.112 84.4075 199.113 84.3964 199.115 84.3858C199.127 84.3535 199.135 84.3198 199.138 84.2856L199.145 84.2768C199.17 84.2409 199.193 84.1989 199.217 84.1616C199.088 84.3589 199.268 84.1398 199.282 84.1121C199.284 84.1073 199.28 84.1099 199.281 84.1066C199.286 84.1037 199.285 84.1057 199.291 84.102C199.331 84.0783 199.369 84.0518 199.41 84.0292C199.459 84.0022 199.65 83.9477 199.452 84.0046C199.497 83.9917 199.54 83.9754 199.586 83.9634C199.594 83.9613 199.661 83.9519 199.697 83.9454C199.729 83.9446 199.759 83.9437 199.763 83.9437C199.777 83.9439 199.792 83.9457 199.807 83.9464C199.774 83.9508 199.92 83.9824 199.964 83.9891C199.97 83.994 199.973 83.9972 199.982 84.0034C200.019 84.0303 200.063 84.0541 200.102 84.0792C199.929 83.9671 200.104 84.0881 200.137 84.1212C200.157 84.141 200.175 84.1621 200.194 84.183C200.211 84.2028 200.226 84.224 200.24 84.2463C200.268 84.2984 200.299 84.3511 200.329 84.4024L200.337 84.4155C200.337 84.4172 200.337 84.4189 200.337 84.4206C200.352 84.5037 200.375 84.5853 200.405 84.6643C200.407 84.671 200.408 84.6778 200.409 84.6846C200.411 84.7301 200.415 84.7755 200.415 84.8213L200.415 84.8305C200.277 84.7585 200.124 84.7204 199.968 84.7193C199.813 84.7182 199.659 84.7541 199.52 84.8241Z" fill="#E6E6E6"/>
<path d="M199.547 84.8123L199.544 84.8138L199.55 84.8123H199.547Z" fill="#E6E6E6"/>
<path d="M199.55 84.8105L199.552 84.8116L199.55 84.8105Z" fill="#E6E6E6"/>
<path d="M199.552 84.8112C199.555 84.812 199.551 84.8121 199.551 84.8121L199.552 84.8112Z" fill="#E6E6E6"/>
<path d="M199.552 84.8121L199.549 84.8127C199.553 84.8131 199.552 84.8121 199.552 84.8121Z" fill="#E6E6E6"/>
<path d="M189.892 112.202L162.127 113.747C161.97 113.756 161.817 113.704 161.697 113.603C161.577 113.501 161.501 113.358 161.484 113.202C161.467 113.046 161.511 112.889 161.606 112.764C161.701 112.639 161.84 112.556 161.995 112.53L190.373 107.908L189.892 112.202Z" fill="#3F3D56"/>
<path d="M225.177 174.071L235.64 156.453L243.373 160.108C243.373 160.108 230.048 176.766 229.623 177.246C229.805 178.055 229.737 178.901 229.428 179.671C229.119 180.441 228.584 181.099 227.893 181.558C227.203 182.017 226.389 182.256 225.56 182.242C224.731 182.228 223.926 181.962 223.251 181.481C222.576 180.999 222.063 180.323 221.78 179.543C221.497 178.763 221.457 177.915 221.666 177.112C221.875 176.309 222.322 175.588 222.949 175.045C223.576 174.502 224.353 174.162 225.177 174.071Z" fill="#FFB6B6"/>
<path d="M229.53 133.145L246.481 141.997C247.54 142.761 248.429 143.738 249.089 144.865C249.75 145.992 250.169 147.244 250.318 148.543C250.468 149.841 250.345 151.156 249.958 152.404C249.57 153.652 248.927 154.805 248.069 155.79L236.383 169.208L231.292 162.303L235.216 154.091L227.618 152.086L229.53 133.145Z" fill="#7AAAA4"/>
<path d="M181.223 112.49L179.314 132.897L170.761 132.911C170.761 132.911 175.668 112.144 175.846 111.529C175.335 110.876 175.035 110.082 174.984 109.254C174.933 108.426 175.135 107.601 175.563 106.89C175.99 106.179 176.624 105.615 177.379 105.272C178.134 104.929 178.975 104.823 179.791 104.969C180.607 105.115 181.36 105.506 181.95 106.089C182.539 106.673 182.938 107.421 183.093 108.237C183.248 109.052 183.153 109.895 182.819 110.655C182.485 111.414 181.928 112.054 181.223 112.49Z" fill="#FFB6B6"/>
<path d="M198.247 154.221L178.562 150.608C170.273 149.61 166.872 144.151 168.367 138.827L173.181 121.691L180.737 125.746L180.708 134.849L191.285 133.401L198.247 154.221Z" fill="#7AAAA4"/>
<path d="M190.189 295.244H184.777L182.202 274.348H190.19L190.189 295.244Z" fill="#FFB6B6"/>
<path d="M190.38 300.896L173.736 300.895V300.684C173.736 298.965 174.418 297.316 175.633 296.1C176.848 294.884 178.496 294.2 180.214 294.2L183.255 291.892L188.927 294.201L190.38 294.201L190.38 300.896Z" fill="#2F2E41"/>
<path d="M228.487 295.244H233.899L236.474 274.348H228.485L228.487 295.244Z" fill="#FFB6B6"/>
<path d="M228.296 300.896L244.94 300.895V300.684C244.94 298.965 244.257 297.316 243.043 296.1C241.828 294.884 240.18 294.2 238.462 294.2L235.421 291.892L229.749 294.201L228.296 294.201L228.296 300.896Z" fill="#2F2E41"/>
<path d="M181.964 258.993C182.044 257.801 182.679 251.207 182.679 251.207L184.202 237.223L186.885 200.154L189.276 190.411L201.115 195.027L210.721 190.418L222.139 194.071L231.03 197.408C231.03 197.408 231.045 198.836 231.114 200.562C231.205 202.821 231.365 205.59 231.745 206.31C232.381 207.582 232.221 214.413 232.221 214.413C232.221 214.413 232.853 228.309 233.648 229.833C234.444 231.356 234.604 234.53 234.364 235.166C234.124 235.802 235.159 252.491 235.159 252.491C235.159 252.491 237.816 282.023 236.149 286.476C234.482 290.929 228.183 288.012 228.183 288.012C228.183 288.012 228.487 286.824 226.661 286.264C224.834 285.704 219.269 243.828 219.269 243.828C219.269 243.828 218.234 235.242 217.283 232.781C216.331 230.32 215.456 223.406 215.456 223.406C215.456 223.406 209.58 211.963 209.503 209.419C209.503 209.419 208.735 207.038 208.008 209.659C207.281 212.279 205.138 218.557 205.138 218.557L203.049 226.267L200.59 237.786L198.999 247.485C198.999 247.485 196.617 260.357 196.236 260.913C195.855 261.469 196.236 273.228 196.236 273.228C196.236 273.228 194.394 283.243 191.791 284.992C189.187 286.74 182.29 285.019 182.29 285.019C182.29 285.019 181.884 260.185 181.964 258.993Z" fill="#2F2E41"/>
<path d="M190.814 159.059L189.301 178.674L187.028 181.028C186.823 181.24 186.663 181.492 186.558 181.767C186.452 182.043 186.403 182.337 186.414 182.632C186.425 182.927 186.495 183.217 186.62 183.484C186.745 183.751 186.923 183.99 187.143 184.187L185.891 186.336L185.448 193.108C185.321 193.635 185.313 194.183 185.422 194.714C185.532 195.244 185.758 195.744 186.083 196.178C186.408 196.611 186.824 196.967 187.303 197.221C187.781 197.474 188.31 197.619 188.851 197.644L228.042 199.487C228.58 199.512 229.117 199.419 229.614 199.214C230.112 199.009 230.559 198.697 230.923 198.3C231.287 197.903 231.56 197.431 231.722 196.917C231.884 196.403 231.931 195.86 231.86 195.326L228.527 170.215V168.338L227.036 164.712L227.802 152.565L229.586 133.285L219.218 130.604L213.597 126.733L203.831 126.889L197.905 131.76L190.004 132.998L184.029 134.187L183.267 135.843L184.79 135.512L190.308 157.053L190.814 159.059Z" fill="#7AAAA4"/>
<path d="M208.495 124.105C214.849 124.105 220 118.949 220 112.59C220 106.231 214.849 101.075 208.495 101.075C202.142 101.075 196.991 106.231 196.991 112.59C196.991 118.949 202.142 124.105 208.495 124.105Z" fill="#FFB6B6"/>
<path d="M205.722 123.362L214.034 122.938C215.099 122.883 216.261 122.789 217.036 122.056C217.452 121.603 217.773 121.07 217.978 120.489C218.746 118.702 219.515 116.916 220.264 115.121C221.299 112.638 222.317 110.017 222.052 107.34C221.99 106.117 221.478 104.961 220.614 104.094C220.173 103.676 219.607 103.416 219.003 103.355C218.399 103.294 217.792 103.434 217.276 103.755C217.148 102.908 216.829 102.102 216.344 101.396C215.858 100.691 215.219 100.105 214.474 99.6835C212.97 98.8518 211.253 98.4873 209.541 98.6365C207.056 98.7968 204.685 99.7324 202.759 101.312C202.218 101.812 201.64 102.27 201.029 102.684C200.723 102.889 200.377 103.03 200.014 103.097C199.651 103.164 199.278 103.157 198.918 103.075C198.561 102.979 198.251 102.758 198.045 102.452C197.839 102.145 197.751 101.774 197.796 101.408C197.211 101.846 196.81 102.486 196.671 103.205C196.532 103.923 196.665 104.667 197.044 105.292C196.613 105.473 196.142 105.54 195.677 105.485C195.213 105.43 194.77 105.255 194.393 104.979C193.989 105.179 193.631 105.462 193.342 105.81C193.053 106.157 192.84 106.561 192.717 106.995C192.593 107.43 192.561 107.885 192.623 108.333C192.686 108.78 192.841 109.21 193.078 109.594C193.316 109.978 193.631 110.308 194.004 110.563C194.376 110.818 194.798 110.992 195.242 111.075C195.685 111.157 196.142 111.146 196.581 111.042C197.02 110.938 197.433 110.743 197.792 110.47C198.297 111.177 198.109 112.138 198.043 113.005C197.977 113.871 198.21 114.948 199.044 115.188C200.172 115.511 201.086 113.991 202.26 114.007C202.549 114.031 202.829 114.125 203.073 114.283C203.317 114.44 203.518 114.656 203.66 114.91C203.936 115.42 204.125 115.974 204.22 116.547L205.722 123.315" fill="#2F2E41"/>
<path d="M529.815 226.897C529.815 225.114 529.217 223.667 528.483 223.664H328.235C327.497 223.667 326.902 225.114 326.899 226.897V300.297C326.899 300.462 326.838 300.622 326.727 300.745C326.615 300.867 326.463 300.944 326.298 300.96C325.761 301.012 325.223 301.06 324.686 301.104C324.672 301.104 324.659 301.108 324.646 301.108C324.353 301.134 324.061 301.154 323.768 301.178H323.765C323.615 300.899 323.466 300.618 323.319 300.335C323.269 300.24 323.243 300.134 323.243 300.026V222.703C323.243 222.21 323.263 221.715 323.296 221.226C323.344 220.554 323.427 219.886 323.546 219.223C324.107 216.133 325.377 214.04 326.819 214.033H529.895C530.106 214.035 530.314 214.079 530.507 214.163C530.79 214.289 531.046 214.468 531.261 214.692C531.553 214.995 531.802 215.337 532.002 215.707C532.83 217.357 533.306 219.162 533.402 221.006C533.402 221.026 533.405 221.046 533.405 221.066C533.451 221.605 533.475 222.154 533.471 222.703L533.518 229.832L533.548 234.083L533.637 247.423L533.671 252.16L533.817 300.795C533.817 300.971 533.747 301.141 533.622 301.265C533.498 301.39 533.329 301.46 533.152 301.46H530.48C530.304 301.46 530.135 301.39 530.01 301.265C529.885 301.141 529.815 300.971 529.815 300.795V226.897Z" fill="#E6E6E6"/>
<path d="M475.402 180.676H453.825C453.52 180.676 453.227 180.798 453.011 181.014C452.796 181.23 452.675 181.524 452.675 181.829V215.945H476.554V181.829C476.554 181.678 476.525 181.527 476.467 181.388C476.409 181.248 476.324 181.12 476.217 181.013C476.11 180.906 475.983 180.821 475.843 180.763C475.703 180.705 475.553 180.675 475.402 180.676ZM464.686 200.06C464.011 200.056 463.365 199.787 462.888 199.309C462.411 198.832 462.141 198.185 462.138 197.509V193.575C462.138 192.898 462.406 192.25 462.884 191.771C463.362 191.293 464.01 191.024 464.686 191.024C465.362 191.024 466.01 191.293 466.487 191.771C466.965 192.25 467.234 192.898 467.234 193.575V197.509C467.231 198.185 466.961 198.832 466.484 199.309C466.007 199.787 465.361 200.056 464.686 200.06Z" fill="#CCCCCC"/>
<path d="M452.601 214.853V218.145C452.601 218.315 452.669 218.479 452.79 218.599C452.91 218.72 453.074 218.788 453.244 218.788H475.985C476.156 218.787 476.319 218.719 476.439 218.599C476.559 218.478 476.627 218.315 476.628 218.145V214.853H452.601Z" fill="#3F3D56"/>
<path d="M511.131 127.434H418.898C418.106 127.435 417.346 127.751 416.786 128.312C416.225 128.873 415.91 129.633 415.909 130.426V192.721C415.909 193.514 416.225 194.275 416.785 194.836C417.346 195.397 418.105 195.712 418.898 195.713H511.131C511.924 195.712 512.684 195.397 513.244 194.836C513.805 194.275 514.12 193.514 514.121 192.721V130.426C514.119 129.633 513.804 128.873 513.244 128.312C512.683 127.751 511.924 127.435 511.131 127.434Z" fill="#E6E6E6"/>
<path d="M510.361 129.595H419.669C419.244 129.596 418.838 129.765 418.538 130.066C418.238 130.367 418.07 130.774 418.07 131.199V191.949C418.071 192.374 418.239 192.78 418.539 193.08C418.839 193.38 419.245 193.549 419.669 193.549H510.361C510.785 193.549 511.191 193.38 511.491 193.08C511.791 192.78 511.959 192.374 511.96 191.949V131.199C511.96 130.774 511.792 130.367 511.492 130.066C511.192 129.765 510.786 129.596 510.361 129.595Z" fill="white"/>
<path d="M492.696 219.934H438.739C438.591 219.934 438.445 219.901 438.312 219.837C438.178 219.773 438.061 219.681 437.968 219.566C437.875 219.451 437.809 219.317 437.774 219.173C437.739 219.03 437.737 218.88 437.767 218.735L438.605 214.756C438.652 214.533 438.775 214.333 438.951 214.19C439.128 214.046 439.348 213.968 439.576 213.967H491.859C492.086 213.968 492.307 214.046 492.483 214.19C492.66 214.333 492.782 214.533 492.83 214.756L493.667 218.735C493.698 218.88 493.695 219.03 493.661 219.173C493.626 219.317 493.56 219.451 493.467 219.566C493.374 219.681 493.256 219.773 493.123 219.837C492.989 219.901 492.844 219.934 492.696 219.934Z" fill="#CCCCCC"/>
<path d="M441.329 214.683H440.25C440.089 214.683 439.959 214.814 439.959 214.975V215.39C439.959 215.551 440.089 215.681 440.25 215.681H441.329C441.49 215.681 441.621 215.551 441.621 215.39V214.975C441.621 214.814 441.49 214.683 441.329 214.683Z" fill="#E6E6E6"/>
<path d="M444.653 214.683H443.574C443.413 214.683 443.283 214.814 443.283 214.975V215.39C443.283 215.551 443.413 215.681 443.574 215.681H444.653C444.814 215.681 444.945 215.551 444.945 215.39V214.975C444.945 214.814 444.814 214.683 444.653 214.683Z" fill="#E6E6E6"/>
<path d="M447.977 214.683H446.898C446.737 214.683 446.606 214.814 446.606 214.975V215.39C446.606 215.551 446.737 215.681 446.898 215.681H447.977C448.138 215.681 448.268 215.551 448.268 215.39V214.975C448.268 214.814 448.138 214.683 447.977 214.683Z" fill="#E6E6E6"/>
<path d="M451.3 214.683H450.221C450.06 214.683 449.93 214.814 449.93 214.975V215.39C449.93 215.551 450.06 215.681 450.221 215.681H451.3C451.461 215.681 451.592 215.551 451.592 215.39V214.975C451.592 214.814 451.461 214.683 451.3 214.683Z" fill="#E6E6E6"/>
<path d="M454.624 214.683H453.545C453.384 214.683 453.254 214.814 453.254 214.975V215.39C453.254 215.551 453.384 215.681 453.545 215.681H454.624C454.785 215.681 454.915 215.551 454.915 215.39V214.975C454.915 214.814 454.785 214.683 454.624 214.683Z" fill="#E6E6E6"/>
<path d="M457.948 214.683H456.869C456.708 214.683 456.577 214.814 456.577 214.975V215.39C456.577 215.551 456.708 215.681 456.869 215.681H457.948C458.109 215.681 458.239 215.551 458.239 215.39V214.975C458.239 214.814 458.109 214.683 457.948 214.683Z" fill="#E6E6E6"/>
<path d="M461.271 214.683H460.192C460.031 214.683 459.901 214.814 459.901 214.975V215.39C459.901 215.551 460.031 215.681 460.192 215.681H461.271C461.432 215.681 461.563 215.551 461.563 215.39V214.975C461.563 214.814 461.432 214.683 461.271 214.683Z" fill="#E6E6E6"/>
<path d="M464.595 214.683H463.516C463.355 214.683 463.225 214.814 463.225 214.975V215.39C463.225 215.551 463.355 215.681 463.516 215.681H464.595C464.756 215.681 464.886 215.551 464.886 215.39V214.975C464.886 214.814 464.756 214.683 464.595 214.683Z" fill="#E6E6E6"/>
<path d="M467.919 214.683H466.84C466.679 214.683 466.548 214.814 466.548 214.975V215.39C466.548 215.551 466.679 215.681 466.84 215.681H467.919C468.08 215.681 468.21 215.551 468.21 215.39V214.975C468.21 214.814 468.08 214.683 467.919 214.683Z" fill="#E6E6E6"/>
<path d="M471.242 214.683H470.163C470.002 214.683 469.872 214.814 469.872 214.975V215.39C469.872 215.551 470.002 215.681 470.163 215.681H471.242C471.403 215.681 471.534 215.551 471.534 215.39V214.975C471.534 214.814 471.403 214.683 471.242 214.683Z" fill="#E6E6E6"/>
<path d="M474.566 214.683H473.487C473.326 214.683 473.196 214.814 473.196 214.975V215.39C473.196 215.551 473.326 215.681 473.487 215.681H474.566C474.727 215.681 474.857 215.551 474.857 215.39V214.975C474.857 214.814 474.727 214.683 474.566 214.683Z" fill="#E6E6E6"/>
<path d="M477.89 214.683H476.811C476.65 214.683 476.519 214.814 476.519 214.975V215.39C476.519 215.551 476.65 215.681 476.811 215.681H477.89C478.051 215.681 478.181 215.551 478.181 215.39V214.975C478.181 214.814 478.051 214.683 477.89 214.683Z" fill="#E6E6E6"/>
<path d="M481.213 214.683H480.134C479.973 214.683 479.843 214.814 479.843 214.975V215.39C479.843 215.551 479.973 215.681 480.134 215.681H481.213C481.374 215.681 481.505 215.551 481.505 215.39V214.975C481.505 214.814 481.374 214.683 481.213 214.683Z" fill="#E6E6E6"/>
<path d="M484.537 214.683H483.458C483.297 214.683 483.167 214.814 483.167 214.975V215.39C483.167 215.551 483.297 215.681 483.458 215.681H484.537C484.698 215.681 484.828 215.551 484.828 215.39V214.975C484.828 214.814 484.698 214.683 484.537 214.683Z" fill="#E6E6E6"/>
<path d="M487.861 214.683H486.782C486.621 214.683 486.49 214.814 486.49 214.975V215.39C486.49 215.551 486.621 215.681 486.782 215.681H487.861C488.022 215.681 488.152 215.551 488.152 215.39V214.975C488.152 214.814 488.022 214.683 487.861 214.683Z" fill="#E6E6E6"/>
<path d="M491.184 214.683H490.105C489.944 214.683 489.814 214.814 489.814 214.975V215.39C489.814 215.551 489.944 215.681 490.105 215.681H491.184C491.345 215.681 491.476 215.551 491.476 215.39V214.975C491.476 214.814 491.345 214.683 491.184 214.683Z" fill="#E6E6E6"/>
<path d="M441.29 216.347H440.211C440.05 216.347 439.92 216.477 439.92 216.639V217.053C439.92 217.214 440.05 217.345 440.211 217.345H441.29C441.451 217.345 441.582 217.214 441.582 217.053V216.639C441.582 216.477 441.451 216.347 441.29 216.347Z" fill="#E6E6E6"/>
<path d="M444.614 216.347H443.535C443.374 216.347 443.243 216.477 443.243 216.639V217.053C443.243 217.214 443.374 217.345 443.535 217.345H444.614C444.775 217.345 444.905 217.214 444.905 217.053V216.639C444.905 216.477 444.775 216.347 444.614 216.347Z" fill="#E6E6E6"/>
<path d="M447.937 216.347H446.859C446.698 216.347 446.567 216.477 446.567 216.639V217.053C446.567 217.214 446.698 217.345 446.859 217.345H447.937C448.098 217.345 448.229 217.214 448.229 217.053V216.639C448.229 216.477 448.098 216.347 447.937 216.347Z" fill="#E6E6E6"/>
<path d="M451.261 216.347H450.182C450.021 216.347 449.891 216.477 449.891 216.639V217.053C449.891 217.214 450.021 217.345 450.182 217.345H451.261C451.422 217.345 451.552 217.214 451.552 217.053V216.639C451.552 216.477 451.422 216.347 451.261 216.347Z" fill="#E6E6E6"/>
<path d="M454.585 216.347H453.506C453.345 216.347 453.214 216.477 453.214 216.639V217.053C453.214 217.214 453.345 217.345 453.506 217.345H454.585C454.746 217.345 454.876 217.214 454.876 217.053V216.639C454.876 216.477 454.746 216.347 454.585 216.347Z" fill="#E6E6E6"/>
<path d="M457.908 216.347H456.829C456.668 216.347 456.538 216.477 456.538 216.639V217.053C456.538 217.214 456.668 217.345 456.829 217.345H457.908C458.069 217.345 458.2 217.214 458.2 217.053V216.639C458.2 216.477 458.069 216.347 457.908 216.347Z" fill="#E6E6E6"/>
<path d="M461.232 216.347H460.153C459.992 216.347 459.862 216.477 459.862 216.639V217.053C459.862 217.214 459.992 217.345 460.153 217.345H461.232C461.393 217.345 461.524 217.214 461.524 217.053V216.639C461.524 216.477 461.393 216.347 461.232 216.347Z" fill="#E6E6E6"/>
<path d="M464.556 216.347H463.477C463.316 216.347 463.185 216.477 463.185 216.639V217.053C463.185 217.214 463.316 217.345 463.477 217.345H464.556C464.717 217.345 464.847 217.214 464.847 217.053V216.639C464.847 216.477 464.717 216.347 464.556 216.347Z" fill="#E6E6E6"/>
<path d="M467.879 216.347H466.801C466.64 216.347 466.509 216.477 466.509 216.639V217.053C466.509 217.214 466.64 217.345 466.801 217.345H467.879C468.04 217.345 468.171 217.214 468.171 217.053V216.639C468.171 216.477 468.04 216.347 467.879 216.347Z" fill="#E6E6E6"/>
<path d="M471.203 216.347H470.124C469.963 216.347 469.833 216.477 469.833 216.639V217.053C469.833 217.214 469.963 217.345 470.124 217.345H471.203C471.364 217.345 471.494 217.214 471.494 217.053V216.639C471.494 216.477 471.364 216.347 471.203 216.347Z" fill="#E6E6E6"/>
<path d="M474.527 216.347H473.448C473.287 216.347 473.156 216.477 473.156 216.639V217.053C473.156 217.214 473.287 217.345 473.448 217.345H474.527C474.688 217.345 474.818 217.214 474.818 217.053V216.639C474.818 216.477 474.688 216.347 474.527 216.347Z" fill="#E6E6E6"/>
<path d="M477.85 216.347H476.772C476.611 216.347 476.48 216.477 476.48 216.639V217.053C476.48 217.214 476.611 217.345 476.772 217.345H477.85C478.011 217.345 478.142 217.214 478.142 217.053V216.639C478.142 216.477 478.011 216.347 477.85 216.347Z" fill="#E6E6E6"/>
<path d="M481.174 216.347H480.095C479.934 216.347 479.804 216.477 479.804 216.639V217.053C479.804 217.214 479.934 217.345 480.095 217.345H481.174C481.335 217.345 481.466 217.214 481.466 217.053V216.639C481.466 216.477 481.335 216.347 481.174 216.347Z" fill="#E6E6E6"/>
<path d="M484.498 216.347H483.419C483.258 216.347 483.127 216.477 483.127 216.639V217.053C483.127 217.214 483.258 217.345 483.419 217.345H484.498C484.659 217.345 484.789 217.214 484.789 217.053V216.639C484.789 216.477 484.659 216.347 484.498 216.347Z" fill="#E6E6E6"/>
<path d="M487.821 216.347H486.742C486.581 216.347 486.451 216.477 486.451 216.639V217.053C486.451 217.214 486.581 217.345 486.742 217.345H487.821C487.982 217.345 488.113 217.214 488.113 217.053V216.639C488.113 216.477 487.982 216.347 487.821 216.347Z" fill="#E6E6E6"/>
<path d="M491.145 216.347H490.066C489.905 216.347 489.775 216.477 489.775 216.639V217.053C489.775 217.214 489.905 217.345 490.066 217.345H491.145C491.306 217.345 491.436 217.214 491.436 217.053V216.639C491.436 216.477 491.306 216.347 491.145 216.347Z" fill="#E6E6E6"/>
<path d="M468.876 218.343H456.165C456.004 218.343 455.873 218.473 455.873 218.635V219.049C455.873 219.21 456.004 219.341 456.165 219.341H468.876C469.037 219.341 469.168 219.21 469.168 219.049V218.635C469.168 218.473 469.037 218.343 468.876 218.343Z" fill="#E6E6E6"/>
<path d="M505.802 137.965H420.942C420.853 137.963 420.769 137.927 420.708 137.864C420.646 137.801 420.612 137.716 420.612 137.628C420.612 137.539 420.646 137.454 420.708 137.391C420.769 137.328 420.853 137.292 420.942 137.29H505.802C505.891 137.292 505.975 137.328 506.036 137.391C506.098 137.454 506.132 137.539 506.132 137.628C506.132 137.716 506.098 137.801 506.036 137.864C505.975 137.927 505.891 137.963 505.802 137.965Z" fill="#CACACA"/>
<path d="M426.718 135.565C427.81 135.565 428.696 134.659 428.696 133.542C428.696 132.424 427.81 131.518 426.718 131.518C425.626 131.518 424.74 132.424 424.74 133.542C424.74 134.659 425.626 135.565 426.718 135.565Z" fill="#CCCCCC"/>
<path d="M433.55 135.565C434.643 135.565 435.528 134.659 435.528 133.542C435.528 132.424 434.643 131.518 433.55 131.518C432.458 131.518 431.573 132.424 431.573 133.542C431.573 134.659 432.458 135.565 433.55 135.565Z" fill="#CCCCCC"/>
<path d="M440.383 135.565C441.475 135.565 442.36 134.659 442.36 133.542C442.36 132.424 441.475 131.518 440.383 131.518C439.29 131.518 438.405 132.424 438.405 133.542C438.405 134.659 439.29 135.565 440.383 135.565Z" fill="#CCCCCC"/>
<path d="M501.689 132.02H496.836C496.74 132.022 496.648 132.061 496.581 132.13C496.513 132.199 496.475 132.291 496.475 132.387C496.475 132.484 496.513 132.576 496.581 132.645C496.648 132.714 496.74 132.753 496.836 132.755H501.689C501.785 132.753 501.877 132.714 501.944 132.645C502.012 132.576 502.049 132.484 502.049 132.387C502.049 132.291 502.012 132.199 501.944 132.13C501.877 132.061 501.785 132.022 501.689 132.02Z" fill="#CCCCCC"/>
<path d="M501.689 133.4H496.836C496.74 133.402 496.648 133.442 496.581 133.511C496.513 133.579 496.476 133.672 496.476 133.768C496.476 133.864 496.513 133.957 496.581 134.026C496.648 134.094 496.74 134.134 496.836 134.136H501.689C501.785 134.134 501.877 134.094 501.944 134.026C502.011 133.957 502.049 133.864 502.049 133.768C502.049 133.672 502.011 133.579 501.944 133.511C501.877 133.442 501.785 133.402 501.689 133.4Z" fill="#CCCCCC"/>
<path d="M501.689 134.779H496.836C496.74 134.781 496.648 134.821 496.581 134.889C496.513 134.958 496.475 135.051 496.475 135.147C496.475 135.243 496.513 135.336 496.581 135.404C496.648 135.473 496.74 135.513 496.836 135.515H501.689C501.785 135.513 501.877 135.473 501.944 135.404C502.012 135.336 502.049 135.243 502.049 135.147C502.049 135.051 502.012 134.958 501.944 134.889C501.877 134.821 501.785 134.781 501.689 134.779Z" fill="#CCCCCC"/>
<path d="M313.334 257.863L308.446 255.522L315.161 235.072L322.375 238.525L313.334 257.863Z" fill="#FFB6B6"/>
<path d="M346.106 254.566C345.751 254.788 345.395 255.008 345.036 255.227C344.322 255.665 343.6 256.097 342.878 256.521C342.516 256.733 342.149 256.945 341.787 257.153V257.164L341.765 257.167L341.758 257.171L341.205 257.308L340.412 255.209L340.045 254.242L339.528 252.873L338.58 250.368L333.589 237.179L341.349 235.263L341.64 236.453H341.643L341.787 237.042L344.498 248.046L345.051 250.296L345.069 250.364L345.403 251.708L345.69 252.873L346.009 254.174L346.106 254.566Z" fill="#FFB6B6"/>
<path d="M392.394 208.247C391.902 209.038 391.4 209.825 390.893 210.605C389.953 212.057 388.987 213.487 387.996 214.896C387.996 214.9 387.992 214.9 387.988 214.903C387.41 215.439 386.772 215.906 386.085 216.294C386.057 216.316 386.024 216.33 385.996 216.348C385.49 216.628 384.952 216.844 384.394 216.991C384.193 217.042 383.989 217.092 383.787 217.142C383.062 217.315 382.344 217.462 381.629 217.591C380.358 217.818 379.102 217.98 377.852 218.08C377.752 218.091 377.651 218.098 377.55 218.105C372.412 218.483 367.41 217.875 362.19 216.88C359.612 216.391 356.98 215.805 354.254 215.198C353.364 214.997 352.47 214.799 351.565 214.601C351.497 214.587 351.425 214.569 351.353 214.555C350.06 214.271 348.746 213.99 347.4 213.714C345.705 213.365 343.956 213.027 342.139 212.707L342.269 215.27C342.376 217.241 342.786 219.184 343.482 221.031C344.258 223.302 344.872 225.099 343.576 228.84L342.951 230.651C343.275 231.551 343.386 232.513 343.276 233.463C343.165 234.413 342.837 235.324 342.315 236.125L342.19 236.315L347.4 249.508L347.737 250.364H345.069L341.788 250.367H336.226L328.201 234.252L327.816 233.483V233.444L328.646 202.476C328.657 202.203 328.678 201.926 328.714 201.653C328.86 200.411 329.252 199.211 329.867 198.123C330.482 197.034 331.307 196.079 332.294 195.313C333.24 194.573 334.324 194.029 335.482 193.712C336.64 193.394 337.85 193.311 339.041 193.466L341.788 193.822L347.4 194.548L351.353 195.062L351.432 195.072L363.091 196.582L363.928 193.168L364.082 193.11L368.99 191.31L385.967 185.082L386.01 185.067L387.127 184.657L387.259 184.873C387.299 184.938 387.339 185.002 387.374 185.067C388.478 187.048 389.377 189.136 390.057 191.299C391.2 194.833 392.141 198.429 392.875 202.07C392.908 202.228 392.936 202.372 392.961 202.501L392.972 202.54C392.983 202.602 392.99 202.641 392.994 202.652C393.33 204.536 393.122 206.477 392.394 208.247Z" fill="#5B62A1"/>
<path d="M393.111 196.835C393.057 196.605 392.989 196.371 392.917 196.145C392.347 194.43 391.683 192.748 390.928 191.106C390.08 189.237 389.064 187.236 387.854 185.069C387.269 184.019 386.639 182.928 385.965 181.795C385.628 181.227 385.277 180.648 384.913 180.059C384.899 180.032 384.883 180.005 384.867 179.98L384.762 179.807L367.965 182.057L361.71 182.894L361.337 186.014L361.247 186.786C361.244 186.786 361.244 186.787 361.247 186.79L360.996 188.896V188.9L360.662 191.681L360.633 191.678L351.351 190.474L341.786 189.234L336.648 188.569C335.457 188.414 334.247 188.497 333.089 188.814C331.931 189.131 330.847 189.676 329.901 190.416C328.914 191.182 328.089 192.137 327.474 193.226C326.86 194.314 326.468 195.514 326.321 196.756C326.289 197.007 326.267 197.266 326.257 197.521L321.409 209.018C318.509 215.894 316.661 223.168 315.93 230.595L312.375 241.97L312.881 242.017L320.414 242.717L322.404 242.904L326.784 236.504C327.283 235.774 327.757 235.023 328.199 234.254C328.926 232.998 329.573 231.697 330.134 230.358L339.61 207.789C340.343 207.915 341.068 208.035 341.786 208.148C345.107 208.687 348.296 209.127 351.351 209.467C361.287 210.578 369.89 210.664 377.549 209.722C379.7 209.46 381.779 209.115 383.786 208.687C384.522 208.533 385.248 208.366 385.965 208.188C386.134 208.148 386.299 208.109 386.464 208.066C387.948 207.683 389.313 206.933 390.432 205.886C391.552 204.839 392.391 203.527 392.874 202.071C393.449 200.384 393.532 198.567 393.111 196.835Z" fill="#797EB5"/>
<path d="M314.896 254.523L309.607 251.986L308.777 251.587L307.452 254.843L298.203 256.881C297.745 256.981 297.332 257.225 297.023 257.577C296.714 257.929 296.526 258.371 296.486 258.838C296.446 259.305 296.556 259.773 296.8 260.172C297.045 260.572 297.41 260.883 297.844 261.06L306.881 264.751L309.75 262.167L309.047 265.635L312.451 267.026L316.181 255.141L314.896 254.523Z" fill="#2F2E41"/>
<path d="M347.4 249.509L347.738 250.364H347.4V249.509Z" fill="#2F2E41"/>
<path d="M345.558 250.546L340.016 252.468L339.146 252.769L340.494 256.016L335.354 263.978C335.099 264.371 334.977 264.835 335.005 265.303C335.033 265.771 335.21 266.218 335.51 266.578C335.81 266.938 336.216 267.192 336.671 267.304C337.126 267.416 337.604 267.38 338.037 267.2L347.053 263.458L347.275 259.602L349.213 262.562L352.61 261.153L346.906 250.08L345.558 250.546Z" fill="#2F2E41"/>
<path d="M311.921 131.636C312.184 132.149 312.556 132.597 313.01 132.95C313.465 133.303 313.992 133.552 314.553 133.679C315.114 133.807 315.696 133.809 316.259 133.687C316.821 133.565 317.35 133.321 317.807 132.972L329.461 140.715L329.483 133.44L318.413 127.202C317.777 126.471 316.894 125.999 315.933 125.876C314.972 125.753 314 125.986 313.199 126.533C312.399 127.08 311.827 127.901 311.591 128.841C311.356 129.782 311.473 130.776 311.921 131.636Z" fill="#FFB6B6"/>
<path d="M320.627 134.999L326.064 128.808L348.203 141.962L377.55 139.272C379 139.139 380.462 139.328 381.832 139.824C383.202 140.32 384.445 141.112 385.475 142.143C386.504 143.175 387.294 144.421 387.789 145.792C388.283 147.163 388.47 148.627 388.336 150.079C388.091 152.701 386.816 155.118 384.792 156.8C382.768 158.483 380.16 159.293 377.54 159.053L344.488 155.991L320.627 134.999Z" fill="#4F2C74"/>
<path d="M388.741 135.094L388.69 135.03C384.561 134.623 380.403 135.422 376.72 137.332C373.037 139.243 369.986 142.181 367.938 145.792L365.447 150.183C357.391 160.041 363.245 166.839 363.596 167.85L360.799 180.754L361.426 185.073L361.739 186.356L393.659 203.049C395.476 194.31 393.719 186.863 387.098 181.174L393.504 161.225C394.924 156.814 395.232 152.12 394.401 147.561C393.57 143.002 391.626 138.719 388.741 135.094Z" fill="#4F2C74"/>
<path d="M363.361 232.011H353.122C352.559 232.01 352.015 231.806 351.59 231.437C351.165 231.067 350.887 230.556 350.808 229.998C350.176 225.342 350.176 220.621 350.808 215.965C350.886 215.414 351.158 214.908 351.575 214.54C351.992 214.171 352.527 213.963 353.083 213.953C356.304 212.508 359.774 212.508 363.396 213.953C363.733 213.957 364.066 214.036 364.37 214.182C364.674 214.329 364.942 214.541 365.155 214.802C365.378 215.074 365.537 215.392 365.622 215.734C365.706 216.075 365.714 216.431 365.643 216.775C364.821 220.872 364.821 225.091 365.643 229.188C365.714 229.532 365.706 229.888 365.622 230.23C365.537 230.571 365.378 230.889 365.155 231.161C364.938 231.427 364.664 231.642 364.354 231.788C364.043 231.935 363.704 232.011 363.361 232.011Z" fill="#AD85BD"/>
<path d="M362.289 219.303H353.671C353.6 219.304 353.529 219.29 353.463 219.263C353.398 219.237 353.338 219.197 353.287 219.147C353.237 219.097 353.196 219.037 353.169 218.971C353.142 218.906 353.128 218.835 353.128 218.764C353.128 218.693 353.142 218.622 353.169 218.557C353.196 218.491 353.237 218.431 353.287 218.381C353.338 218.331 353.398 218.291 353.463 218.265C353.529 218.238 353.6 218.224 353.671 218.225H362.289C362.36 218.224 362.43 218.238 362.496 218.265C362.562 218.291 362.622 218.331 362.672 218.381C362.723 218.431 362.763 218.491 362.791 218.557C362.818 218.622 362.832 218.693 362.832 218.764C362.832 218.835 362.818 218.906 362.791 218.971C362.763 219.037 362.723 219.097 362.672 219.147C362.622 219.197 362.562 219.237 362.496 219.263C362.43 219.29 362.36 219.304 362.289 219.303Z" fill="white"/>
<path d="M362.289 223.616H353.671C353.6 223.616 353.529 223.603 353.463 223.576C353.398 223.549 353.338 223.51 353.287 223.459C353.237 223.409 353.196 223.35 353.169 223.284C353.142 223.218 353.128 223.148 353.128 223.077C353.128 223.005 353.142 222.935 353.169 222.869C353.196 222.803 353.237 222.744 353.287 222.694C353.338 222.644 353.398 222.604 353.463 222.577C353.529 222.55 353.6 222.537 353.671 222.537H362.289C362.36 222.537 362.43 222.55 362.496 222.577C362.562 222.604 362.622 222.644 362.672 222.694C362.723 222.744 362.763 222.803 362.791 222.869C362.818 222.935 362.832 223.005 362.832 223.077C362.832 223.148 362.818 223.218 362.791 223.284C362.763 223.35 362.723 223.409 362.672 223.459C362.622 223.51 362.562 223.549 362.496 223.576C362.43 223.603 362.36 223.616 362.289 223.616Z" fill="white"/>
<path d="M362.289 227.928H353.671C353.6 227.929 353.529 227.916 353.463 227.889C353.397 227.862 353.337 227.822 353.287 227.772C353.236 227.722 353.196 227.662 353.169 227.597C353.141 227.531 353.127 227.46 353.127 227.389C353.127 227.318 353.141 227.247 353.169 227.182C353.196 227.116 353.236 227.056 353.287 227.006C353.337 226.956 353.397 226.916 353.463 226.89C353.529 226.863 353.6 226.849 353.671 226.85H362.289C362.36 226.849 362.43 226.863 362.496 226.89C362.562 226.916 362.622 226.956 362.673 227.006C362.723 227.056 362.763 227.116 362.791 227.182C362.818 227.247 362.832 227.318 362.832 227.389C362.832 227.46 362.818 227.531 362.791 227.597C362.763 227.662 362.723 227.722 362.673 227.772C362.622 227.822 362.562 227.862 362.496 227.889C362.43 227.916 362.36 227.929 362.289 227.928Z" fill="white"/>
<path d="M313.798 135.188H303.56C302.997 135.188 302.452 134.984 302.027 134.614C301.602 134.244 301.325 133.734 301.246 133.176C300.613 128.519 300.613 123.799 301.246 119.143C301.324 118.591 301.596 118.086 302.013 117.717C302.43 117.348 302.964 117.14 303.52 117.131C306.742 115.685 310.211 115.685 313.834 117.13C314.171 117.135 314.503 117.213 314.807 117.36C315.111 117.507 315.379 117.718 315.593 117.98C315.815 118.251 315.975 118.57 316.059 118.911C316.144 119.252 316.151 119.608 316.081 119.953C315.258 124.049 315.258 128.269 316.081 132.365C316.151 132.71 316.144 133.066 316.059 133.407C315.975 133.748 315.815 134.067 315.593 134.339C315.375 134.605 315.102 134.819 314.791 134.966C314.481 135.113 314.142 135.189 313.798 135.188Z" fill="#F9CA53"/>
<path d="M312.726 122.481H304.109C304.037 122.481 303.967 122.468 303.901 122.441C303.835 122.414 303.775 122.375 303.725 122.324C303.674 122.274 303.634 122.215 303.607 122.149C303.579 122.083 303.565 122.013 303.565 121.942C303.565 121.87 303.579 121.8 303.607 121.734C303.634 121.668 303.674 121.609 303.725 121.559C303.775 121.509 303.835 121.469 303.901 121.442C303.967 121.415 304.037 121.402 304.109 121.402H312.726C312.797 121.402 312.868 121.415 312.934 121.442C313 121.469 313.059 121.509 313.11 121.559C313.161 121.609 313.201 121.668 313.228 121.734C313.255 121.8 313.269 121.87 313.269 121.942C313.269 122.013 313.255 122.083 313.228 122.149C313.201 122.215 313.161 122.274 313.11 122.324C313.059 122.375 313 122.414 312.934 122.441C312.868 122.468 312.797 122.481 312.726 122.481Z" fill="white"/>
<path d="M312.726 126.793H304.109C304.037 126.794 303.967 126.78 303.901 126.753C303.835 126.727 303.775 126.687 303.725 126.637C303.674 126.587 303.634 126.527 303.607 126.461C303.579 126.396 303.565 126.325 303.565 126.254C303.565 126.183 303.579 126.112 303.607 126.047C303.634 125.981 303.674 125.921 303.725 125.871C303.775 125.821 303.835 125.781 303.901 125.755C303.967 125.728 304.037 125.714 304.109 125.715H312.726C312.797 125.714 312.868 125.728 312.934 125.755C313 125.781 313.059 125.821 313.11 125.871C313.161 125.921 313.201 125.981 313.228 126.047C313.255 126.112 313.269 126.183 313.269 126.254C313.269 126.325 313.255 126.396 313.228 126.461C313.201 126.527 313.161 126.587 313.11 126.637C313.059 126.687 313 126.727 312.934 126.753C312.868 126.78 312.797 126.794 312.726 126.793Z" fill="white"/>
<path d="M312.726 131.106H304.108C304.037 131.106 303.967 131.093 303.901 131.066C303.835 131.039 303.775 131 303.724 130.95C303.674 130.9 303.634 130.84 303.606 130.774C303.579 130.708 303.565 130.638 303.565 130.567C303.565 130.495 303.579 130.425 303.606 130.359C303.634 130.293 303.674 130.234 303.724 130.184C303.775 130.134 303.835 130.094 303.901 130.067C303.967 130.04 304.037 130.027 304.108 130.028H312.726C312.797 130.027 312.868 130.04 312.934 130.067C313 130.094 313.06 130.134 313.11 130.184C313.161 130.234 313.201 130.293 313.228 130.359C313.256 130.425 313.27 130.495 313.27 130.567C313.27 130.638 313.256 130.708 313.228 130.774C313.201 130.84 313.161 130.9 313.11 130.95C313.06 131 313 131.039 312.934 131.066C312.868 131.093 312.797 131.106 312.726 131.106Z" fill="white"/>
<path d="M134.06 161.485H123.821C123.258 161.485 122.714 161.281 122.289 160.912C121.864 160.542 121.586 160.031 121.507 159.473C120.875 154.817 120.875 150.096 121.507 145.44C121.585 144.889 121.857 144.383 122.274 144.015C122.691 143.646 123.226 143.438 123.782 143.428C127.003 141.983 130.472 141.983 134.095 143.428C134.432 143.432 134.765 143.511 135.069 143.657C135.372 143.804 135.641 144.016 135.854 144.277C136.077 144.549 136.236 144.867 136.321 145.209C136.405 145.55 136.412 145.906 136.342 146.25C135.52 150.347 135.52 154.566 136.342 158.663C136.412 159.007 136.405 159.363 136.321 159.705C136.236 160.046 136.077 160.364 135.854 160.636C135.637 160.902 135.363 161.116 135.053 161.263C134.742 161.41 134.403 161.486 134.06 161.485Z" fill="#F9CA53"/>
<path d="M132.987 148.778H124.37C124.299 148.779 124.228 148.765 124.162 148.738C124.096 148.712 124.036 148.672 123.986 148.622C123.935 148.572 123.895 148.512 123.868 148.446C123.841 148.381 123.826 148.31 123.826 148.239C123.826 148.168 123.841 148.097 123.868 148.032C123.895 147.966 123.935 147.906 123.986 147.856C124.036 147.806 124.096 147.766 124.162 147.74C124.228 147.713 124.299 147.699 124.37 147.7H132.987C133.058 147.699 133.129 147.713 133.195 147.74C133.261 147.766 133.321 147.806 133.371 147.856C133.422 147.906 133.462 147.966 133.489 148.032C133.517 148.097 133.531 148.168 133.531 148.239C133.531 148.31 133.517 148.381 133.489 148.446C133.462 148.512 133.422 148.572 133.371 148.622C133.321 148.672 133.261 148.712 133.195 148.738C133.129 148.765 133.058 148.779 132.987 148.778Z" fill="white"/>
<path d="M132.987 153.091H124.37C124.299 153.091 124.228 153.078 124.162 153.051C124.096 153.024 124.036 152.985 123.986 152.934C123.935 152.884 123.895 152.825 123.868 152.759C123.841 152.693 123.826 152.623 123.826 152.552C123.826 152.48 123.841 152.41 123.868 152.344C123.895 152.278 123.935 152.219 123.986 152.169C124.036 152.119 124.096 152.079 124.162 152.052C124.228 152.025 124.299 152.012 124.37 152.012H132.987C133.058 152.012 133.129 152.025 133.195 152.052C133.261 152.079 133.321 152.119 133.371 152.169C133.422 152.219 133.462 152.278 133.489 152.344C133.517 152.41 133.531 152.48 133.531 152.552C133.531 152.623 133.517 152.693 133.489 152.759C133.462 152.825 133.422 152.884 133.371 152.934C133.321 152.985 133.261 153.024 133.195 153.051C133.129 153.078 133.058 153.091 132.987 153.091Z" fill="white"/>
<path d="M132.987 157.403H124.37C124.299 157.404 124.228 157.39 124.162 157.364C124.096 157.337 124.036 157.297 123.986 157.247C123.935 157.197 123.895 157.137 123.868 157.072C123.84 157.006 123.826 156.935 123.826 156.864C123.826 156.793 123.84 156.722 123.868 156.657C123.895 156.591 123.935 156.531 123.986 156.481C124.036 156.431 124.096 156.391 124.162 156.365C124.228 156.338 124.299 156.324 124.37 156.325H132.987C133.059 156.324 133.129 156.338 133.195 156.365C133.261 156.391 133.321 156.431 133.372 156.481C133.422 156.531 133.462 156.591 133.49 156.657C133.517 156.722 133.531 156.793 133.531 156.864C133.531 156.935 133.517 157.006 133.49 157.072C133.462 157.137 133.422 157.197 133.372 157.247C133.321 157.297 133.261 157.337 133.195 157.364C133.129 157.39 133.059 157.404 132.987 157.403Z" fill="white"/>
<path d="M366.361 218.911C366.856 218.618 367.281 218.22 367.607 217.745C367.932 217.269 368.149 216.729 368.242 216.16C368.336 215.592 368.304 215.01 368.149 214.456C367.994 213.901 367.719 213.387 367.344 212.95L374.375 200.848L367.118 201.257L361.553 212.687C360.862 213.367 360.444 214.276 360.378 215.244C360.312 216.211 360.603 217.169 361.195 217.936C361.788 218.703 362.641 219.226 363.593 219.406C364.545 219.586 365.53 219.409 366.361 218.911Z" fill="#FFB6B6"/>
<path d="M369.198 210.013L362.701 204.948L374.507 182.048L370.083 152.887C369.864 151.445 369.965 149.973 370.379 148.575C370.793 147.177 371.509 145.888 372.476 144.798C373.444 143.708 374.64 142.845 375.978 142.269C377.316 141.694 378.765 141.421 380.221 141.469C382.85 141.558 385.337 142.688 387.135 144.611C388.933 146.533 389.896 149.091 389.812 151.723L388.719 184.927L369.198 210.013Z" fill="#4F2C74"/>
<path d="M55.1669 203.756C55.5761 203.345 55.8902 202.848 56.087 202.302C56.2837 201.756 56.3584 201.173 56.3058 200.594C56.2532 200.016 56.0745 199.456 55.7824 198.955C55.4903 198.453 55.0918 198.021 54.615 197.69L60.9339 166.277L53.9558 168.519L48.8978 198.904C48.3955 199.743 48.218 200.736 48.3988 201.697C48.5797 202.658 49.1064 203.519 49.8791 204.117C50.6518 204.715 51.6169 205.009 52.5915 204.942C53.566 204.876 54.4824 204.454 55.1669 203.756Z" fill="#9E616A"/>
<path d="M64.4971 137.293L60.1675 134.022C60.1675 134.022 56.3481 133.751 55.6717 140.645C54.9953 147.539 53.6063 160.974 53.6063 160.974L46.9812 191.686L56.1521 193.701L63.2481 160.557L67.505 150.715L64.4971 137.293Z" fill="#CCCCCC"/>
<path d="M57.3594 187.443L81.7567 187.036L83.7899 170.35H57.3594V187.443Z" fill="#9E616A"/>
<path d="M79.3167 290.125H84.9489L87.6283 268.381L79.3156 268.382L79.3167 290.125Z" fill="#9E616A"/>
<path d="M44.0317 290.647L49.6639 290.607L52.191 268.846L44.8659 270.527L44.0317 290.647Z" fill="#9E616A"/>
<path d="M61.6474 155.98L60.3713 159.301L60.6263 162.622L85.6028 171.28L84.3638 156.746L81.556 153.425L61.6474 155.98Z" fill="#FFB6B6"/>
<path d="M72.3625 126.094C77.2892 126.094 81.2831 122.096 81.2831 117.165C81.2831 112.234 77.2892 108.237 72.3625 108.237C67.4358 108.237 63.4419 112.234 63.4419 117.165C63.4419 122.096 67.4358 126.094 72.3625 126.094Z" fill="#9E616A"/>
<path d="M77.9198 287.344L86.8232 286.812V290.63L95.2879 296.482C95.706 296.771 96.0209 297.186 96.1866 297.666C96.3523 298.147 96.3601 298.668 96.2089 299.154C96.0577 299.639 95.7554 300.064 95.3461 300.365C94.9368 300.667 94.4421 300.829 93.934 300.829H83.3341L81.5071 297.052L80.7937 300.829H76.7971L77.9198 287.344Z" fill="#2F2E41"/>
<path d="M42.1051 287.88L51.0046 287.285L51.0313 291.103L59.5367 296.895C59.9568 297.181 60.2746 297.594 60.4437 298.074C60.6127 298.553 60.6242 299.074 60.4764 299.561C60.3286 300.047 60.0292 300.474 59.6221 300.778C59.2149 301.082 58.7213 301.248 58.2132 301.252L47.6136 301.326L45.7602 297.562L45.0733 301.344L41.0768 301.372L42.1051 287.88Z" fill="#2F2E41"/>
<path d="M42.2792 273.976L46.3804 241.165L51.2598 206.571C47.6865 199.929 55.7327 179.303 55.7327 179.303L56.8684 179.358L82.5752 184.212L82.5697 184.187C87.8276 198.541 89.5696 205.632 89.2814 220.917L88.2456 275.864H88.5706C89.1098 275.864 89.6269 276.078 90.0082 276.46C90.3894 276.841 90.6037 277.359 90.6037 277.899C90.6037 278.438 90.3894 278.956 90.0082 279.337C89.6269 279.719 89.1098 279.934 88.5706 279.934H78.405C78.1377 279.934 77.873 279.882 77.6259 279.78C77.3788 279.678 77.1543 279.528 76.9651 279.339C76.776 279.15 76.6259 278.925 76.5235 278.678C76.4211 278.431 76.3684 278.166 76.3684 277.899C76.3684 277.631 76.4211 277.366 76.5235 277.119C76.6259 276.872 76.776 276.647 76.9651 276.458C77.1543 276.269 77.3788 276.12 77.6259 276.018C77.873 275.915 78.1377 275.863 78.405 275.864H78.6671L69.3364 210.438L61.4254 237.909L52.4797 273.724C55.7327 272.91 55.2276 274.796 55.2276 275.864C55.2276 276.403 55.0134 276.921 54.6321 277.303C54.2508 277.684 53.7337 277.899 53.1945 277.899H43.029C42.5562 277.899 42.098 277.734 41.7335 277.433C41.3689 277.132 41.1209 276.713 41.032 276.248C40.9432 275.783 41.0192 275.302 41.2468 274.887C41.4745 274.472 41.8396 274.15 42.2792 273.976Z" fill="#A9BD7F"/>
<path d="M53.7311 180.372L54.5444 172.232C54.6289 171.9 54.8162 171.603 55.0795 171.384C55.3428 171.166 55.6687 171.036 56.0103 171.013C56.3492 167.136 57.7748 150.408 57.86 149.679L57.8633 149.648L58.5116 135.787C58.5351 135.284 58.7431 134.807 59.0958 134.447C59.4485 134.087 59.9213 133.87 60.4237 133.837L63.8478 133.613C63.8947 133.612 63.9393 133.592 63.9719 133.558C64.0046 133.524 64.0229 133.479 64.0229 133.432C64.0229 133.054 64.0974 132.679 64.2421 132.329C64.3868 131.98 64.5989 131.662 64.8662 131.394C65.1336 131.127 65.451 130.914 65.8004 130.77C66.1497 130.625 66.5242 130.55 66.9023 130.55H77.0399C77.6965 130.55 78.3304 130.791 78.8227 131.225C79.315 131.66 79.6318 132.26 79.7136 132.912C79.7181 132.957 79.7394 132.999 79.7732 133.029C79.8069 133.058 79.8507 133.074 79.8958 133.073H79.897C81.0489 133.05 82.1712 133.44 83.0601 134.174C83.9491 134.907 84.5458 135.935 84.7421 137.072C86.128 145.143 88.9055 163.461 87.5323 173.644C87.0542 177.189 88.0848 174.381 88.2656 177.348C88.2835 177.634 88.2448 177.922 88.1516 178.193C88.0584 178.465 87.9126 178.716 87.7225 178.931C88.1117 179.072 88.4294 179.362 88.6066 179.736C88.7838 180.111 88.8063 180.54 88.6691 180.931L88.8473 180.887C88.7951 181.095 88.7026 181.29 88.5751 181.461C88.4476 181.633 88.2876 181.777 88.1042 181.887C87.9209 181.997 87.7177 182.069 87.5064 182.1C87.2951 182.131 87.0797 182.12 86.8726 182.068L60.3502 185.665C59.4792 185.445 53.5116 181.244 53.7311 180.372Z" fill="#A3A3A3"/>
<path d="M124.602 147.278C124.436 147.834 124.15 148.347 123.764 148.781C123.379 149.215 122.903 149.559 122.37 149.788C121.837 150.018 121.26 150.128 120.68 150.111C120.1 150.093 119.531 149.949 119.013 149.687L108.76 159.053L107.398 151.845L117.35 144.079C117.847 143.237 118.635 142.607 119.564 142.308C120.494 142.008 121.502 142.06 122.396 142.455C123.289 142.849 124.008 143.558 124.415 144.447C124.821 145.335 124.888 146.343 124.602 147.278Z" fill="#9E616A"/>
<path d="M88.9147 140.119C88.9147 140.119 85.3394 132.032 80.8238 133.639C76.3082 135.247 78.6397 143.093 78.6397 143.093L95.605 168.68C95.605 168.68 120.075 152.969 117.1 152.858C114.124 152.747 113.234 147.33 113.234 147.33L100.301 153.798L99.8635 151.496L99.1621 152.198L97.3522 150.772L88.9147 140.119Z" fill="#CCCCCC"/>
<path d="M381.382 131.235C388.261 131.235 393.837 125.654 393.837 118.77C393.837 111.885 388.261 106.304 381.382 106.304C374.504 106.304 368.928 111.885 368.928 118.77C368.928 125.654 374.504 131.235 381.382 131.235Z" fill="#FFB6B6"/>
<path d="M421.352 137.112C419.915 139.151 417.818 140.629 415.415 141.296C414.454 141.583 413.462 141.751 412.46 141.799C412.336 140.665 412.04 139.556 411.581 138.512C411.628 139.624 411.473 140.734 411.125 141.791C409.621 141.706 408.15 141.311 406.804 140.632C405.483 139.967 404.334 139.002 403.45 137.815C402.565 136.628 401.97 135.25 401.71 133.793C401.182 130.383 402.727 127.035 403.285 123.631C403.846 120.226 402.793 115.914 399.464 115.02C396.928 114.338 397.212 114.633 395.104 116.199C397.297 119.444 389.198 131.335 385.884 130.298C384.01 129.712 382.81 127.991 382.423 127.991C379.819 132.483 384.723 140.05 379.78 141.622L380.187 141.214C383.171 137.541 376.935 129.765 379.918 126.092C380.751 125.064 381.637 123.846 381.391 122.546C381.158 121.311 379.199 120.657 378.625 121.672C379.657 119.306 378.133 116.148 375.61 115.54C373.369 114.999 373.41 115.666 371.161 115.955C371.014 114.983 370.74 114.033 370.344 113.133C370.386 114.103 370.272 115.074 370.009 116.009C369.214 115.994 368.447 115.716 367.827 115.22C365.993 113.74 366.364 110.633 368.001 108.939C369.64 107.244 372.076 106.634 374.399 106.239C375.074 101.532 388.049 101.041 389.769 105.745C390.502 102.232 394.894 100.41 398.309 101.499C401.723 102.589 404.092 105.78 405.339 109.144C406.587 112.505 406.935 116.122 407.703 119.624C408.472 123.126 409.77 126.692 412.444 129.078C415.118 131.462 419.475 132.252 422.293 130.037C422.702 131.207 422.83 132.458 422.667 133.687C422.504 134.916 422.053 136.09 421.352 137.112Z" fill="#2F2E41"/>
<path d="M538.198 165.559L536.454 174.315C536.323 174.984 536.186 175.666 536.036 176.341C534.579 176.039 533.068 176.123 531.653 176.586C532.776 178.191 533.781 179.875 534.663 181.624C533.564 185.013 531.952 188.145 529.253 190.41C527.45 191.889 525.297 192.879 523.001 193.283C520.706 193.687 518.344 193.492 516.146 192.717L516.223 192.37C513.321 186.734 514.898 179.628 518.504 174.422C520.344 171.854 522.524 169.548 524.983 167.567C527.42 165.535 530.053 163.712 532.663 161.913C533.249 161.51 533.942 161.29 534.653 161.283C535.364 161.276 536.061 161.481 536.656 161.872C537.25 162.264 537.714 162.824 537.989 163.48C538.263 164.137 538.336 164.861 538.198 165.559Z" fill="#E4E4E4"/>
<path d="M516.767 213.785C516.033 208.434 515.278 203.015 515.793 197.606C516.25 192.804 517.714 188.112 520.695 184.266C522.277 182.228 524.202 180.482 526.384 179.106C526.953 178.748 527.476 179.649 526.91 180.007C523.135 182.395 520.215 185.92 518.572 190.076C516.756 194.697 516.465 199.735 516.78 204.643C516.97 207.612 517.37 210.56 517.775 213.507C517.807 213.64 517.788 213.781 517.72 213.9C517.652 214.02 517.541 214.108 517.41 214.149C517.277 214.185 517.135 214.167 517.015 214.098C516.895 214.03 516.806 213.917 516.769 213.784L516.767 213.785Z" fill="#F2F2F2"/>
<path d="M558.289 301.816L0.711022 302C0.522809 301.999 0.342495 301.924 0.209601 301.791C0.076707 301.657 0.0020752 301.477 0.0020752 301.288C0.0020752 301.1 0.076707 300.919 0.209601 300.786C0.342495 300.653 0.522809 300.577 0.711022 300.577L558.289 300.393C558.477 300.394 558.658 300.469 558.79 300.602C558.923 300.736 558.998 300.916 558.998 301.105C558.998 301.293 558.923 301.474 558.79 301.607C558.658 301.741 558.477 301.816 558.289 301.816Z" fill="#CACACA"/>
<path d="M61.8635 111.698C60.4953 112.355 58.9638 111.367 57.7827 110.387L58.2052 110.752C56.1176 112.785 55.1416 115.71 54.6647 118.589C54.1873 121.465 54.134 124.406 53.533 127.262C52.9314 130.115 51.6836 132.981 49.3529 134.728C46.2305 137.068 41.924 136.918 38.0921 136.201C38.0411 136.19 37.9935 136.182 37.9425 136.172C38.9735 133.192 39.3926 130.035 39.1747 126.89C38.1475 130.042 36.399 132.91 34.0683 135.267C31.5278 134.567 29.048 133.663 26.6532 132.562C25.1037 131.849 23.4353 130.872 23.0052 129.22C22.5741 127.58 23.5753 125.859 24.914 124.823C26.2527 123.788 27.8957 123.247 29.4208 122.51C30.9433 121.775 32.45 120.728 33.0597 119.147C34.4658 115.511 30.4602 111.339 32.0213 107.764C32.7911 106.007 34.6766 105.05 36.4488 104.313C39.1543 103.191 41.9325 102.253 44.7644 101.506C47.2504 100.85 49.8461 100.34 52.3786 100.77C54.9111 101.2 57.3922 102.742 58.3037 105.149C59.8245 105.663 61.4391 106.243 62.4151 107.525C63.3907 108.803 63.312 111.003 61.8635 111.698Z" fill="#2F2E41"/>
<path d="M74.0369 107.484C70.123 104.392 66.9584 104.92 64.5172 106.841C64.1068 106.384 62.3602 107.641 61.7689 107.461L59.63 111.48C58.5294 113.424 58.0779 115.408 58.2558 116.525C56.2312 122.207 61.0322 126.045 66.7097 128.071C68.9752 128.885 71.4471 128.921 73.7351 128.173L73.8049 127.204L74.2349 127.998C74.2349 127.998 79.4252 138.695 80.6517 139.175C79.9075 137.243 77.9447 128.059 77.3968 126.145C76.6455 123.54 77.1587 119.402 77.6003 116.865C77.8755 115.301 77.8899 113.702 77.6429 112.134L77.6319 112.065L78.8463 114.519L81.5711 112.804C80.5297 109.768 80.5089 106.136 74.0369 107.484Z" fill="#2F2E41"/>
<path d="M473.442 150.241C472.942 150.241 472.448 150.357 472 150.579C471.552 150.802 471.162 151.126 470.86 151.525C470.536 151.386 470.183 151.329 469.832 151.36C469.481 151.391 469.143 151.508 468.848 151.702C468.554 151.896 468.312 152.16 468.145 152.47C467.977 152.781 467.89 153.128 467.89 153.48H476.681C476.681 153.055 476.597 152.634 476.434 152.241C476.272 151.848 476.033 151.491 475.732 151.19C475.432 150.889 475.074 150.651 474.681 150.488C474.289 150.325 473.867 150.241 473.442 150.241Z" fill="#E6E6E6"/>
<path d="M485.586 148H447.11C446.596 148.001 446.103 148.205 445.739 148.569C445.375 148.933 445.17 149.426 445.169 149.941V178.827C445.17 179.341 445.375 179.835 445.739 180.199C446.103 180.562 446.596 180.767 447.11 180.768H485.586C486.101 180.767 486.594 180.562 486.958 180.199C487.322 179.835 487.527 179.341 487.527 178.827V149.941C487.527 149.426 487.322 148.933 486.958 148.569C486.594 148.205 486.101 148.001 485.586 148ZM487.299 178.827C487.298 179.281 487.118 179.716 486.797 180.037C486.476 180.358 486.04 180.539 485.586 180.539H447.11C446.656 180.539 446.221 180.358 445.9 180.037C445.579 179.716 445.398 179.281 445.398 178.827V149.941C445.398 149.487 445.579 149.052 445.9 148.731C446.221 148.41 446.656 148.229 447.11 148.228H485.586C486.04 148.229 486.476 148.41 486.797 148.731C487.118 149.052 487.298 149.487 487.299 149.941V178.827Z" fill="#3F3D56"/>
<path d="M451.62 168.78C456.381 168.78 460.24 164.92 460.24 160.16C460.24 155.399 456.381 151.54 451.62 151.54C446.859 151.54 443 155.399 443 160.16C443 164.92 446.859 168.78 451.62 168.78Z" fill="#F1BA4C"/>
<path d="M487.527 172.441V174.831H445.169V172.43L445.398 172.101L458.827 152.763C458.888 152.676 458.969 152.604 459.064 152.554C459.158 152.505 459.263 152.479 459.37 152.479C459.477 152.479 459.582 152.505 459.677 152.554C459.771 152.604 459.853 152.676 459.914 152.763L468.92 165.73L475.33 156.58C475.391 156.493 475.472 156.422 475.567 156.372C475.661 156.323 475.766 156.298 475.873 156.298C475.979 156.298 476.084 156.323 476.178 156.372C476.273 156.422 476.354 156.493 476.415 156.58L487.299 172.115L487.527 172.441Z" fill="#3F3D56"/>
<path d="M454.474 177.571H447.738C447.708 177.571 447.679 177.559 447.658 177.537C447.636 177.516 447.624 177.487 447.624 177.457C447.624 177.426 447.636 177.397 447.658 177.376C447.679 177.355 447.708 177.343 447.738 177.343H454.474C454.505 177.343 454.534 177.355 454.555 177.376C454.576 177.397 454.588 177.426 454.588 177.457C454.588 177.487 454.576 177.516 454.555 177.537C454.534 177.559 454.505 177.571 454.474 177.571Z" fill="#3F3D56"/>
<path d="M464.636 177.571H457.899C457.884 177.571 457.87 177.568 457.856 177.562C457.842 177.557 457.829 177.548 457.818 177.538C457.808 177.527 457.799 177.514 457.794 177.5C457.788 177.487 457.785 177.472 457.785 177.457C457.785 177.442 457.788 177.427 457.794 177.413C457.799 177.399 457.808 177.386 457.818 177.376C457.829 177.365 457.842 177.357 457.856 177.351C457.87 177.345 457.884 177.342 457.899 177.343H464.636C464.666 177.343 464.695 177.355 464.716 177.376C464.738 177.397 464.75 177.426 464.75 177.457C464.75 177.487 464.738 177.516 464.716 177.537C464.695 177.559 464.666 177.571 464.636 177.571Z" fill="#3F3D56"/>
<path d="M474.797 177.571H468.061C468.03 177.571 468.001 177.559 467.98 177.537C467.959 177.516 467.947 177.487 467.947 177.457C467.947 177.426 467.959 177.397 467.98 177.376C468.001 177.355 468.03 177.343 468.061 177.343H474.797C474.827 177.343 474.856 177.355 474.877 177.376C474.899 177.397 474.911 177.426 474.911 177.457C474.911 177.487 474.899 177.516 474.877 177.537C474.856 177.559 474.827 177.571 474.797 177.571Z" fill="#3F3D56"/>
<path d="M484.958 177.571H478.222C478.192 177.571 478.163 177.559 478.142 177.537C478.12 177.516 478.108 177.487 478.108 177.457C478.108 177.426 478.12 177.397 478.142 177.376C478.163 177.355 478.192 177.343 478.222 177.343H484.958C484.989 177.343 485.018 177.355 485.039 177.376C485.061 177.397 485.073 177.426 485.073 177.457C485.073 177.487 485.061 177.516 485.039 177.537C485.018 177.559 484.989 177.571 484.958 177.571Z" fill="#3F3D56"/>
<path d="M466.519 155.65C465.902 155.649 465.293 155.792 464.74 156.067C464.187 156.342 463.706 156.741 463.334 157.234C462.934 157.062 462.498 156.992 462.065 157.03C461.632 157.068 461.215 157.213 460.852 157.452C460.488 157.691 460.19 158.017 459.984 158.4C459.777 158.783 459.669 159.211 459.669 159.646H470.515C470.515 159.121 470.412 158.601 470.211 158.117C470.01 157.632 469.716 157.191 469.345 156.82C468.974 156.449 468.533 156.155 468.048 155.954C467.564 155.753 467.044 155.65 466.519 155.65Z" fill="#CCCCCC"/>
</g>
<defs>
<clipPath id="clip0_1167_4478">
<rect width="559" height="302" fill="white"/>
</clipPath>
</defs>
</svg>
