<svg width="20" height="26" viewBox="0 0 20 26" fill="none" xmlns="http://www.w3.org/2000/svg">
<path d="M19.7341 7.2925L13.3705 0.2925C13.286 0.199666 13.1857 0.126052 13.0753 0.0758639C12.965 0.0256758 12.8467 -0.000102986 12.7273 3.09198e-07H1.81818C1.33597 3.09198e-07 0.873508 0.210714 0.532533 0.585787C0.191558 0.960859 0 1.46957 0 2V24C0 24.5304 0.191558 25.0391 0.532533 25.4142C0.873508 25.7893 1.33597 26 1.81818 26H18.1818C18.664 26 19.1265 25.7893 19.4675 25.4142C19.8084 25.0391 20 24.5304 20 24V8C20.0001 7.86864 19.9767 7.73855 19.931 7.61715C19.8854 7.49576 19.8185 7.38544 19.7341 7.2925ZM13.6364 3.41375L16.8966 7H13.6364V3.41375ZM18.1818 24H1.81818V2H11.8182V8C11.8182 8.26522 11.914 8.51957 12.0844 8.70711C12.2549 8.89464 12.4862 9 12.7273 9H18.1818V24Z" fill="#FF8E3C"/>
</svg>
