<svg width="56" height="56" viewBox="0 0 56 56" fill="none" xmlns="http://www.w3.org/2000/svg">
<path d="M42.1748 3.625L51.9118 13.775V52.373H15.5381V52.499H52.0361V13.9028L42.1748 3.625Z" fill="#909090"/>
<path d="M42.0543 3.5H15.4141V52.374H51.9121V13.7778L42.0543 3.5Z" fill="#F4F4F4"/>
<path d="M15.1464 6.125H3.96387V18.0722H39.1389V6.125H15.1464Z" fill="#7A7B7C"/>
<path d="M39.3262 17.8701H4.19141V5.91406H39.3262V17.8701Z" fill="#DD2025"/>
<path d="M15.841 7.93275H13.5537V16.3327H15.3527V13.4995L15.75 13.5222C16.136 13.5156 16.5183 13.4465 16.8822 13.3175C17.2012 13.2078 17.4947 13.0345 17.745 12.8082C17.9996 12.5927 18.2003 12.3206 18.3312 12.0137C18.5067 11.5036 18.5694 10.9615 18.515 10.4247C18.504 10.0413 18.4368 9.66161 18.3155 9.29775C18.205 9.03508 18.041 8.7983 17.8341 8.60246C17.6271 8.40662 17.3816 8.25602 17.1132 8.16025C16.8812 8.07625 16.6414 8.01528 16.3975 7.97825C16.2127 7.94974 16.0261 7.93454 15.8392 7.93275M15.5085 11.9472H15.3527V9.35725H15.6905C15.8395 9.3465 15.9891 9.36938 16.1281 9.42421C16.2672 9.47903 16.3921 9.5644 16.4937 9.674C16.7043 9.95577 16.8168 10.2988 16.814 10.6505C16.814 11.081 16.814 11.4712 16.4255 11.746C16.1456 11.8999 15.827 11.971 15.5085 11.9472ZM21.9327 7.91C21.7385 7.91 21.5495 7.924 21.4165 7.92925L21 7.93975H19.635V16.3397H21.2415C21.8554 16.3566 22.4667 16.2525 23.0405 16.0335C23.5023 15.8503 23.9113 15.555 24.2305 15.1742C24.5408 14.79 24.7636 14.3427 24.8832 13.8635C25.0207 13.3208 25.0877 12.7626 25.0827 12.2027C25.1167 11.5415 25.0655 10.8787 24.9305 10.2305C24.8023 9.75338 24.5624 9.31366 24.2305 8.94775C23.97 8.65228 23.6513 8.41395 23.2942 8.24775C22.9876 8.10585 22.665 8.00127 22.3335 7.93625C22.2016 7.91447 22.0681 7.90451 21.9345 7.9065M21.616 14.7962H21.441V9.43425H21.4637C21.8245 9.39274 22.1895 9.45783 22.5137 9.6215C22.7511 9.81107 22.9446 10.0499 23.0807 10.3215C23.2276 10.6073 23.3123 10.9211 23.3292 11.242C23.345 11.627 23.3292 11.942 23.3292 12.2027C23.3363 12.5031 23.317 12.8035 23.2715 13.1005C23.2175 13.4054 23.1178 13.7004 22.9757 13.9755C22.8149 14.2313 22.5976 14.4468 22.3405 14.6055C22.1246 14.7451 21.8689 14.8103 21.6125 14.791M30.5025 7.93975H26.25V16.3397H28.049V13.0077H30.324V11.4467H28.049V9.50075H30.499V7.93975" fill="#464648"/>
<path d="M38.1172 35.4457C38.1172 35.4457 43.6962 34.4342 43.6962 36.3399C43.6962 38.2457 40.2399 37.4704 38.1172 35.4457ZM33.9924 35.5909C33.106 35.7868 32.2422 36.0735 31.4147 36.4467L32.1147 34.8717C32.8147 33.2967 33.5409 31.1494 33.5409 31.1494C34.3762 32.5552 35.3481 33.8753 36.4424 35.0904C35.6172 35.2135 34.7993 35.3817 33.9924 35.5944V35.5909ZM31.7839 24.2159C31.7839 22.5552 32.3212 22.1019 32.7394 22.1019C33.1577 22.1019 33.6284 22.3032 33.6442 23.7452C33.5079 25.1951 33.2043 26.6245 32.7394 28.0047C32.1026 26.8459 31.7731 25.5434 31.7822 24.2212L31.7839 24.2159ZM23.6482 42.6189C21.9367 41.5952 27.2374 38.4434 28.1982 38.3419C28.1929 38.3437 25.4402 43.6899 23.6482 42.6189ZM45.3254 36.5657C45.3079 36.3907 45.1504 34.4534 41.7029 34.5357C40.266 34.5125 38.8297 34.6138 37.4102 34.8384C36.0351 33.4531 34.851 31.8906 33.8892 30.1922C34.4952 28.4411 34.8619 26.6163 34.9794 24.7672C34.9287 22.6672 34.4264 21.4632 32.8164 21.4807C31.2064 21.4982 30.9719 22.9069 31.1837 25.0034C31.3911 26.4122 31.7824 27.7878 32.3474 29.0949C32.3474 29.0949 31.6037 31.4102 30.6202 33.7132C29.6367 36.0162 28.9647 37.2237 28.9647 37.2237C27.2545 37.7804 25.6445 38.6075 24.1959 39.6737C22.7539 41.0159 22.1677 42.0467 22.9272 43.0774C23.5817 43.9664 25.8724 44.1677 27.9199 41.4849C29.0078 40.0993 30.0017 38.6424 30.8949 37.1239C30.8949 37.1239 34.0169 36.2682 34.9882 36.0337C35.9594 35.7992 37.1337 35.6137 37.1337 35.6137C37.1337 35.6137 39.9844 38.4819 42.7337 38.3804C45.4829 38.2789 45.3499 36.7372 45.3324 36.5692" fill="#DD2025"/>
<path d="M41.9199 3.63281V13.9106H51.7777L41.9199 3.63281Z" fill="#909090"/>
<path d="M42.0547 3.5V13.7778H51.9124L42.0547 3.5Z" fill="#F4F4F4"/>
<path d="M15.7062 7.79994H13.4189V16.1999H15.2249V13.3684L15.6239 13.3912C16.0099 13.3845 16.3923 13.3154 16.7562 13.1864C17.0752 13.0767 17.3687 12.9034 17.6189 12.6772C17.8717 12.461 18.0706 12.189 18.1999 11.8827C18.3755 11.3726 18.4382 10.8304 18.3837 10.2937C18.3728 9.91027 18.3055 9.53055 18.1842 9.16669C18.0737 8.90402 17.9098 8.66724 17.7028 8.4714C17.4958 8.27556 17.2503 8.12496 16.9819 8.02919C16.7488 7.94436 16.5079 7.88281 16.2627 7.84544C16.0779 7.81693 15.8914 7.80172 15.7044 7.79994M15.3737 11.8144H15.2179V9.22444H15.5574C15.7065 9.21369 15.8561 9.23657 15.9951 9.2914C16.1342 9.34622 16.2591 9.43159 16.3607 9.54119C16.5713 9.82296 16.6837 10.1659 16.6809 10.5177C16.6809 10.9482 16.6809 11.3384 16.2924 11.6132C16.0126 11.7671 15.694 11.8364 15.3754 11.8127M21.7979 7.77719C21.6037 7.77719 21.4147 7.79119 21.2817 7.79644L20.8704 7.80694H19.5054V16.2069H21.1119C21.7259 16.2238 22.3372 16.1197 22.9109 15.9007C23.3728 15.7175 23.7818 15.4222 24.1009 15.0414C24.4113 14.6572 24.6341 14.2099 24.7537 13.7307C24.8912 13.188 24.9582 12.6298 24.9532 12.0699C24.9871 11.4087 24.936 10.7459 24.8009 10.0977C24.6728 9.62057 24.4329 9.18085 24.1009 8.81494C23.8405 8.51947 23.5218 8.28113 23.1647 8.11494C22.8581 7.97304 22.5355 7.86846 22.2039 7.80344C22.0721 7.78166 21.9386 7.7717 21.8049 7.77369M21.4864 14.6634H21.3114V9.30144H21.3342C21.695 9.25992 22.06 9.32502 22.3842 9.48869C22.6216 9.67826 22.8151 9.91708 22.9512 10.1887C23.0981 10.4745 23.1828 10.7882 23.1997 11.1092C23.2154 11.4942 23.1997 11.8092 23.1997 12.0699C23.2068 12.3703 23.1875 12.6707 23.1419 12.9677C23.088 13.2726 22.9883 13.5676 22.8462 13.8427C22.6854 14.0985 22.468 14.314 22.2109 14.4727C21.995 14.6123 21.7394 14.6775 21.4829 14.6582M30.3677 7.80694H26.1152V16.2069H27.9142V12.8749H30.1892V11.3139H27.9142V9.36794H30.3642V7.80694" fill="white"/>
</svg>
