<svg style="background-color:white" width="86" height="81" viewBox="0 0 86 81" xmlns="http://www.w3.org/2000/svg">
<path d="M3.07143 81C2.25683 81 1.47561 80.6444 0.8996 80.0115C0.323596 79.3786 0 78.5201 0 77.625V3.375C0 2.47989 0.323596 1.62145 0.8996 0.988515C1.47561 0.35558 2.25683 0 3.07143 0H82.9286C83.7432 0 84.5244 0.35558 85.1004 0.988515C85.6764 1.62145 86 2.47989 86 3.375V77.625C86 78.5201 85.6764 79.3786 85.1004 80.0115C84.5244 80.6444 83.7432 81 82.9286 81H3.07143ZM33.3557 56.9025L26.7399 49.6327C26.1639 49 25.3828 48.6446 24.5684 48.6446C23.7539 48.6446 22.9728 49 22.3969 49.6327L6.14286 67.5068H80.883L57.6446 36.8617C57.3563 36.4807 56.9953 36.1741 56.5871 35.9637C56.1789 35.7533 55.7335 35.6442 55.2826 35.6442C54.8318 35.6442 54.3864 35.7533 53.9782 35.9637C53.57 36.1741 53.2089 36.4807 52.9207 36.8617L37.8891 56.6798C37.6157 57.0402 37.2769 57.334 36.8943 57.5424C36.5117 57.7509 36.0938 57.8693 35.6672 57.8903C35.2406 57.9113 34.8147 57.8342 34.4167 57.6642C34.0187 57.4941 33.6573 57.2347 33.3557 56.9025ZM18.4286 27C18.429 28.3301 18.6678 29.647 19.1314 30.8757C19.595 32.1044 20.2742 33.2207 21.1304 34.1609C21.9866 35.101 23.003 35.8467 24.1214 36.3553C25.2399 36.8639 26.4386 37.1254 27.649 37.125C28.8594 37.1246 30.0579 36.8621 31.1761 36.3527C32.2942 35.8433 33.3101 35.0969 34.1658 34.1561C35.0214 33.2153 35.7 32.0985 36.1628 30.8695C36.6257 29.6405 36.8637 28.3233 36.8633 26.9932C36.8625 24.307 35.8906 21.7312 34.1614 19.8324C32.4322 17.9336 30.0875 16.8674 27.6429 16.8682C25.1983 16.8691 22.8541 17.9371 21.1261 19.8372C19.3981 21.7372 18.4278 24.3138 18.4286 27Z" fill="#9B86BA" />
</svg>
