<svg width="25" height="25" viewBox="0 0 25 25" fill="none" xmlns="http://www.w3.org/2000/svg">
<path d="M21.7333 8.90033L16.0667 3.30033L17.9333 1.43366C18.4445 0.922548 19.0724 0.666992 19.8173 0.666992C20.5622 0.666992 21.1898 0.922548 21.7 1.43366L23.5667 3.30033C24.0778 3.81144 24.3444 4.42833 24.3667 5.15099C24.3889 5.87366 24.1444 6.4901 23.6333 7.00033L21.7333 8.90033ZM1.33334 25.0003C0.95556 25.0003 0.638671 24.8723 0.382671 24.6163C0.126671 24.3603 -0.000884275 24.0439 4.61361e-06 23.667V19.9003C4.61361e-06 19.7225 0.033338 19.5501 0.100005 19.383C0.166671 19.2159 0.266671 19.0661 0.400005 18.9337L14.1333 5.20033L19.8 10.867L6.06667 24.6003C5.93334 24.7337 5.78356 24.8337 5.61734 24.9003C5.45112 24.967 5.27867 25.0003 5.1 25.0003H1.33334Z" fill="#9B86BA"/>
</svg>
