<svg width="29" height="29" viewBox="0 0 29 29" fill="none" xmlns="http://www.w3.org/2000/svg">
<path d="M26.75 16.4548H16.5416V26.2464C16.5416 26.7658 16.3265 27.2639 15.9437 27.6312C15.5608 27.9984 15.0415 28.2048 14.5 28.2048C13.9585 28.2048 13.4392 27.9984 13.0563 27.6312C12.6734 27.2639 12.4583 26.7658 12.4583 26.2464V16.4548H2.24998C1.7085 16.4548 1.18919 16.2484 0.806304 15.8812C0.423417 15.5139 0.208313 15.0158 0.208313 14.4964C0.208313 13.977 0.423417 13.4789 0.806304 13.1117C1.18919 12.7444 1.7085 12.5381 2.24998 12.5381H12.4583V2.74642C12.4583 2.22704 12.6734 1.72893 13.0563 1.36167C13.4392 0.994409 13.9585 0.788086 14.5 0.788086C15.0415 0.788086 15.5608 0.994409 15.9437 1.36167C16.3265 1.72893 16.5416 2.22704 16.5416 2.74642V12.5381H26.75C27.2915 12.5381 27.8108 12.7444 28.1937 13.1117C28.5765 13.4789 28.7916 13.977 28.7916 14.4964C28.7916 15.0158 28.5765 15.5139 28.1937 15.8812C27.8108 16.2484 27.2915 16.4548 26.75 16.4548Z" fill="#9B86BA"/>
</svg>
