<svg width="40" height="40" viewBox="0 0 40 40" fill="none" xmlns="http://www.w3.org/2000/svg">
<path d="M28.7844 23.8797C28.2351 23.0064 27.4185 20.5354 27.4185 17.308C27.4185 15.3698 26.5843 13.511 25.0994 12.1405C23.6145 10.7699 21.6005 10 19.5005 10C17.4005 10 15.3865 10.7699 13.9016 12.1405C12.4167 13.511 11.5825 15.3698 11.5825 17.308C11.5825 20.5363 10.7649 23.0064 10.2156 23.8797C10.0753 24.1018 10.001 24.354 10 24.611C9.99905 24.868 10.0715 25.1207 10.2102 25.3436C10.3488 25.5665 10.5486 25.7517 10.7896 25.8806C11.0305 26.0095 11.304 26.0774 11.5825 26.0776H15.6216C15.8043 26.9027 16.2902 27.6441 16.9969 28.1766C17.7037 28.7091 18.5881 29 19.5005 29C20.4129 29 21.2973 28.7091 22.004 28.1766C22.7108 27.6441 23.1967 26.9027 23.3793 26.0776H27.4185C27.6969 26.0773 27.9703 26.0092 28.2111 25.8803C28.4519 25.7513 28.6516 25.5661 28.7901 25.3432C28.9286 25.1203 29.001 24.8677 29 24.6108C28.999 24.3538 28.9246 24.1017 28.7844 23.8797ZM19.5005 27.5392C19.0094 27.5391 18.5304 27.3985 18.1295 27.1367C17.7285 26.875 17.4254 26.505 17.2617 26.0776H21.7393C21.5756 26.505 21.2724 26.875 20.8715 27.1367C20.4706 27.3985 19.9916 27.5391 19.5005 27.5392ZM11.5825 24.616C12.3446 23.4065 13.1661 20.6039 13.1661 17.308C13.1661 15.7574 13.8334 14.2704 15.0214 13.174C16.2093 12.0776 17.8205 11.4616 19.5005 11.4616C21.1805 11.4616 22.7917 12.0776 23.9796 13.174C25.1675 14.2704 25.8349 15.7574 25.8349 17.308C25.8349 20.6012 26.6544 23.4038 27.4185 24.616H11.5825Z" fill="#81219A"/>
</svg>
