<svg width="24" height="25" viewBox="0 0 24 25" fill="none" xmlns="http://www.w3.org/2000/svg">
<path d="M7 21.5C6.45 21.5 5.979 21.304 5.587 20.912C5.195 20.52 4.99934 20.0493 5 19.5V6.5C4.71667 6.5 4.479 6.404 4.287 6.212C4.095 6.02 3.99934 5.78267 4 5.5C4 5.21667 4.096 4.979 4.288 4.787C4.48 4.595 4.71734 4.49934 5 4.5H9C9 4.21667 9.096 3.979 9.288 3.787C9.48 3.595 9.71734 3.49934 10 3.5H14C14.2833 3.5 14.521 3.596 14.713 3.788C14.905 3.98 15.0007 4.21734 15 4.5H19C19.2833 4.5 19.521 4.596 19.713 4.788C19.905 4.98 20.0007 5.21734 20 5.5C20 5.78334 19.904 6.021 19.712 6.213C19.52 6.405 19.2827 6.50067 19 6.5V19.5C19 20.05 18.804 20.521 18.412 20.913C18.02 21.305 17.5493 21.5007 17 21.5H7ZM7 6.5V19.5H17V6.5H7ZM9 16.5C9 16.7833 9.096 17.021 9.288 17.213C9.48 17.405 9.71734 17.5007 10 17.5C10.2833 17.5 10.521 17.404 10.713 17.212C10.905 17.02 11.0007 16.7827 11 16.5V9.5C11 9.21667 10.904 8.979 10.712 8.787C10.52 8.595 10.2827 8.49934 10 8.5C9.71667 8.5 9.479 8.596 9.287 8.788C9.095 8.98 8.99934 9.21734 9 9.5V16.5ZM13 16.5C13 16.7833 13.096 17.021 13.288 17.213C13.48 17.405 13.7173 17.5007 14 17.5C14.2833 17.5 14.521 17.404 14.713 17.212C14.905 17.02 15.0007 16.7827 15 16.5V9.5C15 9.21667 14.904 8.979 14.712 8.787C14.52 8.595 14.2827 8.49934 14 8.5C13.7167 8.5 13.479 8.596 13.287 8.788C13.095 8.98 12.9993 9.21734 13 9.5V16.5Z" fill="#DB3838"/>
</svg>
