<svg width="37" height="36" viewBox="0 0 37 36" fill="none" xmlns="http://www.w3.org/2000/svg">
<path d="M32 9H22.2505L18.3495 6.075C17.9595 5.78398 17.4862 5.62621 16.9995 5.625H10.625C10.0283 5.625 9.45597 5.86205 9.03401 6.28401C8.61205 6.70597 8.375 7.27826 8.375 7.875V10.125H6.125C5.52826 10.125 4.95597 10.3621 4.53401 10.784C4.11205 11.206 3.875 11.7783 3.875 12.375V28.125C3.875 28.7217 4.11205 29.294 4.53401 29.716C4.95597 30.1379 5.52826 30.375 6.125 30.375H27.6252C28.1885 30.3743 28.7285 30.1502 29.1268 29.7518C29.5252 29.3535 29.7493 28.8135 29.75 28.2502V25.875H32.1252C32.6885 25.8743 33.2285 25.6502 33.6268 25.2518C34.0252 24.8535 34.2493 24.3135 34.25 23.7502V11.25C34.25 10.6533 34.0129 10.081 33.591 9.65901C33.169 9.23705 32.5967 9 32 9ZM27.5 28.125H6.125V12.375H12.4995L16.4005 15.3C16.7905 15.591 17.2638 15.7488 17.7505 15.75H27.5V28.125ZM32 23.625H29.75V15.75C29.75 15.1533 29.5129 14.581 29.091 14.159C28.669 13.7371 28.0967 13.5 27.5 13.5H17.7505L13.8495 10.575C13.4595 10.284 12.9862 10.1262 12.4995 10.125H10.625V7.875H16.9995L20.9005 10.8C21.2905 11.091 21.7638 11.2488 22.2505 11.25H32V23.625Z" fill="#FF8E3C"/>
</svg>
