<svg width="25" height="24" viewBox="0 0 25 24" fill="none" xmlns="http://www.w3.org/2000/svg">
<path d="M5.7561 21C5.27317 21 4.85961 20.8284 4.51542 20.4852C4.17122 20.142 3.99942 19.729 4 19.246V6.96833C4 6.48599 4.1721 6.07294 4.51629 5.72916C4.86049 5.38538 5.27376 5.21379 5.7561 5.21437H13.5927L11.8366 6.96833H5.7561V19.246H18.0488V13.151L19.8049 11.3971V19.246C19.8049 19.7284 19.6328 20.1414 19.2886 20.4852C18.9444 20.829 18.5311 21.0006 18.0488 21H5.7561ZM15.5683 5.71864L16.8195 6.94641L11.0244 12.7345V13.9842H12.2537L18.0707 8.17418L19.322 9.40195L13 15.7381H9.26829V12.011L15.5683 5.71864ZM19.322 9.40195L15.5683 5.71864L17.7634 3.52619C18.1146 3.1754 18.5355 3 19.0261 3C19.5166 3 19.9299 3.1754 20.2659 3.52619L21.4951 4.77588C21.8317 5.11206 22 5.52132 22 6.00365C22 6.48599 21.8317 6.89525 21.4951 7.23142L19.322 9.40195Z" fill="#81219A"/>
</svg>
