<svg width="16" height="16" viewBox="0 0 16 16" fill="none" xmlns="http://www.w3.org/2000/svg">
<path d="M1.5 15.3938C1.0875 15.3938 0.734251 15.247 0.440251 14.9535C0.146251 14.66 -0.000498727 14.3068 1.27335e-06 13.8938V3.39375C1.27335e-06 2.98125 0.147001 2.628 0.441001 2.334C0.735001 2.04 1.088 1.89325 1.5 1.89375H8.19375L6.69375 3.39375H1.5V13.8938H12V8.68125L13.5 7.18125V13.8938C13.5 14.3063 13.353 14.6595 13.059 14.9535C12.765 15.2475 12.412 15.3943 12 15.3938H1.5ZM9.88125 2.325L10.95 3.375L6 8.325V9.39375H7.05L12.0188 4.425L13.0875 5.475L7.6875 10.8938H4.5V7.70625L9.88125 2.325ZM13.0875 5.475L9.88125 2.325L11.7563 0.45C12.0563 0.15 12.4158 0 12.8348 0C13.2538 0 13.6068 0.15 13.8938 0.45L14.9438 1.51875C15.2313 1.80625 15.375 2.15625 15.375 2.56875C15.375 2.98125 15.2313 3.33125 14.9438 3.61875L13.0875 5.475Z" fill="#F9CA53"/>
</svg>
