<svg width="20" height="16" viewBox="0 0 20 16" fill="none" xmlns="http://www.w3.org/2000/svg">
<path d="M1.29167 4.00314H4.55729C4.7317 4.69093 5.12785 5.30055 5.68329 5.73589C6.23873 6.17123 6.92186 6.40752 7.625 6.40752C8.32813 6.40752 9.01127 6.17123 9.56671 5.73589C10.1222 5.30055 10.5183 4.69093 10.6927 4.00314H18.7083C18.9183 4.00314 19.1197 3.91892 19.2681 3.769C19.4166 3.61909 19.5 3.41577 19.5 3.20376C19.5 2.99176 19.4166 2.78843 19.2681 2.63852C19.1197 2.48861 18.9183 2.40439 18.7083 2.40439H10.6927C10.5183 1.7166 10.1222 1.10698 9.56671 0.671636C9.01127 0.236296 8.32813 0 7.625 0C6.92186 0 6.23873 0.236296 5.68329 0.671636C5.12785 1.10698 4.7317 1.7166 4.55729 2.40439H1.29167C1.0817 2.40439 0.88034 2.48861 0.731874 2.63852C0.583408 2.78843 0.5 2.99176 0.5 3.20376C0.5 3.41577 0.583408 3.61909 0.731874 3.769C0.88034 3.91892 1.0817 4.00314 1.29167 4.00314ZM7.625 1.60502C7.93815 1.60502 8.24428 1.69878 8.50465 1.87445C8.76503 2.05013 8.96797 2.29982 9.08781 2.59195C9.20765 2.88408 9.239 3.20554 9.17791 3.51566C9.11682 3.82579 8.96602 4.11066 8.74459 4.33425C8.52315 4.55783 8.24103 4.7101 7.93389 4.77179C7.62676 4.83348 7.3084 4.80182 7.01908 4.68081C6.72977 4.55981 6.48249 4.35489 6.30851 4.09198C6.13453 3.82907 6.04167 3.51996 6.04167 3.20376C6.04167 2.77975 6.20848 2.3731 6.50541 2.07328C6.80235 1.77346 7.20507 1.60502 7.625 1.60502ZM18.7083 11.9969H17.026C16.8516 11.3091 16.4555 10.6995 15.9 10.2641C15.3446 9.82877 14.6615 9.59248 13.9583 9.59248C13.2552 9.59248 12.5721 9.82877 12.0166 10.2641C11.4612 10.6995 11.065 11.3091 10.8906 11.9969H1.29167C1.0817 11.9969 0.88034 12.0811 0.731874 12.231C0.583408 12.3809 0.5 12.5842 0.5 12.7962C0.5 13.0082 0.583408 13.2116 0.731874 13.3615C0.88034 13.5114 1.0817 13.5956 1.29167 13.5956H10.8906C11.065 14.2834 11.4612 14.893 12.0166 15.3284C12.5721 15.7637 13.2552 16 13.9583 16C14.6615 16 15.3446 15.7637 15.9 15.3284C16.4555 14.893 16.8516 14.2834 17.026 13.5956H18.7083C18.9183 13.5956 19.1197 13.5114 19.2681 13.3615C19.4166 13.2116 19.5 13.0082 19.5 12.7962C19.5 12.5842 19.4166 12.3809 19.2681 12.231C19.1197 12.0811 18.9183 11.9969 18.7083 11.9969ZM13.9583 14.395C13.6452 14.395 13.3391 14.3012 13.0787 14.1255C12.8183 13.9499 12.6154 13.7002 12.4955 13.4081C12.3757 13.1159 12.3443 12.7945 12.4054 12.4843C12.4665 12.1742 12.6173 11.8893 12.8387 11.6658C13.0602 11.4422 13.3423 11.2899 13.6494 11.2282C13.9566 11.1665 14.2749 11.1982 14.5642 11.3192C14.8536 11.4402 15.1008 11.6451 15.2748 11.908C15.4488 12.1709 15.5417 12.48 15.5417 12.7962C15.5417 13.2203 15.3749 13.6269 15.0779 13.9267C14.781 14.2265 14.3783 14.395 13.9583 14.395Z" fill="#A9AAB5"/>
</svg>
