<svg width="24" height="25" viewBox="0 0 24 25" fill="none" xmlns="http://www.w3.org/2000/svg">
<path d="M24 11.4438V23.0001C24 23.5305 23.7893 24.0392 23.4142 24.4143C23.0391 24.7894 22.5304 25.0001 22 25.0001H17C16.4696 25.0001 15.9609 24.7894 15.5858 24.4143C15.2107 24.0392 15 23.5305 15 23.0001V18.0001C15 17.7349 14.8946 17.4805 14.7071 17.293C14.5196 17.1054 14.2652 17.0001 14 17.0001H10C9.73478 17.0001 9.48043 17.1054 9.29289 17.293C9.10536 17.4805 9 17.7349 9 18.0001V23.0001C9 23.5305 8.78929 24.0392 8.41421 24.4143C8.03914 24.7894 7.53043 25.0001 7 25.0001H2C1.46957 25.0001 0.960859 24.7894 0.585786 24.4143C0.210714 24.0392 2.31098e-08 23.5305 2.31098e-08 23.0001V11.4438C-4.20536e-05 11.167 0.057374 10.8932 0.168614 10.6398C0.279855 10.3863 0.442497 10.1587 0.64625 9.97132L10.6462 0.536321L10.66 0.522571C11.0282 0.187738 11.508 0.00219727 12.0056 0.00219727C12.5033 0.00219727 12.9831 0.187738 13.3512 0.522571C13.3555 0.527462 13.3601 0.532057 13.365 0.536321L23.365 9.97132C23.5667 10.1597 23.7273 10.3877 23.8365 10.6411C23.9458 10.8946 24.0015 11.1679 24 11.4438Z" fill="#5E217C"/>
</svg>
