<svg width="20" height="20" viewBox="0 0 60 60" fill="none" xmlns="http://www.w3.org/2000/svg">
<path d="M30 27C29.2044 27 28.4413 27.3161 27.8787 27.8787C27.3161 28.4413 27 29.2044 27 30V42C27 42.7957 27.3161 43.5587 27.8787 44.1213C28.4413 44.6839 29.2044 45 30 45C30.7957 45 31.5587 44.6839 32.1213 44.1213C32.6839 43.5587 33 42.7957 33 42V30C33 29.2044 32.6839 28.4413 32.1213 27.8787C31.5587 27.3161 30.7957 27 30 27ZM31.14 15.24C30.4096 14.9399 29.5904 14.9399 28.86 15.24C28.4918 15.3828 28.1553 15.5969 27.87 15.87C27.605 16.1616 27.3919 16.4964 27.24 16.86C27.0721 17.216 26.9899 17.6065 27 18C26.9977 18.3948 27.0734 18.7862 27.2227 19.1517C27.372 19.5172 27.592 19.8497 27.87 20.13C28.1616 20.395 28.4965 20.6081 28.86 20.76C29.3145 20.9467 29.8079 21.0189 30.2969 20.9703C30.7858 20.9217 31.2553 20.7538 31.6642 20.4812C32.073 20.2087 32.4086 19.8399 32.6415 19.4072C32.8745 18.9746 32.9976 18.4914 33 18C32.989 17.2057 32.6782 16.4449 32.13 15.87C31.8447 15.5969 31.5083 15.3828 31.14 15.24ZM30 0C24.0666 0 18.2664 1.75947 13.3329 5.05591C8.39943 8.35235 4.55426 13.0377 2.28363 18.5195C0.0129985 24.0013 -0.581102 30.0333 0.576455 35.8527C1.73401 41.6721 4.59124 47.0176 8.78681 51.2132C12.9824 55.4088 18.3279 58.266 24.1473 59.4236C29.9667 60.5811 35.9987 59.987 41.4805 57.7164C46.9623 55.4458 51.6477 51.6006 54.9441 46.6671C58.2405 41.7336 60 35.9334 60 30C60 26.0603 59.224 22.1593 57.7164 18.5195C56.2088 14.8797 53.999 11.5726 51.2132 8.7868C48.4275 6.00104 45.1203 3.79126 41.4805 2.28361C37.8408 0.775973 33.9397 0 30 0ZM30 54C25.2533 54 20.6131 52.5924 16.6663 49.9553C12.7195 47.3181 9.64341 43.5698 7.82691 39.1844C6.0104 34.799 5.53512 29.9734 6.46117 25.3178C7.38721 20.6623 9.67299 16.3859 13.0295 13.0294C16.3859 9.67298 20.6623 7.3872 25.3179 6.46115C29.9734 5.53511 34.799 6.01039 39.1844 7.82689C43.5698 9.6434 47.3181 12.7195 49.9553 16.6663C52.5924 20.6131 54 25.2532 54 30C54 36.3652 51.4715 42.4697 46.9706 46.9706C42.4697 51.4714 36.3652 54 30 54Z" fill="#333333"/>
</svg>
