<svg width="148" height="119" viewBox="0 0 148 119" fill="none" xmlns="http://www.w3.org/2000/svg">
<path d="M100.381 49.4831C98.82 46.7944 96.4997 39.1866 96.4997 29.25C96.4997 23.2826 94.1291 17.5597 89.9096 13.3401C85.69 9.12053 79.967 6.75 73.9997 6.75C68.0323 6.75 62.3093 9.12053 58.0898 13.3401C53.8702 17.5597 51.4997 23.2826 51.4997 29.25C51.4997 39.1894 49.1765 46.7944 47.6156 49.4831C47.217 50.1667 47.0057 50.9433 47.003 51.7346C47.0002 52.5258 47.2062 53.3039 47.6001 53.9901C47.994 54.6764 48.562 55.2467 49.2466 55.6434C49.9312 56.0402 50.7084 56.2494 51.4997 56.25H62.9775C63.4966 58.7901 64.8771 61.073 66.8855 62.7125C68.894 64.352 71.407 65.2475 73.9997 65.2475C76.5923 65.2475 79.1054 64.352 81.1138 62.7125C83.1222 61.073 84.5027 58.7901 85.0219 56.25H96.4997C97.2907 56.2489 98.0675 56.0394 98.7518 55.6424C99.436 55.2454 100.004 54.6751 100.397 53.9889C100.791 53.3027 100.996 52.5249 100.994 51.7339C100.991 50.9428 100.779 50.1665 100.381 49.4831ZM73.9997 60.75C72.6042 60.7496 71.2431 60.3166 70.1038 59.5107C68.9645 58.7049 68.103 57.5657 67.6378 56.25H80.3615C79.8964 57.5657 79.0349 58.7049 77.8956 59.5107C76.7562 60.3166 75.3952 60.7496 73.9997 60.75Z" fill="#B1BFCC"/>
<path d="M20.167 113H17.5742L11.2812 102.743H11.2021C11.2256 103.089 11.2461 103.455 11.2637 103.842C11.2871 104.229 11.3047 104.627 11.3164 105.037C11.334 105.447 11.3486 105.863 11.3604 106.285V113H9.44434V100.15H12.0195L18.3037 110.337H18.3652C18.3535 110.038 18.3389 109.695 18.3213 109.309C18.3037 108.922 18.2861 108.523 18.2686 108.113C18.2568 107.697 18.248 107.296 18.2422 106.909V100.15H20.167V113ZM31.9443 108.113C31.9443 108.922 31.8389 109.64 31.6279 110.267C31.417 110.894 31.1094 111.424 30.7051 111.857C30.3008 112.285 29.8145 112.613 29.2461 112.842C28.6777 113.064 28.0361 113.176 27.3213 113.176C26.6533 113.176 26.041 113.064 25.4844 112.842C24.9277 112.613 24.4443 112.285 24.0342 111.857C23.6299 111.424 23.3164 110.894 23.0938 110.267C22.8711 109.64 22.7598 108.922 22.7598 108.113C22.7598 107.041 22.9443 106.133 23.3135 105.389C23.6885 104.639 24.2217 104.067 24.9131 103.675C25.6045 103.282 26.4277 103.086 27.3828 103.086C28.2793 103.086 29.0703 103.282 29.7559 103.675C30.4414 104.067 30.9775 104.639 31.3643 105.389C31.751 106.139 31.9443 107.047 31.9443 108.113ZM24.8867 108.113C24.8867 108.822 24.9717 109.429 25.1416 109.933C25.3174 110.437 25.5869 110.823 25.9502 111.093C26.3135 111.356 26.7822 111.488 27.3564 111.488C27.9307 111.488 28.3994 111.356 28.7627 111.093C29.126 110.823 29.3926 110.437 29.5625 109.933C29.7324 109.429 29.8174 108.822 29.8174 108.113C29.8174 107.404 29.7324 106.804 29.5625 106.312C29.3926 105.813 29.126 105.436 28.7627 105.178C28.3994 104.914 27.9277 104.782 27.3477 104.782C26.4922 104.782 25.8682 105.069 25.4756 105.644C25.083 106.218 24.8867 107.041 24.8867 108.113ZM49.9268 113H47.334L41.041 102.743H40.9619C40.9854 103.089 41.0059 103.455 41.0234 103.842C41.0469 104.229 41.0645 104.627 41.0762 105.037C41.0938 105.447 41.1084 105.863 41.1201 106.285V113H39.2041V100.15H41.7793L48.0635 110.337H48.125C48.1133 110.038 48.0986 109.695 48.0811 109.309C48.0635 108.922 48.0459 108.523 48.0283 108.113C48.0166 107.697 48.0078 107.296 48.002 106.909V100.15H49.9268V113ZM61.7041 108.113C61.7041 108.922 61.5986 109.64 61.3877 110.267C61.1768 110.894 60.8691 111.424 60.4648 111.857C60.0605 112.285 59.5742 112.613 59.0059 112.842C58.4375 113.064 57.7959 113.176 57.0811 113.176C56.4131 113.176 55.8008 113.064 55.2441 112.842C54.6875 112.613 54.2041 112.285 53.7939 111.857C53.3896 111.424 53.0762 110.894 52.8535 110.267C52.6309 109.64 52.5195 108.922 52.5195 108.113C52.5195 107.041 52.7041 106.133 53.0732 105.389C53.4482 104.639 53.9814 104.067 54.6729 103.675C55.3643 103.282 56.1875 103.086 57.1426 103.086C58.0391 103.086 58.8301 103.282 59.5156 103.675C60.2012 104.067 60.7373 104.639 61.124 105.389C61.5107 106.139 61.7041 107.047 61.7041 108.113ZM54.6465 108.113C54.6465 108.822 54.7314 109.429 54.9014 109.933C55.0771 110.437 55.3467 110.823 55.71 111.093C56.0732 111.356 56.542 111.488 57.1162 111.488C57.6904 111.488 58.1592 111.356 58.5225 111.093C58.8857 110.823 59.1523 110.437 59.3223 109.933C59.4922 109.429 59.5771 108.822 59.5771 108.113C59.5771 107.404 59.4922 106.804 59.3223 106.312C59.1523 105.813 58.8857 105.436 58.5225 105.178C58.1592 104.914 57.6875 104.782 57.1074 104.782C56.252 104.782 55.6279 105.069 55.2354 105.644C54.8428 106.218 54.6465 107.041 54.6465 108.113ZM67.6982 111.506C67.9678 111.506 68.2344 111.482 68.498 111.436C68.7617 111.383 69.002 111.321 69.2188 111.251V112.815C68.9902 112.915 68.6943 113 68.3311 113.07C67.9678 113.141 67.5898 113.176 67.1973 113.176C66.6465 113.176 66.1514 113.085 65.7119 112.903C65.2725 112.716 64.9238 112.396 64.666 111.945C64.4082 111.494 64.2793 110.87 64.2793 110.073V104.844H62.9521V103.921L64.376 103.191L65.0527 101.108H66.3535V103.271H69.1396V104.844H66.3535V110.047C66.3535 110.539 66.4766 110.905 66.7227 111.146C66.9688 111.386 67.2939 111.506 67.6982 111.506ZM73.2617 103.271V113H71.1963V103.271H73.2617ZM72.2422 99.5439C72.5586 99.5439 72.8311 99.6289 73.0596 99.7988C73.2939 99.9688 73.4111 100.262 73.4111 100.678C73.4111 101.088 73.2939 101.381 73.0596 101.557C72.8311 101.727 72.5586 101.812 72.2422 101.812C71.9141 101.812 71.6357 101.727 71.4072 101.557C71.1846 101.381 71.0732 101.088 71.0732 100.678C71.0732 100.262 71.1846 99.9688 71.4072 99.7988C71.6357 99.6289 71.9141 99.5439 72.2422 99.5439ZM81.084 104.844H78.7197V113H76.6543V104.844H75.0635V103.851L76.6543 103.244V102.567C76.6543 101.741 76.7832 101.085 77.041 100.599C77.3047 100.112 77.6797 99.7637 78.166 99.5527C78.6582 99.3359 79.2441 99.2275 79.9238 99.2275C80.3691 99.2275 80.7764 99.2656 81.1455 99.3418C81.5146 99.4121 81.8252 99.4941 82.0771 99.5879L81.541 101.152C81.3418 101.088 81.1191 101.029 80.873 100.977C80.627 100.918 80.3633 100.889 80.082 100.889C79.6133 100.889 79.2676 101.035 79.0449 101.328C78.8281 101.621 78.7197 102.049 78.7197 102.611V103.271H81.084V104.844ZM84.8018 103.271V113H82.7363V103.271H84.8018ZM83.7822 99.5439C84.0986 99.5439 84.3711 99.6289 84.5996 99.7988C84.834 99.9688 84.9512 100.262 84.9512 100.678C84.9512 101.088 84.834 101.381 84.5996 101.557C84.3711 101.727 84.0986 101.812 83.7822 101.812C83.4541 101.812 83.1758 101.727 82.9473 101.557C82.7246 101.381 82.6133 101.088 82.6133 100.678C82.6133 100.262 82.7246 99.9688 82.9473 99.7988C83.1758 99.6289 83.4541 99.5439 83.7822 99.5439ZM91.6748 113.176C90.7549 113.176 89.958 112.997 89.2842 112.64C88.6104 112.282 88.0918 111.734 87.7285 110.996C87.3652 110.258 87.1836 109.32 87.1836 108.184C87.1836 107 87.3828 106.033 87.7812 105.283C88.1797 104.533 88.7305 103.979 89.4336 103.622C90.1426 103.265 90.9541 103.086 91.8682 103.086C92.4482 103.086 92.9727 103.145 93.4414 103.262C93.916 103.373 94.3174 103.511 94.6455 103.675L94.0303 105.327C93.6729 105.181 93.3066 105.058 92.9316 104.958C92.5566 104.858 92.1963 104.809 91.8506 104.809C91.2822 104.809 90.8076 104.935 90.4268 105.187C90.0518 105.438 89.7705 105.813 89.583 106.312C89.4014 106.81 89.3105 107.428 89.3105 108.166C89.3105 108.881 89.4043 109.484 89.5918 109.977C89.7793 110.463 90.0576 110.832 90.4268 111.084C90.7959 111.33 91.25 111.453 91.7891 111.453C92.3223 111.453 92.7998 111.389 93.2217 111.26C93.6436 111.131 94.042 110.964 94.417 110.759V112.552C94.0479 112.763 93.6523 112.918 93.2305 113.018C92.8086 113.123 92.29 113.176 91.6748 113.176ZM100.517 103.086C101.747 103.086 102.676 103.358 103.303 103.903C103.936 104.448 104.252 105.298 104.252 106.452V113H102.784L102.389 111.62H102.318C102.043 111.972 101.759 112.262 101.466 112.49C101.173 112.719 100.833 112.889 100.446 113C100.065 113.117 99.5996 113.176 99.0488 113.176C98.4688 113.176 97.9502 113.07 97.4932 112.859C97.0361 112.643 96.6758 112.314 96.4121 111.875C96.1484 111.436 96.0166 110.879 96.0166 110.205C96.0166 109.203 96.3887 108.45 97.1328 107.946C97.8828 107.442 99.0137 107.164 100.525 107.111L102.213 107.05V106.54C102.213 105.866 102.055 105.386 101.738 105.099C101.428 104.812 100.988 104.668 100.42 104.668C99.9336 104.668 99.4619 104.738 99.0049 104.879C98.5479 105.02 98.1025 105.192 97.6689 105.397L97.001 103.938C97.4756 103.687 98.0146 103.481 98.6182 103.323C99.2275 103.165 99.8604 103.086 100.517 103.086ZM102.204 108.351L100.947 108.395C99.916 108.43 99.1924 108.605 98.7764 108.922C98.3604 109.238 98.1523 109.672 98.1523 110.223C98.1523 110.703 98.2959 111.055 98.583 111.277C98.8701 111.494 99.248 111.603 99.7168 111.603C100.432 111.603 101.023 111.4 101.492 110.996C101.967 110.586 102.204 109.985 102.204 109.194V108.351ZM110.765 111.506C111.034 111.506 111.301 111.482 111.564 111.436C111.828 111.383 112.068 111.321 112.285 111.251V112.815C112.057 112.915 111.761 113 111.397 113.07C111.034 113.141 110.656 113.176 110.264 113.176C109.713 113.176 109.218 113.085 108.778 112.903C108.339 112.716 107.99 112.396 107.732 111.945C107.475 111.494 107.346 110.87 107.346 110.073V104.844H106.019V103.921L107.442 103.191L108.119 101.108H109.42V103.271H112.206V104.844H109.42V110.047C109.42 110.539 109.543 110.905 109.789 111.146C110.035 111.386 110.36 111.506 110.765 111.506ZM116.328 103.271V113H114.263V103.271H116.328ZM115.309 99.5439C115.625 99.5439 115.897 99.6289 116.126 99.7988C116.36 99.9688 116.478 100.262 116.478 100.678C116.478 101.088 116.36 101.381 116.126 101.557C115.897 101.727 115.625 101.812 115.309 101.812C114.98 101.812 114.702 101.727 114.474 101.557C114.251 101.381 114.14 101.088 114.14 100.678C114.14 100.262 114.251 99.9688 114.474 99.7988C114.702 99.6289 114.98 99.5439 115.309 99.5439ZM127.903 108.113C127.903 108.922 127.798 109.64 127.587 110.267C127.376 110.894 127.068 111.424 126.664 111.857C126.26 112.285 125.773 112.613 125.205 112.842C124.637 113.064 123.995 113.176 123.28 113.176C122.612 113.176 122 113.064 121.443 112.842C120.887 112.613 120.403 112.285 119.993 111.857C119.589 111.424 119.275 110.894 119.053 110.267C118.83 109.64 118.719 108.922 118.719 108.113C118.719 107.041 118.903 106.133 119.272 105.389C119.647 104.639 120.181 104.067 120.872 103.675C121.563 103.282 122.387 103.086 123.342 103.086C124.238 103.086 125.029 103.282 125.715 103.675C126.4 104.067 126.937 104.639 127.323 105.389C127.71 106.139 127.903 107.047 127.903 108.113ZM120.846 108.113C120.846 108.822 120.931 109.429 121.101 109.933C121.276 110.437 121.546 110.823 121.909 111.093C122.272 111.356 122.741 111.488 123.315 111.488C123.89 111.488 124.358 111.356 124.722 111.093C125.085 110.823 125.352 110.437 125.521 109.933C125.691 109.429 125.776 108.822 125.776 108.113C125.776 107.404 125.691 106.804 125.521 106.312C125.352 105.813 125.085 105.436 124.722 105.178C124.358 104.914 123.887 104.782 123.307 104.782C122.451 104.782 121.827 105.069 121.435 105.644C121.042 106.218 120.846 107.041 120.846 108.113ZM135.348 103.086C136.443 103.086 137.296 103.37 137.905 103.938C138.521 104.501 138.828 105.406 138.828 106.654V113H136.763V107.041C136.763 106.285 136.607 105.72 136.297 105.345C135.986 104.964 135.506 104.773 134.855 104.773C133.912 104.773 133.256 105.063 132.887 105.644C132.523 106.224 132.342 107.064 132.342 108.166V113H130.276V103.271H131.885L132.175 104.589H132.289C132.5 104.249 132.761 103.971 133.071 103.754C133.388 103.531 133.739 103.364 134.126 103.253C134.519 103.142 134.926 103.086 135.348 103.086Z" fill="#ABB5C4"/>
</svg>
