<svg width="702" height="579" viewBox="0 0 702 579" fill="none" xmlns="http://www.w3.org/2000/svg">
<g id="No Results">
<g id="circle">
<path id="Stroke 1" d="M23.6151 266.851V272.803" stroke="#D2D8DF" stroke-width="2.921" stroke-linecap="round"/>
<g id="Group 8">
<path id="Stroke 2" d="M10.2461 270.076L15.11 275.083" stroke="#D2D8DF" stroke-width="2.921" stroke-linecap="round"/>
<path id="Stroke 4" d="M4.55731 283.406H11.4347" stroke="#D2D8DF" stroke-width="2.921" stroke-linecap="round"/>
<path id="Stroke 6" d="M9.68802 296.971L14.5519 291.964" stroke="#D2D8DF" stroke-width="2.921" stroke-linecap="round"/>
</g>
<path id="Stroke 9" d="M23.6151 298.596V292.644" stroke="#D2D8DF" stroke-width="2.921" stroke-linecap="round"/>
<path id="Stroke 10" d="M33.5355 294.628L29.5673 290.66" stroke="#D2D8DF" stroke-width="2.921" stroke-linecap="round"/>
<path id="Stroke 11" d="M41.4718 284.71H35.5196" stroke="#D2D8DF" stroke-width="2.921" stroke-linecap="round"/>
<path id="Stroke 12" d="M37.5037 270.82L33.5356 274.788" stroke="#D2D8DF" stroke-width="2.921" stroke-linecap="round"/>
<path id="Stroke 13" d="M343.053 6.9375V10.9057" stroke="#D2D8DF" stroke-width="2.921" stroke-linecap="round"/>
<path id="Stroke 15" d="M331.148 18.8408H335.116" stroke="#D2D8DF" stroke-width="2.921" stroke-linecap="round"/>
<path id="Stroke 16" d="M343.053 30.7455V26.7773" stroke="#D2D8DF" stroke-width="2.921" stroke-linecap="round"/>
<path id="Stroke 17" d="M352.973 18.8408H349.005" stroke="#D2D8DF" stroke-width="2.921" stroke-linecap="round"/>
<path id="Stroke 18" d="M112.899 173.599V179.551" stroke="#D2D8DF" stroke-width="2.921" stroke-linecap="round"/>
<path id="Stroke 19" d="M95.0422 191.458H100.994" stroke="#D2D8DF" stroke-width="2.921" stroke-linecap="round"/>
<path id="Stroke 20" d="M112.899 207.33V201.378" stroke="#D2D8DF" stroke-width="2.921" stroke-linecap="round"/>
<path id="Stroke 21" d="M128.772 191.458H122.819" stroke="#D2D8DF" stroke-width="2.921" stroke-linecap="round"/>
<g id="Group 42">
<path id="Stroke 22" d="M539.98 389.941C544.722 389.941 548.567 393.788 548.567 398.531C548.567 403.275 544.722 407.12 539.98 407.12C535.239 407.12 531.393 403.275 531.393 398.531" stroke="#D2D8DF" stroke-width="2.921" stroke-linecap="round"/>
<path id="Fill 26" fill-rule="evenodd" clip-rule="evenodd" d="M579.278 312.016C584.377 310.425 592.193 304.19 594.002 297.48C595.642 303.411 602.52 310.425 608.725 310.956C601.74 313.429 595.061 320.777 594.002 326.549C593.281 320.666 584.044 312.873 579.278 312.016Z" fill="#EBECEE"/>
<path id="Fill 28" fill-rule="evenodd" clip-rule="evenodd" d="M55.8994 387.297C58.4496 386.502 62.3557 383.385 63.2602 380.03C64.0805 382.994 67.5184 386.502 70.6211 386.768C67.1293 388.003 63.7908 391.678 63.2602 394.564C62.8998 391.622 58.2811 387.725 55.8994 387.297Z" fill="#EBECEE"/>
<path id="Fill 30" fill-rule="evenodd" clip-rule="evenodd" d="M103.224 111.294C103.224 114.974 100.243 117.954 96.5659 117.954C92.8872 117.954 89.9075 114.974 89.9075 111.294C89.9075 107.616 92.8872 104.634 96.5659 104.634C100.243 104.634 103.224 107.616 103.224 111.294Z" fill="#D1D8DF"/>
<path id="Fill 32" fill-rule="evenodd" clip-rule="evenodd" d="M547.847 129.178C547.847 135.326 542.863 140.309 536.719 140.309C530.571 140.309 525.588 135.326 525.588 129.178C525.588 123.03 530.571 118.046 536.719 118.046C542.863 118.046 547.847 123.03 547.847 129.178Z" fill="#EBECEE"/>
<path id="Fill 34" fill-rule="evenodd" clip-rule="evenodd" d="M702 99.0178C702 103.895 698.049 107.848 693.174 107.848C688.297 107.848 684.346 103.895 684.346 99.0178C684.346 94.1401 688.297 90.1875 693.174 90.1875C698.049 90.1875 702 94.1401 702 99.0178Z" fill="#EBECEE"/>
<path id="Stroke 36" fill-rule="evenodd" clip-rule="evenodd" d="M227.665 511.424C227.665 514.499 225.174 516.991 222.1 516.991C219.028 516.991 216.536 514.499 216.536 511.424C216.536 508.349 219.028 505.857 222.1 505.857C225.174 505.857 227.665 508.349 227.665 511.424Z" stroke="#D2D8DF" stroke-width="2.921" stroke-linecap="round"/>
<path id="Stroke 38" fill-rule="evenodd" clip-rule="evenodd" d="M224.354 68.5059C224.354 72.1856 221.373 75.1661 217.696 75.1661C214.019 75.1661 211.037 72.1856 211.037 68.5059C211.037 64.8279 214.019 61.8457 217.696 61.8457C221.373 61.8457 224.354 64.8279 224.354 68.5059Z" stroke="#D2D8DF" stroke-width="2.921" stroke-linecap="round"/>
<path id="Stroke 40" fill-rule="evenodd" clip-rule="evenodd" d="M394.197 573.068C389.943 574.687 385.181 572.549 383.562 568.295C381.943 564.039 384.079 559.274 388.336 557.656C392.589 556.037 397.351 558.174 398.969 562.43C400.59 566.686 398.452 571.449 394.197 573.068Z" stroke="#D2D8DF" stroke-width="2.921" stroke-linecap="round"/>
</g>
</g>
<g id="search">
<g id="documents">
<path id="Fill 1" fill-rule="evenodd" clip-rule="evenodd" d="M391.661 415.659H228.957C217.505 415.659 208.131 406.257 208.131 394.767V162.743C208.131 151.252 217.505 141.855 228.957 141.855H391.661C403.118 141.855 412.492 151.252 412.492 162.743V394.767C412.492 406.257 403.118 415.659 391.661 415.659Z" fill="#E0E2EE"/>
<path id="Fill 3" fill-rule="evenodd" clip-rule="evenodd" d="M377.772 425.579H215.068C203.616 425.579 194.242 416.177 194.242 404.687V172.663C194.242 161.172 203.616 151.775 215.068 151.775H377.772C389.229 151.775 398.603 161.172 398.603 172.663V404.687C398.603 416.177 389.229 425.579 377.772 425.579Z" fill="#E8EBF2"/>
<path id="Fill 5" fill-rule="evenodd" clip-rule="evenodd" d="M364.263 433.41H201.223C189.747 433.41 180.354 424.047 180.354 412.604V181.541C180.354 170.098 189.747 160.74 201.223 160.74H364.263C375.744 160.74 385.137 170.098 385.137 181.541V412.604C385.137 424.047 375.744 433.41 364.263 433.41Z" fill="#D8DBEA"/>
<path id="Fill 8" fill-rule="evenodd" clip-rule="evenodd" d="M364.263 433.41H201.223C189.747 433.41 180.354 424.047 180.354 412.604V181.541C180.354 170.098 189.747 160.74 201.223 160.74H364.263C375.744 160.74 385.137 170.098 385.137 181.541V412.604C385.137 424.047 375.744 433.41 364.263 433.41Z" fill="#F1F2F7"/>
<path id="Fill 11" fill-rule="evenodd" clip-rule="evenodd" d="M340.763 231.139H220.338C216.899 231.139 214.083 228.461 214.083 225.189C214.083 221.913 216.899 219.234 220.338 219.234H340.763C344.202 219.234 347.017 221.913 347.017 225.189C347.017 228.461 344.202 231.139 340.763 231.139Z" fill="#E0E2EE"/>
<path id="Fill 13" fill-rule="evenodd" clip-rule="evenodd" d="M340.763 266.852H220.338C216.899 266.852 214.083 264.174 214.083 260.902C214.083 257.625 216.899 254.947 220.338 254.947H340.763C344.202 254.947 347.017 257.625 347.017 260.902C347.017 264.174 344.202 266.852 340.763 266.852Z" fill="#E0E2EE"/>
<path id="Fill 15" fill-rule="evenodd" clip-rule="evenodd" d="M340.763 302.565H220.338C216.899 302.565 214.083 299.886 214.083 296.615C214.083 293.343 216.899 290.66 220.338 290.66H340.763C344.202 290.66 347.017 293.343 347.017 296.615C347.017 299.886 344.202 302.565 340.763 302.565Z" fill="#E0E2EE"/>
<path id="Fill 17" fill-rule="evenodd" clip-rule="evenodd" d="M340.763 338.278H220.338C216.899 338.278 214.083 335.599 214.083 332.328C214.083 329.051 216.899 326.373 220.338 326.373H340.763C344.202 326.373 347.017 329.051 347.017 332.328C347.017 335.599 344.202 338.278 340.763 338.278Z" fill="#E0E2EE"/>
<path id="Fill 19" fill-rule="evenodd" clip-rule="evenodd" d="M283.198 373.993H220.364C216.911 373.993 214.083 371.315 214.083 368.043C214.083 364.767 216.911 362.089 220.364 362.089H283.198C286.651 362.089 289.479 364.767 289.479 368.043C289.479 371.315 286.651 373.993 283.198 373.993Z" fill="#E0E2EE"/>
</g>
<g id="search_2">
<path id="Fill 21" fill-rule="evenodd" clip-rule="evenodd" d="M410.021 327.837C385.941 351.913 348.662 354.629 321.598 336.041C318.139 333.623 314.847 330.907 311.777 327.837C310.196 326.262 308.707 324.636 307.303 322.925C304.496 319.507 302.036 315.862 300.022 312.096C296.472 305.735 294.059 298.985 292.741 292.008C288.489 270.128 294.846 246.577 311.777 229.655C328.747 212.682 352.302 206.366 374.186 210.577C381.159 211.935 387.915 214.348 394.278 217.856C398.049 219.916 401.644 222.375 405.068 225.182C406.775 226.58 408.4 228.074 409.976 229.655C413.051 232.724 415.808 236.011 418.181 239.474C436.778 266.529 434.056 303.806 410.021 327.837Z" fill="white" fill-opacity="0.1"/>
<path id="Fill 23" fill-rule="evenodd" clip-rule="evenodd" d="M403.283 323.095C378.231 348.152 337.632 348.147 312.575 323.095C287.551 298.071 287.551 257.467 312.608 232.414C337.632 207.39 378.231 207.39 403.255 232.414C428.307 257.467 428.307 298.071 403.283 323.095ZM416.14 219.542C383.984 187.386 331.875 187.386 299.718 219.542C267.566 251.694 267.538 303.836 299.69 335.993C328.956 365.25 374.828 367.888 407.092 343.866C410.243 341.517 413.278 338.883 416.173 335.993C419.063 333.098 421.697 330.063 424.042 326.912C448.064 294.643 445.402 248.804 416.14 219.542Z" fill="#E0E2EE"/>
<path id="Fill 25" fill-rule="evenodd" clip-rule="evenodd" d="M542.691 457.207L541.341 458.557C532.41 467.493 517.784 467.493 508.848 458.557L426.38 376.089L460.223 342.246L542.691 424.714C551.627 433.65 551.627 448.271 542.691 457.207Z" fill="url(#paint0_linear_1367_13288)"/>
<path id="Fill 27" fill-rule="evenodd" clip-rule="evenodd" d="M425.82 324.39L450.189 348.759L432.888 366.055L408.523 341.686C411.739 339.288 414.831 336.601 417.79 333.651C420.739 330.702 423.427 327.605 425.82 324.39Z" fill="#E0E2EE"/>
<path id="Fill 29" fill-rule="evenodd" clip-rule="evenodd" d="M541.457 423.7L507.829 457.323L501.776 451.265L535.399 417.642L541.457 423.7Z" fill="#EF545F"/>
<path id="Fill 31" fill-rule="evenodd" clip-rule="evenodd" d="M462.094 343.412L427.545 377.961L422.412 372.828L456.961 338.279L462.094 343.412Z" fill="url(#paint1_linear_1367_13288)"/>
<path id="Fill 33" fill-rule="evenodd" clip-rule="evenodd" d="M386.699 223.793L301.971 308.516C298.78 302.797 296.611 296.729 295.431 290.457L368.638 217.248C374.907 218.473 380.98 220.638 386.699 223.793Z" fill="white" fill-opacity="0.5"/>
<path id="Fill 35" fill-rule="evenodd" clip-rule="evenodd" d="M414.476 243.932L322.877 330.342C319.596 328.182 316.474 325.752 313.562 323.005C312.064 321.591 310.646 320.141 309.32 318.609L402.035 231.138C403.658 232.394 405.2 233.731 406.694 235.145C409.606 237.892 412.225 240.833 414.476 243.932Z" fill="white" fill-opacity="0.5"/>
</g>
</g>
</g>
<defs>
<linearGradient id="paint0_linear_1367_13288" x1="487.887" y1="280.74" x2="364.874" y2="403.753" gradientUnits="userSpaceOnUse">
<stop stop-color="#FF8960"/>
<stop offset="1" stop-color="#FF62A5"/>
</linearGradient>
<linearGradient id="paint1_linear_1367_13288" x1="442.253" y1="318.438" x2="402.571" y2="358.12" gradientUnits="userSpaceOnUse">
<stop stop-color="#FF404E"/>
<stop offset="1" stop-color="#FF62A5"/>
</linearGradient>
</defs>
</svg>
