<svg width="14" height="16" viewBox="0 0 14 16" fill="none" xmlns="http://www.w3.org/2000/svg">
<path d="M13.023 4.78953L9.08547 0.852031C9.03319 0.799812 8.97114 0.758404 8.90285 0.730173C8.83457 0.701943 8.76139 0.687442 8.6875 0.6875H1.9375C1.63913 0.6875 1.35298 0.806027 1.142 1.017C0.931026 1.22798 0.8125 1.51413 0.8125 1.8125V14.1875C0.8125 14.4859 0.931026 14.772 1.142 14.983C1.35298 15.194 1.63913 15.3125 1.9375 15.3125H12.0625C12.3609 15.3125 12.647 15.194 12.858 14.983C13.069 14.772 13.1875 14.4859 13.1875 14.1875V5.1875C13.1876 5.11361 13.1731 5.04043 13.1448 4.97215C13.1166 4.90386 13.0752 4.84181 13.023 4.78953ZM9.25 2.60773L11.2673 4.625H9.25V2.60773ZM12.0625 14.1875H1.9375V1.8125H8.125V5.1875C8.125 5.33668 8.18426 5.47976 8.28975 5.58525C8.39524 5.69074 8.53832 5.75 8.6875 5.75H12.0625V14.1875ZM9.08547 8.39797L7.79523 9.6875L9.08547 10.977C9.13773 11.0293 9.17919 11.0913 9.20747 11.1596C9.23575 11.2279 9.25031 11.3011 9.25031 11.375C9.25031 11.4489 9.23575 11.5221 9.20747 11.5904C9.17919 11.6587 9.13773 11.7207 9.08547 11.773C9.03321 11.8252 8.97116 11.8667 8.90288 11.895C8.8346 11.9233 8.76141 11.9378 8.6875 11.9378C8.61359 11.9378 8.5404 11.9233 8.47212 11.895C8.40384 11.8667 8.34179 11.8252 8.28953 11.773L7 10.4827L5.71047 11.773C5.65821 11.8252 5.59616 11.8667 5.52788 11.895C5.4596 11.9233 5.38641 11.9378 5.3125 11.9378C5.23859 11.9378 5.1654 11.9233 5.09712 11.895C5.02884 11.8667 4.96679 11.8252 4.91453 11.773C4.86227 11.7207 4.82081 11.6587 4.79253 11.5904C4.76424 11.5221 4.74969 11.4489 4.74969 11.375C4.74969 11.3011 4.76424 11.2279 4.79253 11.1596C4.82081 11.0913 4.86227 11.0293 4.91453 10.977L6.20477 9.6875L4.91453 8.39797C4.80898 8.29242 4.74969 8.14927 4.74969 8C4.74969 7.85073 4.80898 7.70758 4.91453 7.60203C5.02008 7.49648 5.16323 7.43719 5.3125 7.43719C5.46177 7.43719 5.60492 7.49648 5.71047 7.60203L7 8.89227L8.28953 7.60203C8.34179 7.54977 8.40384 7.50831 8.47212 7.48003C8.5404 7.45174 8.61359 7.43719 8.6875 7.43719C8.76141 7.43719 8.8346 7.45174 8.90288 7.48003C8.97116 7.50831 9.03321 7.54977 9.08547 7.60203C9.13773 7.65429 9.17919 7.71634 9.20747 7.78462C9.23575 7.8529 9.25031 7.92609 9.25031 8C9.25031 8.07391 9.23575 8.1471 9.20747 8.21538C9.17919 8.28366 9.13773 8.34571 9.08547 8.39797Z" fill="white"/>
</svg>
