<svg width="41" height="40" viewBox="0 0 41 40" fill="none" xmlns="http://www.w3.org/2000/svg">
<path d="M38.8922 19.4938C38.8375 19.3703 37.514 16.4344 34.5719 13.4922C30.6515 9.57187 25.7 7.5 20.25 7.5C14.8 7.5 9.84842 9.57187 5.92811 13.4922C2.98592 16.4344 1.65624 19.375 1.6078 19.4938C1.53672 19.6536 1.5 19.8266 1.5 20.0016C1.5 20.1765 1.53672 20.3495 1.6078 20.5094C1.66249 20.6328 2.98592 23.5672 5.92811 26.5094C9.84842 30.4281 14.8 32.5 20.25 32.5C25.7 32.5 30.6515 30.4281 34.5719 26.5094C37.514 23.5672 38.8375 20.6328 38.8922 20.5094C38.9632 20.3495 39 20.1765 39 20.0016C39 19.8266 38.9632 19.6536 38.8922 19.4938ZM20.25 30C15.4406 30 11.239 28.2516 7.76092 24.8047C6.33381 23.3855 5.11965 21.7671 4.15623 20C5.11939 18.2327 6.33357 16.6143 7.76092 15.1953C11.239 11.7484 15.4406 10 20.25 10C25.0594 10 29.2609 11.7484 32.739 15.1953C34.1689 16.614 35.3857 18.2324 36.3515 20C35.225 22.1031 30.3172 30 20.25 30ZM20.25 12.5C18.7666 12.5 17.3166 12.9399 16.0832 13.764C14.8498 14.5881 13.8885 15.7594 13.3209 17.1299C12.7532 18.5003 12.6047 20.0083 12.8941 21.4632C13.1835 22.918 13.8978 24.2544 14.9467 25.3033C15.9956 26.3522 17.3319 27.0665 18.7868 27.3559C20.2417 27.6453 21.7497 27.4968 23.1201 26.9291C24.4906 26.3614 25.6619 25.4001 26.486 24.1668C27.3101 22.9334 27.75 21.4834 27.75 20C27.7479 18.0115 26.9571 16.1051 25.551 14.699C24.1449 13.2929 22.2385 12.5021 20.25 12.5ZM20.25 25C19.2611 25 18.2944 24.7068 17.4721 24.1573C16.6499 23.6079 16.009 22.827 15.6306 21.9134C15.2521 20.9998 15.1531 19.9945 15.3461 19.0245C15.539 18.0546 16.0152 17.1637 16.7144 16.4645C17.4137 15.7652 18.3046 15.289 19.2745 15.0961C20.2444 14.9031 21.2498 15.0022 22.1634 15.3806C23.077 15.759 23.8579 16.3999 24.4073 17.2221C24.9567 18.0444 25.25 19.0111 25.25 20C25.25 21.3261 24.7232 22.5979 23.7855 23.5355C22.8478 24.4732 21.5761 25 20.25 25Z" fill="#81219A"/>
</svg>
