<svg width="59" height="56" viewBox="0 0 59 56" fill="none" xmlns="http://www.w3.org/2000/svg">
<g clip-path="url(#clip0_5139_16896)">
<path d="M48.698 19.5004C48.6972 19.2208 48.6905 18.9413 48.6779 18.662V2.81171L44.2778 7.19371C40.6763 2.8039 35.1978 0 29.0611 0C22.6751 0 17.0016 3.03548 13.4155 7.73672L20.628 14.9947C21.3343 13.6954 22.3345 12.5777 23.5497 11.7302C24.809 10.7518 26.593 9.95148 29.0611 9.95148C29.3594 9.95148 29.5896 9.98636 29.7585 10.0515C32.8166 10.2921 35.4672 11.9725 37.0277 14.4117L31.9222 19.4958C38.3889 19.4706 45.6941 19.4559 48.6975 19.4992" fill="#1C3AA9"/>
<path d="M28.9466 0.000732422C28.6659 0.00152565 28.3852 0.00818285 28.1047 0.0206996H12.1881L16.5884 4.4027C12.1803 7.98899 9.36462 13.4449 9.36462 19.5557C9.36462 25.9154 12.4128 31.5652 17.1337 35.1366L24.4221 27.9541C23.1173 27.2508 21.995 26.2546 21.1439 25.0444C20.1614 23.7906 19.3577 22.0138 19.3577 19.556C19.3577 19.2592 19.3928 19.0299 19.4582 18.8615C19.6998 15.8164 21.3873 13.1768 23.8367 11.6228L28.942 16.7069C28.9167 10.2669 28.9017 2.99214 28.9455 0.00119144" fill="#4285F4"/>
<path d="M9.36536 19.5552C9.36628 19.8361 9.37273 20.1154 9.38541 20.3936V36.2439L13.7857 31.8619C17.3871 36.2517 22.8658 39.0556 29.0022 39.0556C35.3885 39.0556 41.062 36.0201 44.6483 31.3188L37.4358 24.0609C36.7295 25.3602 35.7291 26.4779 34.5139 27.3254C33.2548 28.3038 31.4705 29.1041 29.0024 29.1041C28.7045 29.1041 28.4742 29.0692 28.305 29.0038C25.2472 28.7635 22.5966 27.0828 21.0361 24.6438L26.1414 19.5595C19.6745 19.5848 12.3693 19.5997 9.36582 19.5563" fill="#ABABAB"/>
<path d="M12.6788 46.6286C12.2006 46.6286 11.7717 46.7188 11.3923 46.8995C11.0158 47.0738 10.6854 47.3333 10.4273 47.6573C10.1676 47.9857 9.96754 48.3842 9.82742 48.8521C9.69144 49.3162 9.62322 49.8356 9.62322 50.4105V52.0675C9.62322 52.6464 9.69144 53.1678 9.82742 53.6319C9.96754 54.0959 10.1655 54.4921 10.4213 54.8207C10.6769 55.1489 10.986 55.4016 11.349 55.5781C11.7117 55.7548 12.1201 55.8432 12.5737 55.8432C13.0397 55.8432 13.4479 55.7752 13.7984 55.6398C14.1531 55.5044 14.4499 55.3093 14.6889 55.0546C14.9282 54.7959 15.1116 54.484 15.2395 54.1184C15.3716 53.753 15.4497 53.3381 15.4746 52.8743H14.3303C14.3015 53.2314 14.252 53.5375 14.1819 53.7921C14.1118 54.0425 14.0086 54.2499 13.8726 54.414C13.7405 54.5742 13.5675 54.6933 13.3529 54.7714C13.1427 54.8453 12.8827 54.8822 12.5737 54.8822C12.2439 54.8822 11.9634 54.8104 11.7325 54.6665C11.5015 54.5187 11.3139 54.3176 11.1697 54.0629C11.0295 53.8084 10.9263 53.5107 10.8604 53.1699C10.7986 52.829 10.7675 52.4616 10.7675 52.0673V50.3981C10.7675 49.9751 10.8046 49.5911 10.8788 49.2462C10.9572 48.9015 11.0747 48.6077 11.2314 48.3656C11.3882 48.1232 11.5861 47.9364 11.8254 47.8049C12.0643 47.6695 12.349 47.6018 12.6788 47.6018C12.9551 47.6018 13.1923 47.6428 13.39 47.725C13.5856 47.8011 13.7567 47.9288 13.8848 48.0945C14.0169 48.2586 14.1178 48.4682 14.1879 48.7227C14.2582 48.9774 14.3054 49.2811 14.3303 49.6343H15.4746C15.4539 49.1498 15.3778 48.7208 15.2457 48.347C15.1137 47.9733 14.9302 47.6591 14.6951 47.4046C14.4601 47.1499 14.1736 46.9571 13.8355 46.8256C13.5013 46.6943 13.116 46.6286 12.6788 46.6286ZM40.6116 46.6286C40.1331 46.6286 39.7042 46.7188 39.3249 46.8995C38.9484 47.0738 38.6179 47.3333 38.3599 47.6573C38.1002 47.9857 37.9004 48.3842 37.76 48.8521C37.624 49.3162 37.556 49.8356 37.556 50.4105V52.0675C37.556 52.6464 37.624 53.1678 37.76 53.6319C37.9001 54.0959 38.0981 54.4921 38.3539 54.8207C38.6095 55.1489 38.9186 55.4016 39.2816 55.5781C39.6445 55.7548 40.0527 55.8432 40.5063 55.8432C40.9723 55.8432 41.3804 55.7752 41.731 55.6398C42.0857 55.5044 42.3825 55.3093 42.6217 55.0546C42.8607 54.7959 43.0442 54.484 43.1721 54.1184C43.3042 53.753 43.3825 53.3381 43.4072 52.8743H42.2629C42.2341 53.2314 42.1845 53.5375 42.1145 53.7921C42.0444 54.0425 41.9414 54.2499 41.8052 54.414C41.6734 54.5742 41.5 54.6933 41.2857 54.7714C41.0753 54.8453 40.8156 54.8822 40.5063 54.8822C40.1765 54.8822 39.896 54.8104 39.6651 54.6665C39.4341 54.5187 39.2465 54.3176 39.1022 54.0629C38.9621 53.8084 38.8591 53.5107 38.793 53.1699C38.7312 52.829 38.7003 52.4616 38.7003 52.0673V50.3981C38.7003 49.9751 38.7372 49.5911 38.8116 49.2462C38.89 48.9015 39.0075 48.6077 39.1642 48.3656C39.321 48.1232 39.5187 47.9364 39.7579 47.8049C39.9972 47.6695 40.2816 47.6018 40.6114 47.6018C40.8879 47.6018 41.1248 47.6428 41.3228 47.725C41.5206 47.803 41.6856 47.9261 41.8176 48.0945C41.9495 48.2586 42.0504 48.4682 42.1207 48.7227C42.1908 48.9774 42.2382 49.2811 42.2629 49.6343H43.4072C43.3864 49.1498 43.3104 48.7208 43.1783 48.347C43.0463 47.9733 42.8628 47.6591 42.6277 47.4046C42.3927 47.1499 42.1062 46.9571 41.7681 46.8256C41.4339 46.6943 41.0486 46.6284 40.6114 46.6284L40.6116 46.6286ZM19.1985 46.7519L16.2976 55.7199H17.4603L18.1593 53.3792H21.2024L21.9137 55.7199H23.0766L20.1695 46.7519H19.1985ZM24.3011 46.7519V55.7199H25.4329V52.2089H27.1709C27.6039 52.2089 27.9874 52.1492 28.3214 52.0303C28.6556 51.9071 28.9358 51.7306 29.1626 51.5006C29.3935 51.2707 29.5666 50.9872 29.6821 50.6505C29.8019 50.3097 29.8616 49.9239 29.8616 49.4927C29.8616 49.0943 29.8017 48.7289 29.6821 48.3963C29.5668 48.0596 29.3956 47.77 29.1688 47.5279C28.942 47.2814 28.6595 47.0904 28.3214 46.955C27.9872 46.8196 27.6039 46.7517 27.1709 46.7517H24.3011V46.7519ZM30.7275 46.7519V47.725H33.0902V55.7199H34.2218V47.725H36.5911V46.7519H30.7275ZM44.935 46.7519V55.7199H46.0666V51.5745H49.6914V55.7199H50.8294V46.7519H49.6914V50.6076H46.0668V46.7519H44.935ZM55.1217 46.7519L52.221 55.7199H53.3839L54.0827 53.3792H57.1258L57.8373 55.7199H59L56.0929 46.7519H55.1219H55.1217ZM25.4327 47.725H27.1709C27.4472 47.725 27.6821 47.7741 27.8761 47.8728C28.0739 47.9715 28.2347 48.1028 28.3585 48.2671C28.4892 48.4373 28.5838 48.6321 28.6367 48.8397C28.6987 49.0532 28.7295 49.2751 28.7295 49.5051C28.7295 49.7598 28.6987 49.9937 28.6367 50.2074C28.5837 50.4075 28.4889 50.5943 28.3585 50.7554C28.2347 50.9074 28.0739 51.0263 27.8759 51.1125C27.6823 51.1988 27.4472 51.242 27.1707 51.242H25.4329L25.4327 47.725ZM19.6806 48.3286L20.9116 52.4061H18.4562L19.6806 48.3286ZM55.6043 48.3286L56.835 52.4061H54.3796L55.6043 48.3286ZM2.32566 48.9322C2.04103 48.9322 1.79558 49.0041 1.58954 49.148C1.38742 49.2916 1.21849 49.4867 1.08251 49.733L1.06384 49.0555H0V55.7199H1.09473V50.9524C1.19798 50.6689 1.34432 50.4451 1.534 50.281C1.72759 50.1167 1.97304 50.0345 2.26989 50.0345C2.36484 50.0345 2.44942 50.0387 2.5234 50.0469C2.59784 50.0511 2.67828 50.0612 2.7647 50.0777L2.75871 49.0183C2.73284 49.007 2.70579 48.9987 2.67805 48.9935C2.64192 48.9803 2.60477 48.97 2.56696 48.9627C2.52399 48.9543 2.4806 48.9482 2.43698 48.9444C2.40037 48.9366 2.36308 48.9325 2.32566 48.932V48.9322ZM6.00578 48.9322C5.6882 48.9322 5.38121 48.9878 5.08414 49.0986C4.7873 49.2095 4.52341 49.3922 4.29248 49.6467C4.0657 49.8973 3.88225 50.2257 3.74212 50.6322C3.60177 51.0347 3.5317 51.5296 3.5317 52.1166V52.8681C3.5317 53.3773 3.59163 53.8187 3.71124 54.1923C3.83062 54.566 4.00163 54.8763 4.22449 55.1225C4.452 55.3653 4.73393 55.551 5.04727 55.6646C5.36877 55.7837 5.72945 55.8432 6.12955 55.8432C6.41809 55.8432 6.67576 55.8145 6.90277 55.7569C7.1337 55.6995 7.33766 55.6256 7.51513 55.5352C7.68105 55.4488 7.83492 55.3411 7.97284 55.215C8.09428 55.1031 8.20407 54.9793 8.30056 54.8455L7.73154 54.1556C7.64073 54.2665 7.54393 54.369 7.44091 54.4634C7.33766 54.5538 7.22427 54.6339 7.10074 54.7037C6.97147 54.7715 6.83431 54.8232 6.69235 54.8577C6.52831 54.8964 6.36013 54.9151 6.19154 54.9132C5.68428 54.9132 5.29456 54.7509 5.02238 54.4266C4.75434 54.1021 4.62044 53.5827 4.62044 52.8683V52.7141H8.35634V52.0797C8.35634 51.5706 8.31301 51.1208 8.22635 50.7309C8.1397 50.3407 8.00164 50.0123 7.81197 49.7454C7.62737 49.4827 7.37529 49.2742 7.08207 49.1418C6.78523 49.002 6.42639 48.9322 6.00578 48.9322ZM6.00578 49.8686C6.24501 49.8686 6.44298 49.9115 6.5997 49.9978C6.75473 50.0825 6.88317 50.2082 6.97076 50.3611C7.06548 50.5172 7.1337 50.704 7.17495 50.9218C7.22013 51.1353 7.24916 51.3714 7.26138 51.6301V51.7779H4.62643C4.64302 51.4043 4.68843 51.0942 4.76241 50.8477C4.83685 50.6014 4.93364 50.4064 5.05326 50.2627C5.17702 50.1149 5.31922 50.0123 5.48009 49.9547C5.64898 49.8958 5.82686 49.8666 6.00578 49.8684V49.8686Z" fill="#A6A6A6"/>
</g>
<defs>
<clipPath id="clip0_5139_16896">
<rect width="59" height="56" fill="white"/>
</clipPath>
</defs>
</svg>
