<svg width="18" height="18" viewBox="0 0 18 18" fill="none" xmlns="http://www.w3.org/2000/svg">
<path d="M10.5 14.25C10.5 13.0565 10.0259 11.9119 9.18198 11.068C8.33807 10.2241 7.19347 9.75 6 9.75C4.80653 9.75 3.66193 10.2241 2.81802 11.068C1.97411 11.9119 1.5 13.0565 1.5 14.25" stroke="#5E217C" stroke-width="1.5" stroke-linecap="round" stroke-linejoin="round"/>
<path d="M6 9.75C7.65685 9.75 9 8.40685 9 6.75C9 5.09315 7.65685 3.75 6 3.75C4.34315 3.75 3 5.09315 3 6.75C3 8.40685 4.34315 9.75 6 9.75Z" stroke="#5E217C" stroke-width="1.5" stroke-linecap="round" stroke-linejoin="round"/>
<path d="M12.75 6L16.5 9.75M16.5 6L12.75 9.75" stroke="#5E217C" stroke-width="1.5" stroke-linecap="round" stroke-linejoin="round"/>
</svg>
