<svg width="24" height="24" viewBox="0 0 24 24" fill="none" xmlns="http://www.w3.org/2000/svg">
<path d="M12.7506 7.49936V11.5747L16.1368 13.6062C16.3074 13.7087 16.4303 13.8747 16.4784 14.0677C16.5266 14.2608 16.4961 14.465 16.3937 14.6356C16.2912 14.8062 16.1252 14.9291 15.9322 14.9772C15.7392 15.0254 15.5349 14.9949 15.3643 14.8925L11.6143 12.6425C11.5033 12.5758 11.4115 12.4815 11.3477 12.3688C11.284 12.2561 11.2505 12.1288 11.2506 11.9994V7.49936C11.2506 7.30045 11.3296 7.10968 11.4702 6.96903C11.6109 6.82838 11.8016 6.74936 12.0006 6.74936C12.1995 6.74936 12.3902 6.82838 12.5309 6.96903C12.6715 7.10968 12.7506 7.30045 12.7506 7.49936ZM21.0006 5.24936C20.8016 5.24936 20.6109 5.32838 20.4702 5.46903C20.3296 5.60968 20.2506 5.80045 20.2506 5.99936V7.68686C19.6552 6.99686 19.0477 6.33217 18.3643 5.6403C17.1135 4.3894 15.5219 3.53482 13.7882 3.18335C12.0545 2.83188 10.2557 2.9991 8.61655 3.66411C6.97737 4.32913 5.5705 5.46245 4.57175 6.92246C3.573 8.38248 3.02664 10.1044 3.00095 11.8732C2.97526 13.642 3.47137 15.3791 4.42731 16.8675C5.38324 18.3559 6.75659 19.5296 8.37577 20.2419C9.99494 20.9543 11.7881 21.1737 13.5313 20.8727C15.2744 20.5717 16.8902 19.7637 18.1768 18.5497C18.2485 18.482 18.3061 18.4008 18.3464 18.3108C18.3866 18.2208 18.4088 18.1238 18.4116 18.0253C18.4144 17.9267 18.3977 17.8286 18.3626 17.7365C18.3275 17.6444 18.2745 17.5601 18.2068 17.4884C18.1391 17.4168 18.0579 17.3592 17.968 17.3189C17.878 17.2786 17.7809 17.2564 17.6824 17.2536C17.5839 17.2508 17.4857 17.2675 17.3936 17.3026C17.3015 17.3378 17.2172 17.3907 17.1456 17.4584C16.0731 18.4691 14.7267 19.1415 13.2744 19.3915C11.8221 19.6416 10.3283 19.4582 8.97957 18.8644C7.63085 18.2706 6.48695 17.2926 5.69073 16.0526C4.89451 14.8125 4.48124 13.3654 4.50254 11.8919C4.52384 10.4184 4.97877 8.98378 5.8105 7.76727C6.64224 6.55077 7.81393 5.60624 9.17925 5.05165C10.5446 4.49706 12.043 4.35699 13.4875 4.64891C14.9319 4.94084 16.2584 5.65184 17.3012 6.69311C18.0643 7.46561 18.7327 8.20999 19.4068 8.99936H17.2506C17.0516 8.99936 16.8609 9.07838 16.7202 9.21903C16.5796 9.35968 16.5006 9.55045 16.5006 9.74936C16.5006 9.94827 16.5796 10.139 16.7202 10.2797C16.8609 10.4203 17.0516 10.4994 17.2506 10.4994H21.0006C21.1995 10.4994 21.3902 10.4203 21.5309 10.2797C21.6715 10.139 21.7506 9.94827 21.7506 9.74936V5.99936C21.7506 5.80045 21.6715 5.60968 21.5309 5.46903C21.3902 5.32838 21.1995 5.24936 21.0006 5.24936Z" fill="white"/>
</svg>
