<svg width="32" height="32" viewBox="0 0 32 32" fill="none" xmlns="http://www.w3.org/2000/svg">
<path d="M17.0007 9.9998V15.4335L21.5157 18.1423C21.7432 18.2789 21.907 18.5002 21.9713 18.7576C22.0355 19.015 21.9948 19.2874 21.8582 19.5148C21.7217 19.7422 21.5003 19.9061 21.2429 19.9703C20.9855 20.0345 20.7132 19.9939 20.4857 19.8573L15.4857 16.8573C15.3378 16.7684 15.2153 16.6427 15.1303 16.4924C15.0453 16.3421 15.0007 16.1724 15.0007 15.9998V9.9998C15.0007 9.73458 15.1061 9.48023 15.2936 9.29269C15.4812 9.10516 15.7355 8.9998 16.0007 8.9998C16.266 8.9998 16.5203 9.10516 16.7079 9.29269C16.8954 9.48023 17.0007 9.73458 17.0007 9.9998ZM28.0007 6.9998C27.7355 6.9998 27.4812 7.10516 27.2936 7.29269C27.1061 7.48023 27.0007 7.73458 27.0007 7.9998V10.2498C26.207 9.3298 25.397 8.44355 24.4857 7.52105C22.8181 5.85318 20.6959 4.71375 18.3843 4.24512C16.0727 3.77649 13.6743 3.99945 11.4887 4.88613C9.30316 5.77282 7.42734 7.28391 6.09567 9.2306C4.76399 11.1773 4.03552 13.4732 4.00127 15.8316C3.96701 18.1899 4.6285 20.5061 5.90307 22.4906C7.17765 24.4752 9.00879 26.0401 11.1677 26.9899C13.3266 27.9397 15.7175 28.2322 18.0417 27.8309C20.3659 27.4296 22.5203 26.3523 24.2357 24.7335C24.3313 24.6433 24.4081 24.535 24.4618 24.4151C24.5155 24.2951 24.5451 24.1657 24.5488 24.0343C24.5525 23.9029 24.5303 23.7721 24.4835 23.6493C24.4366 23.5265 24.366 23.4141 24.2757 23.3185C24.1855 23.223 24.0772 23.1462 23.9573 23.0925C23.8373 23.0388 23.7079 23.0092 23.5765 23.0055C23.4451 23.0018 23.3143 23.024 23.1915 23.0708C23.0687 23.1177 22.9563 23.1883 22.8607 23.2785C21.4308 24.6261 19.6355 25.5226 17.6992 25.856C15.7628 26.1894 13.7711 25.945 11.9728 25.1532C10.1745 24.3614 8.64927 23.0574 7.58764 21.4041C6.52601 19.7507 5.97499 17.8212 6.00339 15.8565C6.03179 13.8918 6.63836 11.979 7.74734 10.357C8.85632 8.73501 10.4186 7.47564 12.239 6.73619C14.0594 5.99674 16.0574 5.80997 17.9833 6.1992C19.9093 6.58844 21.6779 7.53643 23.0682 8.9248C24.0857 9.9548 24.977 10.9473 25.8757 11.9998H23.0007C22.7355 11.9998 22.4812 12.1052 22.2936 12.2927C22.1061 12.4802 22.0007 12.7346 22.0007 12.9998C22.0007 13.265 22.1061 13.5194 22.2936 13.7069C22.4812 13.8944 22.7355 13.9998 23.0007 13.9998H28.0007C28.266 13.9998 28.5203 13.8944 28.7079 13.7069C28.8954 13.5194 29.0007 13.265 29.0007 12.9998V7.9998C29.0007 7.73458 28.8954 7.48023 28.7079 7.29269C28.5203 7.10516 28.266 6.9998 28.0007 6.9998Z" fill="#FF8E3C"/>
</svg>
