<svg width="34" height="34" viewBox="0 0 34 34" fill="none" xmlns="http://www.w3.org/2000/svg">
<rect x="0.5" y="0.5" width="33" height="33" rx="6.5" stroke="#A9AAB5"/>
<path d="M26 11H19.5003L16.8997 9.05C16.6397 8.85599 16.3241 8.7508 15.9997 8.75H11.75C11.3522 8.75 10.9706 8.90804 10.6893 9.18934C10.408 9.47064 10.25 9.85218 10.25 10.25V11.75H8.75C8.35218 11.75 7.97064 11.908 7.68934 12.1893C7.40804 12.4706 7.25 12.8522 7.25 13.25V23.75C7.25 24.1478 7.40804 24.5294 7.68934 24.8107C7.97064 25.092 8.35218 25.25 8.75 25.25H23.0834C23.459 25.2495 23.819 25.1001 24.0846 24.8346C24.3501 24.569 24.4995 24.209 24.5 23.8334V22.25H26.0834C26.459 22.2495 26.819 22.1001 27.0846 21.8346C27.3501 21.569 27.4995 21.209 27.5 20.8334V12.5C27.5 12.1022 27.342 11.7206 27.0607 11.4393C26.7794 11.158 26.3978 11 26 11ZM23 23.75H8.75V13.25H12.9997L15.6003 15.2C15.8603 15.394 16.1759 15.4992 16.5003 15.5H23V23.75ZM26 20.75H24.5V15.5C24.5 15.1022 24.342 14.7206 24.0607 14.4393C23.7794 14.158 23.3978 14 23 14H16.5003L13.8997 12.05C13.6397 11.856 13.3241 11.7508 12.9997 11.75H11.75V10.25H15.9997L18.6003 12.2C18.8603 12.394 19.1759 12.4992 19.5003 12.5H26V20.75Z" fill="#81219A"/>
</svg>
