<svg width="24" height="24" viewBox="0 0 24 24" fill="none" xmlns="http://www.w3.org/2000/svg">
<path d="M4 2V8H2V2H4ZM2 22V16H4V22H2ZM5 12C5 13.11 4.11 14 3 14C2.60444 14 2.21776 13.8827 1.88886 13.6629C1.55996 13.4432 1.30362 13.1308 1.15224 12.7654C1.00087 12.3999 0.96126 11.9978 1.03843 11.6098C1.1156 11.2219 1.30608 10.8655 1.58579 10.5858C1.86549 10.3061 2.22186 10.1156 2.60982 10.0384C2.99778 9.96126 3.39992 10.0009 3.76537 10.1522C4.13082 10.3036 4.44318 10.56 4.66294 10.8889C4.8827 11.2178 5 11.6044 5 12ZM16 4C20.42 4 24 7.58 24 12C24 16.42 20.42 20 16 20C12.4 20 9.36 17.62 8.35 14.35L6 12L8.35 9.65C9.36 6.38 12.4 4 16 4ZM16 6C12.69 6 10 8.69 10 12C10 15.31 12.69 18 16 18C19.31 18 22 15.31 22 12C22 8.69 19.31 6 16 6ZM15 13V8H16.5V12.2L19.5 14L18.68 15.26L15 13Z" fill="#7AAAA4"/>
</svg>
