<svg width="20" height="20" viewBox="0 0 20 20" fill="none" xmlns="http://www.w3.org/2000/svg">
<path d="M2.93484 2.92379C4.62692 1.23411 6.86829 0.206757 9.25261 0.027995C11.6369 -0.150767 14.0064 0.53089 15.9314 1.94939C17.8564 3.36789 19.2095 5.42933 19.7455 7.75999C20.2815 10.0907 19.9648 12.5363 18.8529 14.6535L19.571 17.3358C19.6538 17.6442 19.6539 17.969 19.5713 18.2775C19.4887 18.5859 19.3264 18.8672 19.1006 19.093C18.8749 19.3188 18.5937 19.4812 18.2853 19.5638C17.9769 19.6464 17.6521 19.6463 17.3438 19.5635L14.662 18.8452C13.2286 19.6059 11.6302 20.0024 10.0075 20C9.50251 19.9998 8.99818 19.9634 8.49842 19.8909C6.66908 19.613 4.95269 18.8329 3.54023 17.6374C2.12777 16.4419 1.07463 14.8778 0.497997 13.1193C-0.07864 11.3607 -0.15616 9.47664 0.274061 7.67665C0.704281 5.87665 1.62537 4.23135 2.93484 2.92379ZM9.09842 14.5443C9.09842 14.7855 9.19419 15.0168 9.36468 15.1873C9.53517 15.3578 9.76639 15.4536 10.0075 15.4536C10.2486 15.4536 10.4798 15.3578 10.6503 15.1873C10.8208 15.0168 10.9166 14.7855 10.9166 14.5443V9.99796C10.9166 9.7568 10.8208 9.52553 10.6503 9.355C10.4798 9.18448 10.2486 9.08868 10.0075 9.08868C9.76639 9.08868 9.53517 9.18448 9.36468 9.355C9.19419 9.52553 9.09842 9.7568 9.09842 9.99796V14.5443ZM10.0075 7.27013C10.2772 7.27013 10.5408 7.19014 10.7651 7.04027C10.9893 6.8904 11.1641 6.67739 11.2673 6.42816C11.3705 6.17894 11.3975 5.9047 11.3449 5.64013C11.2923 5.37556 11.1624 5.13253 10.9717 4.94178C10.781 4.75104 10.538 4.62114 10.2735 4.56851C10.009 4.51588 9.73483 4.54289 9.48566 4.64612C9.23649 4.74936 9.02352 4.92417 8.87369 5.14847C8.72385 5.37276 8.64388 5.63646 8.64388 5.90622C8.64388 6.26795 8.78754 6.61487 9.04327 6.87065C9.299 7.12643 9.64584 7.27013 10.0075 7.27013Z" fill="#FF3263"/>
</svg>
