<svg width="36" height="30" viewBox="0 0 36 30" fill="none" xmlns="http://www.w3.org/2000/svg">
<path d="M2.43987 30C1.79449 29.9974 1.17641 29.7279 0.720945 29.2507C0.265485 28.7735 0.00976069 28.1273 0.00976563 27.4538V5.3167C0.028434 4.75792 0.258523 4.22964 0.649637 3.84757C1.04075 3.46549 1.56101 3.26076 2.09646 3.27822H4.09014C4.48242 3.28636 4.86904 3.1797 5.20623 2.97031C5.54341 2.76092 5.81768 2.45717 5.99797 2.09346L6.42485 1.18498C6.60424 0.823191 6.87664 0.520708 7.21151 0.311445C7.54638 0.102182 7.93049 -0.00558569 8.32076 0.00022301H17.786C18.1417 -0.00458881 18.4928 0.0840817 18.807 0.258066C19.1213 0.43205 19.3885 0.685755 19.5841 0.995818L20.0492 1.76491C20.2444 2.07478 20.5112 2.32839 20.8251 2.50238C21.1389 2.67636 21.4896 2.76513 21.8449 2.76051H33.9119C34.448 2.74239 34.9689 2.94724 35.3603 3.32999C35.7516 3.71273 35.9812 4.24204 35.9986 4.80148V27.4513C35.9986 28.1266 35.7416 28.7742 35.2841 29.2517C34.8266 29.7292 34.206 29.9975 33.559 29.9975L2.43987 30Z" fill="#A7B4BE"/>
<g opacity="0.3">
<path d="M2.44182 30C1.79644 29.9974 1.17836 29.7279 0.722898 29.2507C0.267438 28.7735 0.0117138 28.1273 0.0117188 27.4538V5.3167C0.0303871 4.75792 0.260477 4.22964 0.65159 3.84757C1.0427 3.46549 1.56296 3.26076 2.09841 3.27822H4.09209C4.48437 3.28636 4.871 3.1797 5.20818 2.97031C5.54537 2.76092 5.81964 2.45717 5.99993 2.09346L6.4268 1.18498C6.60619 0.823191 6.87859 0.520708 7.21346 0.311445C7.54834 0.102182 7.93244 -0.00558569 8.32271 0.00022301H17.7879C18.1436 -0.00458881 18.4947 0.0840817 18.809 0.258066C19.1232 0.43205 19.3904 0.685755 19.5861 0.995818L20.0511 1.76491C20.2464 2.07478 20.5132 2.32839 20.827 2.50238C21.1408 2.67636 21.4915 2.76513 21.8469 2.76051H33.9139C34.4499 2.74239 34.9709 2.94724 35.3622 3.32999C35.7535 3.71273 35.9832 4.24204 36.0006 4.80148V27.4513C36.0006 28.1266 35.7436 28.7742 35.286 29.2517C34.8285 29.7292 34.208 29.9975 33.5609 29.9975L2.44182 30Z" fill="black"/>
</g>
<path d="M20.6332 2.77296L12.9542 2.75554L12.2697 1.41646C12.037 0.981745 11.6961 0.620687 11.2831 0.371411C10.8701 0.122135 10.4002 -0.00610818 9.92311 0.000223611H2.41818C1.08269 0.000223611 0 1.05804 0 2.36476V27.3144C0 28.8078 1.23055 30 2.74728 30H33.2297C34.7488 30 35.9769 28.7978 35.9769 27.3144V4.60734C35.9769 4.12083 35.7918 3.65425 35.4622 3.31024C35.1325 2.96622 34.6855 2.77296 34.2194 2.77296H20.6332Z" fill="#A7B4BE"/>
<path d="M24.5032 21.6783H21.1049C21.0416 21.6783 20.981 21.652 20.9363 21.6054C20.8915 21.5587 20.8664 21.4954 20.8664 21.4294C20.8664 21.3634 20.8915 21.3 20.9363 21.2534C20.981 21.2067 21.0416 21.1805 21.1049 21.1805H24.5032C25.3845 21.1823 26.2316 20.8247 26.8639 20.184C27.4961 19.5433 27.8636 18.6701 27.8878 17.7507C27.9121 16.8313 27.5913 15.9383 26.9937 15.2622C26.3962 14.5862 25.5693 14.1805 24.6892 14.1317C24.6384 14.1291 24.5896 14.1096 24.5501 14.076C24.5106 14.0424 24.4825 13.9965 24.4698 13.945C24.2188 12.9331 23.703 12.0141 22.9803 11.2906C22.2575 10.5671 21.3561 10.0677 20.377 9.8482C19.3979 9.62869 18.3795 9.69772 17.4358 10.0476C16.4921 10.3974 15.6603 11.0144 15.0332 11.8293C15.0077 11.8629 14.9743 11.889 14.9363 11.9051C14.8983 11.9212 14.8569 11.9269 14.8162 11.9214C14.6454 11.8984 14.4733 11.8868 14.3011 11.8866C13.1384 11.9147 12.0324 12.4165 11.2196 13.2846C10.4068 14.1528 9.95173 15.3185 9.95173 16.5323C9.95173 17.7461 10.4068 18.9117 11.2196 19.7799C12.0324 20.6481 13.1384 21.1499 14.3011 21.178H17.0555C17.1188 21.178 17.1794 21.2042 17.2242 21.2509C17.2689 21.2976 17.294 21.3609 17.294 21.4269C17.294 21.4929 17.2689 21.5562 17.2242 21.6029C17.1794 21.6496 17.1188 21.6758 17.0555 21.6758H14.2892C12.9812 21.6758 11.7268 21.1335 10.8019 20.1682C9.87702 19.2029 9.35742 17.8937 9.35742 16.5286C9.35742 15.1634 9.87702 13.8542 10.8019 12.8889C11.7268 11.9236 12.9812 11.3813 14.2892 11.3813C14.4358 11.3814 14.5822 11.3897 14.728 11.4062C15.4128 10.5519 16.3076 9.9082 17.3162 9.54413C18.3249 9.18006 19.4094 9.10933 20.4537 9.33953C21.4979 9.56973 22.4624 10.0922 23.2439 10.8509C24.0253 11.6096 24.5942 12.5759 24.8896 13.6463C25.8802 13.7425 26.7969 14.2343 27.4484 15.0191C28.0999 15.8038 28.4358 16.8209 28.3859 17.858C28.3361 18.895 27.9044 19.8719 27.1809 20.5847C26.4574 21.2975 25.4981 21.691 24.5032 21.6832V21.6783Z" fill="white"/>
<path d="M19.01 23.9496C18.9467 23.9496 18.8861 23.9234 18.8413 23.8767C18.7966 23.8301 18.7715 23.7667 18.7715 23.7007V17.2294C18.7715 17.1634 18.7966 17.1 18.8413 17.0534C18.8861 17.0067 18.9467 16.9805 19.01 16.9805C19.0732 16.9805 19.1339 17.0067 19.1786 17.0534C19.2233 17.1 19.2484 17.1634 19.2484 17.2294V23.7007C19.2484 23.7667 19.2233 23.8301 19.1786 23.8767C19.1339 23.9234 19.0732 23.9496 19.01 23.9496Z" fill="white"/>
<path d="M20.8226 19.8037C20.7852 19.8041 20.7482 19.7953 20.7146 19.778C20.6811 19.7607 20.6519 19.7354 20.6294 19.7041L19.0507 17.4939C19.0449 17.4867 19.0376 17.4809 19.0293 17.477C19.0211 17.4731 19.0121 17.4712 19.003 17.4715C18.9944 17.4718 18.9859 17.4739 18.9781 17.4777C18.9703 17.4816 18.9633 17.4871 18.9577 17.4939L17.2883 19.6419C17.2482 19.6937 17.1899 19.7268 17.1264 19.7338C17.0629 19.7408 16.9994 19.7212 16.9497 19.6793C16.9001 19.6373 16.8684 19.5766 16.8617 19.5103C16.855 19.444 16.8738 19.3776 16.9139 19.3258L18.5833 17.1778C18.6358 17.1122 18.7014 17.0595 18.7756 17.0234C18.8498 16.9873 18.9307 16.9686 19.0125 16.9688C19.094 16.97 19.1742 16.9906 19.2469 17.029C19.3196 17.0673 19.383 17.1225 19.4323 17.1903L21.0158 19.403C21.0348 19.4294 21.0486 19.4594 21.0564 19.4914C21.0642 19.5234 21.0658 19.5567 21.0612 19.5894C21.0565 19.6221 21.0457 19.6534 21.0293 19.6817C21.0129 19.7099 20.9913 19.7345 20.9657 19.7539C20.9244 19.7862 20.8742 19.8037 20.8226 19.8037Z" fill="white"/>
</svg>
