<svg width="48" height="48" viewBox="0 0 48 48" fill="none" xmlns="http://www.w3.org/2000/svg">
<path d="M22.001 29.65V36C22.001 36.5667 22.193 37.042 22.577 37.426C22.961 37.81 23.4356 38.0013 24.001 38C24.5676 38 25.043 37.808 25.427 37.424C25.811 37.04 26.0023 36.5653 26.001 36V29.65L27.801 31.45C28.001 31.65 28.2263 31.8 28.477 31.9C28.7276 32 28.9776 32.042 29.227 32.026C29.4763 32.0087 29.7176 31.95 29.951 31.85C30.1843 31.75 30.401 31.6 30.601 31.4C30.9676 31 31.1596 30.5333 31.177 30C31.1943 29.4667 31.0023 29 30.601 28.6L25.401 23.4C25.201 23.2 24.9843 23.0587 24.751 22.976C24.5176 22.8933 24.2676 22.8513 24.001 22.85C23.7343 22.85 23.4843 22.892 23.251 22.976C23.0176 23.06 22.801 23.2013 22.601 23.4L17.401 28.6C17.001 29 16.8096 29.4667 16.827 30C16.8443 30.5333 17.0523 31 17.451 31.4C17.851 31.7667 18.3176 31.9587 18.851 31.976C19.3843 31.9933 19.851 31.8013 20.251 31.4L22.001 29.65ZM12.001 44C10.901 44 9.95898 43.608 9.17498 42.824C8.39098 42.04 7.99965 41.0987 8.00098 40V8C8.00098 6.9 8.39298 5.958 9.17698 5.174C9.96098 4.39 10.9023 3.99867 12.001 4H26.351C26.8843 4 27.393 4.1 27.877 4.3C28.361 4.5 28.7856 4.78334 29.151 5.15L38.851 14.85C39.2176 15.2167 39.501 15.642 39.701 16.126C39.901 16.61 40.001 17.118 40.001 17.65V40C40.001 41.1 39.609 42.042 38.825 42.826C38.041 43.61 37.0996 44.0013 36.001 44H12.001ZM26.001 16V8H12.001V40H36.001V18H28.001C27.4343 18 26.959 17.808 26.575 17.424C26.191 17.04 25.9996 16.5653 26.001 16Z" fill="#9B86BA"/>
</svg>
