<svg width="27" height="30" viewBox="0 0 27 30" fill="none" xmlns="http://www.w3.org/2000/svg">
<path d="M13.5 3C12.1076 3 10.7723 3.55312 9.78769 4.53769C8.80312 5.52226 8.25 6.85761 8.25 8.25C8.25 9.64239 8.80312 10.9777 9.78769 11.9623C10.7723 12.9469 12.1076 13.5 13.5 13.5C14.8924 13.5 16.2277 12.9469 17.2123 11.9623C18.1969 10.9777 18.75 9.64239 18.75 8.25C18.75 6.85761 18.1969 5.52226 17.2123 4.53769C16.2277 3.55312 14.8924 3 13.5 3ZM5.25 8.25C5.25 6.06196 6.11919 3.96354 7.66637 2.41637C9.21354 0.869194 11.312 0 13.5 0C15.688 0 17.7865 0.869194 19.3336 2.41637C20.8808 3.96354 21.75 6.06196 21.75 8.25C21.75 10.438 20.8808 12.5365 19.3336 14.0836C17.7865 15.6308 15.688 16.5 13.5 16.5C11.312 16.5 9.21354 15.6308 7.66637 14.0836C6.11919 12.5365 5.25 10.438 5.25 8.25ZM0 25.5C0 23.5109 0.790176 21.6032 2.1967 20.1967C3.60322 18.7902 5.51088 18 7.5 18H19.5C21.4891 18 23.3968 18.7902 24.8033 20.1967C26.2098 21.6032 27 23.5109 27 25.5V30H0V25.5ZM7.5 21C6.30653 21 5.16193 21.4741 4.31802 22.318C3.47411 23.1619 3 24.3065 3 25.5V27H24V25.5C24 24.3065 23.5259 23.1619 22.682 22.318C21.8381 21.4741 20.6935 21 19.5 21H7.5Z" fill="#FF8E3C"/>
</svg>
