<svg width="60" height="60" viewBox="0 0 60 60" fill="none" xmlns="http://www.w3.org/2000/svg">
<path d="M30 15C29.2044 15 28.4413 15.3161 27.8787 15.8787C27.3161 16.4413 27 17.2044 27 18V30C27 30.7956 27.3161 31.5587 27.8787 32.1213C28.4413 32.6839 29.2044 33 30 33C30.7957 33 31.5587 32.6839 32.1213 32.1213C32.6839 31.5587 33 30.7956 33 30V18C33 17.2044 32.6839 16.4413 32.1213 15.8787C31.5587 15.3161 30.7957 15 30 15ZM32.76 40.86C32.6944 40.6688 32.6036 40.4872 32.49 40.32L32.13 39.87C31.7081 39.4537 31.1724 39.1717 30.5905 39.0596C30.0085 38.9475 29.4063 39.0103 28.86 39.24C28.4965 39.3919 28.1616 39.605 27.87 39.87C27.592 40.1503 27.372 40.4828 27.2227 40.8483C27.0734 41.2138 26.9977 41.6052 27 42C27.0048 42.392 27.0863 42.7793 27.24 43.14C27.3748 43.5123 27.5897 43.8504 27.8697 44.1303C28.1496 44.4103 28.4877 44.6253 28.86 44.76C29.2191 44.9187 29.6074 45.0007 30 45.0007C30.3926 45.0007 30.7809 44.9187 31.14 44.76C31.5123 44.6253 31.8504 44.4103 32.1304 44.1303C32.4103 43.8504 32.6253 43.5123 32.76 43.14C32.9137 42.7793 32.9953 42.392 33 42C33.0147 41.8003 33.0147 41.5997 33 41.4C32.9484 41.2087 32.8674 41.0265 32.76 40.86ZM30 0C24.0666 0 18.2664 1.75947 13.3329 5.05591C8.39943 8.35235 4.55426 13.0377 2.28363 18.5195C0.0129985 24.0013 -0.581102 30.0333 0.576455 35.8527C1.73401 41.6721 4.59124 47.0176 8.78681 51.2132C12.9824 55.4088 18.3279 58.266 24.1473 59.4236C29.9667 60.5811 35.9987 59.987 41.4805 57.7164C46.9623 55.4458 51.6477 51.6006 54.9441 46.6671C58.2405 41.7336 60 35.9334 60 30C60 26.0603 59.224 22.1593 57.7164 18.5195C56.2088 14.8797 53.999 11.5726 51.2132 8.7868C48.4275 6.00104 45.1203 3.79126 41.4805 2.28361C37.8408 0.775973 33.9397 0 30 0ZM30 54C25.2533 54 20.6131 52.5924 16.6663 49.9553C12.7195 47.3181 9.64341 43.5698 7.82691 39.1844C6.0104 34.799 5.53512 29.9734 6.46117 25.3178C7.38721 20.6623 9.67299 16.3859 13.0295 13.0294C16.3859 9.67298 20.6623 7.3872 25.3179 6.46115C29.9734 5.53511 34.799 6.01039 39.1844 7.82689C43.5698 9.6434 47.3181 12.7195 49.9553 16.6663C52.5924 20.6131 54 25.2532 54 30C54 36.3652 51.4715 42.4697 46.9706 46.9706C42.4697 51.4714 36.3652 54 30 54Z" fill="#F16F55"/>
</svg>
