<svg width="47" height="47" viewBox="0 0 47 47" fill="none" xmlns="http://www.w3.org/2000/svg">
<path d="M43.3778 18.3853C42.612 17.585 41.8198 16.7603 41.5213 16.0352C41.245 15.3709 41.2287 14.27 41.2125 13.2036C41.182 11.2211 41.1495 8.97453 39.5875 7.4125C38.0255 5.85047 35.7789 5.81797 33.7964 5.7875C32.73 5.77125 31.6291 5.755 30.9648 5.47875C30.2417 5.18016 29.415 4.38797 28.6147 3.62219C27.2131 2.27547 25.6206 0.75 23.5 0.75C21.3794 0.75 19.7889 2.27547 18.3853 3.62219C17.585 4.38797 16.7603 5.18016 16.0352 5.47875C15.375 5.755 14.27 5.77125 13.2036 5.7875C11.2211 5.81797 8.97453 5.85047 7.4125 7.4125C5.85047 8.97453 5.82812 11.2211 5.7875 13.2036C5.77125 14.27 5.755 15.3709 5.47875 16.0352C5.18016 16.7583 4.38797 17.585 3.62219 18.3853C2.27547 19.7869 0.75 21.3794 0.75 23.5C0.75 25.6206 2.27547 27.2111 3.62219 28.6147C4.38797 29.415 5.18016 30.2397 5.47875 30.9648C5.755 31.6291 5.77125 32.73 5.7875 33.7964C5.81797 35.7789 5.85047 38.0255 7.4125 39.5875C8.97453 41.1495 11.2211 41.182 13.2036 41.2125C14.27 41.2287 15.3709 41.245 16.0352 41.5213C16.7583 41.8198 17.585 42.612 18.3853 43.3778C19.7869 44.7245 21.3794 46.25 23.5 46.25C25.6206 46.25 27.2111 44.7245 28.6147 43.3778C29.415 42.612 30.2397 41.8198 30.9648 41.5213C31.6291 41.245 32.73 41.2287 33.7964 41.2125C35.7789 41.182 38.0255 41.1495 39.5875 39.5875C41.1495 38.0255 41.182 35.7789 41.2125 33.7964C41.2287 32.73 41.245 31.6291 41.5213 30.9648C41.8198 30.2417 42.612 29.415 43.3778 28.6147C44.7245 27.2131 46.25 25.6206 46.25 23.5C46.25 21.3794 44.7245 19.7889 43.3778 18.3853ZM41.0317 26.3661C40.0588 27.3817 39.0512 28.4319 38.517 29.7217C38.0052 30.9608 37.9828 32.3766 37.9625 33.7477C37.9422 35.1695 37.9198 36.6584 37.2881 37.2881C36.6564 37.9178 35.1777 37.9422 33.7477 37.9625C32.3766 37.9828 30.9608 38.0052 29.7217 38.517C28.4319 39.0512 27.3817 40.0588 26.3661 41.0317C25.3505 42.0047 24.3125 43 23.5 43C22.6875 43 21.6414 42.0006 20.6339 41.0317C19.6264 40.0628 18.5681 39.0512 17.2783 38.517C16.0392 38.0052 14.6234 37.9828 13.2523 37.9625C11.8305 37.9422 10.3416 37.9198 9.71187 37.2881C9.08219 36.6564 9.05781 35.1777 9.0375 33.7477C9.01719 32.3766 8.99484 30.9608 8.48297 29.7217C7.94875 28.4319 6.94125 27.3817 5.96828 26.3661C4.99531 25.3505 4 24.3125 4 23.5C4 22.6875 4.99937 21.6414 5.96828 20.6339C6.93719 19.6264 7.94875 18.5681 8.48297 17.2783C8.99484 16.0392 9.01719 14.6234 9.0375 13.2523C9.05781 11.8305 9.08016 10.3416 9.71187 9.71187C10.3436 9.08219 11.8223 9.05781 13.2523 9.0375C14.6234 9.01719 16.0392 8.99484 17.2783 8.48297C18.5681 7.94875 19.6183 6.94125 20.6339 5.96828C21.6495 4.99531 22.6875 4 23.5 4C24.3125 4 25.3586 4.99937 26.3661 5.96828C27.3736 6.93719 28.4319 7.94875 29.7217 8.48297C30.9608 8.99484 32.3766 9.01719 33.7477 9.0375C35.1695 9.05781 36.6584 9.08016 37.2881 9.71187C37.9178 10.3436 37.9422 11.8223 37.9625 13.2523C37.9828 14.6234 38.0052 16.0392 38.517 17.2783C39.0512 18.5681 40.0588 19.6183 41.0317 20.6339C42.0047 21.6495 43 22.6875 43 23.5C43 24.3125 42.0006 25.3586 41.0317 26.3661ZM21.875 25.125V13.75C21.875 13.319 22.0462 12.9057 22.351 12.601C22.6557 12.2962 23.069 12.125 23.5 12.125C23.931 12.125 24.3443 12.2962 24.649 12.601C24.9538 12.9057 25.125 13.319 25.125 13.75V25.125C25.125 25.556 24.9538 25.9693 24.649 26.274C24.3443 26.5788 23.931 26.75 23.5 26.75C23.069 26.75 22.6557 26.5788 22.351 26.274C22.0462 25.9693 21.875 25.556 21.875 25.125ZM25.9375 32.4375C25.9375 32.9196 25.7945 33.3909 25.5267 33.7917C25.2589 34.1925 24.8782 34.505 24.4328 34.6895C23.9874 34.8739 23.4973 34.9222 23.0245 34.8282C22.5516 34.7341 22.1173 34.502 21.7764 34.1611C21.4355 33.8202 21.2034 33.3859 21.1093 32.913C21.0153 32.4402 21.0636 31.9501 21.248 31.5047C21.4325 31.0593 21.745 30.6786 22.1458 30.4108C22.5466 30.143 23.0179 30 23.5 30C24.1465 30 24.7665 30.2568 25.2236 30.7139C25.6807 31.171 25.9375 31.791 25.9375 32.4375Z" fill="#FF8E3C"/>
</svg>
